<svg width="250" height="250" viewBox="0 0 250 250" fill="none" xmlns="http://www.w3.org/2000/svg">
<path fill-rule="evenodd" clip-rule="evenodd" d="M165.916 185.071C116.966 185.071 85.0001 138.486 85.0001 89.7378C85.0001 45.7399 121.736 11 165.916 11C205.275 11 228.417 50.5415 228.417 89.7378C228.417 134.2 210.563 185.071 165.916 185.071Z" fill="#FFFDFA"/>
<path fill-rule="evenodd" clip-rule="evenodd" d="M45.2129 128.007C41.0875 141.869 28.7152 154.53 32.3989 168.539C36.0894 182.575 52.264 188.699 63.5848 197.876C75.1169 207.225 84.5311 222.973 99.3886 222.844C114.392 222.714 124.17 207.426 135.108 197.254C143.384 189.558 147.927 179.476 155.261 170.888C164.684 159.853 184.201 154.136 184.307 139.641C184.412 125.386 166.051 118.672 155.717 108.751C147.391 100.756 139.72 92.6428 129.579 87.0966C118.29 80.9224 106.632 74.4257 93.773 74.8719C79.9166 75.3527 65.1836 79.4698 55.8762 89.654C46.7248 99.6676 49.0762 115.026 45.2129 128.007Z" fill="#FBEDD0"/>
<g clip-path="url(#clip0_64_670)">
<path fill-rule="evenodd" clip-rule="evenodd" d="M149.275 73.3046L150.686 73.268C155.69 73.2139 160.884 73.184 165.696 74.756C167.84 75.4555 171.957 77.2039 173.416 79.6193C173.79 79.9262 174.156 80.2456 174.507 80.5916C174.967 80.5816 175.409 80.8694 175.361 81.4583L175.356 81.5215C175.553 81.8642 175.533 82.3009 175.271 82.5953C174.559 91.318 171.036 175.454 171.06 178.732C171.73 187.803 172.128 196.936 171.835 205.968C171.793 207.256 171.615 208.434 171.264 209.504C171.261 209.581 171.26 209.657 171.257 209.734C171.125 212.816 169.876 214.58 168.023 215.677C161.071 221.806 151.274 223.152 142.274 223.31C136.372 223.414 130.454 222.861 124.672 221.682C121.005 220.934 117.161 220.023 114.357 217.528C111.214 216.757 108.347 215.763 107.883 212.081C107.237 206.951 107.43 201.57 107.172 196.402C106.906 191.091 106.61 185.78 106.283 180.471C105.618 169.675 104.842 158.885 103.902 148.109C103.729 146.132 103.547 144.155 103.359 142.18C102.77 136.833 102.186 131.486 101.621 126.137C101.192 122.646 100.73 119.159 100.22 115.678C98.9032 106.684 97.4776 97.6684 97.8519 88.5798C97.7521 87.526 97.6439 86.4721 97.5449 85.4183C97.2314 85.1164 97.253 84.7438 97.4526 84.4535L97.4368 84.2921C97.4052 83.9511 97.5408 83.7141 97.7487 83.5743C97.8078 83.3922 97.9359 83.225 98.1554 83.1035C100.808 81.6372 103.54 80.3978 106.341 79.3756L106.509 81.5124C104.357 82.4722 102.501 83.8213 101.861 85.9024C102.002 86.0837 102.179 86.2559 102.377 86.4222C103.86 87.1742 105.418 87.7481 107.035 88.134L107.226 90.2816C105.64 89.8732 103.351 89.1895 101.685 88.0799C101.025 87.7464 100.38 87.3813 99.7491 86.9878C99.7133 87.5376 99.6892 88.0866 99.6668 88.6364C100.848 101.055 102.097 113.468 103.407 125.873C104.069 131.236 104.641 136.61 105.152 141.989C106.227 151.745 107.326 161.497 108.479 171.244C108.725 171.382 108.918 171.623 108.955 171.97C109.612 178.145 109.956 184.343 109.919 190.553C109.901 193.657 109.793 196.759 109.595 199.856C109.525 200.957 109.388 202.101 109.301 203.248C109.349 204.311 109.403 205.375 109.448 206.438C109.464 206.817 109.477 207.198 109.489 207.577L109.521 207.74C110.97 213.546 119.364 214.484 124.237 215.513C126.256 215.939 128.289 216.305 130.331 216.606C135.676 217.004 141.034 217.208 146.402 217.207C146.602 217.207 146.771 217.275 146.907 217.381C150.65 217.142 154.371 216.597 158.008 215.663C160.789 214.949 163.858 214.139 166.35 212.681C167.399 212.068 168.144 211.36 168.681 210.574C168.594 204.864 168.639 199.155 168.81 193.448C168.759 193.342 168.721 193.226 168.714 193.088C166.9 156.671 169.667 120.277 172.666 83.9993C172.55 84.0526 172.436 84.1075 172.321 84.1624C170.866 85.2437 168.688 85.934 166.827 86.3856C161.164 88.2995 155.172 89.3143 149.147 89.9015L149.066 89.0531L148.989 87.7165C154.237 87.0028 159.458 86.1037 164.633 85.0116C165.098 84.9134 165.603 84.8136 166.121 84.7022C167.65 84.1881 169.155 83.6068 170.63 82.9455C170.707 82.8848 170.794 82.8324 170.867 82.7667C171.941 81.811 172.006 81.1506 171.529 80.4569C167.322 77.4143 161.876 76.6782 156.694 76.3755L148.952 76.0669L149.08 74.4399L149.275 73.3046Z" fill="#653C1C"/>
<path fill-rule="evenodd" clip-rule="evenodd" d="M142.274 221.499C136.92 221.589 131.558 221.152 126.296 220.16C124.659 219.85 122.952 219.535 121.307 219.064C121.392 219.082 121.472 219.104 121.559 219.12C121.806 219.166 122.016 219.127 122.187 219.039C125.402 219.494 128.642 219.76 131.894 219.846C132.018 219.849 132.124 219.826 132.221 219.792C134.179 219.904 136.141 219.94 138.114 219.888C138.347 219.883 138.541 219.784 138.69 219.637C145.834 219.532 152.957 218.938 160.013 217.794C160.795 217.668 161.575 217.547 162.339 217.417C156.315 220.615 149.027 221.386 142.274 221.499Z" fill="#653C1C"/>
<path fill-rule="evenodd" clip-rule="evenodd" d="M149.066 89.0531L149.147 89.9015C146.358 90.2226 143.559 90.4263 140.784 90.5952C135.59 91.1641 130.384 91.5742 125.178 91.7921C119.334 92.0358 113.389 91.9102 107.699 90.423L107.226 90.2816L107.035 88.134C110.264 89.0672 113.693 89.3883 117.075 89.4881C123.477 89.6769 129.919 89.4041 136.311 89.0365C137.629 88.9599 138.959 88.8826 140.294 88.8011C143.198 88.4933 146.098 88.1398 148.989 87.7165L149.066 89.0531Z" fill="#653C1C"/>
<path fill-rule="evenodd" clip-rule="evenodd" d="M149.147 89.9015C150.676 108.258 155.795 130.824 154.583 130.925C152.376 131.109 116.808 130.873 114.593 130.925C111.2 131.005 108.786 108.889 107.226 90.2824L107.699 90.423C113.389 91.9102 119.335 92.0358 125.178 91.7921C130.384 91.5742 135.59 91.1641 140.784 90.5952C143.559 90.4263 146.358 90.2234 149.147 89.9015ZM106.728 68.9404C106.654 68.972 106.581 69.0036 106.509 69.0369L106.341 66.9001C112.253 64.666 118.447 63.3318 124.738 62.5683C126.87 62.2414 129.01 61.9678 131.152 61.7465C137.172 61.1268 143.226 60.8948 149.275 60.8282L149.08 61.9636L148.952 63.5913C148.669 63.5814 148.385 63.5722 148.103 63.5639C148.385 63.5722 148.669 63.5814 148.952 63.5913L148.74 66.2696C148.746 67.9123 149.27 69.5542 149.275 71.1969L148.989 87.7173C146.098 88.1398 143.198 88.4933 140.294 88.8011C138.959 88.8826 137.629 88.9599 136.311 89.0365C129.919 89.4041 123.477 89.6769 117.075 89.4881C113.693 89.3891 110.264 89.0681 107.035 88.134L106.972 87.4204L106.509 69.0369C106.581 69.0036 106.654 68.972 106.728 68.9404ZM106.97 68.8372C106.933 68.853 106.896 68.868 106.859 68.8838C106.896 68.868 106.933 68.853 106.97 68.8372ZM107.302 68.7025C107.256 68.7208 107.209 68.7399 107.163 68.7582L107.213 68.7383C107.242 68.7258 107.272 68.7141 107.302 68.7025ZM118.193 65.6208C116.396 66.0234 114.611 66.4775 112.843 66.9899C112.503 67.0889 112.143 67.1887 111.768 67.2927C112.143 67.1887 112.503 67.0889 112.843 66.9899C114.55 66.495 116.273 66.0542 118.007 65.6632L118.193 65.6208ZM147.751 63.5539L147.88 63.5572L147.751 63.5539L147.6 63.5498L147.751 63.5539ZM142.431 63.4732C143.746 63.4766 145.061 63.4915 146.377 63.5198C145.061 63.4915 143.746 63.4766 142.431 63.4732ZM141.059 63.4749C140.888 63.4749 140.716 63.4757 140.544 63.4774L140.716 63.4766C140.773 63.4757 140.83 63.4757 140.888 63.4757L141.059 63.4749ZM141.653 63.4732C141.458 63.4732 141.262 63.4741 141.067 63.4749C141.262 63.4741 141.458 63.4732 141.653 63.4732ZM142.096 63.4732C141.979 63.4732 141.862 63.4732 141.745 63.4732H141.917C141.977 63.4732 142.036 63.4732 142.096 63.4732ZM123.052 64.6626C123.615 64.5653 124.179 64.473 124.743 64.384C125.565 64.2834 126.389 64.1919 127.213 64.1095L127.419 64.0887C126.525 64.1769 125.633 64.275 124.743 64.384C124.116 64.4822 123.49 64.5861 122.864 64.6951L123.052 64.6626ZM132.795 63.687C134.521 63.5955 136.248 63.5373 137.974 63.5073C138.772 63.494 139.57 63.484 140.369 63.4782C139.57 63.484 138.772 63.494 137.974 63.5073C136.179 63.5389 134.382 63.6005 132.587 63.6986L132.795 63.687Z" fill="#B6C6BE"/>
<path d="M163.112 138.859C156.737 133.396 149.492 129.768 141.62 130.885C140.332 131.067 139.782 129.099 141.077 128.915C149.758 127.685 157.549 131.409 164.555 137.415C165.555 138.271 164.105 139.71 163.112 138.859ZM138.623 211.937C133.326 211.923 124.936 210.747 121.322 206.013C123.303 206.758 125.461 207.134 127.583 207.376C132.928 207.989 138.437 208.582 143.821 208.495C148.439 208.42 153.308 207.657 157.302 205.202C157.505 205.21 157.71 205.205 157.914 205.169L158.071 205.136C153.728 210.306 144.89 211.953 138.623 211.937ZM111.553 138.932C110.41 138.281 111.439 136.517 112.583 137.169C119.196 140.934 126.364 142.943 133.959 143.323C141.567 143.704 148.731 141.522 156.17 140.386C157.457 140.189 158.008 142.157 156.713 142.355C148.719 143.576 141.102 145.866 132.92 145.302C125.33 144.78 118.168 142.699 111.553 138.932ZM168.344 138.138C168.335 137.982 167.935 135.642 167.097 134.511C166.206 133.307 164.843 133.298 163.793 132.848C155.32 129.211 146.876 125.237 137.81 125.883C128.174 126.57 116.612 128.161 108.926 134.511C108.084 135.037 107.583 135.976 107.319 137.113C106.489 140.682 107.729 145.275 108.123 148.841C108.16 149.174 108.201 149.507 108.238 149.84C108.068 152.513 108.265 155.204 108.893 157.849C109.038 158.461 109.215 159.064 109.407 159.663C109.703 162.029 110.005 164.395 110.307 166.761C110.234 167.187 110.253 167.667 110.399 168.198C110.46 168.421 110.517 168.645 110.579 168.868C110.825 170.785 113.817 193.916 113.896 196.273C113.946 197.748 113.842 199.343 114.44 200.729C114.91 201.819 115.735 202.54 116.708 203.067C117.246 203.629 117.83 204.121 118.453 204.547C121.114 211.558 131.002 213.523 137.616 213.731C145.287 213.972 155.938 211.878 160.464 204.981C160.615 204.751 160.64 204.525 160.587 204.326C161.698 203.973 162.73 203.504 163.503 202.817C165.825 200.754 165.169 184.906 165.237 180.016C165.33 173.225 165.461 166.413 166.266 159.663C167.122 152.48 168.764 145.415 168.344 138.138Z" fill="#442916"/>
<path d="M164.36 119.742C164.366 119.824 164.402 119.891 164.45 119.953C164.289 123.298 164.248 126.643 164.329 129.989C163.824 130.449 163.125 130.864 162.14 131.223C159.8 132.078 156.918 132.552 154.306 132.971C150.891 133.518 147.397 133.837 143.883 133.977C143.755 133.915 143.596 133.875 143.408 133.875C138.368 133.876 133.336 133.756 128.317 133.523C126.4 133.347 124.491 133.132 122.594 132.882C118.019 132.279 110.137 131.73 108.775 128.328L108.746 128.232C108.734 128.01 108.722 127.787 108.707 127.565C108.665 126.942 108.614 126.319 108.569 125.696C108.651 125.023 108.779 124.353 108.846 123.708C109.032 121.894 109.132 120.076 109.149 118.257C109.184 114.619 108.861 110.987 108.244 107.368C108.209 107.165 108.028 107.024 107.797 106.943C106.715 101.232 105.682 95.5175 104.673 89.8011C104.193 86.6488 103.656 83.5003 103.035 80.3578C101.805 73.0886 100.631 65.8155 99.5223 58.5386C99.5434 58.2164 99.5661 57.8948 99.5996 57.5726C100.192 57.8031 100.798 58.0171 101.418 58.2125C103.148 58.9314 105.593 59.3457 107.065 59.5855C112.408 60.4569 117.991 60.5305 123.479 60.3877C128.366 60.26 133.256 60.0197 138.133 59.6863C146.359 59.3734 154.805 58.8612 162.588 57.2197C164.335 56.9551 166.381 56.5506 167.747 55.917C167.855 55.8848 167.962 55.8527 168.071 55.8215C165.255 77.0787 162.657 98.4037 164.36 119.742ZM158.373 133.998C155.423 134.976 121.388 135.239 119.844 134.963C119.923 134.974 119.998 134.987 120.079 134.996C120.311 135.023 120.509 135 120.67 134.949C123.689 135.215 149.563 134.889 156.19 134.219C156.924 134.145 157.656 134.074 158.373 133.998ZM111.895 53.1653C115.56 52.502 119.3 52.0063 123.07 51.6384C127.185 51.3221 131.345 51.1695 135.494 51.1247C141.347 51.0613 147.229 51.1417 153.072 51.3542C157.938 51.5316 163.053 51.963 167.003 53.7458C167.452 54.1522 167.39 54.5392 166.382 55.0992C166.313 55.1377 166.232 55.1684 166.159 55.204C164.774 55.5914 163.36 55.9321 161.925 56.2333C161.438 56.2986 160.964 56.3571 160.528 56.4146C152.989 57.4074 145.342 58.1277 137.673 58.6351C136.419 58.6829 135.17 58.7282 133.932 58.773C127.931 58.9884 121.881 59.1483 115.869 59.0377C111.123 58.9504 106.28 58.5737 102.067 57.2412C101.881 57.1437 101.715 57.0428 101.583 56.9366C102.776 54.5153 108.473 53.7847 111.895 53.1653ZM166.563 111.331C166.54 109.41 169.849 60.1099 170.517 54.9988C170.763 54.8263 170.782 54.5704 170.597 54.3696L170.602 54.3326C170.647 53.9875 170.232 53.8189 169.8 53.8247C169.471 53.622 169.126 53.4348 168.775 53.255C167.405 51.8397 163.539 50.8152 161.526 50.4053C157.007 49.4842 152.13 49.5017 147.431 49.5334C141.309 49.5739 135.181 49.7015 129.088 50.0929C127.076 50.2225 125.067 50.3829 123.065 50.5744C114.37 51.2329 105.872 52.616 98.1031 55.2966C97.8969 55.3677 97.7766 55.4657 97.7212 55.5724C97.5259 55.6543 97.3986 55.7932 97.4283 55.993L97.4432 56.0876C97.2557 56.2577 97.2354 56.476 97.5298 56.6529C97.6228 57.2704 97.7243 57.8879 97.8181 58.5054C97.4666 63.831 98.8053 69.1136 100.042 74.3835C100.52 76.4232 100.955 78.4668 101.358 80.5123C101.888 83.6466 102.436 86.7799 102.989 89.9127C103.166 91.0702 103.337 92.2282 103.499 93.3867C104.382 99.7011 105.111 106.024 105.736 112.349C106.043 115.46 106.321 118.572 106.57 121.685C106.813 124.713 106.631 127.865 107.237 130.871C107.673 133.029 110.366 133.611 113.317 134.063C115.95 135.525 157.183 136.57 163.711 132.979C165.451 132.336 166.624 131.302 166.748 129.496C166.751 129.451 166.752 129.406 166.754 129.362C167.084 128.735 167.252 128.044 167.291 127.29C167.566 121.997 167.192 116.646 166.563 111.331Z" fill="#2D635E"/>
<path d="M131.387 36.9226L131.44 36.9762L131.441 36.9789L131.385 36.9806L131.387 36.9226ZM140.923 29.9516L140.92 29.881C140.926 29.6633 140.93 29.4521 140.938 29.2803C140.945 29.1429 140.946 29.0078 140.949 28.8727C140.965 29.0997 140.971 29.3295 140.959 29.5631C140.953 29.6928 140.938 29.8219 140.923 29.9516ZM145.034 40.0664C144.859 40.0232 144.683 39.9767 144.515 39.9247C144.71 39.9138 144.908 39.9116 145.108 39.9154C145.392 39.9794 145.684 40.0527 145.976 40.131C145.663 40.102 145.349 40.0806 145.034 40.0664ZM138.09 40.6677L138.105 40.5446L138.185 40.6611L138.09 40.6677ZM136.536 40.0057L136.572 40.0073L136.57 40.0144L136.536 40.0057ZM129.509 37.972L129.497 37.9331C129.623 37.9233 129.749 37.9129 129.875 37.9041C129.753 37.9266 129.63 37.9479 129.509 37.972ZM140.294 26.8176C140.239 26.6568 140.186 26.4965 140.124 26.3394C140.224 26.5019 140.315 26.6688 140.398 26.8395L140.294 26.8176ZM130.667 32.7348L130.705 32.8065C130.651 32.8257 130.61 32.8634 130.566 32.8979C130.611 32.8503 130.645 32.7967 130.667 32.7348ZM130.166 27.014L130.176 26.9582L130.177 26.9468L130.276 26.8352C130.24 26.8948 130.199 26.9489 130.166 27.014ZM133.023 34.5448L133.101 34.6181C133.136 34.7937 133.161 34.9611 133.163 35.1045L133.139 35.0903C132.964 34.8003 132.839 34.4391 132.732 34.1027C132.813 34.258 132.904 34.4085 133.023 34.5448ZM134.589 24.4524L134.618 24.4409L134.589 24.4524ZM134.467 24.5153L134.466 24.506L134.494 24.494L134.467 24.5153ZM136.037 34.3762C136.044 34.4632 136.053 34.5469 136.064 34.6312L136.056 34.6389C135.985 34.5825 135.914 34.5234 135.843 34.4643C135.913 34.4424 135.974 34.408 136.037 34.3762ZM134.725 35.0946L134.716 35.082C134.652 35.0038 134.572 34.9469 134.486 34.9102C134.583 34.8659 134.675 34.8123 134.762 34.745C134.878 34.8539 134.999 34.9595 135.12 35.0607C134.971 35.0777 134.834 35.0875 134.725 35.0946ZM133.952 35.0197L133.919 35.0558L133.915 35.0175L133.952 35.0197ZM135.451 29.2972C135.335 29.0888 135.186 28.8546 135.009 28.6139C135.246 28.6702 135.395 28.8967 135.451 29.2972ZM135.421 25.8443C135.472 25.8968 135.527 25.9472 135.58 25.9986C135.496 25.9696 135.411 25.9439 135.324 25.9247L135.421 25.8443ZM123.178 38.8436C123.497 39.0334 123.816 39.226 124.135 39.4241C124.336 39.5488 124.535 39.6719 124.737 39.7967C124.793 39.8317 124.849 39.8667 124.906 39.9017L124.908 39.9006L125.053 39.9887L125.051 39.9898L125.064 39.9969H125.064L125.072 40.0018L125.176 40.0637C125.354 40.1714 125.533 40.2776 125.713 40.3821L125.776 40.4198L125.779 40.4193C125.952 40.5194 126.126 40.6179 126.301 40.7131L126.323 40.7251H126.323C126.678 40.9166 127.037 41.0994 127.402 41.2591C127.793 41.3368 128.186 41.3998 128.578 41.4572H128.58C129.086 41.5311 129.588 41.5902 130.081 41.6339L130.112 41.6367C130.169 41.6416 130.224 41.6454 130.281 41.6498C130.498 41.6678 130.714 41.6837 130.926 41.6968L130.968 41.699C131.234 41.7144 131.495 41.7264 131.751 41.7346L131.779 41.7357C132.041 41.7439 132.296 41.7488 132.545 41.7505H132.548C132.766 41.7516 132.979 41.751 133.185 41.7483C133.362 41.7461 133.536 41.7428 133.702 41.7373C134.389 41.7144 135.097 41.6936 135.817 41.6701L135.894 41.6679V41.6673C135.95 41.6651 136.009 41.6624 136.065 41.6602L136.064 41.6613C136.383 41.6509 136.705 41.6388 137.028 41.6257L137.029 41.6224L137.102 41.6197V41.623C137.267 41.6159 137.434 41.6077 137.599 41.6006C137.715 41.5951 137.827 41.5907 137.943 41.5847L138.015 41.5814V41.5803C139.394 41.5114 140.797 41.4096 142.188 41.2302C142.797 41.0934 143.4 40.9364 143.999 40.7667L144.002 40.7673L144.028 40.7591C144.288 40.6852 144.543 40.5993 144.802 40.5194C145.116 40.422 145.431 40.3323 145.742 40.2273L145.729 40.224C145.82 40.1939 145.912 40.1687 146.003 40.1375H146.003L146.01 40.1348L146.014 40.1337H146.013C146.72 39.8875 147.419 39.6238 148.102 39.3305L148.072 39.3245C148.292 39.2304 148.517 39.1428 148.734 39.0433C147.296 38.6745 145.846 38.3534 144.408 38.0595C143.223 37.8183 142.037 37.6251 140.851 37.4604C140.513 36.4367 140.324 35.3901 140.661 34.3401C140.946 33.451 141.282 32.6063 141.522 31.6991C141.924 30.1792 142.123 28.6286 141.587 27.1076C140.593 24.2822 137.987 22.4909 135.011 22.9904C132.243 23.4555 129.218 25.0892 128.169 27.832C127.566 29.4077 128.035 30.7909 128.626 32.2928C128.941 33.0905 129.358 33.8395 129.82 34.5601C130.341 35.3742 130.595 36.1249 130.646 37.0134C129.242 37.0905 127.835 37.2202 126.426 37.4156C125.034 37.6082 123.598 37.897 122.187 38.2718C122.276 38.3211 122.368 38.3719 122.452 38.419C122.695 38.5525 122.937 38.6991 123.178 38.8436Z" fill="#2D635E"/>
<path d="M121.933 40.729C121.986 40.7131 122.04 40.6967 122.093 40.6803C122.114 40.8089 122.181 40.9298 122.28 41.008C122.156 41.072 122.032 41.1355 121.909 41.2017C121.918 41.0441 121.929 40.8871 121.933 40.729ZM142.278 47.8926C142.139 47.9752 141.999 48.0594 141.86 48.1453L141.818 48.1431C141.663 48.17 141.51 48.2033 141.357 48.2345C141.57 48.0414 141.785 47.851 141.996 47.6557C142.144 47.6688 142.291 47.6835 142.438 47.695C142.381 47.7558 142.329 47.8236 142.278 47.8926ZM168.839 54.9259L168.795 54.9347C168.797 54.6704 168.708 54.382 168.569 54.1183L168.699 54.039C168.852 54.3613 168.926 54.6616 168.839 54.9259ZM120.24 47.0943C120.541 46.8935 120.839 46.6872 121.138 46.482C120.986 46.6467 120.83 46.807 120.681 46.9755C120.534 47.0144 120.387 47.0549 120.24 47.0943ZM139.426 47.4521C139.238 47.5807 139.051 47.7076 138.865 47.8307L138.853 47.8247C139.009 47.7016 139.158 47.5697 139.31 47.4412L139.426 47.4521ZM157.927 43.6293L157.85 43.5554C158.102 43.6824 158.356 43.8077 158.61 43.9335C158.384 43.8246 158.158 43.7163 157.927 43.6293ZM159.645 44.4981C159.415 44.3553 159.178 44.224 158.939 44.0971C159.177 44.2153 159.415 44.3356 159.651 44.4582L159.645 44.4981ZM101.975 54.0199L101.979 54.1397L101.971 54.1747L101.84 54.2185L101.854 54.1846C101.894 54.1293 101.933 54.0735 101.975 54.0199ZM115.369 42.8507L115.387 42.8836L115.299 42.9448L115.278 42.9454L115.369 42.8507ZM158.364 46.7042L158.332 46.6429L158.374 46.6708L158.391 46.7266L158.364 46.7042ZM159.905 48.002L159.82 47.9194C159.718 47.6704 159.623 47.4198 159.537 47.166L159.664 47.1938C159.747 47.2983 159.832 47.41 159.918 47.5271C159.87 47.6026 159.845 47.6917 159.859 47.7902C159.869 47.8619 159.89 47.9314 159.905 48.002ZM131.709 47.7815L131.779 47.7131L131.778 47.7224L131.709 47.7815ZM131.105 48.2985L131.072 48.2547C131.255 48.1398 131.43 48.0135 131.598 47.8767C131.431 48.0146 131.269 48.1568 131.105 48.2985ZM139.532 54.3104C139.453 54.3279 139.375 54.3454 139.296 54.3624C139.467 54.1731 139.643 53.9876 139.823 53.8065C139.927 53.7999 140.033 53.7944 140.137 53.7873C140.226 53.7813 140.317 53.7748 140.406 53.7682C140.117 53.9531 139.825 54.1326 139.532 54.3104ZM141.4 56.1592L141.256 56.233C141.215 56.1591 141.148 56.0995 141.056 56.0579C141.501 55.8774 141.943 55.6897 142.385 55.501L142.431 55.612C142.089 55.7975 141.745 55.9802 141.4 56.1592ZM145.665 57.707C145.767 57.6851 145.87 57.6638 145.971 57.6408L146.114 57.6599C146.053 57.6829 145.993 57.7081 145.932 57.731C145.793 57.7836 145.655 57.8355 145.517 57.8881L145.539 57.8733C145.597 57.8279 145.635 57.7693 145.665 57.707ZM160.068 51.1967C159.924 50.684 159.721 50.1998 159.442 49.8234C159.437 49.7418 159.437 49.6631 159.435 49.5826C159.624 49.9689 159.774 50.3754 159.906 50.6758C159.968 50.817 160.059 50.9997 160.156 51.2005L160.068 51.1967ZM163.513 51.5058C163.556 51.7422 163.583 51.9752 163.583 52.199L163.486 52.1377C163.455 51.973 163.421 51.8078 163.383 51.6442C163.435 51.6059 163.479 51.5594 163.513 51.5058ZM161.348 54.5057C161.32 54.573 161.291 54.6387 161.27 54.7109L161.266 54.7388L161.166 54.7262L161.235 54.6222L161.348 54.5057ZM158.128 54.8356L158.255 54.7497C158.243 54.8181 158.237 54.8865 158.24 54.9538L158.121 55.0003C158.13 54.9445 158.136 54.8893 158.128 54.8356ZM157.621 51.0478V51.0429C157.682 50.9811 157.729 50.904 157.784 50.8361C157.787 50.9237 157.779 51.0112 157.785 51.0987L157.727 51.0998L157.681 51.1086L157.621 51.0478ZM128.087 57.7294C127.843 57.6473 127.599 57.5718 127.351 57.504L127.384 57.4947C127.63 57.5171 127.876 57.5259 128.121 57.5428C128.097 57.6014 128.086 57.6649 128.087 57.7294ZM110.595 52.164L110.605 52.1487L110.618 52.1722L110.595 52.164ZM117.472 46.3288C117.511 46.2227 117.558 46.1199 117.587 46.0115C117.672 46.0438 117.767 46.0509 117.868 46.017C117.932 45.9956 117.997 45.9727 118.062 45.9491L118.094 46.0044C117.881 46.1034 117.674 46.2123 117.472 46.3288ZM116.446 48.2143C116.634 48.0605 116.826 47.9128 117.021 47.7694C116.948 47.8783 116.879 47.9877 116.807 48.0966C116.686 48.1355 116.566 48.1743 116.446 48.2143ZM118.2 51.1622C118.098 51.2596 117.997 51.3559 117.895 51.4522L117.782 51.4845C117.934 51.3942 118.07 51.2826 118.189 51.1458L118.2 51.1622ZM128.962 53.1253C129.387 53.0372 129.811 52.9437 130.235 52.8452C130.136 52.9136 130.036 52.9809 129.936 53.0492C129.612 53.075 129.287 53.1007 128.962 53.1253ZM138.866 55.8686C139.328 55.6591 139.785 55.4402 140.234 55.2027C140.185 55.3007 140.143 55.3997 140.107 55.4998C139.798 55.6224 139.484 55.7362 139.173 55.856C139.07 55.8582 138.968 55.8621 138.866 55.8686ZM136.722 58.5906L136.709 58.4959C136.996 58.4308 137.282 58.3646 137.57 58.3061L137.589 58.3088C137.3 58.4051 137.01 58.4959 136.722 58.5906ZM103.626 54.8181L103.684 54.9461L103.542 54.9336L103.626 54.8181ZM113.825 49.163L113.784 49.2078C113.711 49.2418 113.638 49.2735 113.567 49.3102C113.536 49.1909 113.551 49.0672 113.588 48.943C113.637 48.8358 113.684 48.7269 113.735 48.6197L113.74 48.6115C113.745 48.7931 113.767 48.9769 113.825 49.163ZM123.357 52.9962L123.428 53.0252L123.431 53.0284C123.322 53.041 123.213 53.0553 123.104 53.069L123.149 53.0443C123.218 53.0279 123.287 53.0121 123.357 52.9962ZM119.288 53.575C119.281 53.5253 119.281 53.481 119.276 53.4333L119.361 53.4224C119.43 53.4071 119.494 53.3841 119.561 53.366C119.538 53.4202 119.526 53.4755 119.529 53.5307C119.449 53.5471 119.369 53.5614 119.288 53.575ZM121.831 55.4227L121.788 55.4638C121.533 55.5644 121.281 55.6695 121.037 55.7816C120.912 55.7461 120.772 55.7253 120.626 55.7127L120.681 55.6651C121.029 55.5814 121.377 55.4993 121.725 55.4189L121.831 55.4227ZM117.652 55.1355C117.597 55.1606 117.542 55.1864 117.487 55.2115L117.424 55.1924L117.461 55.1431C117.525 55.1404 117.588 55.1376 117.652 55.1355ZM123.568 55.6591C123.484 55.6826 123.402 55.7116 123.319 55.7362C123.145 55.7597 122.972 55.7838 122.798 55.8084C122.948 55.7477 123.097 55.6853 123.245 55.6219C123.352 55.6345 123.46 55.6465 123.568 55.6591ZM104.628 53.2659C104.561 53.3491 104.492 53.4311 104.425 53.5138L104.464 53.3764C104.518 53.3376 104.574 53.3031 104.628 53.2659ZM127.221 52.4545C127.284 52.4507 127.35 52.4491 127.414 52.4463C126.81 52.5546 126.202 52.6504 125.593 52.7401C126.051 52.6613 126.504 52.5689 126.959 52.4759C127.046 52.4693 127.133 52.4611 127.221 52.4545ZM119.469 49.8633C119.562 49.686 119.666 49.5137 119.78 49.3457L119.873 49.4776L119.9 49.4989C119.78 49.616 119.66 49.7337 119.541 49.8513L119.469 49.8633ZM116.036 49.2571L115.983 49.3392C115.932 49.3523 115.883 49.3692 115.833 49.3824C115.69 49.4196 115.462 49.4935 115.209 49.5651L115.205 49.5624C115.478 49.4524 115.755 49.3523 116.033 49.2571H116.036ZM111.109 53.4355C110.993 53.4136 110.878 53.3961 110.762 53.371C110.605 53.3365 110.454 53.2873 110.301 53.2424C110.199 53.174 110.104 53.1034 110.013 53.0323L110.045 52.988C110.405 53.1111 110.759 53.2637 111.109 53.4355ZM134.76 52.5678L134.863 52.5136C134.96 52.4759 135.054 52.4348 135.151 52.3971C135.064 52.6509 135.271 52.9601 135.539 53.0093C135.44 53.0777 135.338 53.1379 135.241 53.2095C135.229 52.9825 135.07 52.7691 134.761 52.774C134.631 52.7768 134.5 52.7839 134.369 52.7872C134.5 52.716 134.631 52.6373 134.76 52.5678ZM116.445 46.5543C116.379 46.6725 116.305 46.7873 116.228 46.9C116.242 46.8333 116.247 46.7666 116.253 46.6998C116.317 46.6517 116.381 46.603 116.445 46.5543ZM133.725 48.4873C133.789 48.4451 133.854 48.403 133.917 48.3614C134.014 48.3188 134.107 48.2717 134.204 48.2296L134.324 48.1787L134.318 48.2411C134.31 48.3122 134.303 48.3795 134.295 48.4468C134.105 48.4599 133.915 48.4741 133.725 48.4873ZM134.306 49.5695L134.318 49.6177C134.137 49.72 133.956 49.8223 133.775 49.9241C133.596 49.976 133.419 50.0307 133.24 50.0822C133.597 49.9148 133.952 49.7424 134.306 49.5695ZM97.308 56.9366C96.8927 58.8335 166.063 60.6949 169.92 54.7503C169.889 54.4609 169.796 54.1419 169.639 53.7802C169.032 52.3878 168.209 50.9658 167.227 49.8102C166.895 49.4207 166.512 48.7866 166.044 48.3543C165.835 48.1054 165.626 47.8581 165.42 47.6102C164.755 46.8109 163.837 45.7883 162.781 45.2795C162.16 44.752 161.462 44.3044 160.666 43.9652C158.089 42.866 155.784 41.293 153.116 40.3547C152.869 40.2683 152.619 40.1879 152.371 40.1063C151.975 39.8946 151.468 39.638 150.972 39.4717C150.645 39.667 150.31 39.8475 149.969 40.0193C149.911 40.0494 149.851 40.0779 149.792 40.1074C149.538 40.2316 149.278 40.3471 149.017 40.4598C148.791 40.5572 148.56 40.6486 148.329 40.7383C148.166 40.8012 148.003 40.8647 147.838 40.9238C147.618 41.0025 147.394 41.0753 147.17 41.147C146.913 41.229 146.657 41.3144 146.396 41.3883C146.62 41.4501 146.847 41.5092 147.074 41.5661C146.99 41.5655 146.907 41.5677 146.824 41.5683C146.66 41.5146 146.493 41.4643 146.33 41.4074C144.545 41.9047 142.668 42.2106 140.788 42.3983C139.767 42.5717 138.738 42.6975 137.706 42.7949C137.53 42.8135 137.353 42.8316 137.176 42.8469C136.641 42.8912 136.105 42.9246 135.57 42.9503C135.52 42.9525 135.47 42.9563 135.419 42.9585C134.837 42.9842 134.255 43.0007 133.673 43.0067C133.526 43.0083 133.378 43.0127 133.231 43.0132C133.129 43.0132 133.025 43.0181 132.923 43.0176H132.915C132.555 43.016 132.212 43.0083 131.875 42.9974C131.751 42.9935 131.626 42.9908 131.505 42.9853H131.504C131.317 42.9766 131.132 42.9667 130.95 42.9536V42.9514C130.624 42.9284 130.306 42.8962 129.994 42.8557C129.94 42.8486 129.886 42.842 129.833 42.8343C129.482 42.7845 129.138 42.72 128.797 42.6401L128.749 42.6292C128.403 42.5471 128.059 42.4486 127.714 42.3299C127.598 42.291 127.481 42.2533 127.364 42.2084C126.183 41.9753 125.006 41.647 123.912 41.2011C123.793 41.1524 123.678 41.0988 123.562 41.0474L123.431 40.9883C123.279 40.9199 123.126 40.8532 122.979 40.7799C122.85 40.7153 122.727 40.6447 122.602 40.5769C122.474 40.5079 122.345 40.4412 122.221 40.3679C122.018 40.247 121.822 40.1195 121.63 39.987C121.335 39.7835 121.052 39.568 120.79 39.3349C120.609 39.1762 120.434 39.0132 120.27 38.8397C119.575 39.069 118.892 39.3185 118.234 39.5888C115.553 40.6907 113.291 42.1192 110.985 43.8558C109.801 44.7466 108.504 45.5213 107.378 46.4842C106.336 47.3755 105.431 48.397 104.376 49.2806C103.626 49.9087 102.945 50.6605 102.388 51.4943C102.129 51.7493 101.882 52.0146 101.655 52.2904C101.088 52.9781 100.565 53.7611 100.256 54.608C100.194 54.7486 100.142 54.898 100.101 55.0583C99.9195 55.1519 99.7438 55.2569 99.5753 55.3768C99.5025 55.3664 99.4309 55.3565 99.3674 55.3516C98.3891 55.2706 97.5198 55.9682 97.308 56.9366Z" fill="#2D635E"/>
</g>
<defs>
<clipPath id="clip0_64_670">
<rect width="78.5556" height="202" fill="white" transform="translate(97 22)"/>
</clipPath>
</defs>
</svg>
