<svg width="100" height="100" viewBox="0 0 100 100" fill="none" xmlns="http://www.w3.org/2000/svg">
<path fill-rule="evenodd" clip-rule="evenodd" d="M56.291 27.8586L56.9195 27.8422C59.1489 27.8182 61.4632 27.8048 63.6071 28.5052C64.5624 28.8169 66.3968 29.5959 67.0468 30.672C67.2132 30.8088 67.3767 30.9511 67.533 31.1052C67.738 31.1008 67.9348 31.229 67.9133 31.4914L67.9111 31.5196C67.9989 31.6722 67.99 31.8668 67.8732 31.998C67.556 35.8843 65.9862 73.3704 65.997 74.8313C66.2957 78.8729 66.4728 82.9419 66.3424 86.9661C66.3238 87.5398 66.2445 88.0649 66.0878 88.5414C66.0866 88.5755 66.0863 88.6096 66.0848 88.6437C66.0262 90.0171 65.4696 90.8031 64.644 91.2919C61.5466 94.0224 57.1815 94.6224 53.1714 94.6928C50.5421 94.7391 47.9054 94.4927 45.3291 93.9672C43.6955 93.634 41.9827 93.2282 40.7335 92.1165C39.333 91.7729 38.0556 91.3301 37.8488 89.6895C37.5613 87.4038 37.6472 85.0064 37.532 82.704C37.4138 80.3374 37.2818 77.9713 37.1362 75.6058C36.8397 70.796 36.494 65.9884 36.0752 61.1871C35.9981 60.3062 35.917 59.4257 35.8332 58.5456C35.5709 56.1635 35.3107 53.781 35.0591 51.3977C34.8678 49.8424 34.6618 48.2885 34.4346 46.7376C33.848 42.7305 33.2128 38.7137 33.3796 34.6643C33.3351 34.1948 33.2869 33.7253 33.2428 33.2558C33.1031 33.1212 33.1128 32.9552 33.2017 32.8259L33.1946 32.754C33.1806 32.602 33.241 32.4964 33.3336 32.4342C33.3599 32.353 33.417 32.2785 33.5148 32.2244C34.6966 31.5711 35.914 31.0189 37.1618 30.5635L37.2366 31.5155C36.2779 31.9431 35.4511 32.5442 35.1658 33.4714C35.2284 33.5522 35.3074 33.6289 35.3956 33.703C36.0567 34.0381 36.7508 34.2938 37.4712 34.4657L37.5561 35.4226C36.8497 35.2406 35.8299 34.936 35.0876 34.4416C34.7934 34.293 34.5058 34.1303 34.2249 33.955C34.2089 34.2 34.1982 34.4446 34.1882 34.6896C34.7144 40.2228 35.271 45.753 35.8547 51.2803C36.1497 53.6698 36.4043 56.0638 36.6322 58.4607C37.111 62.8073 37.6009 67.1524 38.1145 71.4949C38.2239 71.5564 38.3098 71.6639 38.3265 71.8184C38.6193 74.5697 38.7723 77.3313 38.756 80.098C38.7479 81.4807 38.7001 82.863 38.6119 84.2427C38.5804 84.7333 38.5196 85.2429 38.4807 85.7543C38.5022 86.2279 38.5263 86.7019 38.5463 87.1755C38.5533 87.3445 38.5589 87.5138 38.5644 87.6828L38.5785 87.7554C39.2244 90.3425 42.9644 90.7601 45.1353 91.2186C46.035 91.4087 46.9408 91.5717 47.8505 91.7059C50.2319 91.883 52.6192 91.9738 55.0106 91.9734C55.0999 91.9734 55.1752 92.0038 55.2359 92.0509C56.9036 91.9445 58.5612 91.7018 60.1817 91.2856C61.421 90.9677 62.7881 90.6067 63.8987 89.9571C64.366 89.684 64.6977 89.3686 64.9371 89.0184C64.8986 86.474 64.9182 83.9306 64.9945 81.3877C64.9719 81.3406 64.9549 81.2891 64.9519 81.2272C64.1437 65.0019 65.3766 48.787 66.7126 32.6235C66.6611 32.6473 66.6099 32.6717 66.5588 32.6962C65.9106 33.1779 64.9401 33.4855 64.1111 33.6867C61.5881 34.5395 58.9184 34.9916 56.2339 35.2532L56.198 34.8752L56.1635 34.2797C58.5015 33.9617 60.8281 33.5611 63.1335 33.0745C63.3406 33.0308 63.5656 32.9863 63.7964 32.9367C64.4776 32.7077 65.1483 32.4486 65.8054 32.154C65.8398 32.127 65.8784 32.1036 65.911 32.0743C66.3894 31.6485 66.4187 31.3543 66.206 31.0452C64.3316 29.6896 61.905 29.3617 59.5962 29.2268L56.1468 29.0893L56.2039 28.3644L56.291 27.8586Z" fill="#653C1C"/>
<path fill-rule="evenodd" clip-rule="evenodd" d="M53.1714 93.8856C50.7859 93.926 48.3972 93.7311 46.0525 93.289C45.3232 93.1511 44.5627 93.0107 43.8301 92.8009C43.8679 92.8087 43.9035 92.8187 43.942 92.8257C44.0521 92.8461 44.1458 92.8287 44.2222 92.7898C45.6545 92.9925 47.0979 93.1111 48.5469 93.1493C48.6021 93.1504 48.6492 93.1404 48.6925 93.1252C49.5649 93.1752 50.4391 93.1911 51.3181 93.1682C51.4219 93.1656 51.5086 93.1215 51.5749 93.0562C54.7575 93.0095 57.9312 92.7446 61.0752 92.235C61.4236 92.1787 61.7708 92.125 62.1114 92.0671C59.4276 93.4917 56.1802 93.8352 53.1714 93.8856Z" fill="#653C1C"/>
<path fill-rule="evenodd" clip-rule="evenodd" d="M56.1979 34.8752L56.2339 35.2532C54.9913 35.3962 53.7443 35.487 52.5077 35.5623C50.1937 35.8157 47.8739 35.9984 45.5548 36.0955C42.951 36.2041 40.3021 36.1482 37.7669 35.4855L37.5561 35.4226L37.4712 34.4657C38.9098 34.8815 40.4374 35.0245 41.9442 35.069C44.7965 35.1531 47.6671 35.0316 50.5147 34.8678C51.102 34.8337 51.6946 34.7992 52.2894 34.7629C53.5831 34.6258 54.8753 34.4683 56.1635 34.2797L56.1979 34.8752Z" fill="#653C1C"/>
<path fill-rule="evenodd" clip-rule="evenodd" d="M56.2339 35.2532C56.915 43.432 59.196 53.486 58.6557 53.5312C57.6725 53.6131 41.8256 53.5079 40.8383 53.5312C39.3267 53.5668 38.2513 43.7129 37.556 35.423L37.7669 35.4856C40.3021 36.1482 42.951 36.2042 45.5547 36.0956C47.8739 35.9985 50.1937 35.8158 52.5077 35.5623C53.7443 35.4871 54.9913 35.3966 56.2339 35.2532ZM37.3341 25.9141C37.3015 25.9282 37.2688 25.9423 37.2366 25.9571L37.1617 25.0051C39.7959 24.0097 42.5556 23.4153 45.3587 23.0751C46.3085 22.9294 47.2617 22.8075 48.2163 22.7089C50.8986 22.4328 53.5957 22.3295 56.291 22.2998L56.2039 22.8057L56.1468 23.5309C56.0208 23.5264 55.8944 23.5224 55.7684 23.5187C55.8944 23.5224 56.0208 23.5264 56.1468 23.5309L56.0527 24.7242C56.0553 25.4561 56.2887 26.1876 56.291 26.9195L56.1635 34.2801C54.8753 34.4683 53.5831 34.6258 52.2894 34.7629C51.6946 34.7993 51.102 34.8337 50.5147 34.8678C47.6671 35.0316 44.7965 35.1532 41.9441 35.069C40.4373 35.0249 38.9098 34.8819 37.4712 34.4657L37.443 34.1478L37.2366 25.9571C37.2688 25.9423 37.3015 25.9282 37.3341 25.9141ZM37.4423 25.8682C37.4256 25.8752 37.4089 25.8819 37.3926 25.8889C37.4089 25.8819 37.4256 25.8752 37.4423 25.8682ZM37.5901 25.8081C37.5694 25.8163 37.5486 25.8248 37.5279 25.833L37.5505 25.8241C37.5635 25.8185 37.5768 25.8133 37.5901 25.8081ZM42.4422 24.4351C41.6417 24.6145 40.8465 24.8168 40.0586 25.0451C39.9074 25.0892 39.7469 25.1337 39.5798 25.18C39.7469 25.1337 39.9074 25.0892 40.0586 25.0451C40.8194 24.8246 41.5869 24.6282 42.3596 24.454L42.4422 24.4351ZM55.6117 23.5142L55.6695 23.5157L55.6117 23.5142L55.5446 23.5124L55.6117 23.5142ZM53.2414 23.4783C53.8273 23.4797 54.4132 23.4864 54.9995 23.499C54.4132 23.4864 53.8273 23.4797 53.2414 23.4783ZM52.6303 23.479C52.554 23.479 52.4773 23.4794 52.4009 23.4801L52.4773 23.4797C52.5028 23.4794 52.5284 23.4794 52.554 23.4794L52.6303 23.479ZM52.8949 23.4783C52.8078 23.4783 52.7207 23.4786 52.6337 23.479C52.7207 23.4786 52.8078 23.4783 52.8949 23.4783ZM53.0924 23.4783C53.0402 23.4783 52.9879 23.4783 52.9357 23.4783H53.0124C53.0391 23.4783 53.0654 23.4783 53.0924 23.4783ZM44.6072 24.0082C44.858 23.9648 45.1093 23.9237 45.3609 23.8841C45.7271 23.8392 46.0939 23.7984 46.4612 23.7618L46.5531 23.7525C46.1547 23.7918 45.7575 23.8355 45.3609 23.8841C45.0815 23.9278 44.8025 23.9741 44.5234 24.0227L44.6072 24.0082ZM48.9482 23.5735C49.7172 23.5327 50.4869 23.5068 51.2558 23.4935C51.6112 23.4875 51.967 23.4831 52.3227 23.4805C51.967 23.4831 51.6112 23.4875 51.2558 23.4935C50.4561 23.5075 49.6553 23.535 48.8555 23.5787L48.9482 23.5735Z" fill="#B6C6BE"/>
<path d="M62.4557 57.0658C59.6155 54.6318 56.3877 53.0157 52.8801 53.513C52.3065 53.5942 52.0611 52.7174 52.6381 52.6355C56.5059 52.0874 59.9772 53.7468 63.099 56.4225C63.5444 56.8042 62.8982 57.4449 62.4557 57.0658ZM51.5449 89.6254C49.185 89.6191 45.4466 89.0954 43.8367 86.9861C44.7191 87.3178 45.6808 87.4856 46.6261 87.5935C49.0075 87.8666 51.4619 88.1304 53.8611 88.0919C55.9182 88.0586 58.0876 87.7184 59.8671 86.6248C59.9579 86.6281 60.0491 86.6259 60.1399 86.6099L60.2099 86.5955C58.2747 88.8987 54.3373 89.6324 51.5449 89.6254ZM39.4838 57.0984C38.9747 56.8082 39.4335 56.0226 39.943 56.3128C42.8892 57.9904 46.0829 58.8854 49.467 59.0547C52.8564 59.2245 56.0486 58.2524 59.3628 57.7462C59.9364 57.6587 60.1818 58.5355 59.6048 58.6237C56.0431 59.1674 52.6492 60.188 49.0042 59.9367C45.6222 59.704 42.4311 58.7768 39.4838 57.0984ZM64.787 56.7445C64.7829 56.6752 64.6047 55.6327 64.2315 55.1288C63.8342 54.5921 63.2272 54.5884 62.7592 54.3876C58.984 52.7674 55.2219 50.9967 51.1829 51.2847C46.8893 51.5908 41.7381 52.2993 38.3136 55.1288C37.9385 55.363 37.7151 55.7814 37.5976 56.2879C37.2277 57.8781 37.7803 59.9245 37.9559 61.5136C37.9722 61.6618 37.9904 61.81 38.0071 61.9583C37.9315 63.1493 38.0189 64.3482 38.2987 65.527C38.3636 65.7994 38.4421 66.068 38.5281 66.3349C38.6597 67.3892 38.7942 68.4435 38.9291 69.4974C38.8965 69.6872 38.905 69.901 38.9699 70.1378C38.9969 70.2371 39.0225 70.3368 39.0499 70.4365C39.1596 71.2903 40.4929 81.5963 40.5282 82.6465C40.55 83.3036 40.5037 84.0144 40.7702 84.6318C40.9795 85.1176 41.3475 85.4385 41.7807 85.6735C42.0205 85.924 42.2807 86.143 42.5582 86.3327C43.7437 89.4568 48.1492 90.3321 51.0961 90.4247C54.514 90.5322 59.2597 89.5991 61.2761 86.5262C61.3435 86.4239 61.3547 86.3231 61.3309 86.2345C61.826 86.077 62.2856 85.868 62.6302 85.5619C63.6645 84.6429 63.3725 77.5821 63.4025 75.4031C63.444 72.3776 63.5026 69.3425 63.8609 66.3349C64.2426 63.1345 64.9742 59.9871 64.787 56.7445Z" fill="#442916"/>
<path d="M63.0119 48.5487C63.0147 48.5849 63.0307 48.6151 63.052 48.6427C62.9803 50.1327 62.9618 51.623 62.998 53.1139C62.7732 53.3191 62.4618 53.5039 62.023 53.664C60.98 54.0446 59.6963 54.2561 58.5326 54.4424C57.0108 54.6863 55.4543 54.8285 53.8883 54.8908C53.8313 54.8633 53.7606 54.8455 53.6767 54.8455C51.4311 54.8457 49.1894 54.7925 46.9532 54.6887C46.0989 54.6101 45.2484 54.5145 44.4035 54.4031C42.3649 54.1345 38.853 53.8898 38.2465 52.3739L38.2332 52.3313C38.228 52.2323 38.2228 52.1331 38.2162 52.0341C38.1974 51.7565 38.1748 51.4788 38.1546 51.2013C38.1911 50.9016 38.2482 50.6031 38.2778 50.3156C38.3606 49.5071 38.4055 48.6972 38.4131 47.887C38.4285 46.2658 38.2847 44.6476 38.0098 43.0355C37.9942 42.945 37.9134 42.882 37.8108 42.846C37.3284 40.3014 36.8684 37.7554 36.4188 35.2085C36.2048 33.804 35.9657 32.4012 35.6887 31.0011C35.1406 27.7623 34.618 24.5219 34.1238 21.2797C34.1332 21.1361 34.1433 20.9928 34.1583 20.8493C34.422 20.952 34.6921 21.0473 34.9684 21.1344C35.7392 21.4547 36.8287 21.6392 37.4844 21.7461C39.865 22.1343 42.3524 22.1671 44.7974 22.1035C46.9751 22.0466 49.1536 21.9396 51.3264 21.791C54.9918 21.6516 58.7546 21.4234 62.2224 20.6921C63.0008 20.5741 63.9122 20.3939 64.5208 20.1116C64.5689 20.0973 64.6169 20.083 64.6653 20.0691C63.4108 29.5401 62.253 39.0413 63.0119 48.5487ZM60.3446 54.9004C59.0302 55.3358 43.8658 55.4533 43.1778 55.3303C43.2133 55.3349 43.2467 55.3408 43.2829 55.3449C43.3863 55.3568 43.4743 55.3466 43.546 55.3238C44.891 55.4426 56.4193 55.2973 59.3716 54.9988C59.6987 54.9658 60.0248 54.9343 60.3446 54.9004ZM39.6363 18.8856C41.2691 18.5901 42.9356 18.3692 44.6154 18.2053C46.4486 18.0644 48.3024 17.9964 50.1509 17.9764C52.7584 17.9482 55.3791 17.984 57.9828 18.0787C60.1508 18.1578 62.4294 18.3499 64.1896 19.1442C64.3893 19.3253 64.3618 19.4978 63.9126 19.7473C63.8819 19.7644 63.8457 19.7781 63.8134 19.7939C63.1964 19.9666 62.5665 20.1184 61.9269 20.2526C61.7101 20.2817 61.4989 20.3077 61.3044 20.3333C57.9455 20.7757 54.5387 21.0966 51.1214 21.3227C50.5629 21.3439 50.0065 21.3641 49.4549 21.3841C46.7809 21.4801 44.0854 21.5513 41.4069 21.502C39.2925 21.4631 37.1346 21.2953 35.2576 20.7016C35.1747 20.6582 35.1006 20.6132 35.0418 20.5659C35.5735 19.4871 38.1118 19.1616 39.6363 18.8856ZM63.9933 44.8009C63.9832 43.9449 65.4573 21.9797 65.7552 19.7025C65.8648 19.6257 65.8731 19.5117 65.7907 19.4222L65.7928 19.4057C65.8129 19.2519 65.6282 19.1768 65.4357 19.1794C65.2889 19.0891 65.1354 19.0057 64.9791 18.9256C64.3688 18.295 62.6462 17.8385 61.7491 17.6559C59.736 17.2455 57.5628 17.2533 55.4692 17.2674C52.7417 17.2855 50.0114 17.3424 47.2967 17.5167C46.4002 17.5745 45.5052 17.6459 44.6133 17.7313C40.7391 18.0246 36.953 18.6409 33.4915 19.8352C33.3996 19.8669 33.346 19.9106 33.3213 19.9581C33.2343 19.9946 33.1776 20.0565 33.1908 20.1455L33.1975 20.1876C33.1139 20.2634 33.1049 20.3607 33.2361 20.4395C33.2775 20.7146 33.3227 20.9898 33.3645 21.2649C33.2079 23.6376 33.8043 25.9913 34.3552 28.3393C34.5685 29.2481 34.762 30.1585 34.9416 31.0699C35.1779 32.4664 35.4222 33.8624 35.6685 35.2582C35.7472 35.7739 35.8234 36.2899 35.8958 36.806C36.289 39.6194 36.6137 42.4364 36.8921 45.2548C37.0288 46.6408 37.1527 48.0273 37.2637 49.414C37.372 50.7631 37.2912 52.1678 37.5613 53.5072C37.7554 54.4685 38.955 54.728 40.27 54.9293C41.4431 55.5807 59.8143 56.0461 62.7228 54.4461C63.4981 54.1597 64.0208 53.6991 64.0758 52.8944C64.0771 52.8744 64.0775 52.8544 64.0785 52.8345C64.2257 52.5552 64.3002 52.2475 64.3176 51.9114C64.4401 49.5534 64.2738 47.1691 63.9933 44.8009Z" fill="#2D635E"/>
<path d="M48.321 11.6487L48.3446 11.6726L48.3449 11.6738L48.32 11.6746L48.321 11.6487ZM52.5699 8.54284L52.5682 8.5114C52.5711 8.41438 52.5726 8.32028 52.5765 8.24373C52.5796 8.18255 52.5801 8.12234 52.5811 8.06212C52.5884 8.16329 52.5909 8.26566 52.5857 8.36975C52.5831 8.42753 52.5762 8.48506 52.5699 8.54284ZM54.4011 13.0494C54.3233 13.0302 54.2451 13.0095 54.17 12.9863C54.257 12.9814 54.345 12.9804 54.4343 12.9822C54.5608 13.0107 54.6907 13.0433 54.8209 13.0782C54.6817 13.0653 54.5418 13.0558 54.4011 13.0494ZM51.3074 13.3173L51.3142 13.2625L51.3498 13.3144L51.3074 13.3173ZM50.6151 13.0224L50.6312 13.0231L50.6302 13.0263L50.6151 13.0224ZM47.4841 12.1163L47.479 12.099C47.5351 12.0946 47.5911 12.0899 47.6472 12.086C47.5928 12.096 47.5382 12.1056 47.4841 12.1163ZM52.2896 7.14651C52.2649 7.07484 52.2413 7.00343 52.2137 6.93346C52.2581 7.00586 52.2986 7.08021 52.3356 7.15627L52.2896 7.14651ZM48.0002 9.78289L48.017 9.81484C47.9931 9.82337 47.9746 9.84019 47.9553 9.85555C47.9753 9.83434 47.9904 9.81044 48.0002 9.78289ZM47.7771 7.23403L47.7815 7.20916L47.7818 7.20405L47.8261 7.15432C47.8098 7.18089 47.7915 7.20502 47.7771 7.23403ZM49.0499 10.5893L49.0847 10.622C49.1003 10.7002 49.1115 10.7748 49.1123 10.8387L49.1015 10.8323C49.0235 10.7031 48.9679 10.5422 48.9204 10.3923C48.9562 10.4616 48.997 10.5286 49.0499 10.5893ZM49.7478 6.09269L49.7604 6.08757L49.7478 6.09269ZM49.6932 6.12073L49.6929 6.11658L49.7051 6.11123L49.6932 6.12073ZM50.3925 10.5142C50.3957 10.553 50.3999 10.5903 50.405 10.6278L50.4013 10.6312C50.3696 10.6061 50.3379 10.5798 50.3065 10.5535C50.3375 10.5437 50.3645 10.5283 50.3925 10.5142ZM49.808 10.8343L49.8043 10.8287C49.7758 10.7938 49.74 10.7685 49.7017 10.7521C49.7448 10.7324 49.786 10.7085 49.8245 10.6785C49.8762 10.727 49.9301 10.7741 49.984 10.8192C49.9179 10.8267 49.857 10.8311 49.808 10.8343ZM49.4638 10.8009L49.4489 10.817L49.4472 10.7999L49.4638 10.8009ZM50.1315 8.25129C50.08 8.15841 50.0135 8.05408 49.9347 7.94682C50.0405 7.97192 50.1066 8.07285 50.1315 8.25129ZM50.1183 6.71284C50.141 6.73625 50.1656 6.75868 50.189 6.7816C50.1517 6.76868 50.1139 6.75722 50.0751 6.74869L50.1183 6.71284ZM44.6637 12.5046C44.8056 12.5892 44.9477 12.675 45.09 12.7632C45.1793 12.8188 45.2682 12.8737 45.3579 12.9293C45.3831 12.9449 45.4082 12.9604 45.4335 12.9761L45.4343 12.9756L45.4988 13.0148L45.4981 13.0153L45.504 13.0185H45.5037L45.5074 13.0207L45.5537 13.0482C45.6332 13.0962 45.7126 13.1435 45.7928 13.1901L45.8211 13.2069L45.8223 13.2067C45.8996 13.2513 45.9771 13.2952 46.0551 13.3376L46.0646 13.3429H46.0649C46.2231 13.4282 46.3828 13.5097 46.5454 13.5809C46.7199 13.6155 46.8949 13.6435 47.0695 13.6691H47.0704C47.2957 13.702 47.5192 13.7283 47.7391 13.7478L47.753 13.7491C47.7781 13.7512 47.803 13.753 47.8281 13.7549C47.9251 13.7629 48.0209 13.77 48.1157 13.7759L48.1345 13.7768C48.253 13.7837 48.3693 13.789 48.4833 13.7927L48.4958 13.7932C48.6125 13.7968 48.7261 13.799 48.837 13.7998H48.8383C48.9353 13.8002 49.0301 13.8 49.122 13.7988C49.201 13.7978 49.2785 13.7964 49.3526 13.7939C49.6585 13.7837 49.9737 13.7744 50.2948 13.7639L50.3292 13.763V13.7627C50.354 13.7617 50.3801 13.7605 50.4052 13.7595L50.405 13.76C50.5471 13.7554 50.6902 13.75 50.8343 13.7442L50.8347 13.7427L50.8674 13.7415V13.743C50.9408 13.7398 51.0151 13.7361 51.0888 13.733C51.1402 13.7305 51.1904 13.7286 51.2421 13.7259L51.274 13.7244V13.724C51.8883 13.6932 52.5136 13.6479 53.1332 13.5679C53.4046 13.507 53.6734 13.437 53.9404 13.3615L53.9416 13.3617L53.9531 13.358C54.0691 13.3251 54.1827 13.2869 54.2977 13.2513C54.4377 13.2079 54.5783 13.1679 54.7168 13.1211L54.7109 13.1196C54.7514 13.1062 54.7926 13.095 54.8328 13.0811H54.8331L54.8362 13.0799L54.8379 13.0794H54.8377C55.1526 12.9697 55.4639 12.8522 55.7684 12.7216L55.7548 12.7189C55.853 12.6769 55.9529 12.6379 56.05 12.5936C55.4091 12.4293 54.7631 12.2862 54.1222 12.1553C53.5942 12.0478 53.066 11.9617 52.5375 11.8884C52.3871 11.4323 52.303 10.9659 52.4531 10.4981C52.5801 10.102 52.7296 9.72562 52.8366 9.32145C53.0155 8.64425 53.1042 7.9534 52.8656 7.27572C52.4227 6.01688 51.2613 5.21877 49.9357 5.44133C48.7022 5.64854 47.3544 6.37644 46.8871 7.59846C46.6187 8.30052 46.8274 8.91678 47.0909 9.58593C47.2311 9.94135 47.4168 10.2751 47.6226 10.5961C47.8551 10.9588 47.9682 11.2933 47.9909 11.6892C47.3652 11.7236 46.7384 11.7813 46.1107 11.8684C45.4903 11.9542 44.8504 12.0829 44.2217 12.2499C44.2615 12.2718 44.3024 12.2945 44.3402 12.3154C44.4482 12.3749 44.5559 12.4403 44.6637 12.5046Z" fill="#2D635E"/>
<path d="M44.1086 13.3447C44.1325 13.3376 44.1564 13.3303 44.1803 13.323C44.1893 13.3803 44.2193 13.4341 44.2634 13.469C44.2081 13.4975 44.1527 13.5258 44.0979 13.5553C44.1023 13.4851 44.1069 13.4151 44.1086 13.3447ZM53.1735 16.5364C53.1113 16.5732 53.0491 16.6107 52.987 16.649L52.9685 16.648C52.8992 16.66 52.8312 16.6748 52.763 16.6887C52.858 16.6027 52.9538 16.5178 53.0479 16.4308C53.1135 16.4367 53.1791 16.4432 53.2446 16.4484C53.219 16.4754 53.1959 16.5057 53.1735 16.5364ZM65.0075 19.67L64.9878 19.6739C64.9888 19.5562 64.9493 19.4277 64.8874 19.3102L64.9451 19.2749C65.0131 19.4185 65.0461 19.5523 65.0075 19.67ZM43.3544 16.1807C43.4887 16.0912 43.6216 15.9993 43.7544 15.9079C43.6869 15.9813 43.6172 16.0527 43.5509 16.1278C43.4853 16.1451 43.42 16.1632 43.3544 16.1807ZM51.9027 16.3401C51.8191 16.3974 51.7357 16.454 51.6526 16.5088L51.6475 16.5061C51.7169 16.4513 51.7835 16.3925 51.851 16.3353L51.9027 16.3401ZM60.1455 14.6369L60.1114 14.604C60.2238 14.6606 60.3367 14.7164 60.45 14.7724C60.3493 14.7239 60.2484 14.6757 60.1455 14.6369ZM60.9112 15.024C60.8088 14.9604 60.703 14.9019 60.5968 14.8453C60.7028 14.898 60.8086 14.9516 60.9137 15.0062L60.9112 15.024ZM35.2166 19.2664L35.2183 19.3197L35.2146 19.3353L35.1566 19.3549L35.1627 19.3397C35.1805 19.3151 35.1981 19.2902 35.2166 19.2664ZM41.1841 14.29L41.1921 14.3046L41.1529 14.3319L41.1436 14.3322L41.1841 14.29ZM60.3406 16.0069L60.3259 15.9796L60.3447 15.992L60.3523 16.0169L60.3406 16.0069ZM61.027 16.5851L60.989 16.5483C60.9439 16.4374 60.9012 16.3258 60.8632 16.2126L60.9198 16.2251C60.9568 16.2716 60.9946 16.3214 61.0329 16.3735C61.0114 16.4072 61.0002 16.4469 61.0065 16.4908C61.0112 16.5227 61.0204 16.5537 61.027 16.5851ZM48.4643 16.4869L48.4955 16.4564L48.4953 16.4605L48.4643 16.4869ZM48.1952 16.7172L48.1806 16.6977C48.262 16.6466 48.34 16.5902 48.4151 16.5293C48.3407 16.5907 48.2683 16.6541 48.1952 16.7172ZM51.95 19.3958C51.9149 19.4036 51.8798 19.4114 51.8447 19.419C51.9207 19.3346 51.9992 19.252 52.0797 19.1713C52.126 19.1684 52.173 19.1659 52.2193 19.1628C52.2593 19.1601 52.2995 19.1572 52.3395 19.1542C52.2106 19.2366 52.0806 19.3166 51.95 19.3958ZM52.782 20.2195L52.7181 20.2524C52.6996 20.2195 52.6698 20.1929 52.6289 20.1744C52.8271 20.094 53.0243 20.0104 53.221 19.9263L53.2415 19.9757C53.0891 20.0584 52.9358 20.1398 52.782 20.2195ZM54.6824 20.9091C54.728 20.8994 54.7736 20.8899 54.8189 20.8796L54.8825 20.8882C54.8552 20.8984 54.8287 20.9096 54.8014 20.9199C54.7397 20.9433 54.678 20.9664 54.6163 20.9898L54.6261 20.9832C54.6522 20.963 54.6692 20.9369 54.6824 20.9091ZM61.0994 18.0085C61.0353 17.7801 60.9449 17.5643 60.8208 17.3966C60.8186 17.3603 60.8183 17.3252 60.8174 17.2894C60.902 17.4615 60.9685 17.6426 61.0275 17.7764C61.055 17.8393 61.0955 17.9207 61.1387 18.0102L61.0994 18.0085ZM62.6347 18.1462C62.6537 18.2515 62.6656 18.3554 62.6659 18.4551L62.6225 18.4278C62.6086 18.3544 62.5935 18.2808 62.5764 18.2079C62.5998 18.1908 62.6193 18.1701 62.6347 18.1462ZM61.6698 19.4828C61.6577 19.5128 61.6445 19.5421 61.6352 19.5742L61.6335 19.5867L61.5889 19.5811L61.6196 19.5347L61.6698 19.4828ZM60.2352 19.6298L60.2918 19.5915C60.2867 19.622 60.2838 19.6525 60.2852 19.6825L60.2321 19.7032C60.2362 19.6783 60.2389 19.6537 60.2352 19.6298ZM60.0095 17.9422V17.94C60.0363 17.9125 60.0575 17.8781 60.0822 17.8479C60.0831 17.8869 60.08 17.9259 60.0824 17.9649L60.0566 17.9654L60.0361 17.9693L60.0095 17.9422ZM46.8506 20.9191C46.7421 20.8826 46.6331 20.8489 46.5229 20.8187L46.5375 20.8145C46.6472 20.8245 46.7565 20.8284 46.8659 20.836C46.8552 20.8621 46.8501 20.8904 46.8506 20.9191ZM39.0572 18.4395L39.0616 18.4327L39.0674 18.4431L39.0572 18.4395ZM42.1214 15.8397C42.1385 15.7924 42.1594 15.7466 42.1726 15.6983C42.2101 15.7127 42.2528 15.7158 42.2976 15.7007C42.3259 15.6912 42.3549 15.681 42.3842 15.6705L42.3983 15.6951C42.3032 15.7392 42.2113 15.7877 42.1214 15.8397ZM41.6641 16.6797C41.7477 16.6112 41.8333 16.5454 41.92 16.4815C41.8879 16.53 41.8569 16.5788 41.8247 16.6273C41.7711 16.6446 41.7175 16.6619 41.6641 16.6797ZM42.4454 17.9931C42.4003 18.0365 42.3549 18.0794 42.3096 18.1223L42.2591 18.1367C42.3269 18.0965 42.3878 18.0468 42.4407 17.9858L42.4454 17.9931ZM47.2406 18.8678C47.4297 18.8285 47.6187 18.7869 47.8076 18.743C47.7635 18.7735 47.7189 18.8034 47.6745 18.8339C47.5299 18.8454 47.3851 18.8568 47.2406 18.8678ZM51.6533 20.0901C51.859 19.9967 52.0628 19.8992 52.2627 19.7934C52.2408 19.837 52.222 19.8811 52.2062 19.9258C52.0682 19.9804 51.9285 20.0311 51.7898 20.0845C51.7442 20.0854 51.6986 20.0871 51.6533 20.0901ZM50.6977 21.3028L50.6921 21.2607C50.8199 21.2316 50.9474 21.2021 51.0758 21.1761L51.0841 21.1773C50.9556 21.2202 50.8264 21.2606 50.6977 21.3028ZM35.9523 19.622L35.9781 19.6791L35.9148 19.6734L35.9523 19.622ZM40.4962 17.1024L40.4779 17.1224C40.4457 17.1375 40.4128 17.1516 40.3814 17.168C40.3675 17.1148 40.3743 17.0597 40.3906 17.0044C40.4126 16.9566 40.4333 16.9081 40.4562 16.8603L40.4586 16.8567C40.4608 16.9376 40.4706 17.0195 40.4962 17.1024ZM44.7431 18.8103L44.7748 18.8232L44.7761 18.8246C44.7276 18.8302 44.679 18.8366 44.6305 18.8427L44.6505 18.8317C44.6815 18.8244 44.7122 18.8173 44.7431 18.8103ZM42.9305 19.0682C42.9271 19.046 42.9271 19.0262 42.9251 19.005L42.9626 19.0002C42.9934 18.9933 43.0221 18.9831 43.0521 18.975C43.0419 18.9992 43.0363 19.0238 43.0377 19.0484C43.0019 19.0557 42.9663 19.0621 42.9305 19.0682ZM44.0635 19.8914L44.0443 19.9097C43.9304 19.9545 43.8183 20.0013 43.7096 20.0513C43.6537 20.0355 43.5916 20.0262 43.5265 20.0206L43.5511 19.9994C43.7059 19.9621 43.861 19.9255 44.016 19.8897L44.0635 19.8914ZM42.2014 19.7634C42.177 19.7746 42.1526 19.7861 42.128 19.7973L42.0997 19.7888L42.1165 19.7668C42.1448 19.7656 42.1731 19.7644 42.2014 19.7634ZM44.8372 19.9967C44.7999 20.0072 44.7634 20.0201 44.7263 20.0311C44.6488 20.0416 44.5715 20.0523 44.4943 20.0632C44.5611 20.0362 44.6276 20.0084 44.6932 19.9801C44.7412 19.9857 44.7892 19.9911 44.8372 19.9967ZM36.3986 18.9304C36.3687 18.9675 36.3379 19.0041 36.308 19.0409L36.3257 18.9797C36.3496 18.9624 36.3745 18.947 36.3986 18.9304ZM46.4647 18.5689C46.4927 18.5672 46.5222 18.5665 46.551 18.5653C46.2816 18.6135 46.0108 18.6562 45.7394 18.6962C45.9435 18.6611 46.1456 18.6199 46.3479 18.5784C46.3869 18.5755 46.4257 18.5719 46.4647 18.5689ZM43.0109 17.4144C43.0526 17.3354 43.0989 17.2587 43.1496 17.1838L43.1911 17.2426L43.203 17.2521C43.1496 17.3042 43.0962 17.3567 43.0431 17.4091L43.0109 17.4144ZM41.4813 17.1443L41.4576 17.1809C41.4352 17.1867 41.4132 17.1943 41.3908 17.2001C41.3272 17.2167 41.2255 17.2496 41.1129 17.2816L41.111 17.2804C41.2326 17.2314 41.3562 17.1867 41.4803 17.1443H41.4813ZM39.2861 19.006C39.2344 18.9963 39.1835 18.9885 39.1316 18.9772C39.0616 18.9619 38.9943 18.94 38.9261 18.92C38.881 18.8895 38.8385 18.858 38.7981 18.8263L38.8122 18.8066C38.9724 18.8615 39.1301 18.9295 39.2861 19.006ZM49.8236 18.6194L49.8696 18.5953C49.9128 18.5784 49.955 18.5601 49.9981 18.5433C49.9594 18.6564 50.0513 18.7942 50.1707 18.8161C50.1268 18.8466 50.0812 18.8734 50.0381 18.9053C50.0327 18.8042 49.9618 18.7091 49.8243 18.7113C49.7663 18.7125 49.708 18.7157 49.6498 18.7171C49.7078 18.6855 49.7663 18.6503 49.8236 18.6194ZM41.6636 15.9401C41.6343 15.9928 41.6012 16.0439 41.5671 16.0942C41.5732 16.0644 41.5756 16.0347 41.578 16.005C41.6066 15.9835 41.6351 15.9618 41.6636 15.9401ZM49.3628 16.8013C49.3914 16.7826 49.4199 16.7638 49.4482 16.7453C49.4913 16.7263 49.533 16.7053 49.5761 16.6865L49.6295 16.6639L49.6268 16.6916C49.6234 16.7233 49.62 16.7533 49.6166 16.7833C49.532 16.7892 49.4474 16.7955 49.3628 16.8013ZM49.6215 17.2835L49.6268 17.305C49.5462 17.3506 49.4655 17.3962 49.385 17.4415C49.3053 17.4647 49.2261 17.489 49.1464 17.5119C49.3056 17.4374 49.4638 17.3606 49.6215 17.2835ZM33.1372 20.5659C32.9522 21.4111 63.7707 22.2404 65.489 19.5918C65.4753 19.4628 65.4339 19.3207 65.3637 19.1596C65.0934 18.5392 64.727 17.9056 64.2892 17.3908C64.1414 17.2172 63.9708 16.9347 63.7624 16.7421C63.6692 16.6312 63.5759 16.521 63.4842 16.4106C63.1878 16.0544 62.7788 15.5988 62.3085 15.3721C62.0316 15.1371 61.7208 14.9377 61.3661 14.7866C60.2177 14.2968 59.1909 13.596 58.0021 13.1779C57.8921 13.1394 57.781 13.1036 57.6701 13.0673C57.4938 12.9729 57.2678 12.8586 57.0467 12.7845C56.9014 12.8715 56.752 12.952 56.6001 13.0285C56.5741 13.0419 56.5475 13.0546 56.5212 13.0678C56.408 13.1231 56.2923 13.1745 56.1757 13.2247C56.0751 13.2681 55.9724 13.3088 55.8696 13.3488C55.7967 13.3769 55.7243 13.4051 55.6504 13.4315C55.5524 13.4666 55.453 13.499 55.353 13.5309C55.2384 13.5675 55.1246 13.6055 55.0081 13.6384C55.108 13.666 55.209 13.6923 55.3101 13.7176C55.2728 13.7174 55.236 13.7184 55.199 13.7186C55.1256 13.6947 55.0515 13.6723 54.9786 13.6469C54.1834 13.8685 53.347 14.0048 52.5094 14.0884C52.0546 14.1657 51.596 14.2218 51.1363 14.2652C51.0578 14.2734 50.979 14.2815 50.9003 14.2883C50.6619 14.3081 50.4233 14.3229 50.1846 14.3344C50.1624 14.3354 50.14 14.3371 50.1176 14.338C49.8579 14.3495 49.5986 14.3568 49.3394 14.3595C49.2739 14.3602 49.208 14.3622 49.1425 14.3624C49.0969 14.3624 49.0508 14.3646 49.0052 14.3644H49.0018C48.8412 14.3636 48.6886 14.3602 48.5384 14.3553C48.4833 14.3536 48.4273 14.3524 48.3734 14.35H48.3731C48.2898 14.3461 48.2074 14.3417 48.1262 14.3358V14.3349C47.9812 14.3246 47.8393 14.3103 47.7001 14.2922C47.6762 14.289 47.6523 14.2861 47.6287 14.2827C47.4724 14.2605 47.3191 14.2317 47.167 14.1962L47.1458 14.1913C46.9914 14.1547 46.8381 14.1109 46.6845 14.058C46.6326 14.0406 46.5807 14.0238 46.5285 14.0038C46.0022 13.9 45.4779 13.7537 44.9906 13.555C44.9374 13.5333 44.8862 13.5095 44.8346 13.4866L44.7761 13.4602C44.7085 13.4297 44.6405 13.4 44.5749 13.3673C44.5174 13.3386 44.4626 13.3071 44.4067 13.2769C44.3499 13.2462 44.2922 13.2165 44.2371 13.1838C44.1466 13.1299 44.0591 13.0731 43.9738 13.0141C43.8422 12.9234 43.7164 12.8274 43.5994 12.7235C43.5189 12.6529 43.4407 12.5802 43.368 12.5029C43.058 12.6051 42.754 12.7162 42.4607 12.8367C41.2663 13.3276 40.2585 13.9641 39.231 14.7378C38.7035 15.1347 38.1255 15.4799 37.6238 15.9089C37.1597 16.306 36.7565 16.7611 36.2863 17.1548C35.9523 17.4347 35.6488 17.7696 35.4004 18.1411C35.2853 18.2547 35.1752 18.3729 35.074 18.4958C34.8215 18.8022 34.5882 19.1511 34.4509 19.5284C34.4231 19.5911 34.4 19.6576 34.3814 19.729C34.3008 19.7707 34.2225 19.8175 34.1474 19.8709C34.115 19.8663 34.0831 19.8619 34.0548 19.8597C33.6189 19.8236 33.2316 20.1344 33.1372 20.5659Z" fill="#2D635E"/>
</svg>
