<svg width="100" height="100" viewBox="0 0 100 100" fill="none" xmlns="http://www.w3.org/2000/svg">
<path d="M66.5994 77.0839C66.6029 77.157 66.623 77.2179 66.6498 77.2735C66.5596 80.278 66.5364 83.2829 66.5819 86.2892C66.2991 86.703 65.9072 87.0756 65.3551 87.3983C64.0428 88.1658 62.4276 88.5923 60.9634 88.9679C59.0487 89.4596 57.0903 89.7464 55.1199 89.8721C55.0481 89.8165 54.9592 89.7806 54.8537 89.7806C52.0283 89.781 49.2077 89.6737 46.3941 89.4645C45.3192 89.306 44.249 89.1133 43.186 88.8887C40.621 88.3471 36.2023 87.8536 35.4391 84.797L35.4225 84.7112C35.4159 84.5115 35.4094 84.3114 35.401 84.1118C35.3774 83.5522 35.3489 82.9922 35.3235 82.4326C35.3695 81.8284 35.4413 81.2264 35.4785 80.6466C35.5828 79.0165 35.6392 77.3834 35.6489 75.7498C35.6681 72.4808 35.4873 69.218 35.1414 65.9674C35.1217 65.7848 35.0201 65.6578 34.8909 65.5851C34.2841 60.4544 33.7052 55.3207 33.1395 50.1852C32.8703 47.3532 32.5695 44.5247 32.221 41.7014C31.5313 35.1709 30.8737 28.6369 30.252 22.0994C30.2638 21.81 30.2765 21.521 30.2953 21.2316C30.6272 21.4387 30.967 21.6309 31.3146 21.8065C32.2844 22.4524 33.6553 22.8245 34.4802 23.0399C37.4756 23.8228 40.6053 23.8889 43.6816 23.7606C46.4217 23.6459 49.1626 23.4301 51.8965 23.1306C56.5084 22.8495 61.2428 22.3893 65.6059 20.9146C66.5854 20.6769 67.7321 20.3135 68.4979 19.7443C68.5583 19.7154 68.6188 19.6865 68.6796 19.6584C67.1012 38.7556 65.6445 57.9136 66.5994 77.0839ZM52.6807 92.0399C49.8623 92.0876 47.0399 91.8573 44.2696 91.3349C43.408 91.1721 42.5095 91.0061 41.6439 90.7583C41.6885 90.7675 41.7306 90.7793 41.7761 90.7876C41.9061 90.8117 42.0169 90.7911 42.1071 90.7452C43.7994 90.9847 45.5048 91.1248 47.2168 91.1699C47.282 91.1712 47.3376 91.1594 47.3889 91.1414C48.4195 91.2005 49.4524 91.2194 50.491 91.1922C50.6136 91.1891 50.7161 91.137 50.7944 91.06C54.5547 91.0048 58.3044 90.6917 62.0191 90.0897C62.4307 90.0232 62.8409 89.9597 63.2433 89.8914C60.0724 91.5744 56.2356 91.9803 52.6807 92.0399ZM37.1879 17.2722C39.2423 16.6763 41.3391 16.231 43.4526 15.9004C45.7592 15.6162 48.0916 15.4792 50.4174 15.4389C53.6982 15.382 56.9957 15.4542 60.2716 15.6451C62.9994 15.8045 65.8665 16.192 68.0811 17.7937C68.3324 18.1588 68.2978 18.5065 67.7326 19.0096C67.694 19.0441 67.6485 19.0717 67.6078 19.1037C66.8315 19.4518 66.039 19.7578 65.2342 20.0284C64.9614 20.0871 64.6957 20.1396 64.4509 20.1913C60.2248 21.0832 55.9383 21.7303 51.6386 22.1861C50.9359 22.2291 50.2357 22.2698 49.5417 22.31C46.1773 22.5036 42.7858 22.6472 39.4157 22.5478C36.7553 22.4694 34.0402 22.131 31.6785 20.9339C31.5743 20.8463 31.481 20.7557 31.407 20.6602C32.076 18.485 35.2697 17.8287 37.1879 17.2722ZM67.8341 69.5271C67.8214 67.8011 69.6762 23.5111 70.051 18.9194C70.1889 18.7644 70.1994 18.5345 70.0956 18.3541L70.0983 18.3208C70.1236 18.0108 69.8912 17.8593 69.649 17.8646C69.4643 17.6824 69.2712 17.5143 69.0746 17.3527C68.3066 16.0812 66.1392 15.1609 65.0105 14.7926C62.4775 13.9651 59.7432 13.9809 57.1091 14.0093C53.6772 14.0457 50.2419 14.1604 46.8262 14.512C45.6983 14.6285 44.5722 14.7725 43.45 14.9446C38.5754 15.5361 33.8116 16.7787 29.4564 19.1869C29.3408 19.2508 29.2734 19.3388 29.2423 19.4347C29.1328 19.5083 29.0614 19.633 29.0781 19.8126L29.0864 19.8975C28.9813 20.0503 28.9699 20.2465 29.135 20.4054C29.1871 20.9602 29.244 21.5149 29.2966 22.0697C29.0995 26.854 29.85 31.5999 30.5431 36.3343C30.8115 38.1667 31.055 40.0026 31.2809 41.8402C31.5782 44.656 31.8856 47.471 32.1956 50.2854C32.2945 51.3253 32.3904 52.3656 32.4815 53.4064C32.9762 59.0792 33.3848 64.7593 33.735 70.4422C33.9071 73.2369 34.063 76.0326 34.2027 78.8287C34.3388 81.5491 34.2372 84.3815 34.577 87.0821C34.8213 89.0205 36.3306 89.5437 37.9852 89.9496C39.4612 91.2631 41.4849 91.7426 43.415 92.1362C46.4589 92.7571 49.5741 93.0482 52.6807 92.9935C57.4186 92.9103 62.576 92.2014 66.2356 88.9754C67.2111 88.3979 67.8687 87.4692 67.9379 85.8465C67.9397 85.8062 67.9401 85.766 67.9414 85.7257C68.1266 85.1626 68.2203 84.5422 68.2422 83.8644C68.3963 79.1098 68.187 74.3022 67.8341 69.5271Z" fill="#653C1C"/>
<path d="M63.6502 33.8871C60.2946 31.0114 55.6052 31.0543 51.461 31.6418C50.7832 31.7377 50.4934 30.7018 51.1751 30.605C55.7449 29.9575 60.7219 29.9658 64.4103 33.127C64.9366 33.578 64.173 34.3351 63.6502 33.8871ZM60.9492 35.3171C60.3677 34.7436 59.7376 34.2952 58.9613 34.0255C58.3111 33.7996 58.5926 32.7614 59.2472 32.9887C60.2009 33.3201 60.9929 33.8499 61.7092 34.557C62.2023 35.0439 61.4417 35.8036 60.9492 35.3171ZM50.7591 87.0063C47.9709 86.9989 43.5539 86.3802 41.6519 83.888C42.6944 84.2799 43.8306 84.4782 44.9476 84.6056C47.7612 84.9283 50.661 85.2401 53.4957 85.1945C55.9262 85.1551 58.4893 84.7532 60.5919 83.4611C60.6991 83.465 60.8068 83.4624 60.9141 83.4436L60.9969 83.4265C58.7104 86.1477 54.0583 87.0147 50.7591 87.0063ZM35.6332 35.878C35.0316 35.5352 35.5737 34.607 36.1757 34.9498C39.6566 36.9319 43.43 37.9893 47.4284 38.1894C51.433 38.39 55.2046 37.2415 59.1203 36.6434C59.798 36.54 60.0879 37.576 59.4062 37.6802C55.198 38.3225 51.1882 39.5284 46.8815 39.2315C42.8857 38.9565 39.1154 37.861 35.6332 35.878ZM66.2033 33.1419C66.4962 31.873 65.0815 31.1834 64.0088 30.7228C59.5485 28.8085 54.2278 28.6689 49.4557 29.0091C44.3828 29.3707 38.2967 30.2079 34.2505 33.5509C33.8074 33.8276 33.5434 34.3219 33.4046 34.9204C32.9676 36.7992 33.6205 39.217 33.828 41.0945C33.8473 41.2697 33.8687 41.4448 33.8884 41.6199C33.7991 43.0272 33.9024 44.4436 34.233 45.8364C34.3096 46.1582 34.4025 46.4757 34.504 46.7909C34.6595 48.0366 34.8184 49.2823 34.9778 50.5275C34.9392 50.7517 34.9493 51.0043 35.026 51.2841C35.0579 51.4015 35.0881 51.5192 35.1205 51.637C35.2501 52.6458 35.3802 53.6542 35.5093 54.663C36.1022 59.2827 36.6753 63.9055 37.0996 68.5445C37.2975 70.7066 37.463 72.8722 37.5834 75.0404C37.6522 76.28 37.7012 77.5199 37.7428 78.7608C37.7686 79.5371 37.7139 80.3769 38.0287 81.1063C38.2761 81.6804 38.7109 82.0595 39.2227 82.3371C39.506 82.6331 39.8134 82.8919 40.1413 83.1161C41.542 86.8071 46.7471 87.8413 50.2289 87.9508C54.2672 88.0777 59.8742 86.9753 62.2565 83.3446C62.3362 83.2238 62.3494 83.1047 62.3214 83C62.9063 82.8139 63.4493 82.567 63.8565 82.2054C65.0785 81.1195 64.8053 78.5896 64.846 77.1504C64.9239 74.4082 64.6761 71.7075 64.3635 69.0073C64.3994 67.8676 64.4279 66.7279 64.4506 65.5877C64.4883 65.5234 64.5137 65.4472 64.5167 65.3561C64.5404 64.666 64.5561 63.976 64.575 63.286C64.705 60.7123 64.7335 58.1272 64.7689 55.5527C64.818 51.9781 64.8872 48.3921 65.3105 44.8386C65.7615 41.0573 66.6258 37.3387 66.4047 33.5075C66.3946 33.3385 66.3132 33.2181 66.2033 33.1419Z" fill="#442916"/>
<path d="M35.3403 32.2277C35.103 30.1646 34.8657 28.1019 34.6284 26.0392C34.5592 25.4367 33.6051 25.4297 33.6752 26.0392C33.9121 28.1019 34.1494 30.1646 34.3867 32.2277C34.4559 32.8302 35.4099 32.8372 35.3403 32.2277Z" fill="#653C1C"/>
</svg>
