<svg width="212" height="211" viewBox="0 0 212 211" fill="none" xmlns="http://www.w3.org/2000/svg">
<path fill-rule="evenodd" clip-rule="evenodd" d="M80.9161 174.071C31.9659 174.071 0 127.486 0 78.7378C0 34.7399 36.7358 1.52588e-05 80.9161 1.52588e-05C120.275 1.52588e-05 143.417 39.5414 143.417 78.7378C143.417 123.2 125.563 174.071 80.9161 174.071Z" fill="#FFFDFA"/>
<path fill-rule="evenodd" clip-rule="evenodd" d="M165.048 26C213.998 26 211.38 42.0851 211.38 90.8333C211.38 134.831 174.644 169.571 130.464 169.571C91.1048 169.571 102.547 160.53 102.547 121.333C102.547 76.8707 120.401 26 165.048 26Z" fill="#AEBEB6"/>
<path fill-rule="evenodd" clip-rule="evenodd" d="M115.426 205.41C100.531 206.155 84.8228 215.443 71.6877 208.34C58.528 201.224 56.3444 183.549 49.9164 169.985C43.3684 156.169 29.891 142.909 33.6507 128.077C37.4472 113.1 55.1524 107.049 68.015 98.5887C77.7482 92.1868 88.9582 90.1024 99.3549 84.8607C112.713 78.1262 123.208 59.9977 137.756 63.4276C152.063 66.8007 154.303 86.806 161.718 99.564C167.693 109.844 173.947 119.497 177.026 130.994C180.453 143.794 184.113 157.042 180.524 169.796C176.657 183.54 168.932 197.274 156.455 204.1C144.187 210.812 129.375 204.713 115.426 205.41Z" fill="#FBEDD0"/>
<g clip-path="url(#clip0_55_521)">
<path d="M92.2156 111.017C94.0872 110.823 95.9525 110.604 97.8229 110.477C97.4685 110.479 97.1213 110.473 96.7579 110.486C95.2167 110.541 93.7007 110.725 92.2156 111.017Z" fill="#442916"/>
<path d="M150.277 146.159C150.227 146.146 150.175 146.137 150.126 146.139L150.04 146.153L150.136 146.076L150.277 146.159ZM142.564 163.259C141.86 163.767 141.13 164.12 140.37 164.529C139.444 165.027 138.693 165.614 137.696 165.999C135.922 166.683 133.889 167.174 132.237 168.103C131.287 168.637 130.539 168.979 129.444 169.163C128.581 169.308 127.724 169.472 126.871 169.676C124.658 170.207 122.536 171.037 120.301 171.495C115.904 172.394 111.321 172.66 106.854 173.014C102.306 173.375 97.7184 173.253 93.184 172.77C88.5956 172.282 83.9915 171.816 79.447 171.008C77.4811 170.659 75.4658 170.569 73.5448 169.995C71.42 169.36 69.4075 168.333 67.3264 167.563C64.3602 166.465 61.5591 164.859 58.9007 163.058C58.8687 162.99 58.822 162.927 58.7406 162.88C58.4148 162.693 58.0969 162.493 57.7835 162.286C57.3111 161.952 56.8444 161.614 56.381 161.272C55.5918 160.656 54.8363 159.99 54.109 159.29C53.1946 158.346 52.297 157.396 51.4112 156.438L51.3287 156.395L51.3011 156.365L51.2472 156.327L51.1686 156.244C51.0905 156.226 51.0147 156.195 50.949 156.128C50.5732 155.749 50.2525 155.364 49.957 154.975C49.8464 154.83 49.7374 154.685 49.6374 154.538L49.5942 154.474C49.5015 154.336 49.4189 154.195 49.3358 154.054C49.2572 153.923 49.1825 153.789 49.1106 153.656L49.1111 153.656L49.11 153.655C49.0814 153.602 49.0482 153.551 49.0207 153.497C48.8966 153.249 48.7792 152.997 48.6815 152.738L48.6506 152.695C48.3753 152.338 48.2108 151.965 48.1366 151.582L47.9945 151.556C47.9878 150.632 47.9541 149.822 48.5511 149.043C48.9415 148.534 49.3515 148.027 49.8026 147.568C51.0023 146.347 52.4638 145.483 53.8326 144.501C54.2803 144.18 54.6881 143.871 55.0953 143.584C56.2001 143.08 57.3532 142.722 58.5008 142.34C59.0613 142.041 59.623 141.745 60.1903 141.458C60.3936 141.355 60.5868 141.404 60.7233 141.52H60.7261C60.9137 141.472 61.1002 141.436 61.2861 141.408C61.3485 141.511 61.4131 141.612 61.4793 141.712C61.3799 141.653 61.271 141.623 61.1631 141.624L61.2451 141.73C61.3114 141.862 61.3777 141.995 61.444 142.127C61.5456 142.331 61.5108 142.602 61.3198 142.743L61.2715 142.784C60.925 142.964 60.5711 143.134 60.2156 143.298C60.1425 143.331 60.069 143.362 59.9965 143.396C59.691 143.533 59.3837 143.669 59.0731 143.801V143.801C58.954 143.852 58.8344 143.901 58.7142 143.952V143.949C57.893 144.291 57.0657 144.626 56.2484 144.976L56.1793 145.006C55.8738 145.138 55.5693 145.27 55.2677 145.409C55.0773 145.496 54.8903 145.59 54.7015 145.682L54.6712 145.682C54.5308 145.75 54.3954 145.826 54.2567 145.897L54.2325 145.909L54.232 145.91C54.1713 145.941 54.1107 145.972 54.0506 146.004L54.0511 146.003L54.0309 146.014C53.8163 146.126 53.6029 146.242 53.3934 146.362C53.1097 146.522 52.8295 146.689 52.5576 146.868C52.3919 146.978 52.2403 147.089 52.0959 147.2L51.9605 147.312C51.8679 147.388 51.778 147.465 51.6949 147.542L51.5584 147.673C51.4854 147.746 51.4163 147.819 51.3511 147.892L51.2337 148.028C51.1708 148.105 51.1135 148.182 51.0585 148.259L50.9709 148.383C50.9012 148.49 50.8383 148.598 50.7833 148.706L50.7619 148.744C50.7035 148.862 50.6552 148.98 50.6131 149.099L50.5771 149.216C50.5592 149.275 50.5378 149.334 50.5232 149.393L50.5311 149.387C50.3783 150.007 50.4283 150.634 50.6294 151.256C50.2631 152.248 51.2371 153.09 51.9476 153.711C53.2642 154.863 54.7925 155.786 56.1243 156.911C57.0999 157.735 58.1278 158.145 59.2085 158.518C59.7842 158.891 60.3639 159.258 60.9514 159.612C61.0266 159.646 61.1041 159.674 61.1777 159.71L61.2558 159.731C61.349 159.738 61.4417 159.742 61.5344 159.747C61.713 159.808 61.8956 159.861 62.0792 159.91C62.323 160.038 62.6123 160.112 62.8959 160.181C63.0447 160.23 63.1942 160.279 63.3424 160.33L63.4728 160.345L63.4896 160.351C63.5486 160.373 63.6036 160.377 63.6598 160.383L63.6323 160.495C67.7606 161.501 71.9743 162.333 76.2431 162.998L76.2521 163L76.2656 163.002C84.4538 164.276 92.8481 164.924 101.253 164.924C106.656 164.924 112.064 164.659 117.423 164.122C118.585 163.977 119.746 163.841 120.907 163.704C127.321 162.951 133.902 162.171 140.235 159.848C141.485 159.447 142.73 159.027 143.94 158.519C144.518 158.278 145.043 157.993 145.399 157.55L145.551 157.472L145.511 157.399L145.576 157.29C145.851 157.203 146.128 157.125 146.4 157.033C146.935 156.744 147.465 156.45 147.987 156.138L148.06 156.045C148.419 155.754 148.806 155.468 149.196 155.176C150.265 153.584 151.356 151.754 151.134 150.154C150.739 149.582 150.236 148.916 150 148.247C149.92 148.182 149.838 148.116 149.747 148.052C149.533 147.901 149.439 147.635 149.575 147.395C149.815 146.972 149.782 146.988 150.147 146.702L150.188 146.68C150.32 146.531 150.521 146.467 150.729 146.627L150.793 146.678C150.903 146.652 151.021 146.66 151.127 146.726C151.472 146.942 151.768 147.236 152.02 147.579L152.01 147.587C152.076 147.667 152.13 147.748 152.19 147.828C152.419 148.192 152.606 148.597 152.746 149.023C152.91 149.401 153.005 149.781 153.047 150.16L153.047 150.189C153.059 150.297 153.066 150.406 153.07 150.514C153.073 150.636 153.074 150.757 153.066 150.879C153.073 151.16 153.067 151.436 153.034 151.693C152.998 151.984 152.924 152.257 152.827 152.519C152.781 152.645 152.729 152.768 152.672 152.887L152.649 152.937L152.65 152.937L152.642 152.955L152.636 152.97C152.558 153.124 152.468 153.272 152.373 153.416L152.323 153.494C152.23 153.629 152.131 153.761 152.026 153.891L151.954 153.976C151.843 154.108 151.729 154.237 151.607 154.362C151.396 154.659 151.169 154.954 150.929 155.245L151.046 155.19C148.669 158.213 145.671 161.015 142.564 163.259ZM143.896 150.301L143.853 150.318L143.894 150.295L143.896 150.301ZM108.482 164.055L108.561 164.183C108.109 164.203 107.658 164.23 107.206 164.246C107.632 164.187 108.058 164.127 108.482 164.055ZM93.7569 164.143C93.8788 164.161 94.0012 164.178 94.1237 164.195C93.9872 164.189 93.8496 164.186 93.7125 164.18L93.7569 164.143ZM72.267 161.687C72.6315 161.737 72.9803 161.834 73.3252 161.939C72.7427 161.837 72.1636 161.725 71.5834 161.616C71.8109 161.634 72.0384 161.655 72.267 161.687ZM64.2939 160.059C64.5321 160.111 64.7691 160.169 65.005 160.229C64.768 160.174 64.5293 160.121 64.2922 160.064L64.2939 160.059ZM58.8625 144.221L58.7558 144.193L58.7434 144.192L58.7423 144.183C58.8024 144.156 58.8625 144.128 58.9226 144.101L58.8625 144.221ZM83.4838 96.2554C82.8502 96.284 82.216 96.2885 81.5819 96.2913C83.1484 96.097 84.7588 95.9279 86.4084 95.7875C85.435 95.9908 84.4583 96.2116 83.4838 96.2554ZM126.316 98.1735L126.216 98.1466L126.319 98.1701L126.316 98.1735ZM133.497 114.754L133.48 114.707L133.497 114.754ZM124.452 116.819C124.449 116.711 124.418 116.604 124.359 116.512C124.851 116.466 125.341 116.406 125.829 116.334C125.358 116.48 124.895 116.637 124.452 116.819ZM83.8073 106.662C82.789 106.875 81.7746 107.103 80.7731 107.376C80.4439 107.432 80.1148 107.488 79.7856 107.542C81.1775 107.186 82.5823 106.88 83.9966 106.621C83.9337 106.635 83.8696 106.649 83.8073 106.662ZM87.3846 106.111C87.3161 106.109 87.247 106.113 87.1779 106.114C87.3953 106.084 87.6132 106.056 87.8312 106.028C87.6823 106.056 87.5335 106.083 87.3846 106.111ZM100.388 105.282C100.284 105.269 100.18 105.253 100.076 105.239L99.9618 105.14C100.362 105.129 100.762 105.116 101.163 105.109C100.904 105.164 100.645 105.22 100.388 105.282ZM115.405 114.601L115.442 114.596L115.325 114.711C115.266 114.775 115.232 114.854 115.21 114.936C114.903 114.971 114.597 115.01 114.291 115.046C114.692 114.933 115.075 114.795 115.405 114.601ZM123.345 115.914C123.291 115.874 123.238 115.834 123.176 115.796C123.253 115.767 123.329 115.736 123.406 115.707C123.373 115.772 123.352 115.841 123.345 115.914ZM101.178 121.224L101.314 121.223L101.32 121.231L101.177 121.231L101.178 121.224ZM119.956 117.771L119.915 117.85C119.58 117.922 119.259 117.989 118.98 118.059L118.849 118.091C119.314 117.869 119.782 117.653 120.253 117.444C120.154 117.552 120.049 117.655 119.956 117.771ZM88.8416 117.937C88.5417 117.92 88.2417 117.903 87.9435 117.884C88.2429 117.903 88.5422 117.92 88.8416 117.937ZM104.611 111.78L104.62 111.782C104.495 111.856 104.346 111.896 104.173 111.873C102.836 111.69 101.506 111.636 100.18 111.653C100.093 111.653 100.006 111.652 99.9202 111.653C99.6315 111.659 99.3434 111.672 99.0552 111.685C98.8547 111.693 98.6536 111.698 98.4531 111.709L98.3548 111.713L98.3565 111.716C97.2376 111.78 96.1204 111.884 95.0033 112.002V112C94.9387 112.007 94.8752 112.014 94.8106 112.021C94.0574 112.102 93.3036 112.185 92.5493 112.268C92.2336 112.302 91.9174 112.336 91.6006 112.369C91.1782 112.413 90.7547 112.45 90.3318 112.489C90.065 112.513 89.7987 112.54 89.5314 112.56C88.9781 112.604 88.4237 112.635 87.8688 112.66C87.4981 112.678 87.1279 112.699 86.7561 112.705L86.7123 112.697C86.555 112.763 86.3955 112.823 86.2399 112.892C86.3876 112.827 86.5342 112.758 86.6814 112.691C86.3983 112.665 86.2219 112.489 86.1585 112.265C83.5764 113.218 81.3505 114.461 79.5452 115.972L79.4891 115.987C81.3202 114.455 83.5585 113.212 86.1557 112.25C86.1287 112.147 86.1293 112.039 86.1478 111.936L86.177 111.84L86.1955 111.781L86.2158 111.73L86.2568 111.671L86.332 111.574L86.3236 111.576L86.3298 111.568L86.4382 111.495L86.5118 111.447C86.5825 111.417 86.664 111.4 86.7561 111.398C87.1375 111.392 87.5177 111.38 87.8974 111.363L87.898 111.362H87.9059L87.9177 111.359C88.3692 111.338 88.8203 111.313 89.2702 111.281C90.2683 111.024 91.2978 110.792 92.383 110.606C92.5335 110.58 92.6852 110.558 92.8369 110.537L93.1183 110.495L93.0795 109.929C90.6002 109.888 88.1575 110.043 85.7726 110.391C89.0405 109.905 92.3527 109.772 95.6043 110.012L95.6941 110.172L95.8767 110.156C99.3658 109.86 102.61 110.077 105.552 110.794C105.18 110.709 104.782 110.626 104.341 110.543L104.331 110.592C104.395 110.6 104.457 110.605 104.52 110.613C104.774 110.648 104.914 110.788 104.966 110.962L104.956 110.96L104.966 110.994L104.971 110.996C105.034 111.271 104.892 111.617 104.611 111.78ZM110.654 112.99L110.642 113.013C109.473 113.168 108.255 112.616 107.077 112.086C106.674 111.905 106.264 111.72 105.855 111.563C106.353 111.734 106.861 111.931 107.407 112.152L107.792 112.312C108.671 112.68 109.664 113.098 110.654 112.99ZM91.0985 118.052C90.7401 118.036 90.3801 118.019 90.0262 118.001C90.384 118.019 90.7412 118.036 91.0985 118.052ZM83.8168 114.103C82.5407 114.822 81.3145 115.642 80.1474 116.564L80.208 116.64L80.1277 116.628L80.0794 116.589C81.2578 115.659 82.512 114.836 83.8168 114.103ZM104.643 112.462C104.6 112.433 104.551 112.409 104.497 112.389C104.571 112.389 104.645 112.388 104.719 112.388L104.643 112.462ZM106.859 112.908L106.898 112.879C106.964 112.832 107.031 112.789 107.098 112.744L107.127 112.74L107.137 112.737L107.232 112.779C107.124 112.821 107.017 112.864 106.909 112.905L106.859 112.908ZM83.6444 115.313C83.8882 115.272 84.1319 115.233 84.3751 115.187L84.4689 115.292C84.1937 115.302 83.9185 115.31 83.6444 115.313ZM111.066 119.787C110.925 119.779 110.783 119.773 110.642 119.766C110.933 119.72 111.239 119.666 111.552 119.601C111.366 119.677 111.212 119.742 111.094 119.793L111.066 119.787ZM72.5327 112.271C70.5702 113.225 68.7492 114.332 67.168 115.572L67.1636 115.503C69.1502 114.002 71.4071 112.695 73.8796 111.615L72.5327 112.271ZM87.889 119.965C87.2122 119.849 86.5365 119.718 85.8619 119.581C85.6389 119.536 85.4159 119.491 85.1935 119.444L85.084 119.42C84.3684 119.267 83.6523 119.105 82.9384 118.932C80.8517 118.423 78.7746 117.831 76.7076 117.184C75.8185 116.904 74.931 116.618 74.0464 116.321C73.7672 116.227 73.633 116.01 73.6055 115.78L73.601 115.738C73.5965 115.666 73.601 115.592 73.6167 115.522C73.6414 115.417 73.6869 115.319 73.7515 115.238C73.6864 115.195 73.6173 115.156 73.5521 115.113L73.7549 115.234C73.852 115.113 73.9913 115.033 74.1627 115.028L74.1537 114.922L74.6283 114.863L74.3503 114.473C74.2626 114.35 74.1778 114.224 74.1014 114.089L73.9683 113.852L73.7257 113.974C72.3619 114.658 71.63 115.272 71.4896 115.852C71.4261 116.112 71.479 116.369 71.6514 116.553L71.5879 116.559C71.4722 116.4 71.4054 116.24 71.3908 116.084L71.3526 115.868L71.1577 115.819L71.1953 115.672L72.0738 114.919C73.3774 113.805 76.0533 112.91 77.1957 112.528L77.5434 112.411C78.3994 112.114 79.2678 111.851 80.1418 111.606C79.6042 111.76 79.0706 111.925 78.541 112.101L78.3809 112.154C77.6906 112.381 75.8578 112.983 74.2761 113.71L73.9908 113.841L74.1492 114.112C74.4222 114.579 74.767 114.972 75.1591 115.312C75.4388 115.404 75.7196 115.492 75.9994 115.583L76.0106 115.591C76.1735 115.643 76.3369 115.692 76.4998 115.745C76.8245 115.848 77.1497 115.95 77.4754 116.05C77.7445 116.134 78.0135 116.216 78.2826 116.298C78.5 116.364 78.7173 116.43 78.9347 116.494L78.9353 116.497C79.2655 116.594 79.5964 116.688 79.9272 116.782L79.93 116.783L79.9266 116.779C80.0058 116.802 80.0856 116.825 80.1653 116.848L80.1592 116.849C80.2541 116.876 80.3485 116.904 80.4434 116.931C80.4956 116.947 80.5473 116.962 80.5995 116.976L80.627 116.979C81.1983 117.138 81.7701 117.291 82.3424 117.437C82.5019 117.45 82.6603 117.464 82.8137 117.476C83.1855 117.506 83.5422 117.535 83.8786 117.567C85.0812 117.682 86.2888 117.776 87.4975 117.855C85.9113 117.755 84.3465 117.637 82.7755 117.491L82.6777 117.482C82.5963 117.475 82.5036 117.466 82.4194 117.458C83.0164 117.61 83.6152 117.753 84.2139 117.891H84.2094L84.2375 117.897C84.8217 118.031 85.4069 118.156 85.9928 118.275L85.9849 118.277C86.0355 118.287 86.0866 118.296 86.1377 118.307C86.204 118.32 86.2702 118.336 86.3365 118.349L86.3455 118.35C86.5326 118.388 86.7202 118.422 86.9078 118.459L86.8544 118.456C86.9931 118.483 87.133 118.504 87.2723 118.529C87.7986 118.628 88.3254 118.722 88.8529 118.806H88.854L88.9118 118.816L88.9382 118.821H88.9472C89.6224 118.927 90.2981 119.023 90.9743 119.105C92.8307 119.088 94.6893 119.021 96.5198 118.946L98.2279 118.878L98.2267 118.592L98.2919 118.589L98.2267 118.588L98.2251 118.308C95.8806 118.242 93.6923 118.168 91.5843 118.074C94.1057 118.181 96.617 118.245 99.0861 118.308L100.834 118.388L100.642 118.801L101.097 118.793C102.221 118.773 103.207 118.776 104.126 118.826C101.62 118.762 98.9783 118.866 96.4232 118.968C95.0634 119.023 93.6962 119.077 92.3297 119.108L92.3285 119.247C92.7616 119.289 93.1952 119.322 93.6288 119.353L93.5277 119.356C93.6227 119.363 93.7181 119.366 93.8131 119.372C94.0535 119.388 94.2944 119.399 94.5354 119.411C94.7533 119.423 94.9712 119.439 95.1897 119.447H95.1903L95.3257 119.454C95.4459 119.456 95.5666 119.458 95.6863 119.458L95.6745 119.455C96.6911 119.484 97.7083 119.48 98.7272 119.441L98.7806 119.44L98.8682 119.435H98.9277C99.0311 119.43 99.1344 119.42 99.2372 119.414C99.6691 119.392 100.101 119.364 100.533 119.329L100.543 119.328C100.619 119.322 100.694 119.32 100.771 119.313C100.87 119.304 100.97 119.29 101.069 119.281C101.496 119.24 101.924 119.192 102.351 119.137C102.461 119.123 102.571 119.115 102.682 119.1L102.663 119.101L102.743 119.092L102.707 119.092C103.272 119.015 103.837 118.927 104.402 118.824L104.404 118.834C105.406 118.652 106.41 118.434 107.414 118.171C107.749 118.083 108.084 117.99 108.419 117.892C108.502 117.868 108.579 117.863 108.651 117.867L108.68 117.867C108.746 117.875 108.808 117.894 108.864 117.922L108.894 117.937C108.948 117.968 108.996 118.006 109.037 118.051L109.055 118.073C109.096 118.122 109.133 118.177 109.16 118.237L109.16 118.24C109.189 118.304 109.208 118.373 109.217 118.442L109.218 118.447C109.227 118.515 109.225 118.586 109.214 118.653L109.212 118.666C109.2 118.733 109.177 118.798 109.144 118.858L109.139 118.868C109.103 118.929 109.057 118.985 108.998 119.033C108.935 119.083 108.859 119.125 108.767 119.152C107.928 119.398 107.09 119.604 106.253 119.791C105.896 119.871 105.539 119.951 105.183 120.021C104.969 120.063 104.755 120.097 104.54 120.135C104.201 120.195 103.863 120.257 103.524 120.309C103.277 120.346 103.03 120.376 102.784 120.409C102.577 120.436 102.371 120.464 102.165 120.489C101.622 120.553 101.079 120.606 100.536 120.649C100.436 120.657 100.336 120.669 100.235 120.676C99.6124 120.72 98.9901 120.749 98.3677 120.767C98.1633 120.773 97.9583 120.774 97.7532 120.778C97.3118 120.785 96.8697 120.786 96.4288 120.781C96.194 120.778 95.9592 120.773 95.7239 120.767C95.2403 120.753 94.7567 120.733 94.2731 120.706C94.1192 120.697 93.9653 120.69 93.8119 120.68C91.832 120.549 89.8571 120.303 87.889 119.965ZM120.509 114.331L120.587 114.454C120.515 114.459 120.443 114.461 120.37 114.466L120.509 114.331ZM85.025 107.294C85.5457 107.162 86.0709 107.043 86.5977 106.931C86.9819 106.85 87.3678 106.773 87.7553 106.703C87.8924 106.678 88.03 106.656 88.167 106.632C88.5142 106.574 88.8624 106.52 89.2112 106.47C89.3634 106.449 89.5156 106.427 89.6684 106.408C90.0189 106.362 90.3711 106.324 90.7238 106.288C90.8654 106.274 91.0063 106.257 91.1479 106.244C91.6365 106.201 92.1263 106.165 92.6195 106.142C93.1059 106.118 93.3008 106.54 93.2233 106.911L93.2182 106.937L93.1767 107.054C93.1048 107.214 92.9773 107.348 92.7846 107.406L92.9503 107.389C95.3026 107.171 98.0481 107.103 100.561 108.187L100.505 108.224C98.1447 107.171 95.5795 107.208 93.608 107.358L93.4699 107.358L93.3963 107.496C93.1626 107.485 92.9284 107.479 92.6936 107.473L92.4105 107.469L91.7152 107.545C90.2391 107.719 88.7821 107.897 87.3397 108.101C86.1736 108.332 85.0244 108.621 83.887 108.954L83.8286 108.965C83.7219 108.996 83.6174 109.034 83.5107 109.066C83.1265 109.182 82.7435 109.305 82.3615 109.432C82.2318 109.476 82.0998 109.513 81.9706 109.558C81.9155 109.577 81.8616 109.599 81.8066 109.618C81.2803 109.802 80.7562 109.994 80.2355 110.197L80.1614 110.224L80.1794 110.219L80.13 110.237L80.1603 110.228C78.8078 110.759 77.4732 111.354 76.1555 112.005C83.1406 109.09 90.9255 107.723 98.0251 108.241C90.7232 107.729 82.7547 109.189 75.6152 112.278C75.3944 112.39 75.1737 112.501 74.9541 112.616C74.8586 112.666 74.7648 112.69 74.6749 112.695C73.7616 113.113 72.8612 113.553 71.9811 114.024L71.9075 114.063L71.8356 114.193C71.7637 114.321 71.6924 114.449 71.63 114.584L71.3498 115.19C71.3868 115.088 71.4278 114.981 71.4739 114.869L71.7839 114.111L71.07 114.513C69.9119 115.167 68.7874 115.869 67.7196 116.603L67.75 116.553C68.9722 115.711 70.3371 114.881 71.8047 114.086L71.8738 114.049L71.8963 114.012L72.9736 113.466C73.5055 113.198 74.0447 112.941 74.5879 112.691C74.0969 112.646 73.7712 112.01 74.1093 111.633C73.5353 112.07 73.0342 112.537 72.6259 113.031L72.176 113.574C72.3759 113.286 72.604 113.004 72.8663 112.72L73.8936 111.609C74.0475 111.542 74.202 111.476 74.3576 111.411L74.4109 111.381C75.7927 110.413 77.5541 109.626 79.775 108.98C80.6613 108.634 81.5561 108.318 82.4592 108.029L82.4649 108.028L82.5036 108.016C82.9086 107.887 83.3152 107.763 83.7241 107.645C84.1555 107.522 84.5891 107.404 85.025 107.294ZM63.2543 115.885C63.6205 115.818 63.9856 115.729 64.3484 115.626L64.2383 115.737L64.2237 115.745C64.1024 115.828 64.0462 115.947 64.026 116.071C63.9389 116.069 63.8508 116.069 63.7631 116.069C63.5963 116.001 63.4267 115.94 63.2543 115.885ZM119.155 106.438L119.152 106.444C118.898 106.405 118.666 106.368 118.483 106.323C118.189 106.25 117.897 106.18 117.604 106.11C118.126 106.207 118.643 106.315 119.155 106.438ZM133.455 113.605L133.525 113.606L133.519 113.691L133.455 113.605ZM136 115.265L135.991 115.124L135.994 115.119C136.091 115.096 136.183 115.074 136.268 115.055L136.34 115.109C136.228 115.163 136.115 115.216 136 115.265ZM65.2072 100.624C66.8507 100.148 68.2965 99.1514 69.922 98.6566C71.4879 98.1797 73.1252 97.7343 74.726 97.3928C74.9715 97.34 75.2124 97.2821 75.4523 97.222L75.5388 97.2063C76.1903 97.126 76.8419 97.0608 77.4895 97.008C80.3024 96.7783 83.126 97.0356 85.8967 96.4952C87.356 96.2104 88.8607 96.0341 90.3323 95.8178C91.6916 95.6179 93.0986 95.7583 94.468 95.7628C97.414 95.7723 100.36 95.7824 103.305 95.7914C106.226 95.8004 109.203 95.6718 112.044 96.4205C113.21 96.7272 114.314 96.7278 115.486 96.8923C116.822 97.0799 118.158 97.2445 119.5 97.3838C120.906 97.5287 122.223 98.0179 123.591 98.328C125.053 98.6588 126.415 99.216 127.895 99.4862C129.395 99.7597 130.838 99.9692 132.265 100.525C133.564 101.031 134.899 101.322 136.183 101.831C136.714 102.143 137.221 102.493 137.768 102.784C138.607 103.229 139.379 103.657 140.133 104.183C140.252 104.315 140.366 104.452 140.495 104.583C141.149 105.251 141.802 105.767 142.293 106.584C142.734 107.315 142.899 108.093 143.039 108.923C143.045 109.182 143.044 109.438 143.042 109.681C143.041 109.845 143.041 110.018 143.034 110.193C142.901 110.897 142.548 111.515 142.074 112.053C141.806 112.251 141.518 112.442 141.295 112.608C140.661 113.079 139.996 113.412 139.295 113.714C138.578 113.206 137.957 112.513 137.183 112.049C136.104 111.403 134.98 110.812 133.89 110.181C132.862 109.586 131.805 109.116 130.698 108.7C129.018 107.879 127.486 107.425 125.61 106.999C125.344 106.939 125.082 106.867 124.818 106.801C123.864 106.392 122.621 105.938 121.497 105.811C120.395 105.46 119.279 105.156 118.13 104.963C115.341 104.494 112.469 104.217 109.647 104.026C103.836 103.633 97.9296 103.906 92.1325 104.388C86.4584 104.859 80.9056 105.832 75.4916 107.609C74.8895 107.807 74.284 108.02 73.6796 108.238C73.0157 108.232 72.3467 108.308 71.7598 108.506C71.557 108.575 71.4992 108.87 71.6385 109.006C70.0292 109.637 68.4358 110.319 66.9018 111.04C65.4622 111.718 64.058 112.503 62.7774 113.449C62.3342 113.776 61.8956 114.119 61.4816 114.482C61.2232 114.709 61.0339 114.959 60.852 115.21C59.7258 114.827 58.6024 114.211 57.6296 113.566C56.3557 112.722 55.4036 111.299 54.8324 109.91C54.5606 109.249 54.3673 108.722 54.4168 108.129C54.469 107.878 54.5336 107.629 54.6016 107.387C54.6229 107.335 54.6375 107.285 54.6622 107.231C55.006 106.479 55.5019 105.758 56.0569 105.152C56.4697 104.7 56.9325 104.288 57.4145 103.899C58.9153 102.857 60.5683 102.026 62.2848 101.437C62.437 101.385 62.5915 101.333 62.7443 101.281C63.5615 101.058 64.3872 100.861 65.2072 100.624ZM129.419 154.567L129.288 154.544L129.158 154.511C129.296 154.495 129.433 154.475 129.571 154.458C129.517 154.492 129.466 154.528 129.419 154.567ZM132.904 154.002L132.824 153.965C132.944 153.943 133.064 153.926 133.184 153.903C133.091 153.937 132.997 153.968 132.904 154.002ZM141.472 151.474L141.472 151.472L141.461 151.476L141.391 151.489C141.467 151.457 141.543 151.425 141.618 151.392L141.477 151.473L141.472 151.474ZM147.857 149.68L147.755 149.689L147.906 149.623L147.857 149.68ZM138.445 157.761C138.566 157.719 138.66 157.635 138.728 157.534L138.851 157.613C138.667 157.688 138.485 157.767 138.301 157.841C138.127 157.911 137.952 157.98 137.777 158.049L137.754 157.994C137.984 157.916 138.217 157.84 138.445 157.761ZM130.497 160.217C131.099 160.06 131.7 159.896 132.3 159.725L132.325 159.717C132.318 159.778 132.323 159.839 132.335 159.9C131.727 160.019 131.113 160.123 130.497 160.217ZM124.771 158.272C124.975 158.106 125.171 157.929 125.361 157.749C125.426 157.831 125.511 157.894 125.616 157.925C125.335 158.041 125.053 158.156 124.771 158.272ZM131.602 156.819L131.533 156.739C131.485 156.632 131.405 156.538 131.293 156.472L131.301 156.47L131.318 156.474C131.569 156.471 131.821 156.459 132.072 156.448C131.914 156.563 131.756 156.684 131.602 156.819ZM128.672 160.451L128.711 160.475C128.627 160.486 128.544 160.498 128.461 160.509C128.531 160.49 128.602 160.47 128.672 160.451ZM122.758 160.28L122.74 160.43C122.591 160.473 122.442 160.517 122.294 160.561C122.07 160.609 121.844 160.659 121.617 160.712L121.616 160.708C121.998 160.568 122.378 160.425 122.758 160.28ZM55.2879 149.589L55.2211 149.699L55.2093 149.704L55.1998 149.653L55.2879 149.589ZM54.173 149.186L54.05 149.265L54.0837 149.222L54.164 149.142L54.173 149.186ZM77.1075 161.368L77.1008 161.355L77.1435 161.368L77.1075 161.368ZM75.4938 157.26L75.3877 157.33C75.3006 157.245 75.213 157.162 75.1271 157.076C75.1894 157.097 75.2512 157.118 75.3141 157.138C75.3748 157.179 75.4326 157.22 75.4938 157.26ZM82.0919 160.976C82.0318 160.978 81.9717 160.981 81.9099 160.982L81.8667 160.99L81.8729 160.865C81.9453 160.903 82.0189 160.939 82.0919 160.976ZM55.0071 148.421C55.0167 148.479 55.0386 148.532 55.065 148.582L55.0318 148.607C55.024 148.545 55.0138 148.483 55.0071 148.421ZM54.3791 150.227L54.3348 150.194L54.3685 150.176L54.3791 150.227ZM131.837 113.81L131.72 113.683L131.837 113.81ZM131.625 113.582C131.534 113.486 131.437 113.394 131.339 113.305C131.441 113.396 131.536 113.489 131.625 113.582ZM160.091 130.149C159.538 132.663 158.479 135.082 157.096 137.247C156.226 138.608 155.171 139.821 154.058 140.984C153.576 141.361 153.093 141.73 152.627 142.104C150.887 143.498 149.449 145.27 147.624 146.559C147.456 146.677 147.388 146.84 147.387 147.003C144.497 149.084 141.301 150.733 137.897 151.769C135.489 152.502 133.034 153.029 130.548 153.382C130.312 153.513 130.026 153.592 129.688 153.592H128.898C128.815 153.601 128.731 153.613 128.648 153.621C128.462 153.641 128.276 153.659 128.09 153.677L128.05 153.636L127.997 153.685L127.858 153.699C127.657 153.825 127.452 153.946 127.251 154.073C127.164 154.128 127.08 154.187 126.994 154.243L126.979 154.257C127.186 154.129 126.944 154.281 126.87 154.352L126.848 154.369C126.788 154.452 126.719 154.526 126.644 154.592C126.608 154.659 126.572 154.724 126.533 154.783L126.605 154.775L126.566 154.828C126.511 154.87 126.456 154.912 126.4 154.954C126.248 155.126 126.074 155.25 125.888 155.329C125.576 155.554 125.264 155.779 124.962 156.013C124.169 156.625 123.542 157.398 122.714 157.964C122.578 158.053 122.441 158.138 122.305 158.224C120.472 159.33 118.466 159.961 116.444 160.636C115.417 160.98 114.377 161.34 113.326 161.658C111.992 161.919 110.678 162.287 109.338 162.529C108.261 162.644 107.186 162.657 106.109 162.749C105.049 162.716 103.986 162.634 102.927 162.679C101.085 162.756 99.2512 162.645 97.4056 162.763C97.0809 162.784 96.754 162.799 96.4277 162.816C95.8621 162.73 95.297 162.636 94.7213 162.592C92.7588 162.443 90.8322 162.002 88.8933 161.664C88.5383 161.53 88.1833 161.399 87.8244 161.292C87.4919 161.194 87.1611 161.104 86.8302 161.017C86.7572 160.932 86.655 160.877 86.5258 160.895L86.4702 160.902L86.4292 160.914C85.8187 160.761 85.207 160.617 84.5863 160.464C83.5826 160.218 82.6732 159.825 81.7364 159.442C81.3634 159.233 80.9916 159.021 80.631 158.792C78.9965 157.757 77.4086 156.65 75.7758 155.611C74.0413 154.508 72.1485 153.453 70.7521 151.918C69.3232 150.346 68.1544 148.446 66.9456 146.702C66.2205 145.656 65.4504 144.642 64.6927 143.62C63.5042 141.199 62.4808 138.682 61.1317 136.346C60.0229 134.427 59.2618 132.344 58.4272 130.299C57.6543 128.405 56.8185 126.547 56.2771 124.567C56.0709 123.814 55.8979 123.058 55.7367 122.299C55.2436 119.597 54.7987 116.893 54.4538 114.171L54.4808 114.058C54.5083 113.439 54.4808 112.8 54.5179 112.177C54.7931 112.519 55.1088 112.857 55.4637 113.189C55.9339 113.877 56.4888 114.479 57.1741 114.986C57.9492 115.56 58.7984 115.922 59.6842 116.289C59.8595 116.362 60.0347 116.437 60.2105 116.512C60.2723 116.572 60.3521 116.609 60.4391 116.61C61.3311 116.991 62.2236 117.376 63.152 117.657C63.379 117.725 63.6092 117.778 63.8401 117.826C65.9009 118.584 68.2139 119.275 70.7403 119.885C71.2722 120.077 71.8014 120.268 72.3675 120.368C72.8343 120.45 73.301 120.507 73.7678 120.555C79.6896 121.757 86.5668 122.544 93.9647 122.777C95.456 122.895 96.9377 122.966 98.448 122.979C99.0103 122.984 99.5607 122.902 100.115 122.837C101.343 122.825 102.565 122.803 103.773 122.761L103.834 122.763C104.783 122.803 105.74 122.889 106.691 122.831C107.179 122.8 107.658 122.692 108.138 122.589C109.115 122.567 110.09 122.503 111.08 122.35C111.158 122.338 111.236 122.333 111.314 122.322C111.665 122.315 112.015 122.307 112.364 122.287C112.797 122.263 113.225 122.271 113.648 122.166C113.735 122.144 113.822 122.115 113.909 122.087C114.661 122.037 115.414 121.984 116.163 121.876C116.844 121.778 117.511 121.642 118.176 121.496C122.472 120.867 126.433 120.025 129.927 118.997C130.901 118.77 131.866 118.493 132.816 118.11C132.995 118.038 133.167 117.957 133.341 117.878C133.7 117.746 134.065 117.616 134.41 117.48L134.684 117.372L134.567 117.102C134.388 116.689 134.145 116.305 133.821 115.929L133.725 115.825L133.638 115.803L133.626 115.708L133.558 115.641C133.4 115.482 133.235 115.332 133.06 115.19L132.666 114.929L132.588 115.412C132.552 115.209 132.491 115.006 132.398 114.774L132.364 114.687L132.285 114.639C131.61 114.213 130.891 113.863 130.194 113.523L129.862 113.361C129.52 113.195 129.175 113.027 128.83 112.86C129.094 113.17 129.342 113.503 129.577 113.856L129.59 113.863C129.644 113.941 129.698 114.019 129.749 114.101H129.747L129.781 114.148C129.813 114.202 129.835 114.254 129.852 114.306L129.862 114.35L129.877 114.465L129.878 114.503C129.874 114.604 129.843 114.699 129.791 114.782C129.561 115.148 128.95 115.291 128.652 114.808C128.522 114.595 128.374 114.406 128.231 114.21L128.223 114.21L128.211 114.194L128.219 114.193L128.127 114.081C128.019 113.937 127.908 113.798 127.794 113.664L127.804 113.661C127.755 113.604 127.701 113.553 127.652 113.497L127.623 113.463L127.62 113.464L127.573 113.412L127.445 113.267L127.438 113.268C127.288 113.111 127.134 112.961 126.975 112.817L126.985 112.818L126.898 112.746C126.744 112.609 126.588 112.477 126.427 112.351L126.465 112.368C126.392 112.31 126.312 112.261 126.238 112.205L126.228 112.198L126.143 112.133C126.045 112.061 125.945 111.993 125.843 111.925C125.741 111.856 125.638 111.788 125.533 111.722C125.473 111.685 125.417 111.644 125.357 111.608L125.347 111.608L125.292 111.572L125.276 111.571C124.242 110.962 123.105 110.507 121.91 110.159L121.906 110.157L121.897 110.155C121.831 110.136 121.766 110.117 121.7 110.098L121.706 110.102C121.407 110.019 121.107 109.941 120.803 109.869L120.736 109.853L120.681 109.841C120.369 109.768 120.055 109.701 119.738 109.64L119.655 109.624C119.52 109.598 119.386 109.569 119.251 109.545L119.293 109.559L119.2 109.543C118.924 109.494 118.648 109.445 118.37 109.402C118.251 109.384 118.132 109.366 118.012 109.348C117.933 109.337 117.855 109.324 117.777 109.313L117.874 109.321C117.59 109.28 117.308 109.245 117.025 109.209H117.023C116.524 109.144 116.028 109.083 115.535 109.027C115.415 109.013 115.296 108.999 115.177 108.985C114.82 108.945 114.469 108.904 114.119 108.865C113.889 108.839 113.661 108.812 113.434 108.785C113.037 108.738 112.643 108.69 112.261 108.638C112.175 108.626 112.108 108.597 112.047 108.563L111.993 108.531L111.886 108.419L111.84 108.327L111.798 108.191L111.796 108.183C111.791 108.132 111.799 108.079 111.807 108.027L111.82 107.952L111.85 107.847L111.862 107.822C111.928 107.671 112.044 107.537 112.2 107.457C111.742 107.409 111.286 107.365 110.834 107.337L110.758 107.176L110.579 107.175C109.551 107.156 108.666 107.27 107.842 107.469C109.942 106.893 112.278 107.191 114.538 107.62C115.51 107.737 116.504 107.854 117.5 107.992C117.72 108.023 117.938 108.06 118.157 108.093C118.47 108.141 118.784 108.185 119.095 108.238L119.147 108.247C119.649 108.334 120.149 108.431 120.643 108.538C122.178 108.873 123.663 109.326 125.026 109.983C125.146 110.04 125.266 110.1 125.385 110.16C125.809 110.38 126.222 110.62 126.617 110.885C126.689 110.91 126.763 110.932 126.834 110.957L127.035 110.423C125.936 109.98 124.758 109.557 123.329 109.091L122.973 108.976C122.377 108.782 121.766 108.583 121.145 108.385C122.41 108.757 123.628 109.149 124.814 109.567C127.115 110.378 129.53 111.288 131.568 112.71L131.614 112.743C131.528 112.686 131.446 112.629 131.355 112.571L131.027 113.037L131.078 113.081C130.098 112.283 128.829 111.744 127.677 111.298C127.349 111.17 127.024 111.056 126.702 110.946C127.44 111.451 128.118 112.048 128.728 112.745C129.664 113.192 130.506 113.619 131.305 114.051L132.356 114.617L132.384 114.677L132.451 114.721C132.679 114.872 132.897 115.033 133.1 115.199L133.664 115.66L133.664 115.721L133.74 115.805C134.114 116.215 134.394 116.642 134.6 117.111L134.711 117.366L134.969 117.26C136.699 116.55 138.184 115.796 139.43 115.009C139.557 114.976 139.675 114.904 139.757 114.803C139.828 114.756 139.893 114.708 139.962 114.661C140.457 114.429 140.939 114.172 141.386 113.851C141.805 113.55 142.207 113.205 142.567 112.82C142.619 112.774 142.668 112.727 142.717 112.679C143.217 113.05 142.625 114.864 142.775 116.038L142.744 116.129L142.71 116.251L142.716 116.33V116.445L142.727 116.468L142.716 116.473V116.731C142.864 116.818 142.995 116.929 143.11 117.06C143.184 117.027 143.261 116.997 143.336 116.964C143.931 117.229 144.737 116.963 145.33 116.818C146.499 116.531 147.656 116.267 148.841 116.045C151.315 115.582 153.871 115.628 156.05 117.071C157.129 117.785 157.537 119.025 158.122 120.121C158.662 121.136 159.162 122.188 159.546 123.275C159.922 124.338 159.971 125.462 160.04 126.578C160.09 127.407 160.247 128.206 160.29 129.03C160.238 129.404 160.173 129.778 160.091 130.149ZM160.394 121.286C159.507 118.718 158.352 116.742 155.826 115.557C155.519 115.413 155.208 115.289 154.896 115.175C154.432 114.996 153.949 114.854 153.451 114.752C150.306 114.06 147.001 114.705 143.935 115.947C143.865 115.922 143.806 115.888 143.771 115.836L143.732 115.734C143.769 115.488 143.791 115.237 143.823 115.012C143.931 114.242 144.051 113.483 144.128 112.709C144.258 111.397 144.181 110.13 144.038 108.838L144.041 108.78C144.041 108.213 143.93 107.654 143.718 107.103L143.724 106.955L143.658 106.951C143.502 106.579 143.296 106.211 143.047 105.848C142.909 105.615 142.758 105.384 142.583 105.159C142.112 104.558 141.532 104.072 140.905 103.642C140.799 103.559 140.688 103.476 140.577 103.393C140.142 102.979 139.631 102.668 139.091 102.397C138.608 102.105 138.092 101.818 137.546 101.537C137.51 101.495 137.463 101.457 137.403 101.427C137.164 101.31 136.924 101.212 136.685 101.113C134.583 100.116 132.086 99.2053 129.26 98.4044C129.219 98.3667 129.169 98.3364 129.099 98.3291C129.038 98.3224 128.977 98.3151 128.916 98.3083C120.87 96.0728 110.244 94.7102 98.6087 94.7102C91.9983 94.7102 85.7136 95.1505 80.0418 95.9397L79.9513 95.9139C79.2571 95.874 78.5353 95.7229 77.8518 95.8437C77.0081 95.9936 76.1976 96.3172 75.3725 96.5379C75.1883 96.5873 75.0018 96.6317 74.8159 96.6783C74.6109 96.7075 74.4036 96.7317 74.2008 96.7671C73.2572 96.9333 72.3276 97.208 71.4059 97.4883C71.1852 97.5416 70.9639 97.5933 70.7443 97.6489C70.5123 97.7079 70.2854 97.7736 70.0613 97.8438C66.4233 98.756 63.2481 99.8389 60.6632 101.052C59.318 101.576 58.025 102.297 56.8904 103.211C54.5055 104.918 53.1788 106.799 53.1766 108.774H53.176C53.0317 115.397 54.0556 122.164 56.1653 128.869C56.3203 129.633 56.5843 130.339 56.8359 131.098C57.1707 132.106 57.4476 133.168 57.8947 134.129C58.1076 134.588 58.3525 135.03 58.6024 135.469C58.9226 136.222 59.2562 136.973 59.6039 137.723C59.6926 137.943 59.7803 138.166 59.8707 138.383C60.0954 138.923 60.3144 139.464 60.5531 139.993C60.4537 140.004 60.3554 140.036 60.2684 140.081C58.9192 140.773 57.292 141.033 55.8766 141.605C54.7072 142.078 53.613 143.028 52.5694 143.829C51.2511 144.439 49.9784 145.103 48.8101 146.062C47.2228 147.364 46.0657 149.513 46.3988 151.616C46.5617 152.639 47.1745 153.706 48.0288 154.393C48.3557 154.875 48.7084 155.335 49.0853 155.775C49.6515 156.605 50.3553 157.74 51.1646 158.278C51.842 159.004 52.5812 159.672 53.3451 160.301C54.9959 161.661 56.75 162.918 58.5283 164.101C60.4537 165.383 62.4072 166.762 64.5203 167.711C66.626 168.657 68.8284 169.413 70.9605 170.299C73.0106 171.153 75.0529 171.583 77.248 171.865C79.8182 172.196 82.3548 172.725 84.9329 173.024C87.4121 173.311 89.8942 173.584 92.374 173.865C97.1017 174.4 101.881 174.573 106.629 174.219C111.287 173.871 116.069 173.572 120.651 172.627C122.967 172.149 125.166 171.286 127.466 170.752C128.443 170.525 129.434 170.392 130.417 170.194C131.5 169.976 132.219 169.403 133.197 168.95C135.081 168.076 137.199 167.648 139.077 166.739C139.892 166.344 140.599 165.762 141.412 165.348C142.387 164.851 143.271 164.236 144.12 163.546C147.524 160.781 151.587 157.582 153.535 153.529L153.575 153.438C154.197 152.697 154.511 151.765 154.23 150.544L154.224 150.526C154.261 149.773 154.308 148.925 154.184 148.259C153.889 146.676 152.331 146.04 151.053 145.277C151.57 144.813 152.075 144.336 152.565 143.845C153.332 143.076 154.101 142.31 154.844 141.522C155.488 140.995 156.121 140.457 156.696 139.856C158.896 137.56 160.44 134.149 160.884 130.875C160.978 130.491 161.063 130.106 161.131 129.719C161.632 126.893 161.328 123.991 160.394 121.286Z" fill="#442916"/>
<path d="M143.498 141.539L143.454 141.562C142.488 141.34 141.604 140.881 140.639 140.658C139.866 140.479 139.063 140.269 138.271 140.125C138.678 139.104 139.029 138.054 139.411 137.052C140.255 134.843 141.299 132.729 142.129 130.517C142.575 129.33 142.937 128.101 143.143 126.849C143.19 126.563 143.216 126.277 143.23 125.991C143.307 125.772 143.385 125.553 143.458 125.332C143.597 124.913 143.729 124.491 143.859 124.069C143.928 123.845 143.972 123.554 144.042 123.294C144.214 123.241 144.385 123.189 144.542 123.128C145.488 122.763 146.559 122.451 147.577 122.358C149.182 122.211 151.411 122.338 152.597 123.569C153.919 124.94 153.878 127.371 153.822 129.143C153.751 131.418 152.67 132.946 151.275 134.61C150.288 135.788 149.29 136.969 148.244 138.096C146.843 139.608 145.316 140.599 143.498 141.539ZM137.623 142.213C137.533 142.109 137.492 141.974 137.494 141.844C137.551 141.737 137.602 141.627 137.656 141.518L137.72 141.458C137.843 141.391 137.967 141.344 138.09 141.308C138.193 141.225 138.326 141.179 138.488 141.211L138.57 141.229C138.83 141.22 139.09 141.265 139.351 141.33C139.714 141.42 140.078 141.557 140.439 141.698C140.915 141.833 141.39 141.973 141.868 142.105C141.94 142.125 141.996 142.163 142.045 142.207L142.159 142.269C141.585 142.595 141.025 142.933 140.469 143.282C139.392 143.256 138.28 142.96 137.623 142.213ZM150.694 121.254L150.591 121.244C149.692 121.077 148.73 121.081 147.799 121.184C146.761 121.255 145.726 121.416 144.75 121.642C143.95 121.827 143.163 122.059 142.375 122.29C142.306 122.471 142.24 122.653 142.177 122.837L142.166 122.864L142.143 122.931C142.121 122.994 142.098 123.058 142.076 123.121C142.026 123.262 141.977 123.402 141.927 123.543C141.899 124.041 141.852 124.538 141.79 125.035C141.678 125.648 141.567 126.261 141.467 126.878C141.166 127.754 140.834 128.618 140.546 129.501C140.511 129.609 140.528 129.705 140.572 129.787C139.973 131.274 139.607 132.854 139.122 134.381C139.044 134.627 138.958 134.872 138.876 135.118C138.738 135.452 138.599 135.786 138.468 136.125C138.057 137.191 137.699 138.353 137.27 139.464C137.242 139.534 137.214 139.604 137.187 139.673C136.935 140.304 136.659 140.916 136.331 141.48C136.024 142.006 135.695 142.502 135.393 143.03C135.007 143.703 134.526 144.897 133.856 145.331C133.61 145.489 133.547 145.751 133.599 146.021C133.867 147.398 136.22 146.793 137.074 146.52C138.199 146.16 139.176 145.592 140.148 144.924C140.867 144.431 141.568 143.989 142.301 143.563C143.449 142.975 144.575 142.337 145.665 141.645C146.015 141.427 146.357 141.202 146.692 140.967C147.732 140.264 148.74 139.52 149.7 138.731C152.84 136.148 155.115 132.588 155.591 128.485C155.996 124.994 154.415 121.741 150.694 121.254Z" fill="#442916"/>
<path d="M62.8836 130.614C61.7405 128.036 60.9547 125.307 60.3762 122.552C60.2526 121.965 59.3927 122.253 59.4949 122.826C59.9948 125.609 60.7357 128.334 61.8523 130.935C62.3516 132.1 62.9139 133.231 63.5688 134.316C64.272 135.479 65.1527 136.657 65.5689 137.962C65.7919 138.662 66.7507 138.316 66.6283 137.632C66.4334 136.551 65.6504 135.511 65.0758 134.592C64.2658 133.298 63.5042 132.015 62.8836 130.614Z" fill="#442916"/>
<path d="M66.2199 131.037C65.9913 130.602 65.3707 131.007 65.5796 131.437C66.8209 133.989 67.7443 136.466 69.7018 138.59C70.173 139.101 70.956 138.286 70.4466 137.8C68.4313 135.877 67.4865 133.447 66.2199 131.037Z" fill="#442916"/>
<path d="M135.983 133.93C136.077 133.652 135.606 133.471 135.495 133.746C134.705 135.699 134.579 137.856 133.923 139.861C133.536 141.044 133.054 142.172 132.415 143.242C132.137 143.705 131.826 144.148 131.545 144.61C131.405 144.84 130.973 145.99 130.659 146.072C130.043 146.235 130.357 147.24 130.953 147.016C131.636 146.759 131.755 146.115 132.065 145.504C132.722 144.209 133.533 143.033 134.056 141.666C135.019 139.15 135.126 136.458 135.983 133.93Z" fill="#442916"/>
</g>
<path d="M128.639 46.0685C127.589 47.4451 126.085 48.7651 124.635 49.7019C123.111 50.6857 121.281 51.2998 119.616 52.0051C116.09 53.4978 111.9 53.4542 108.2 52.6504C106.374 52.2536 104.557 51.1843 103.31 49.7885C102.922 49.3532 102.625 48.8891 102.389 48.3893C103.42 49.3645 104.741 50.0687 106.074 50.4762C107.776 50.9964 109.539 51.1164 111.316 51.2132C113.094 51.3106 114.715 50.8311 116.414 50.3896L116.499 50.3676C117.264 50.251 118.024 50.1072 118.758 49.8994C120.219 49.4857 121.578 48.8698 122.947 48.2217C125.473 47.024 127.884 45.7147 129.551 43.3985L129.583 43.3532L129.702 43.2513C130.147 42.8444 130.536 42.4164 130.884 41.9664C130.602 42.5913 130.271 43.2049 129.962 43.8004C129.568 44.5589 129.157 45.3881 128.639 46.0685ZM108.417 49.8179C106.809 49.6974 105.393 49.0442 103.997 48.2664C103.182 47.813 102.277 46.9696 101.895 46.0108C101.864 45.7442 101.867 45.473 101.9 45.2008C102.08 45.1702 102.231 45.031 102.24 44.8595C103.054 44.8895 104.422 45.5251 104.853 45.661C105.891 45.9881 107.07 46.2049 108.159 46.06C110.465 45.7527 111.89 44.0387 113.538 42.614C114.338 41.9217 114.706 41.0092 115.25 40.1121C115.951 38.954 116.932 37.9493 117.909 37.0227C118.815 36.1645 119.905 35.5589 120.926 34.857C121.964 34.1438 123.093 33.516 124.248 33.0247C125.385 32.5413 126.294 31.9764 127.595 32.0387C128.201 32.0681 128.751 32.1508 129.247 32.3262C129.598 32.7547 129.932 33.1855 130.311 33.5919C130.812 34.1302 131.279 34.5519 131.578 35.2425C131.619 35.3364 131.658 35.4298 131.695 35.5221C131.822 36.0225 131.887 36.5342 131.861 37.0278C131.783 38.4457 131.074 39.743 130.322 40.9113C129.92 41.5345 129.509 42.1255 129.076 42.6876C128.195 43.5327 127.198 44.2968 126.17 45.07C123.907 46.7721 121.334 47.8719 118.708 48.897C118.074 49.1438 117.431 49.36 116.781 49.553C114.022 50.0591 111.21 50.0262 108.417 49.8179ZM124.231 32.114C124.007 32.2278 123.784 32.3432 123.555 32.4445C122.863 32.7508 122.188 33.1645 121.535 33.5461C119.169 34.9306 116.886 36.5738 115.225 38.7864C114.743 39.4294 114.375 40.1155 113.964 40.8026C113.512 41.5566 112.979 42.0649 112.351 42.6723C111.222 43.7647 109.885 44.967 108.282 45.2608C107.584 45.3893 106.864 45.3428 106.147 45.2115C106.311 45.1838 106.466 45.1515 106.607 45.1142C108.834 44.5328 110.999 43.4172 112.299 41.4344C113.082 40.2406 113.459 38.9432 114.444 37.8542C115.503 36.6842 116.677 35.6676 117.99 34.793C119.03 34.0996 120.148 33.6468 121.276 33.1221C122.266 32.6613 123.218 32.3008 124.231 32.114ZM111.8 28.6979C113.714 27.5738 116.122 27.2415 118.28 26.8951C120.227 26.5821 122.223 26.5504 124.087 27.2891L124.106 27.2981L124.165 27.3185C124.233 27.3468 124.303 27.3677 124.371 27.3983C126.05 28.1415 127.205 29.6234 128.135 31.1398L128.135 31.1444C128.096 31.1568 128.038 31.1811 127.936 31.2366L127.829 31.2711C127.486 31.2598 127.149 31.2728 126.813 31.3102C126.306 31.2677 125.782 31.1857 125.528 31.1845C123.329 31.1744 121.381 32.2057 119.426 33.0893C117.492 33.9638 115.807 35.3279 114.333 36.8381C113.458 37.7359 112.773 38.68 112.231 39.8149C111.657 41.0189 111.037 41.9976 109.91 42.7527C108.857 43.4568 107.916 43.9674 106.689 44.2781C105.885 44.4813 105.15 44.6761 104.313 44.513C103.641 44.3823 102.692 44.0121 102.667 43.2236C102.66 43.0085 102.511 42.8964 102.346 42.8727C102.322 42.1181 102.349 41.3653 102.526 40.6244C102.824 39.3745 103.358 38.1485 103.991 37.0329C105.148 34.9906 106.713 32.9189 108.435 31.317C109.175 30.6287 110.017 30.0638 110.749 29.3783L110.793 29.3387C111.126 29.1151 111.462 28.8972 111.8 28.6979ZM132.828 36.4589C132.831 36.3049 132.835 36.1515 132.834 35.9953C132.832 35.8323 132.745 35.731 132.633 35.6794C132.558 35.4542 132.471 35.2243 132.371 35.0008C131.948 33.5579 131.05 32.1604 129.683 31.5989C129.549 31.4376 129.419 31.2751 129.304 31.1076C129.086 30.7883 128.99 30.4634 128.725 30.1685L128.644 30.1085C128.303 29.251 127.803 28.6102 127.158 27.8857C126.449 27.0876 125.503 26.9704 124.592 26.6342C124.485 26.5832 124.37 26.5425 124.259 26.4972C124.153 26.4502 124.049 26.3998 123.946 26.3421C121.826 25.1511 119.266 25.4925 116.955 25.973C115.693 26.2345 114.222 26.4128 113.039 26.9353C112.537 27.1572 112.025 27.447 111.546 27.717C111.137 27.9468 110.818 28.253 110.493 28.5621C107.695 30.2466 105.483 32.7089 103.73 35.4513C102.796 36.9123 102.093 38.6087 101.489 40.2332C101.053 41.4066 100.687 43.3226 101.249 44.594L101.235 44.6178C101.078 44.6528 100.938 44.7661 100.927 44.9721C100.909 45.3032 100.942 45.614 101.014 45.9083C101.062 46.4693 101.218 47.0432 101.321 47.4394C101.684 48.8466 102.374 49.9928 103.449 50.9761C105.941 53.2549 109.271 53.8906 112.55 53.924C113.409 53.933 114.277 53.9676 115.135 53.911C116.066 53.8498 116.906 53.5442 117.814 53.3653C119.411 53.0511 120.852 52.3193 122.334 51.6689C125.173 50.4236 128.187 48.5523 129.769 45.7577C131.132 43.3498 132.247 40.9674 132.66 38.3313C132.836 37.7166 132.934 37.1132 132.828 36.4589Z" fill="#442916"/>
<path d="M108.423 34.0736C107.556 34.6136 106.889 35.9512 106.399 36.8036C105.629 38.1434 105.361 39.6089 104.789 41.0251C104.67 41.3212 105.099 41.5663 105.234 41.2657C105.765 40.0861 106.061 38.8244 106.667 37.673C107.132 36.7889 107.802 35.4672 108.645 34.8281C108.846 34.8089 109.044 34.6295 108.99 34.3662L108.972 34.2768C108.923 34.0391 108.608 33.9581 108.423 34.0736Z" fill="#442916"/>
<path d="M107.961 33.254C107.885 33.4577 108.235 33.5908 108.322 33.3904C108.525 32.9262 109.127 32.5911 109.552 32.3534C110.05 32.0749 110.552 31.9051 111.088 31.7291C111.506 31.5921 111.235 30.9547 110.832 31.1715C109.875 31.6843 108.385 32.1259 107.961 33.254Z" fill="#442916"/>
<path d="M123.421 44.8249C124.109 44.1643 125.112 43.7053 125.87 43.1013C126.69 42.4475 127.446 41.7507 128.076 40.9079C129.281 39.2964 129.651 37.3181 129.588 35.3472C129.578 35.0268 129.093 35.0494 129.092 35.3681C129.086 37.5185 128.469 39.5449 126.995 41.1547C126.326 41.886 125.528 42.4991 124.731 43.0826C124.148 43.5094 123.395 43.8168 122.899 44.333C122.576 44.6675 123.09 45.143 123.421 44.8249Z" fill="#442916"/>
<path d="M120.247 44.5878C120.586 44.311 121.002 44.1836 121.383 43.9753C121.816 43.737 122.223 43.441 122.614 43.1387C123.244 42.6513 123.759 42.087 124.218 41.4366C124.347 41.2532 124.036 41.0268 123.898 41.2051C123.333 41.9296 122.683 42.5228 121.925 43.0436C121.305 43.4698 120.463 43.6747 119.943 44.217C119.758 44.4089 120.029 44.7661 120.247 44.5878Z" fill="#442916"/>
<path d="M100.579 72.2432C99.9898 73.4942 98.9596 74.5357 97.9606 75.4691C96.8183 76.5361 94.9141 77.5662 93.3479 77.637C91.7268 77.71 90.0009 77.6998 88.3979 77.4406C86.603 77.1513 85.1228 76.3572 83.5787 75.4442C82.0685 74.5521 80.6947 73.6294 79.4121 72.421C78.2177 71.2951 77.2379 70.0662 76.4415 68.6296C75.6049 67.12 75.1934 65.4038 74.7179 63.751C74.2702 62.1955 74.1224 60.6655 74.3194 59.1111C74.4383 60.3111 74.7723 61.5202 75.1374 62.65C75.5121 63.8093 75.9089 65.0902 76.6696 66.0581C78.4685 68.3466 80.4881 70.2621 83.016 71.7134C84.2602 72.4277 85.5123 73.1828 86.8017 73.8078C87.987 74.3823 89.4524 74.3715 90.7396 74.3681C92.0862 74.3642 93.6406 74.5917 94.9096 74.0426C95.0789 73.9696 95.2453 73.8836 95.4106 73.7913C95.9025 73.7177 96.3485 73.3991 96.786 73.1681C97.4347 72.8257 98.0936 72.5121 98.7213 72.1317C99.7742 71.4949 100.577 70.7144 101.252 69.7057C101.126 70.57 100.965 71.4236 100.579 72.2432ZM79.9685 50.9398C80.4202 50.7864 80.9325 50.7361 81.4572 50.7349C82.2394 50.9976 83.1609 50.9104 83.9172 51.306C84.8653 51.8025 85.6555 53.0546 86.1445 53.9749C87.2613 56.0761 87.057 58.5802 87.6677 60.8381C88.2451 62.971 89.1604 64.9843 90.9615 66.3525C91.8564 67.0317 92.7808 67.4551 93.7657 67.9668C94.8875 68.5493 96.0389 68.6545 97.2536 68.9393C97.4489 68.9851 97.6368 69.0406 97.8032 69.1153C97.883 69.0757 97.973 69.057 98.0625 69.0859C98.2962 69.1594 98.4773 69.2444 98.6172 69.3372C98.7009 69.3689 98.7819 69.4029 98.8594 69.4408L98.8634 69.443C98.9398 69.4798 99.0128 69.5206 99.0813 69.5636C99.4368 69.7866 99.6751 70.0991 99.6372 70.5445L99.6309 70.5802L99.6304 70.5808C99.6241 70.6317 99.6128 70.6815 99.5992 70.7302L99.5755 70.8049C99.327 71.5232 98.3483 72.006 97.4149 72.3083C97.2762 72.3536 97.1392 72.3938 97.0051 72.4311L96.9796 72.4379L96.9321 72.4617C96.8681 72.4945 96.8041 72.5268 96.7385 72.5551C96.6575 72.5902 96.5743 72.6225 96.49 72.6513L96.3842 72.704L96.2953 72.7776C96.194 72.8608 96.0915 72.9332 95.9891 73L95.9041 73.0515C95.8243 73.1002 95.7445 73.1443 95.6642 73.184L95.5872 73.2213C95.3704 73.321 95.149 73.3934 94.9238 73.4426C94.6674 73.4993 94.4058 73.5298 94.1364 73.5434C93.9632 73.5898 93.7849 73.6221 93.5998 73.6374C92.3687 73.7359 91.0634 73.6844 89.8289 73.6436C88.3306 73.5944 87.1085 73.2344 85.8191 72.4928C83.6443 71.2413 81.4402 70.0725 79.6102 68.3194C78.6802 67.4285 77.6845 66.3593 76.986 65.2776C76.2774 64.1811 75.9021 62.7332 75.5726 61.4817C75.1809 59.9919 74.8509 58.6159 75.0955 57.0632C75.224 56.2453 75.494 55.4144 75.8907 54.6576C76.0521 54.4051 76.2128 54.1532 76.3589 53.894C76.5077 53.6812 76.6651 53.4757 76.8377 53.2861C77.6647 52.3793 78.8596 51.5636 79.9685 50.9398ZM82.9011 49.6096L82.9289 49.6023L82.9306 49.6153L82.9011 49.6096ZM95.1904 67.7206C92.8266 66.9989 90.5398 65.6353 89.3789 63.4119C88.6238 61.9657 88.1653 60.2489 87.9553 58.6391C87.764 57.1662 87.6587 55.7087 87.079 54.3293C86.6268 53.251 85.9328 52.1177 85.0804 51.297C85.8474 51.8121 86.4972 52.3215 87.0524 53.1813C88.3311 55.1613 89.4728 57.2195 90.0779 59.5079C90.3853 60.6723 90.7475 61.8423 91.2304 62.9483C91.626 63.8568 92.26 64.5695 92.924 65.29C93.3808 65.7853 93.8845 66.2262 94.313 66.7487C94.5774 67.0708 94.8134 67.4093 95.1355 67.6787L95.1904 67.7206ZM88.2802 49.7121C89.7519 49.9968 91.3062 50.5227 92.5509 51.327C93.1328 51.7034 93.7051 52.0442 94.2321 52.5061C94.7891 52.9934 95.247 53.2968 95.8951 53.6619C97.2858 54.4476 98.4479 55.7828 99.2885 57.1266C100.203 58.5876 101.103 60.2002 101.505 61.8836C101.875 63.4294 102.147 65.3302 101.76 66.8998C101.608 67.5157 101.345 68.1361 101.014 68.7253C101.006 68.7836 101 68.8408 100.991 68.8991C100.974 69.0202 100.872 69.1034 100.76 69.1476L100.66 69.297C100.598 69.2449 100.524 69.2109 100.435 69.224C100.073 69.276 99.8981 69.3298 99.524 69.0683C99.2698 69.0072 99.0134 68.9245 98.7592 68.8311C98.6251 68.7808 98.4915 68.7287 98.3596 68.6732L98.2475 68.6257C97.9408 68.4932 97.643 68.3506 97.3651 68.2119L97.2774 68.1677C97.146 68.1015 97.0175 68.0364 96.8975 67.9742C96.8223 67.9357 96.7368 67.8915 96.6491 67.8451L96.5958 67.8157L96.5109 67.7687C96.4589 67.7404 96.4074 67.7115 96.3536 67.681L96.2624 67.6272C96.1821 67.5791 96.1006 67.5276 96.0202 67.4738L95.9562 67.4325C95.86 67.3657 95.766 67.2949 95.6772 67.2219C95.4519 67.0345 95.2589 66.8245 95.1496 66.5925C95.0132 66.4504 94.8768 66.3015 94.7387 66.1357C93.9632 65.2062 92.976 64.4557 92.3064 63.4345C90.9202 61.3181 90.7934 58.57 89.6947 56.3098C89.1745 55.2383 88.5185 54.1979 87.9004 53.1791C87.3558 52.2813 86.7541 51.4572 85.8547 50.89C85.1749 50.4615 84.3496 49.9866 83.4955 49.7421C83.509 49.643 83.5187 49.5355 83.5487 49.4449C83.946 49.36 84.3485 49.3062 84.7555 49.3051C84.8579 49.3046 84.9304 49.2632 84.9762 49.2032C85.236 49.2383 85.4907 49.2819 85.7183 49.3011C86.5843 49.3736 87.4294 49.5474 88.2802 49.7121ZM102.195 61.6691C101.833 60.1521 101.062 58.8066 100.302 57.4606C99.6366 56.2832 98.7819 54.9593 97.7285 54.0944C97.2304 53.6857 96.6807 53.2611 96.109 52.9628C95.393 52.5881 94.8689 52.0974 94.2406 51.5964C93.2828 50.8328 92.2657 50.1746 91.0996 49.7761C89.6545 49.2825 88.1183 48.8528 86.6013 48.6666C86.3947 48.6411 86.1768 48.6061 85.9538 48.5698C85.9023 48.5257 85.8372 48.4906 85.746 48.4827C85.5021 48.4612 85.2592 48.4459 85.0192 48.4402C84.7617 48.4159 84.5058 48.4062 84.2579 48.4232L84.1798 48.4074C83.4513 48.3808 82.8468 48.6508 82.3232 49.0645C80.487 49.6504 78.7736 50.8385 77.2974 51.9372C76.0113 52.8944 75.1051 54.2919 74.6375 55.8242C74.393 56.3427 74.1926 56.8832 74.0279 57.43C73.5174 59.1287 73.3753 60.9372 73.7268 62.6795C74.4468 66.2506 75.7107 69.7379 78.3202 72.361C79.6085 73.6555 80.9907 74.7757 82.5711 75.691C84.2007 76.6345 85.7551 77.6285 87.6225 78.027C89.4321 78.4136 91.2774 78.336 93.1147 78.3496C94.7359 78.3615 96.1362 77.5561 97.484 76.7234C98.843 75.8834 100.128 74.47 100.944 73.0996C101.835 71.6013 102.204 69.5778 102.187 67.8372C102.224 67.7823 102.24 67.7172 102.239 67.6521C102.831 65.7344 102.67 63.6644 102.195 61.6691Z" fill="#442916"/>
<path d="M78.2557 64.1347C78.3932 64.4443 78.9015 64.3 78.769 63.9751C77.7055 61.3628 76.8977 58.6226 77.4394 55.793C77.5441 55.7177 77.5679 55.5327 77.4275 55.4579L77.363 55.424C77.2458 55.3617 77.0992 55.4279 77.0681 55.5576C76.3826 58.4262 77.0772 61.4879 78.2557 64.1347Z" fill="#442916"/>
<path d="M81.207 65.5306C80.4134 64.4285 79.7568 63.353 79.63 61.9623C79.6057 61.6912 79.2026 61.7053 79.206 61.9798C79.2241 63.4487 79.9442 64.6498 80.71 65.8408C80.9149 66.16 81.426 65.8345 81.207 65.5306Z" fill="#442916"/>
<path d="M97.4064 58.1042C98.2096 58.9244 98.6313 60.344 98.8566 61.4195C99.1419 62.7836 99.2664 64.2196 99.3672 65.6093C99.3988 66.0496 100.087 66.0236 100.054 65.5804C99.9422 64.0317 99.7922 62.3987 99.3847 60.8953C99.096 59.8289 98.5385 58.3674 97.6328 57.6813C97.5309 57.6044 97.3356 57.5879 97.2773 57.7385L97.257 57.7923C97.2026 57.9332 97.2887 58.0742 97.4064 58.1042Z" fill="#442916"/>
<path d="M97.9289 62.7926C97.9855 63.653 98.1128 64.4036 97.9057 65.2617C97.823 65.6064 98.3879 65.727 98.4355 65.3845C98.564 64.4624 98.3511 63.6836 98.2317 62.7802C98.2062 62.5906 97.9158 62.5951 97.9289 62.7926Z" fill="#442916"/>
<path d="M84.0338 39.2472C84.1509 39.8325 84.207 40.5717 84.5856 41.054C84.8839 41.4338 85.5106 41.0726 85.2372 40.6464C84.9179 40.1489 84.85 39.3864 84.7373 38.8198C84.5789 38.0183 84.4866 37.2032 84.4017 36.391C84.2641 35.0766 84.1962 33.7612 84.2409 32.4412C84.477 32.3257 84.4662 31.8711 84.1566 31.8077C84.0983 31.7953 84.0406 31.7834 83.9823 31.7715C83.744 31.7223 83.573 31.8978 83.5589 32.123C83.4496 33.82 83.5453 35.5108 83.7309 37.1987C83.8062 37.8853 83.8974 38.5691 84.0338 39.2472Z" fill="#442916"/>
<path d="M88.3317 42.0847C88.6249 42.4549 89.2555 42.0706 88.9617 41.6913C88.4596 41.0438 88.3108 40.257 88.1443 39.4725C87.9881 38.7361 87.2941 36.3751 87.8285 35.6619C88.0577 35.3557 87.6309 34.9402 87.3898 35.2476C87.1006 35.6172 86.9862 35.9002 86.993 36.3672C87.0043 37.1455 87.2013 38.0319 87.3264 38.8079C87.5013 39.901 87.6247 41.1898 88.3317 42.0847Z" fill="#442916"/>
<path d="M116.986 63.1939C116.692 64.6668 116.405 66.1504 115.913 67.5734C115.369 69.1475 114.507 70.2383 113.481 71.5107C113.173 71.8934 113.743 72.417 114.033 72.0309C114.932 70.8349 115.781 69.8568 116.317 68.4326C116.938 66.7866 117.261 65.0551 117.583 63.3315C117.655 62.9455 117.064 62.8051 116.986 63.1939Z" fill="#442916"/>
<path d="M120.291 67.8411C120.384 69.0519 120.054 70.1693 119.683 71.3047C119.475 71.9444 119.392 72.8545 119.071 73.4828C118.869 73.531 118.696 73.711 118.781 73.9617L118.831 74.1111C118.944 74.4457 119.357 74.4491 119.538 74.1796C120.024 73.4579 120.064 72.4527 120.314 71.6342C120.699 70.3776 121.049 69.1402 120.92 67.8145C120.88 67.4149 120.259 67.4347 120.291 67.8411Z" fill="#442916"/>
<defs>
<clipPath id="clip0_55_521">
<rect width="115.706" height="80" fill="white" transform="translate(46 94.5)"/>
</clipPath>
</defs>
</svg>
