<svg width="100" height="100" viewBox="0 0 100 100" fill="none" xmlns="http://www.w3.org/2000/svg">
<g clip-path="url(#clip0_64_614)">
<path d="M57.8633 80.4249C56.4522 80.1593 55.0762 79.7187 53.7743 79.0655C50.178 77.2624 47.2817 74.228 46.2432 70.2833C45.5907 67.8058 45.6295 65.2168 45.688 62.6743C45.7537 59.8265 45.8484 56.979 45.9294 54.1318C46.0686 49.2493 46.2078 44.3665 46.347 39.484C46.3793 39.494 46.409 39.4996 46.4421 39.5111C48.0065 40.0483 49.1854 41.5374 50.299 42.688C52.9519 45.429 55.6186 48.2058 57.5236 51.5374C59.5725 55.1205 60.2659 59.2402 61.5581 63.1177C62.86 67.0246 64.6302 70.6686 66.4548 74.3499C66.9622 75.3718 67.9741 77.1749 67.5068 78.3624C67.0863 79.4312 65.5711 79.6687 64.5814 79.9218C63.425 80.2155 62.2579 80.4843 61.0827 80.7187C60.0141 80.6655 58.9381 80.5655 57.8633 80.4249ZM75.5822 63.949C75.2756 60.5334 74.9963 56.9652 74.0528 53.6555C72.9605 49.8237 70.683 46.9043 67.3303 44.7768C65.0272 43.3152 62.4912 42.1518 59.8965 41.2096C57.2267 38.2833 54.1568 35.7115 50.4492 34.2093C49.7125 33.9108 48.898 33.6621 48.0518 33.4884C47.1913 33.229 46.2914 33.1012 45.3561 33.1615C45.0354 33.1821 44.7161 33.2212 44.4001 33.2774C42.9656 33.4308 41.6302 33.9074 40.6183 34.8305C39.9389 35.0505 39.3461 35.4862 39.0512 36.1646C38.9429 36.4133 38.845 36.6646 38.7462 36.9152L38.7358 36.9108L38.7296 36.9565C36.6448 42.2799 36.6388 47.9871 36.4708 53.6533C36.4198 55.3765 36.3923 57.0958 36.3976 58.8127C36.1749 62.1883 36.0107 65.5683 35.9237 68.9527C35.8099 73.403 35.1833 78.7968 37.9864 82.6124C40.9881 86.6999 46.957 87.678 51.7044 87.8436C55.0121 87.9593 58.38 87.5968 61.6754 86.9718C62.0111 86.9874 62.3467 87.003 62.6824 87.0062C65.9274 87.0468 69.8791 86.7718 72.7072 85.0124C76.1436 82.8718 75.9475 78.7218 76.0004 75.153C76.0561 71.4155 75.9165 67.6727 75.5822 63.949Z" fill="#442916"/>
<path d="M69.3411 74.1936C68.972 73.3061 68.3513 72.5655 67.5578 72.1811C67.1999 70.628 66.6462 69.1133 66.0231 67.6783C65.6956 66.9236 64.9152 66.4361 64.0809 66.2411C63.7403 65.903 63.3799 65.5833 63.0027 65.284C63.0093 64.5802 62.9842 63.8808 62.9426 63.203C62.7008 59.2424 61.6986 55.4527 60.0529 51.8493C59.2644 50.123 58.2943 48.459 57.1751 46.9021C56.41 44.9271 55.257 43.0733 54.1494 41.7577C52.5265 39.8296 50.4132 39.199 48.4572 39.5893C46.4994 39.0199 44.5156 39.2868 43.1377 41.3974C42.1273 42.9449 42.1964 44.763 42.8073 46.5308C42.234 49.9421 42.9809 53.6246 44.0192 56.9024C44.0242 57.3458 44.0326 57.7874 44.0429 58.2249C44.072 59.4611 44.1414 60.6965 44.2403 61.9296C44.1239 62.2986 44.0701 62.6936 44.0795 63.0955C43.651 63.4405 43.2809 63.8749 42.9982 64.3946C41.0944 67.8949 43.3332 72.1436 46.0033 74.553C46.9257 75.3843 48.0074 76.153 49.1764 76.7936C50.9287 78.7093 53.2466 80.1061 55.684 80.9967C58.1739 81.9092 61.1224 82.103 63.4572 81.1186C64.7575 81.1468 65.8642 80.5499 66.6569 79.6155C67.5099 79.453 68.311 78.9405 68.8631 78.1437C69.6445 77.0124 69.8753 75.4749 69.3411 74.1936Z" fill="#442916"/>
<path d="M61.3767 23.0368C57.7272 22.5711 54.0543 23.0086 50.3907 22.8702C46.8757 22.7371 43.4329 22.203 40.0249 21.3415C36.1205 20.3546 34.4551 26.3808 38.3617 27.3683C42.1004 28.3133 45.9413 28.9046 49.7945 29.0943C53.6545 29.2839 57.5323 28.7961 61.3767 29.2868C63.0552 29.5008 64.5048 27.6971 64.5048 26.1618C64.5048 24.2949 63.0599 23.2514 61.3767 23.0368Z" fill="#B6C6BE"/>
<path d="M72.1635 21.3119C71.6248 21.0675 71.1018 20.8972 70.5845 20.7988C69.9276 19.57 68.6313 18.7303 67.117 19.3369C65.9581 19.8009 64.6852 20.4613 63.4337 20.0975C61.4368 19.5172 60.0326 20.8391 59.6675 22.4097L59.6156 22.4906C58.2452 22.4497 56.882 23.5194 56.5264 24.8128C56.0481 26.5522 57.1175 28.0778 58.7113 28.6572C63.1434 30.2685 68.3817 29.5394 72.1635 26.7084C73.8245 25.4653 74.538 22.3897 72.1635 21.3119Z" fill="#B6C6BE"/>
<path d="M53.3845 13.1018L53.4149 13.1324L53.4152 13.134L53.3833 13.1349L53.3845 13.1018ZM58.8367 9.12026L58.8345 9.07996C58.8383 8.95558 58.8402 8.83495 58.8452 8.73682C58.8492 8.65839 58.8499 8.5812 58.8511 8.50401C58.8605 8.6337 58.8636 8.76494 58.8571 8.89838C58.8536 8.97244 58.8449 9.0462 58.8367 9.12026ZM61.1865 14.8974C61.0867 14.8728 60.9863 14.8462 60.89 14.8165C61.0017 14.8103 61.1146 14.809 61.2291 14.8112C61.3914 14.8478 61.5581 14.8896 61.7252 14.9343C61.5466 14.9178 61.367 14.9056 61.1865 14.8974ZM57.2167 15.2409L57.2255 15.1706L57.2711 15.2371L57.2167 15.2409ZM56.3283 14.8627L56.349 14.8637L56.3477 14.8678L56.3283 14.8627ZM52.3107 13.7012L52.3041 13.679C52.376 13.6734 52.448 13.6674 52.5199 13.6624C52.4502 13.6752 52.3801 13.6874 52.3107 13.7012ZM58.477 7.33025C58.4454 7.23838 58.4151 7.14682 58.3797 7.05714C58.4366 7.14995 58.4886 7.24526 58.5361 7.34276L58.477 7.33025ZM52.9729 10.7099L52.9945 10.7509C52.9638 10.7618 52.94 10.7834 52.9153 10.8031C52.941 10.7759 52.9604 10.7453 52.9729 10.7099ZM52.6866 7.44244L52.6923 7.41057L52.6926 7.40401L52.7495 7.34026C52.7286 7.37433 52.7051 7.40525 52.6866 7.44244ZM54.3198 11.7437L54.3645 11.7856C54.3846 11.8859 54.3989 11.9815 54.3999 12.0634L54.3861 12.0553C54.286 11.8896 54.2147 11.6834 54.1537 11.4912C54.1997 11.5799 54.2519 11.6659 54.3198 11.7437ZM55.2154 5.97931L55.2316 5.97275L55.2154 5.97931ZM55.1453 6.01527L55.145 6.00995L55.1606 6.00308L55.1453 6.01527ZM56.0427 11.6474C56.0468 11.6971 56.0521 11.7449 56.0587 11.7931L56.054 11.7975C56.0133 11.7653 55.9727 11.7315 55.9323 11.6978C55.9721 11.6853 56.0068 11.6656 56.0427 11.6474ZM55.2926 12.0578L55.288 12.0506C55.2514 12.0059 55.2054 11.9734 55.1563 11.9524C55.2116 11.9271 55.2645 11.8965 55.3139 11.8581C55.3802 11.9203 55.4494 11.9806 55.5185 12.0384C55.4337 12.0481 55.3555 12.0537 55.2926 12.0578ZM54.851 12.0149L54.8319 12.0356L54.8297 12.0137L54.851 12.0149ZM55.7077 8.74651C55.6417 8.62745 55.5563 8.49369 55.4553 8.35619C55.5911 8.38838 55.6758 8.51776 55.7077 8.74651ZM55.6908 6.77432C55.7199 6.80432 55.7515 6.83308 55.7816 6.86245C55.7337 6.84589 55.6852 6.8312 55.6355 6.82026L55.6908 6.77432ZM48.6915 14.199C48.8736 14.3074 49.0559 14.4174 49.2386 14.5306C49.3531 14.6018 49.4672 14.6721 49.5824 14.7434C49.6146 14.7634 49.6468 14.7834 49.6793 14.8034L49.6803 14.8028L49.7632 14.8531L49.7622 14.8537L49.7697 14.8578H49.7694L49.7741 14.8606L49.8336 14.8959C49.9355 14.9574 50.0375 15.0181 50.1404 15.0778L50.1767 15.0993L50.1783 15.099C50.2774 15.1562 50.3769 15.2124 50.477 15.2668L50.4892 15.2737H50.4895C50.6925 15.3831 50.8974 15.4874 51.106 15.5787C51.33 15.6231 51.5546 15.659 51.7786 15.6918H51.7798C52.0689 15.734 52.3557 15.7678 52.6378 15.7928L52.6557 15.7943C52.6879 15.7971 52.7198 15.7993 52.752 15.8018C52.8765 15.8121 52.9995 15.8212 53.1211 15.8287L53.1452 15.8299C53.2972 15.8387 53.4465 15.8456 53.5929 15.8503L53.6088 15.8509C53.7586 15.8556 53.9044 15.8584 54.0467 15.8593H54.0483C54.1728 15.8599 54.2945 15.8596 54.4124 15.8581C54.5138 15.8568 54.6132 15.8549 54.7083 15.8518C55.1009 15.8387 55.5053 15.8268 55.9173 15.8134L55.9614 15.8121V15.8118C55.9933 15.8106 56.0268 15.809 56.059 15.8078L56.0587 15.8084C56.2411 15.8024 56.4247 15.7956 56.6095 15.7881L56.6102 15.7862L56.6521 15.7846V15.7865C56.7462 15.7825 56.8417 15.7778 56.9361 15.7737C57.0021 15.7706 57.0665 15.7681 57.1329 15.7646L57.1739 15.7628V15.7621C57.9621 15.7228 58.7645 15.6646 59.5596 15.5621C59.9078 15.484 60.2528 15.3943 60.5953 15.2975L60.5969 15.2978L60.6116 15.2931C60.7605 15.2509 60.9062 15.2018 61.0539 15.1562C61.2334 15.1006 61.4139 15.0493 61.5916 14.9893L61.5841 14.9875C61.636 14.9703 61.6889 14.9559 61.7405 14.9381H61.7408L61.7449 14.9365L61.7471 14.9359H61.7467C62.1509 14.7953 62.5504 14.6446 62.9411 14.4771L62.9235 14.4737C63.0496 14.4199 63.1778 14.3699 63.3023 14.3131C62.48 14.1024 61.651 13.919 60.8287 13.7512C60.1511 13.6134 59.4733 13.5031 58.7951 13.409C58.6021 12.8243 58.4942 12.2265 58.6869 11.6268C58.8499 11.119 59.0416 10.6365 59.1789 10.1184C59.4085 9.25027 59.5224 8.36463 59.2162 7.49588C58.6478 5.88213 57.1576 4.859 55.4566 5.14431C53.8738 5.40994 52.1442 6.34306 51.5446 7.90963C51.2002 8.80963 51.468 9.59963 51.8061 10.4574C51.986 10.9131 52.2243 11.3409 52.4883 11.7524C52.7868 12.2174 52.9319 12.6462 52.961 13.1537C52.158 13.1978 51.3538 13.2718 50.5483 13.3834C49.7522 13.4934 48.9311 13.6584 48.1244 13.8725C48.1754 13.9006 48.2279 13.9296 48.2764 13.9565C48.415 14.0328 48.5532 14.1165 48.6915 14.199Z" fill="#2D635E"/>
<path d="M71.3377 92.553C70.9116 92.7437 70.5632 92.9624 70.0993 93.0655C69.3041 93.2468 68.498 93.203 67.6966 93.3655C66.8355 93.5374 65.9652 93.6874 65.0875 93.7499C64.2836 93.803 63.4747 93.8093 62.6692 93.8405C61.8203 93.8749 60.9691 94.0405 60.1217 93.9468C58.5233 93.7718 57.0146 94.1312 55.4231 94.1093C54.5901 94.0968 53.7546 93.9655 52.9225 93.9187C52.0964 93.8687 51.2674 93.8968 50.4426 93.8343C48.7146 93.6968 46.9645 93.6155 45.245 93.3968C43.7069 93.1968 42.0819 92.9186 40.5939 92.4874C40.0224 92.3218 39.2845 92.2311 38.8272 91.8218C38.4177 91.453 38.4549 90.9499 38.3674 90.478C38.4324 90.503 38.4969 90.528 38.5622 90.5562C38.7621 90.6343 38.9639 90.7187 39.1678 90.7999C39.5754 90.9687 39.9905 91.1311 40.4137 91.2374C40.6255 91.2874 40.8391 91.3249 41.055 91.3405C41.1038 91.3437 41.1473 91.3374 41.1854 91.3218L41.2254 91.2937C41.3465 91.3405 41.4873 91.3843 41.6553 91.4468C42.2981 91.6843 43.0094 91.7218 43.6897 91.7749C43.9838 91.7968 44.2781 91.8218 44.5725 91.8437C45.4333 92.0437 46.2604 92.178 47.1653 92.2249C47.4806 92.2405 47.7984 92.253 48.1169 92.2655C48.4488 92.3312 48.7797 92.3999 49.1078 92.4843C49.7732 92.6593 50.3053 92.5562 50.9803 92.5499C51.6519 92.5405 52.3807 92.7593 53.0457 92.8687C53.6604 92.9655 54.3029 93.0093 54.9332 93.0624C55.0721 93.1124 55.2072 93.1468 55.3411 93.1749C55.5601 93.2187 55.7759 93.2405 55.9999 93.2499C56.1322 93.253 56.2673 93.2562 56.4084 93.2593C56.8269 93.2624 57.2442 93.2343 57.6621 93.1968C58.3584 93.1311 59.0557 93.0437 59.7592 93.0468C60.3222 93.0499 60.8884 93.1061 61.4512 93.0686C61.8675 93.0405 62.2635 92.9687 62.6714 92.9312L62.7318 92.9249C62.8669 92.9155 63.003 92.9062 63.1425 92.9093C63.9442 92.9093 64.7084 92.9155 65.4854 92.8374C65.695 92.8155 65.9049 92.7905 66.1173 92.753C66.4147 92.703 66.7153 92.6624 67.0178 92.6343C67.9259 92.5405 68.8515 92.5155 69.7533 92.4218C70.1055 92.3874 70.4574 92.3593 70.8018 92.2905C70.9304 92.2624 71.0577 92.2312 71.1838 92.1905L71.266 92.1593C71.6464 92.1468 71.983 92.0874 72.3365 91.9811C72.2999 92.028 72.2611 92.0749 72.2182 92.1155C71.9799 92.353 71.6326 92.4187 71.3377 92.553ZM31.9792 73.153C31.8344 73.0124 31.9085 72.9124 31.9267 72.6937C31.9339 72.6062 31.9073 72.5405 31.8647 72.4968C31.8951 72.378 31.9245 72.2561 31.9333 72.1218C31.9714 71.5249 31.9761 70.8437 31.8754 70.2552C31.6861 69.1487 31.0546 67.9555 30.3051 67.1687C29.5516 66.3777 28.6391 65.6899 27.7229 65.1308C27.2193 64.8233 26.6578 64.6461 26.141 64.3661C25.5586 64.0505 25.0165 63.659 24.445 63.3227C23.3411 62.6733 22.2754 62.0249 21.2353 61.2608C20.153 60.4652 19.2571 59.5118 18.3581 58.4977C16.6496 56.5715 15.2948 54.5461 14.2698 52.1233C13.3376 49.9199 12.5005 47.5568 11.9184 45.2193C11.5756 43.8424 11.6519 42.4471 11.7601 41.0437C11.8715 39.6015 12.1686 38.1777 12.8186 36.8937C14.0292 34.5021 16.5642 32.8518 19.0469 32.469C21.6257 32.0708 24.2135 32.3193 26.7291 32.9893C28.2312 33.3896 29.4433 33.993 30.5888 35.1058C31.5823 36.0708 32.5489 37.1149 33.3412 38.278C34.9822 40.6868 34.8048 44.6508 32.359 46.3908L32.3559 46.394C32.2999 46.424 32.2445 46.4549 32.1963 46.4924C32.0061 46.6415 31.83 46.8177 31.6092 46.914C31.4212 46.9952 31.0671 47.0952 30.8744 46.9749C30.6101 46.8096 30.6939 46.323 30.9586 46.2111C31.0196 46.1852 31.0433 46.134 31.0408 46.084C31.6536 45.6362 32.14 45.0365 32.4137 44.2874C32.7353 43.4077 32.9668 42.1565 32.7406 41.2262C32.4963 40.2221 32.1522 39.3093 31.5041 38.5218C30.7724 37.6324 30.0642 36.8058 29.2422 36.0071C27.7414 34.548 25.3531 34.0905 23.3921 33.9037C21.3845 33.7121 19.021 33.7861 17.2273 34.8683C15.4722 35.9271 14.2078 37.5205 13.6576 39.5871C13.3582 40.7118 13.2791 41.9818 13.2866 43.1477C13.2938 44.2871 13.5885 45.3171 13.9238 46.3883C14.5679 48.4452 15.2488 50.5058 16.2429 52.4062C17.2449 54.3221 18.6587 56.0243 20.1868 57.4899C20.6985 58.0999 21.4233 58.4787 22.0136 58.9905C22.799 59.6721 23.6295 60.2905 24.4178 60.9665C25.1576 61.6008 25.8786 62.2236 26.7466 62.6621C27.681 63.1343 28.6554 63.4443 29.6116 63.8505C31.3586 64.5924 32.5617 66.1787 32.9336 68.128L32.9471 68.2074C32.9155 69.0743 32.8876 69.9412 32.8704 70.8093C32.8564 71.503 32.8166 72.1936 32.7653 72.8843C32.6186 73.1436 32.2479 73.4093 31.9792 73.153ZM34.421 24.8474C34.4191 24.6327 34.4992 24.4187 34.6594 24.2818C34.8624 24.1293 35.0804 24.084 35.3122 24.1358C35.3328 24.2674 35.4511 24.3736 35.6021 24.3321L35.5853 24.3827L35.6647 24.3946L35.7451 24.418C35.7739 24.4846 35.8433 24.5333 35.929 24.5046L35.9475 24.4983L35.9503 24.4996L35.9728 24.5093L35.9775 24.5027C36.0151 24.5218 36.052 24.5412 36.0901 24.559L36.1643 24.5937C36.5171 24.7493 36.9034 24.8402 37.301 24.9037C37.6989 25.058 38.14 25.1796 38.531 25.1849C38.6126 25.1861 38.6717 25.1555 38.7136 25.1108C39.2554 25.3127 39.7862 25.5408 40.3624 25.6858C41.2051 25.898 41.9921 26.1999 42.8298 26.3733C43.0335 26.4371 43.2365 26.5027 43.4448 26.5555C43.9706 26.6887 44.5127 26.7396 45.0426 26.8534C46.0574 27.0705 47.0114 27.2227 48.0565 27.1824C49.1885 27.1393 50.2518 27.2312 51.3654 27.4562C52.2672 27.638 53.2766 27.7574 54.1972 27.7555C55.2535 27.754 56.2673 27.7174 57.3156 27.5724C57.4272 27.5571 57.5373 27.5371 57.6456 27.513C58.8004 27.6105 59.9944 27.3852 61.133 27.2646C62.698 27.0987 64.2539 26.8924 65.8016 26.6221C66.4764 26.5043 67.1292 26.3443 67.7698 26.1483C68.015 26.0946 68.2603 26.0405 68.5052 25.9837C69.0867 25.8487 69.6817 25.7868 70.2666 25.6696C70.9029 25.5421 71.4825 25.2649 72.0859 25.0346C72.5232 24.8677 72.9533 24.684 73.3887 24.5118C73.5367 24.4974 73.6846 24.4777 73.8304 24.4505C74.0613 24.379 74.2946 24.3171 74.5286 24.2568C74.5774 24.2443 74.6256 24.2302 74.6744 24.218L74.67 24.2105C74.7235 24.1899 74.7773 24.1696 74.827 24.1468C75.0526 24.043 75.2021 23.9237 75.2978 23.7874C75.4748 23.7624 75.6525 23.7468 75.8314 23.7518C76.4255 23.7693 76.874 24.0612 76.7264 24.7565C76.6184 25.2655 76.2031 25.5762 75.7883 25.8318C74.589 26.5712 73.1839 26.8602 71.8594 27.3409C70.4515 27.8521 68.92 28.0593 67.4445 28.2833C66.7798 28.3843 66.1285 28.589 65.4623 28.703C64.5814 28.8536 63.6655 28.8283 62.7731 28.888C61.1446 28.9971 59.533 29.119 57.8986 29.144C57.0681 29.1565 56.2401 29.229 55.4134 29.3005C54.464 29.3824 53.5553 29.3043 52.6091 29.2124C51.8242 29.1365 51.0444 29.1427 50.2568 29.143C49.42 29.1433 48.5898 29.0768 47.7537 29.0718C45.915 29.0599 44.1496 28.5736 42.365 28.2196C40.6258 27.8743 38.9035 27.9302 37.2409 27.2121C36.4364 26.8646 35.7564 26.544 35.1126 25.9346C34.8082 25.6465 34.4247 25.3049 34.421 24.8474ZM47.9792 15.2758C48.0099 15.2668 48.0405 15.2574 48.0712 15.248C48.0828 15.3215 48.1213 15.3905 48.1779 15.4352C48.1069 15.4718 48.0359 15.508 47.9655 15.5458C47.9711 15.4558 47.977 15.3662 47.9792 15.2758ZM59.6112 19.3674C59.5315 19.4146 59.4517 19.4627 59.3719 19.5118L59.3482 19.5105C59.2593 19.5258 59.172 19.5449 59.0845 19.5627C59.2064 19.4524 59.3294 19.3437 59.4501 19.2321C59.5343 19.2396 59.6184 19.248 59.7026 19.2546C59.6697 19.2893 59.64 19.328 59.6112 19.3674ZM74.7967 23.3846L74.7713 23.3896C74.7726 23.2386 74.7219 23.074 74.6425 22.9233L74.7166 22.878C74.8039 23.0621 74.8461 23.2337 74.7967 23.3846ZM54.3486 27.1252L54.3799 27.2024C54.0811 27.1883 53.7824 27.1668 53.484 27.1393C53.7721 27.1343 54.0605 27.1321 54.3486 27.1252ZM52.6213 27.0308L52.6303 27.0461C52.5518 27.0365 52.4733 27.0265 52.3948 27.0162C52.4702 27.0209 52.5459 27.0258 52.6213 27.0308ZM47.0114 18.9115C47.1838 18.7968 47.3542 18.679 47.5247 18.5618C47.4381 18.6558 47.3486 18.7474 47.2635 18.8437C47.1794 18.8658 47.0956 18.889 47.0114 18.9115ZM57.9806 19.1158C57.8733 19.1893 57.7663 19.2618 57.6596 19.3321L57.6531 19.3287C57.7422 19.2583 57.8276 19.183 57.9143 19.1096L57.9806 19.1158ZM68.5578 16.9324L68.514 16.8902C68.6582 16.9627 68.803 17.0343 68.9485 17.1062C68.8193 17.044 68.6898 16.9821 68.5578 16.9324ZM69.5403 17.4286C69.4089 17.3471 69.2732 17.2721 69.1368 17.1996C69.2728 17.2671 69.4086 17.3358 69.5434 17.4058L69.5403 17.4286ZM36.569 22.8671L36.5712 22.9355L36.5665 22.9555L36.4921 22.9805L36.4999 22.9612C36.5227 22.9296 36.5453 22.8977 36.569 22.8671ZM44.2265 16.4877L44.2368 16.5065L44.1865 16.5415L44.1746 16.5418L44.2265 16.4877ZM68.808 18.6887L68.7893 18.6537L68.8133 18.6696L68.823 18.7015L68.808 18.6887ZM69.6889 19.4299L69.6401 19.3827C69.5822 19.2405 69.5275 19.0974 69.4787 18.9524L69.5512 18.9683C69.5988 19.028 69.6473 19.0918 69.6964 19.1586C69.6689 19.2018 69.6545 19.2527 69.6626 19.309C69.6685 19.3499 69.6804 19.3896 69.6889 19.4299ZM56.6039 26.5227L56.5911 26.5746C56.527 26.5752 56.4628 26.5743 56.3987 26.5746C56.4672 26.558 56.536 26.5412 56.6039 26.5227ZM53.5685 19.304L53.6085 19.2649L53.6082 19.2702L53.5685 19.304ZM53.2231 19.5993L53.2043 19.5743C53.3088 19.5087 53.4089 19.4365 53.5053 19.3583C53.4099 19.4371 53.317 19.5183 53.2231 19.5993ZM58.0413 23.033C57.9962 23.043 57.9512 23.053 57.9061 23.0627C58.0037 22.9546 58.1044 22.8486 58.2077 22.7452C58.2671 22.7415 58.3275 22.7383 58.3869 22.7343C58.4382 22.7308 58.4898 22.7271 58.5411 22.7234C58.3756 22.829 58.2089 22.9315 58.0413 23.033ZM59.1089 24.089L59.0269 24.1311C59.0031 24.089 58.965 24.0549 58.9124 24.0312C59.1667 23.928 59.4198 23.8208 59.6722 23.713L59.6985 23.7765C59.503 23.8824 59.3062 23.9868 59.1089 24.089ZM61.5475 24.973C61.606 24.9605 61.6645 24.9484 61.7227 24.9352L61.8043 24.9462C61.7693 24.9593 61.7352 24.9737 61.7001 24.9868C61.621 25.0168 61.5419 25.0465 61.4627 25.0765L61.4752 25.068C61.5087 25.0421 61.5306 25.0087 61.5475 24.973ZM69.7818 21.2546C69.6995 20.9618 69.5835 20.6852 69.4242 20.4702C69.4214 20.4237 69.4211 20.3787 69.4199 20.3327C69.5284 20.5533 69.6138 20.7855 69.6895 20.9571C69.7249 21.0377 69.7768 21.1421 69.8321 21.2568L69.7818 21.2546ZM70.8456 24.2837L70.8535 24.298L70.7815 24.3271L70.8456 24.2837ZM62.3664 25.8177L62.3993 25.8562C62.3417 25.8658 62.2841 25.8758 62.2266 25.8846C62.2738 25.863 62.3195 25.8396 62.3664 25.8177ZM71.7518 21.4312C71.7762 21.5662 71.7916 21.6993 71.7919 21.8271L71.7362 21.7921C71.7184 21.698 71.699 21.6037 71.6771 21.5102C71.7071 21.4883 71.7321 21.4618 71.7518 21.4312ZM70.5137 23.1446C70.4981 23.183 70.4812 23.2205 70.4693 23.2618L70.4671 23.2777L70.4099 23.2705L70.4493 23.2112L70.5137 23.1446ZM68.6729 23.333L68.7455 23.284C68.7389 23.323 68.7351 23.3621 68.737 23.4005L68.6688 23.4271C68.6741 23.3952 68.6776 23.3637 68.6729 23.333ZM67.0407 25.4383C66.9058 25.4783 66.7707 25.5133 66.6353 25.5446C66.5899 25.5011 66.5252 25.473 66.4379 25.4752C66.3681 25.4768 66.2984 25.4833 66.2289 25.4893C66.396 25.4415 66.5615 25.3887 66.7276 25.3368C66.7767 25.3302 66.8264 25.3252 66.8755 25.318C66.9146 25.3124 66.9534 25.3049 66.9925 25.299C66.9981 25.348 67.0122 25.3962 67.0407 25.4383ZM68.3832 21.1696V21.1668C68.4176 21.1315 68.4449 21.0874 68.4764 21.0487C68.4777 21.0987 68.4736 21.1487 68.4768 21.1987L68.4436 21.1993L68.4173 21.2043L68.3832 21.1696ZM51.4977 24.9858C51.3585 24.939 51.2187 24.8959 51.0773 24.8571L51.096 24.8518C51.2368 24.8646 51.3769 24.8696 51.5174 24.8793C51.5036 24.9127 51.4971 24.949 51.4977 24.9858ZM44.4736 25.7305C44.5543 25.7543 44.6332 25.7808 44.7123 25.8071C44.6288 25.7877 44.5453 25.7683 44.4617 25.7493L44.4736 25.7305ZM41.4973 21.8071L41.5029 21.7983L41.5104 21.8118L41.4973 21.8071ZM45.4293 18.4743C45.4511 18.4136 45.4781 18.3549 45.4949 18.293C45.5431 18.3115 45.5979 18.3155 45.6554 18.2961C45.6917 18.284 45.7289 18.2708 45.7665 18.2574L45.7846 18.289C45.6626 18.3455 45.5447 18.4077 45.4293 18.4743ZM44.8424 19.5512C44.9497 19.4634 45.0595 19.379 45.1709 19.2971C45.1296 19.3593 45.0899 19.4218 45.0486 19.484C44.9798 19.5062 44.9109 19.5284 44.8424 19.5512ZM45.845 21.2349C45.7871 21.2905 45.7289 21.3455 45.6707 21.4005L45.606 21.419C45.6929 21.3674 45.7711 21.3037 45.839 21.2255L45.845 21.2349ZM51.9982 22.3561C52.2409 22.3058 52.4833 22.2524 52.7257 22.1962C52.6691 22.2352 52.6119 22.2737 52.555 22.3127C52.3695 22.3274 52.1837 22.3421 51.9982 22.3561ZM57.6606 23.923C57.9246 23.8033 58.1861 23.6783 58.4426 23.5427C58.4144 23.5986 58.3903 23.6552 58.37 23.7124C58.193 23.7824 58.0137 23.8474 57.8357 23.9158C57.7772 23.9171 57.7187 23.9193 57.6606 23.923ZM56.4344 25.4777L56.4272 25.4237C56.5911 25.3865 56.7547 25.3486 56.9195 25.3152L56.9302 25.3168C56.7653 25.3718 56.5995 25.4237 56.4344 25.4777ZM37.5131 23.323L37.5462 23.3961L37.4649 23.389L37.5131 23.323ZM43.3438 20.093L43.3203 20.1187C43.279 20.138 43.2368 20.1562 43.1964 20.1771C43.1786 20.109 43.1874 20.0383 43.2083 19.9674C43.2365 19.9062 43.2631 19.844 43.2925 19.7827L43.2956 19.778C43.2984 19.8818 43.3109 19.9868 43.3438 20.093ZM48.7935 22.2824L48.8341 22.299L48.8357 22.3008C48.7735 22.308 48.7112 22.3162 48.649 22.324L48.6746 22.3099C48.7143 22.3005 48.7537 22.2915 48.7935 22.2824ZM46.4675 22.613C46.4631 22.5846 46.4631 22.5593 46.4606 22.5321L46.5087 22.5258C46.5482 22.5171 46.5851 22.504 46.6235 22.4936C46.6104 22.5246 46.6032 22.5562 46.6051 22.5877C46.5591 22.5971 46.5134 22.6052 46.4675 22.613ZM47.9214 23.6683L47.8967 23.6918C47.7506 23.7493 47.6067 23.8093 47.4672 23.8733C47.3955 23.853 47.3158 23.8411 47.2323 23.834L47.2639 23.8068C47.4625 23.759 47.6614 23.7121 47.8604 23.6662L47.9214 23.6683ZM45.5319 23.5043C45.5006 23.5187 45.4693 23.5334 45.4377 23.5477L45.4014 23.5368L45.423 23.5087C45.4593 23.5071 45.4956 23.5055 45.5319 23.5043ZM48.9142 23.8033C48.8664 23.8168 48.8194 23.8333 48.7719 23.8474C48.6724 23.8608 48.5733 23.8746 48.4741 23.8886C48.5598 23.854 48.6452 23.8184 48.7293 23.7821C48.791 23.7893 48.8526 23.7962 48.9142 23.8033ZM38.0858 22.4365C38.0473 22.484 38.0079 22.5308 37.9695 22.578L37.9923 22.4996C38.0229 22.4774 38.0549 22.4577 38.0858 22.4365ZM51.0025 21.973C51.0385 21.9709 51.0763 21.9699 51.1132 21.9683C50.7676 22.0302 50.4201 22.0849 50.0719 22.1362C50.3337 22.0912 50.593 22.0384 50.8527 21.9852C50.9027 21.9815 50.9525 21.9768 51.0025 21.973ZM46.5707 20.493C46.6242 20.3918 46.6836 20.2933 46.7487 20.1974L46.8018 20.2727L46.8172 20.2849C46.7487 20.3518 46.6802 20.419 46.612 20.4862L46.5707 20.493ZM44.6078 20.1468L44.5775 20.1937C44.5487 20.2012 44.5205 20.2108 44.4918 20.2183C44.4101 20.2396 44.2797 20.2818 44.1352 20.3227L44.1327 20.3212C44.2888 20.2583 44.4474 20.2011 44.6066 20.1468H44.6078ZM41.791 22.5333C41.7247 22.5208 41.6593 22.5108 41.5927 22.4965C41.5029 22.4768 41.4166 22.4487 41.329 22.423C41.2711 22.384 41.2167 22.3437 41.1648 22.303L41.1829 22.2777C41.3884 22.348 41.5908 22.4352 41.791 22.5333ZM55.3127 22.0377L55.3718 22.0068C55.4271 21.9852 55.4813 21.9618 55.5366 21.9402C55.4869 22.0852 55.6048 22.2618 55.7581 22.2899C55.7018 22.329 55.6433 22.3633 55.5879 22.4043C55.581 22.2746 55.49 22.1527 55.3136 22.1555C55.2391 22.1571 55.1644 22.1612 55.0896 22.163C55.1641 22.1224 55.2391 22.0774 55.3127 22.0377ZM44.8418 18.603C44.8043 18.6705 44.7617 18.7362 44.7179 18.8005C44.7258 18.7624 44.7289 18.7243 44.732 18.6862C44.7686 18.6587 44.8052 18.6309 44.8418 18.603ZM54.7214 19.7071C54.758 19.683 54.7947 19.659 54.8309 19.6352C54.8863 19.6108 54.9398 19.584 54.9951 19.5599L55.0637 19.5308L55.0602 19.5665C55.0558 19.6071 55.0515 19.6455 55.0471 19.684C54.9385 19.6915 54.83 19.6996 54.7214 19.7071ZM55.0533 20.3252L55.0602 20.3527C54.9567 20.4112 54.8531 20.4696 54.7499 20.5277C54.6476 20.5574 54.546 20.5887 54.4437 20.618C54.6479 20.5224 54.851 20.424 55.0533 20.3252ZM74.1808 27.9511C74.1617 28.2458 74.152 28.5411 74.1182 28.8193C74.0278 29.563 73.9984 30.304 73.9853 31.049C73.9809 31.2974 73.9781 31.5465 73.9756 31.7962C73.9637 33.0021 74.0278 34.1555 74.1423 35.304C74.1995 35.878 74.2693 36.4512 74.3484 37.0287C74.4276 37.6062 74.5161 38.1887 74.6106 38.7815C74.7945 39.9346 74.9515 41.0893 75.0938 42.2452C75.5211 45.7118 75.8199 49.1852 76.3407 52.6327C76.5462 53.9962 76.8443 55.3662 77.0401 56.7412C77.0639 56.9074 77.0827 57.0733 77.103 57.2396C76.5938 57.4015 76.1396 57.6662 75.635 57.8508C74.9618 58.0974 74.2415 58.2093 73.5417 58.3515C72.1169 58.6415 70.682 58.7393 69.2491 58.964C67.8446 59.184 66.4391 59.3065 65.025 59.4487C63.633 59.589 62.2375 59.5246 60.8449 59.6365C57.9236 59.8711 55.0145 59.953 52.0839 59.9377C50.6021 59.9299 49.1254 60.0758 47.643 60.079C46.145 60.0821 44.6476 60.0193 43.1523 59.9296C41.7932 59.848 40.4231 59.8155 39.063 59.708C38.3395 59.5386 37.6188 59.3621 36.8915 59.2027C36.1217 59.034 35.4248 58.6074 34.6813 58.3961C34.5005 58.2368 34.3278 58.059 34.1667 57.8543L34.1479 57.838C34.1542 57.5958 34.1564 57.3533 34.1604 57.1111C34.182 56.8633 34.2033 56.6165 34.2255 56.368C34.2402 56.2021 34.2552 56.0355 34.2699 55.8693C34.3056 55.4683 34.3415 55.0671 34.3778 54.6652C34.395 54.4743 34.4122 54.2837 34.4295 54.0924C34.4645 53.7068 34.4995 53.3211 34.5349 52.9355C34.5533 52.7324 34.5718 52.5293 34.5902 52.3261C34.619 52.0124 34.6478 51.6993 34.6766 51.3858C34.6953 51.1805 34.7141 50.9752 34.7329 50.7702C35.0447 47.3718 35.3491 44.0433 35.6053 40.8733C35.609 40.838 35.6144 40.803 35.6178 40.7677C35.7898 39.1015 35.8893 37.4193 35.9863 35.7515C35.9922 35.6484 35.9938 35.5465 35.9994 35.4433C36.037 34.8387 36.0729 34.2399 36.1042 33.654C36.2916 31.6221 36.3363 29.5833 36.3079 27.5418L36.2919 27.5062C36.2919 27.4668 36.2922 27.4261 36.2922 27.3871C36.4198 27.448 36.5428 27.5043 36.6541 27.5521C37.5394 27.9315 38.4074 28.2355 39.3621 28.3961C40.3562 28.5636 41.3894 28.549 42.3688 28.7887C43.4479 29.0524 44.5196 29.2655 45.6216 29.4221C46.7227 29.5787 47.8081 29.5699 48.9108 29.6624C49.9499 29.7496 50.9966 29.6424 52.037 29.7115C53.1377 29.7846 54.1997 29.9527 55.3058 29.8615C56.4366 29.7683 57.557 29.6887 58.6919 29.6937C59.7479 29.6983 60.7739 29.4768 61.8224 29.4693C62.8588 29.4624 63.9192 29.4246 64.9496 29.3371C65.9515 29.2521 66.909 28.9105 67.9006 28.7833C69.6923 28.5543 71.4346 28.0958 73.125 27.4721C73.4798 27.3412 73.8858 27.2224 74.3018 27.0915C74.2299 27.3665 74.1998 27.6583 74.1808 27.9511ZM61.0664 92.528L61.0442 92.5249C61.0789 92.5249 61.1136 92.5218 61.1487 92.5218L61.0664 92.528ZM41.3478 90.8343C41.3328 90.7968 41.3105 90.7655 41.2824 90.7374C41.5304 90.803 41.7832 90.8686 42.04 90.9311C41.8091 90.903 41.5783 90.8718 41.3478 90.8343ZM34.7488 47.5437C34.6528 48.6002 34.5552 49.6655 34.457 50.7383C34.3966 51.3949 34.3365 52.0524 34.2765 52.7099C34.3781 50.9677 34.548 49.2255 34.7538 47.4871L34.7488 47.5437ZM77.1946 58.1652L77.1433 58.1265C77.1152 58.084 77.0827 58.0471 77.047 58.0152C77.0905 57.9993 77.134 57.9824 77.1781 57.9677C77.1837 58.0337 77.1896 58.0993 77.1946 58.1652ZM34.9531 87.5405C35.0842 87.6905 35.2324 87.8374 35.3898 87.9812C35.2909 87.8999 35.1955 87.8187 35.1029 87.7343C35.0504 87.6718 34.9988 87.6062 34.9531 87.5405ZM36.7595 65.5233C36.7655 65.5562 36.7727 65.5883 36.7808 65.6205L36.7014 65.6305C36.7223 65.5974 36.7401 65.559 36.7595 65.5233ZM41.2242 90.3968C41.0265 90.3437 40.8344 90.2874 40.6446 90.2312C40.3727 90.1499 40.1075 90.0655 39.8516 89.9811C39.5623 89.8843 39.2836 89.7843 39.0152 89.6843C38.7471 89.5812 38.4897 89.478 38.2432 89.3686C37.5037 89.0499 36.8628 88.703 36.326 88.3405C36.0573 88.1561 35.8149 87.9687 35.5993 87.7749C35.5274 87.7124 35.4586 87.6468 35.3926 87.5812C35.1946 87.3843 35.0241 87.1843 34.8808 86.978C34.7948 86.853 34.7138 86.7187 34.635 86.578C34.6115 86.5343 34.589 86.4905 34.5662 86.4468C34.5092 86.3374 34.4542 86.2249 34.4007 86.1062C34.3797 86.0593 34.3581 86.0124 34.3375 85.9624C34.2696 85.803 34.2042 85.6343 34.1423 85.4593C34.1288 85.4186 34.1166 85.378 34.1035 85.3374C34.0553 85.1936 34.009 85.0468 33.9646 84.8905C33.9433 84.8187 33.9227 84.7405 33.9024 84.6655C33.867 84.5343 33.8332 84.3999 33.8004 84.2593C33.7816 84.1812 33.7622 84.103 33.7444 84.0218C33.7003 83.8218 33.6584 83.6187 33.6193 83.4062C33.6011 83.3062 33.5842 83.203 33.567 83.0999C33.5448 82.9687 33.5233 82.8374 33.5026 82.703C33.4838 82.578 33.466 82.4561 33.4488 82.328C33.4322 82.2093 33.4169 82.0843 33.4016 81.9624C33.3697 81.703 33.3403 81.4374 33.3134 81.1624C33.3043 81.0686 33.294 80.978 33.2855 80.8811C33.2702 80.7124 33.2567 80.5405 33.2436 80.3655C33.2358 80.2687 33.2283 80.1686 33.2214 80.0686C33.2108 79.9186 33.2011 79.7687 33.192 79.6155C33.2092 79.478 33.2317 79.3437 33.268 79.2218C33.2949 79.1312 33.2483 79.0718 33.1829 79.0468C33.197 78.903 33.2136 78.7593 33.2245 78.6155C33.2558 78.1968 33.2536 77.7749 33.2292 77.353L33.2289 77.3499L33.227 77.3249C33.2962 76.8155 33.3678 76.303 33.4344 75.7874C33.5048 75.2405 33.5042 74.6905 33.5007 74.1405C33.4979 73.6249 33.4948 73.1093 33.5439 72.5937C33.7091 72.1187 33.7938 71.603 33.8204 71.2436C33.8673 70.6093 33.7238 69.9662 33.6793 69.3352L33.6718 69.2543C33.6775 68.5965 33.6922 67.939 33.7137 67.2815C34.5145 68.0362 35.6322 68.3299 36.6945 68.5415C37.5021 68.7027 38.3154 68.789 39.1318 68.844C40.5958 69.2862 42.2483 69.433 43.6169 69.5852C46.2413 69.8777 48.8739 69.9296 51.5124 69.9146C55.1081 69.8937 58.6659 69.5318 62.221 69.1162C64.867 68.9799 67.5005 68.7024 70.0977 68.1702C71.7778 67.8258 73.441 67.4162 75.1089 67.028C75.6791 66.8949 76.8071 66.6708 77.4389 66.1693L77.4399 66.1921C77.4605 66.6837 77.5028 67.173 77.5534 67.6615C77.6101 68.2037 77.6776 68.7446 77.7433 69.2855C77.8681 70.3155 77.9829 71.3437 77.9854 72.3843C77.9873 72.9905 77.9839 73.5968 77.9829 74.2062C77.9823 74.8124 77.9835 75.4218 77.9948 76.028C77.9986 76.2343 78.0064 76.4374 78.0142 76.6405C78.0236 76.8937 78.0336 77.1436 78.0386 77.3968C78.0505 77.9999 78.0261 78.5968 77.8856 79.1937L77.8853 79.1968C77.8662 79.278 77.85 79.3593 77.8265 79.4405L77.8124 79.5155L77.8093 79.5312C77.8056 79.578 77.8124 79.6218 77.8243 79.6624C77.8209 79.9374 77.819 80.2124 77.8156 80.4905C77.8027 80.5218 77.794 80.5562 77.794 80.5968C77.7946 80.7562 77.7912 80.9124 77.7896 81.0687C77.783 81.803 77.7536 82.528 77.6832 83.253C77.6488 83.6093 77.6072 83.9655 77.5519 84.3218C77.464 84.8843 77.3348 85.4093 77.1665 85.9218C76.9982 86.4343 76.7908 86.9374 76.5478 87.4499C76.509 87.5311 76.4702 87.6093 76.4311 87.6874C76.0588 88.4499 75.6635 89.1124 75.0197 89.6562C74.9077 89.7499 74.7901 89.8405 74.6622 89.928C74.624 89.953 74.5843 89.978 74.5455 90.003C74.3972 90.0624 74.2399 90.1249 74.0782 90.1843C73.7506 90.303 73.3978 90.4218 73.0181 90.5311C72.4506 90.6999 71.8275 90.8593 71.1494 91.0061C70.7749 91.0874 70.3855 91.1655 69.9792 91.2374C69.1349 91.3936 68.2262 91.5312 67.2509 91.653C67.2027 91.6593 67.153 91.6655 67.1048 91.6686C66.5808 91.6624 66.0585 91.6655 65.5364 91.6812C65.3093 91.6218 65.0863 91.5811 64.8804 91.7061C64.7096 91.7124 64.5388 91.7218 64.368 91.728C63.3114 91.7874 62.261 91.9593 61.2072 92.0155C60.5115 92.0499 59.8158 92.1437 59.1198 92.1937C58.6584 92.203 58.1964 92.2062 57.7335 92.2062H57.7256C55.3833 92.2093 53.0289 92.1155 50.7632 91.9343C50.5396 91.9124 50.3159 91.8905 50.0922 91.8749C49.4012 91.8124 48.7175 91.7436 48.0484 91.6655C47.7259 91.628 47.4099 91.5874 47.0971 91.5436C46.6705 91.4686 46.2425 91.4061 45.814 91.3593C45.3216 91.2811 44.8418 91.1999 44.3779 91.1124C43.2387 90.903 42.1855 90.6624 41.2242 90.3968ZM30.6351 47.498C31.0283 47.659 31.4925 47.6149 31.8704 47.4299C32.1219 47.3071 32.3114 47.1052 32.5407 46.9465C32.7125 46.8277 32.8823 46.7762 33.0281 46.6158C33.0791 46.5596 33.0982 46.4993 33.1016 46.4405C33.68 45.9537 34.1451 45.3424 34.442 44.6099C34.207 46.3455 33.9702 48.084 33.761 49.818C33.5073 51.9218 33.5433 54.0883 33.4791 56.2062C33.4607 56.8149 33.4388 57.4234 33.4147 58.0318C33.3903 58.6399 33.3637 59.2483 33.3356 59.8565C33.2805 61.044 33.2198 62.2312 33.1604 63.4184C33.1576 63.4771 33.1545 63.5358 33.1516 63.5943C33.1044 64.5443 33.059 65.4943 33.0174 66.4446C32.7913 65.9333 32.5063 65.4437 32.1938 65.0455C30.6952 63.1377 28.1408 62.944 26.2414 61.6858C25.0935 60.9249 23.9999 59.9621 22.9435 59.0605C22.3292 58.5365 21.6948 58.0674 21.0498 57.6021C20.3898 57.0452 19.8008 56.4218 19.2155 55.7618C17.8192 54.1868 16.7115 52.5312 15.8735 50.5508C15.1112 48.7493 14.4271 46.8171 13.951 44.9062C13.6707 43.7805 13.7333 42.6399 13.8218 41.4924C13.9129 40.3133 14.1556 39.1496 14.687 38.0996C15.6768 36.1446 17.7494 34.7955 19.7789 34.4824C21.8872 34.1571 24.0027 34.3602 26.0594 34.908C27.2875 35.2349 28.2784 35.7287 29.2147 36.638C30.027 37.4271 30.8172 38.2805 31.465 39.2315C32.8066 41.2005 32.6615 44.4415 30.662 45.864C30.5976 45.9099 30.5763 45.9746 30.5794 46.0377C30.4186 46.1458 30.311 46.3421 30.2438 46.5505C30.1068 46.9761 30.2272 47.3308 30.6351 47.498ZM78.1803 64.3661C78.1709 64.2149 78.5622 69.1755 78.3877 67.1312C78.3411 66.5799 78.2957 66.0277 78.2551 65.4749C78.2278 65.1055 78.2025 64.7358 78.1803 64.3661ZM78.941 75.7687C78.9842 75.7374 78.0827 61.9555 78.0808 61.4927C78.0802 61.224 78.0818 60.9546 78.0868 60.6855C78.1027 59.7846 78.0577 58.9221 77.9757 58.0718C77.8662 56.938 77.6911 55.8255 77.5074 54.6702C77.4615 54.3815 77.4152 54.0899 77.3692 53.7949C77.1943 52.674 77.0436 51.5521 76.9053 50.4296C76.6995 48.759 76.5215 47.0865 76.3329 45.4136C76.208 44.1324 76.0851 42.8855 75.9666 41.6858C75.9278 41.2918 75.8893 40.9021 75.8511 40.5171C75.8095 40.0943 75.7686 39.6786 75.7282 39.2677C75.5089 37.0336 75.3113 34.9783 75.1527 33.1765C75.1514 33.114 75.1483 33.0518 75.1473 32.9893C75.1251 31.0611 75.1583 29.0868 74.9331 27.1662L74.9719 27.1468C75.0469 27.0937 75.0782 26.9852 74.9941 26.928L74.9678 26.9112L74.9518 26.8743C76.0588 26.4752 77.0952 25.9002 77.3094 24.6883C77.5444 23.3621 76.5296 23.1555 75.4145 23.2843C75.397 23.119 75.3438 22.9368 75.2537 22.7302C74.9068 21.9349 74.4366 21.1227 73.8748 20.4627C73.6853 20.2402 73.4663 19.878 73.1989 19.6312C73.0794 19.489 72.9596 19.3477 72.842 19.2062C72.4616 18.7496 71.9367 18.1655 71.3333 17.8749C70.978 17.5737 70.5791 17.318 70.124 17.1243C68.6504 16.4965 67.3328 15.598 65.8073 15.0621C65.6662 15.0127 65.5236 14.9668 65.3812 14.9202C65.1551 14.7993 64.8651 14.6527 64.5814 14.5577C64.395 14.6693 64.2032 14.7724 64.0083 14.8705C63.9749 14.8877 63.9408 14.904 63.907 14.9208C63.7618 14.9918 63.6133 15.0577 63.4637 15.1221C63.3345 15.1777 63.2029 15.2299 63.0709 15.2812C62.9773 15.3171 62.8844 15.3533 62.7896 15.3871C62.6639 15.4321 62.5363 15.4736 62.408 15.5146C62.261 15.5615 62.1149 15.6102 61.9654 15.6524C62.0937 15.6877 62.2232 15.7215 62.353 15.754C62.3051 15.7537 62.2579 15.7549 62.2103 15.7552C62.1162 15.7246 62.0211 15.6958 61.9275 15.6633C60.9072 15.9474 59.8339 16.1221 58.7591 16.2293C58.1754 16.3283 57.5871 16.4002 56.9971 16.4558C56.8964 16.4665 56.7953 16.4768 56.6943 16.4855C56.3884 16.5109 56.0822 16.5299 55.7759 16.5446C55.7475 16.5458 55.7187 16.548 55.6899 16.5493C55.3568 16.564 55.0239 16.5733 54.6914 16.5768C54.6073 16.5777 54.5228 16.5802 54.4387 16.5805C54.3802 16.5805 54.3211 16.5833 54.2626 16.583H54.2582C54.052 16.5821 53.8562 16.5777 53.6635 16.5715C53.5928 16.5693 53.5209 16.5677 53.4518 16.5646H53.4515C53.3445 16.5596 53.2387 16.554 53.1346 16.5465V16.5452C52.9485 16.5321 52.7664 16.5137 52.5878 16.4905C52.5571 16.4865 52.5265 16.4827 52.4961 16.4783C52.2956 16.4499 52.0989 16.413 51.9037 16.3674L51.8765 16.3612C51.6785 16.3143 51.4817 16.258 51.2847 16.1902C51.218 16.168 51.1514 16.1465 51.0845 16.1208C50.4091 15.9877 49.7363 15.8002 49.111 15.5455C49.0428 15.5177 48.9771 15.4871 48.9108 15.4577L48.8357 15.424C48.7491 15.3849 48.6618 15.3468 48.5776 15.3049C48.5038 15.268 48.4334 15.2277 48.3618 15.189C48.2889 15.1496 48.2148 15.1115 48.1441 15.0696C48.028 15.0005 47.9157 14.9277 47.8063 14.8521C47.6373 14.7358 47.4759 14.6127 47.3258 14.4796C47.2226 14.389 47.1222 14.2958 47.0289 14.1968C46.6311 14.3277 46.241 14.4702 45.8647 14.6246C44.3319 15.254 43.0388 16.0699 41.7203 17.0618C41.0434 17.5705 40.3017 18.013 39.658 18.563C39.0624 19.0721 38.545 19.6555 37.9416 20.1602C37.5131 20.519 37.1236 20.9483 36.8049 21.4246C36.6573 21.5702 36.5159 21.7218 36.3861 21.8793C36.062 22.2721 35.7626 22.7193 35.5865 23.203C35.5509 23.2833 35.5211 23.3687 35.4974 23.4602C35.3938 23.5137 35.2934 23.5737 35.1971 23.6421C35.1555 23.6362 35.1145 23.6305 35.0782 23.6277C34.5189 23.5815 34.0219 23.9799 33.9008 24.533C33.6634 25.6165 34.6969 26.4962 35.6838 27.0668C35.6697 27.0955 35.661 27.128 35.661 27.1665C35.6603 27.4983 35.6631 27.8302 35.6641 28.1621L35.6744 28.2084C35.6588 28.7165 35.6434 29.2243 35.6265 29.7324C35.5042 33.4455 35.3341 37.1624 34.9246 40.8484C34.9159 40.8055 34.9115 40.7599 34.9015 40.718C34.6027 39.4896 34.1817 38.373 33.3891 37.4099C32.4941 36.3221 31.628 35.3112 30.6226 34.334C28.7867 32.5493 25.8652 31.9896 23.4666 31.7608C21.0107 31.5268 18.1201 31.6174 15.9258 32.9412C13.779 34.2362 12.2325 36.1852 11.5593 38.713C11.1933 40.0887 11.0964 41.6424 11.1057 43.0683C11.1145 44.4618 11.4748 45.7218 11.8849 47.0321C12.6726 49.548 13.5059 52.0687 14.7218 54.3933C15.9558 56.7521 17.7 58.8477 19.5834 60.6487C20.6804 61.6974 22.0017 62.6083 23.2976 63.3505C23.9508 63.7249 24.5936 64.1024 25.2342 64.5015C25.8896 64.9096 26.5912 65.169 27.2628 65.534C28.5453 66.2315 29.9094 67.3149 30.6555 68.6396C31.1453 69.5102 31.3752 70.3374 31.3765 71.3499C31.3771 71.9343 31.2035 72.4812 31.2335 73.0562C31.2388 73.1624 31.2848 73.2343 31.3458 73.278C31.3671 73.4155 31.43 73.5405 31.5885 73.6624C31.8341 73.8468 32.3002 73.8749 32.5801 73.7937C32.6195 73.7843 32.6574 73.7655 32.6946 73.7499C32.6796 73.9187 32.6649 74.0874 32.6487 74.2593C32.5351 75.4624 32.4012 76.6624 32.3024 77.8655C32.2116 78.9687 32.1266 80.0155 32.1381 81.0593V81.0655C32.15 82.1093 32.2595 83.1468 32.5579 84.2249C32.9843 85.7624 33.3381 86.9718 34.2361 87.9999C34.3406 88.1218 34.4498 88.2374 34.5699 88.353L34.5793 88.3624C34.8474 88.6187 35.1567 88.8624 35.5186 89.0999C36.1236 89.4937 36.7433 89.7999 37.3839 90.0749C37.5716 90.1562 37.7611 90.2343 37.9523 90.3124C38.0661 90.753 37.9322 91.2249 38.109 91.6718C38.2519 92.0311 38.5003 92.2937 38.8269 92.4968C39.6173 92.9937 40.7688 93.2562 41.6681 93.4343C44.4658 93.9937 47.2413 94.203 50.0747 94.4749C51.4282 94.603 52.7905 94.5624 54.1465 94.6874C55.6101 94.8218 56.9646 94.6062 58.4194 94.5343C59.0723 94.503 59.6938 94.603 60.3413 94.653C61.0254 94.703 61.7108 94.5624 62.3942 94.5312C63.8025 94.4687 65.2083 94.4718 66.6037 94.2468C67.3566 94.128 68.1142 93.903 68.874 93.8749C69.5625 93.8468 70.251 93.7874 70.9044 93.5436C71.2244 93.4218 71.4994 93.2155 71.8119 93.0812C72.0374 92.9843 72.2698 92.9499 72.4744 92.803C72.9164 92.4874 73.0393 91.7936 73.5176 91.5436L73.5511 91.5218C74.0932 91.3062 74.6246 91.0843 75.1436 90.7905C76.2703 90.1468 77.1959 88.9937 77.4855 87.7374C77.6501 87.3468 77.7558 86.9468 77.8512 86.5124C78.0001 85.828 78.2391 85.1749 78.3455 84.4811C78.4618 83.7218 78.5782 82.9655 78.7136 82.2093C78.9398 80.9499 78.9999 79.6905 78.8844 78.4249C78.9135 78.1968 78.9338 77.9655 78.9473 77.7343C78.9639 77.4468 78.9708 77.1562 78.9701 76.8624C78.9692 76.4999 78.957 76.1343 78.941 75.7687Z" fill="#2D635E"/>
<path d="M38.3586 33.6874C38.0348 35.5002 37.7399 37.3308 37.5606 39.1643C37.3836 40.9787 37.3639 42.804 36.956 44.5883C36.8612 45.0027 37.5071 45.1524 37.6 44.7371C37.9829 43.0224 38.0126 41.2765 38.1603 39.5333C38.322 37.6221 38.6267 35.7124 38.9276 33.8186C38.9861 33.4511 38.4252 33.3155 38.3586 33.6874Z" fill="#2D635E"/>
<path d="M39.8338 46.4328C39.8876 45.3837 40.105 44.3422 39.9924 43.29C39.9636 43.0212 39.5632 43.0325 39.5688 43.3078C39.5901 44.3722 39.4052 45.3994 39.3148 46.4547C39.2742 46.9319 39.2535 47.4162 39.2726 47.8953C39.2936 48.4197 39.48 48.9303 39.4675 49.4487C39.4578 49.8491 40.0984 49.8278 40.0937 49.4225C40.0881 48.9403 39.9107 48.5094 39.8532 48.0325C39.7903 47.5106 39.8066 46.9572 39.8338 46.4328Z" fill="#442916"/>
<path d="M72.597 86.6406C73.5733 86.5156 74.1517 85.0125 74.3488 84.1969C74.5408 83.4031 74.6287 82.6125 74.6769 81.8C74.7301 80.9 74.9393 80.0249 74.9678 79.1218C74.9813 78.6937 74.3112 78.7218 74.3015 79.15C74.2875 79.7906 74.1651 80.3969 74.0904 81.0312C74.0087 81.7218 74.0482 82.4156 73.9409 83.1062C73.8477 83.7062 73.7563 84.3406 73.5048 84.8968C73.3162 85.3125 72.9993 86.0968 72.5185 86.1875C72.2642 86.2375 72.3377 86.6718 72.597 86.6406Z" fill="#2D635E"/>
<path d="M70.52 87.5374C70.5604 86.703 70.8494 85.9624 70.9902 85.153C71.1009 84.5124 71.0881 83.8593 71.0856 83.2124C71.084 82.803 70.4437 82.8311 70.4487 83.2405C70.459 84.0686 70.4734 84.828 70.3236 85.6468C70.2066 86.2843 70.0962 86.8999 70.1043 87.553C70.1077 87.8249 70.5072 87.7999 70.52 87.5374Z" fill="#2D635E"/>
<path d="M76.1734 46.9671C76.255 46.8518 76.3367 46.7365 76.418 46.6206C77.2629 44.6546 78.2044 42.7378 79.2542 40.8921C79.5479 40.3753 79.8526 39.8656 80.162 39.3593C80.6127 38.4318 81.086 37.5168 81.6262 36.639C82.4501 35.3003 83.3413 34.01 84.2926 32.775C84.5778 32.4046 85.6586 31.2662 86.4637 30.1593C86.6079 29.8484 86.7302 29.5246 86.7747 29.2181C86.8094 29.0618 86.8438 28.9056 86.8782 28.7493C86.8635 28.5153 86.805 28.3596 86.708 28.2734C86.6276 28.2803 86.5616 28.2515 86.5128 28.1978C86.4049 28.1937 86.2757 28.2284 86.1206 28.31C85.1434 28.1218 83.7117 28.5625 82.7141 28.6668C82.204 28.7203 81.6941 28.7737 81.1839 28.8271C80.1867 29.0203 79.1844 29.1828 78.1785 29.3215C77.5134 29.6434 76.8081 29.7562 76.1058 29.9121C76.0398 35.6025 75.031 41.3628 76.1734 46.9671ZM76.2438 48.6153C75.5421 50.4012 73.0122 23.3437 75.3738 26.9571L75.4211 26.9846C75.8797 27.3187 76.2678 27.7278 76.5957 28.2071C77.5097 28.0178 78.424 27.8281 79.3383 27.6387C79.3918 27.6278 79.4391 27.6334 79.4829 27.6471C80.674 27.3628 81.8752 27.145 83.0917 27.0365C84.0554 26.9506 85.49 26.6618 86.455 26.9584C86.7062 26.9462 86.9633 26.9475 87.1879 27.0434C87.303 27.0928 87.3975 27.17 87.4716 27.2615L87.5076 27.284L87.9599 27.6371C88.0759 27.7281 88.1257 27.8515 88.0975 28.005C87.913 29.0081 87.4613 29.8006 86.8957 30.5546C86.119 32.3181 84.7915 33.8021 83.6347 35.334C82.5656 36.75 81.5671 38.2281 80.6365 39.7553C79.8466 41.3131 79.1156 42.9053 78.3489 44.5062C77.9667 45.304 77.5041 46.0168 77.0292 46.7221C76.8262 47.1915 76.6273 47.6631 76.4358 48.1381C76.4755 48.3546 76.3839 48.5221 76.2438 48.6153Z" fill="#2D635E"/>
<path fill-rule="evenodd" clip-rule="evenodd" d="M77.0992 57.209C63.0324 59.6177 49.797 59.8134 34.1589 57.209L33.7485 67.3124C34.1376 67.4156 34.8646 68.0687 35.2587 68.1718C35.7439 68.2968 42.8402 69.5218 46.1237 69.7937C52.31 70.3093 58.5884 69.6874 64.8764 68.9281C69.6051 68.3562 72.6674 67.0874 77.4724 66.7562L77.0992 57.209Z" fill="#B6C6BE"/>
</g>
<defs>
<clipPath id="clip0_64_614">
<rect width="77.4194" height="90" fill="white" transform="translate(11 5)"/>
</clipPath>
</defs>
</svg>
