<svg width="250" height="250" viewBox="0 0 250 250" fill="none" xmlns="http://www.w3.org/2000/svg">
<path fill-rule="evenodd" clip-rule="evenodd" d="M185.457 176.071C136.507 176.071 104.541 129.486 104.541 80.7378C104.541 36.7399 141.277 2.00001 185.457 2.00001C224.816 2.00001 247.958 41.5415 247.958 80.7378C247.958 125.2 230.104 176.071 185.457 176.071Z" fill="#FFFDFA"/>
<path fill-rule="evenodd" clip-rule="evenodd" d="M182.419 115.274C187.365 131.892 202.197 147.071 197.781 163.865C193.356 180.691 173.966 188.033 160.394 199.035C146.57 210.242 135.284 229.122 117.472 228.967C99.486 228.81 87.7644 210.483 74.6518 198.289C64.7296 189.063 59.2841 176.977 50.4914 166.68C39.1946 153.452 15.7984 146.599 15.6708 129.222C15.5453 112.133 37.5562 104.084 49.9444 92.1896C59.9264 82.6058 69.1222 72.8793 81.2791 66.2305C94.8127 58.8287 108.789 51.0404 124.204 51.5753C140.816 52.1517 158.478 57.0874 169.636 69.2964C180.606 81.3008 177.788 99.7125 182.419 115.274Z" fill="#FBEDD0"/>
<path d="M143.115 196.733C139.98 196.142 136.923 195.162 134.03 193.71C126.04 189.7 119.606 182.952 117.299 174.18C115.849 168.67 115.935 162.913 116.065 157.258C116.211 150.925 116.422 144.593 116.602 138.261C116.911 127.403 117.22 116.545 117.529 105.687C117.601 105.709 117.667 105.722 117.741 105.747C121.216 106.942 123.835 110.254 126.309 112.812C132.203 118.908 138.128 125.083 142.36 132.492C146.912 140.46 148.453 149.622 151.323 158.245C154.216 166.933 158.148 175.037 162.202 183.223C163.329 185.496 165.577 189.506 164.539 192.146C163.605 194.523 160.239 195.051 158.04 195.614C155.471 196.267 152.878 196.865 150.267 197.386C147.893 197.268 145.502 197.046 143.115 196.733ZM182.48 160.093C181.799 152.497 181.178 144.562 179.082 137.202C176.656 128.681 171.596 122.189 164.147 117.457C159.03 114.207 153.396 111.62 147.632 109.524C141.7 103.017 134.88 97.2975 126.643 93.9569C125.006 93.2932 123.197 92.7401 121.317 92.3537C119.405 91.7769 117.406 91.4927 115.328 91.6268C114.615 91.6726 113.906 91.7595 113.204 91.8846C110.017 92.2258 107.05 93.2856 104.802 95.3385C103.293 95.8278 101.976 96.7965 101.32 98.3052C101.08 98.8584 100.862 99.4172 100.643 99.9745L100.62 99.9648L100.606 100.066C95.9741 111.905 95.9609 124.597 95.5877 137.197C95.4744 141.029 95.4133 144.853 95.4251 148.671C94.9303 156.178 94.5654 163.694 94.3722 171.221C94.1193 181.117 92.7273 193.112 98.9547 201.598C105.623 210.688 118.884 212.863 129.432 213.231C136.78 213.488 144.263 212.682 151.584 211.292C152.33 211.327 153.075 211.362 153.821 211.369C161.03 211.459 169.81 210.847 176.093 206.935C183.727 202.174 183.292 192.946 183.409 185.009C183.533 176.698 183.223 168.374 182.48 160.093Z" fill="#442916"/>
<path d="M168.614 182.876C167.794 180.902 166.416 179.255 164.653 178.4C163.857 174.946 162.627 171.578 161.243 168.387C160.515 166.708 158.782 165.624 156.928 165.191C156.171 164.439 155.371 163.728 154.533 163.062C154.547 161.497 154.492 159.942 154.399 158.434C153.862 149.627 151.635 141.199 147.979 133.185C146.227 129.347 144.072 125.646 141.586 122.184C139.886 117.792 137.324 113.669 134.864 110.743C131.258 106.456 126.563 105.053 122.217 105.921C117.868 104.655 113.46 105.248 110.399 109.942C108.155 113.384 108.308 117.427 109.665 121.358C108.391 128.944 110.051 137.133 112.358 144.423C112.369 145.409 112.387 146.391 112.41 147.364C112.475 150.113 112.629 152.86 112.849 155.602C112.59 156.423 112.471 157.302 112.492 158.195C111.54 158.963 110.717 159.928 110.089 161.084C105.86 168.868 110.834 178.317 116.766 183.675C118.815 185.523 121.218 187.233 123.815 188.658C127.708 192.918 132.858 196.024 138.273 198.005C143.805 200.034 150.355 200.465 155.542 198.276C158.431 198.338 160.89 197.011 162.651 194.933C164.546 194.572 166.326 193.432 167.553 191.66C169.288 189.144 169.801 185.725 168.614 182.876Z" fill="#442916"/>
<path d="M150.92 69.1111C142.812 68.0756 134.652 69.0485 126.513 68.7407C118.704 68.4446 111.055 67.257 103.484 65.341C94.8094 63.1463 91.1094 76.5477 99.7887 78.7437C108.095 80.8453 116.628 82.1601 125.188 82.582C133.764 83.0038 142.379 81.919 150.92 83.0101C154.649 83.4861 157.87 79.4749 157.87 76.0606C157.87 71.9089 154.66 69.5885 150.92 69.1111Z" fill="#B6C6BE"/>
<path d="M174.885 65.275C173.688 64.7315 172.526 64.3528 171.377 64.1339C169.917 61.4014 167.038 59.534 163.673 60.8829C161.099 61.9149 158.271 63.3833 155.49 62.5744C151.054 61.2839 147.934 64.2235 147.123 67.7163L147.008 67.8963C143.963 67.8053 140.935 70.1841 140.144 73.0605C139.082 76.9286 141.458 80.3213 144.999 81.6098C154.845 85.1929 166.483 83.5716 174.885 77.2761C178.575 74.5115 180.16 67.6719 174.885 65.275Z" fill="#B6C6BE"/>
<path d="M133.164 47.0173L133.232 47.0854L133.232 47.0888L133.161 47.0909L133.164 47.0173ZM145.277 38.1629L145.272 38.0733C145.281 37.7967 145.285 37.5284 145.296 37.3102C145.305 37.1358 145.306 36.9641 145.309 36.7925C145.33 37.0809 145.337 37.3727 145.322 37.6695C145.315 37.8342 145.295 37.9982 145.277 38.1629ZM150.498 51.0104C150.276 50.9555 150.053 50.8965 149.839 50.8305C150.087 50.8166 150.338 50.8138 150.592 50.8186C150.953 50.8999 151.323 50.9931 151.694 51.0924C151.298 51.0556 150.899 51.0285 150.498 51.0104ZM141.678 51.7742L141.698 51.6178L141.799 51.7658L141.678 51.7742ZM139.704 50.9333L139.75 50.9354L139.748 50.9444L139.704 50.9333ZM130.779 48.3502L130.764 48.3008C130.924 48.2883 131.084 48.2751 131.243 48.264C131.088 48.2925 130.933 48.3196 130.779 48.3502ZM144.478 34.1822C144.408 33.9779 144.34 33.7743 144.262 33.5749C144.388 33.7813 144.504 33.9932 144.609 34.21L144.478 34.1822ZM132.25 41.6981L132.298 41.7892C132.23 41.8135 132.177 41.8614 132.122 41.9052C132.179 41.8448 132.222 41.7766 132.25 41.6981ZM131.614 34.4317L131.626 34.3608L131.627 34.3462L131.754 34.2045C131.707 34.2802 131.655 34.349 131.614 34.4317ZM135.242 43.997L135.342 44.0901C135.386 44.3132 135.418 44.5259 135.42 44.708L135.39 44.6899C135.167 44.3216 135.009 43.8629 134.873 43.4355C134.975 43.6328 135.091 43.824 135.242 43.997ZM137.232 31.178L137.268 31.1634L137.232 31.178ZM137.076 31.2579L137.075 31.2461L137.11 31.2308L137.076 31.2579ZM139.07 43.7829C139.079 43.8934 139.091 43.9998 139.105 44.1068L139.095 44.1166C139.005 44.045 138.914 43.9699 138.825 43.8948C138.913 43.867 138.99 43.8233 139.07 43.7829ZM137.403 44.6954L137.393 44.6795C137.312 44.5801 137.21 44.5078 137.1 44.4612C137.223 44.4049 137.341 44.3368 137.451 44.2514C137.598 44.3896 137.752 44.5238 137.905 44.6524C137.717 44.6739 137.543 44.6864 137.403 44.6954ZM136.422 44.6002L136.38 44.6461L136.375 44.5974L136.422 44.6002ZM138.326 37.3318C138.179 37.067 137.989 36.7695 137.765 36.4638C138.066 36.5353 138.255 36.8231 138.326 37.3318ZM138.288 32.9459C138.353 33.0126 138.423 33.0766 138.49 33.1419C138.383 33.1051 138.276 33.0724 138.165 33.0481L138.288 32.9459ZM122.738 49.4572C123.142 49.6984 123.548 49.943 123.953 50.1946C124.208 50.353 124.461 50.5094 124.717 50.6678C124.789 50.7123 124.86 50.7568 124.933 50.8012L124.935 50.7999L125.119 50.9118L125.117 50.9131L125.133 50.9222H125.133L125.143 50.9284L125.275 51.007C125.502 51.1439 125.728 51.2787 125.957 51.4114L126.038 51.4594L126.041 51.4587C126.261 51.5859 126.482 51.711 126.705 51.8319L126.732 51.8471H126.733C127.184 52.0904 127.639 52.3225 128.102 52.5254C128.6 52.6241 129.099 52.704 129.596 52.777H129.599C130.241 52.8708 130.879 52.9459 131.505 53.0015L131.545 53.0049C131.617 53.0112 131.687 53.016 131.759 53.0216C132.036 53.0445 132.309 53.0647 132.579 53.0814L132.633 53.0842C132.97 53.1036 133.302 53.1189 133.627 53.1293L133.663 53.1307C133.995 53.1412 134.319 53.1474 134.635 53.1495H134.639C134.916 53.1509 135.186 53.1502 135.448 53.1467C135.673 53.1439 135.894 53.1398 136.105 53.1328C136.977 53.1036 137.876 53.0772 138.791 53.0474L138.889 53.0446V53.0439C138.96 53.0411 139.035 53.0376 139.106 53.0348L139.105 53.0362C139.511 53.023 139.919 53.0077 140.329 52.991L140.331 52.9869L140.424 52.9834V52.9876C140.633 52.9786 140.845 52.9681 141.055 52.9591C141.201 52.9521 141.345 52.9466 141.492 52.9389L141.583 52.9347V52.9334C143.334 52.8458 145.117 52.7165 146.883 52.4886C147.657 52.3149 148.423 52.1154 149.184 51.9L149.188 51.9007L149.22 51.8902C149.551 51.7964 149.875 51.6873 150.203 51.5859C150.602 51.4622 151.003 51.3482 151.398 51.2148L151.381 51.2106C151.496 51.1724 151.614 51.1404 151.728 51.1008H151.729L151.738 51.0973L151.743 51.0959H151.742C152.64 50.7832 153.528 50.4482 154.396 50.0758L154.357 50.0681C154.637 49.9485 154.922 49.8374 155.198 49.7109C153.371 49.2425 151.53 48.8346 149.703 48.4614C148.197 48.1549 146.691 47.9096 145.185 47.7004C144.756 46.4001 144.516 45.0707 144.944 43.7371C145.306 42.6078 145.732 41.5348 146.038 40.3826C146.548 38.452 146.801 36.4825 146.12 34.5506C144.858 30.9618 141.547 28.6866 137.768 29.3211C134.251 29.9118 130.409 31.9869 129.077 35.4707C128.311 37.4721 128.906 39.229 129.658 41.1366C130.057 42.1498 130.587 43.1012 131.173 44.0164C131.836 45.0505 132.159 46.004 132.223 47.1326C130.439 47.2306 128.653 47.3953 126.863 47.6434C125.095 47.8881 123.27 48.255 121.478 48.731C121.591 48.7936 121.708 48.8582 121.816 48.918C122.124 49.0875 122.431 49.2738 122.738 49.4572Z" fill="#2D635E"/>
<path d="M173.05 223.704C172.104 224.128 171.33 224.614 170.299 224.844C168.532 225.247 166.741 225.149 164.961 225.511C163.048 225.893 161.114 226.227 159.164 226.366C157.378 226.484 155.581 226.498 153.792 226.567C151.906 226.644 150.015 227.012 148.132 226.803C144.581 226.414 141.229 227.214 137.693 227.165C135.843 227.137 133.986 226.845 132.138 226.741C130.302 226.63 128.461 226.692 126.628 226.553C122.789 226.248 118.901 226.067 115.081 225.58C111.664 225.136 108.054 224.517 104.748 223.558C103.478 223.19 101.839 222.988 100.823 222.078C99.913 221.258 99.9957 220.139 99.8012 219.09C99.9457 219.145 100.089 219.201 100.234 219.263C100.678 219.437 101.126 219.625 101.58 219.805C102.485 220.181 103.407 220.542 104.348 220.778C104.818 220.889 105.293 220.973 105.772 221.008C105.881 221.015 105.977 221.001 106.062 220.966L106.151 220.903C106.42 221.008 106.733 221.105 107.106 221.244C108.534 221.772 110.114 221.855 111.626 221.974C112.279 222.022 112.933 222.078 113.587 222.126C115.499 222.571 117.337 222.87 119.347 222.974C120.048 223.009 120.754 223.037 121.461 223.065C122.199 223.211 122.934 223.363 123.663 223.551C125.141 223.94 126.323 223.711 127.823 223.697C129.315 223.676 130.934 224.163 132.412 224.406C133.777 224.621 135.205 224.719 136.605 224.837C136.914 224.948 137.214 225.024 137.511 225.087C137.998 225.184 138.477 225.233 138.975 225.254C139.269 225.261 139.569 225.268 139.882 225.275C140.812 225.282 141.739 225.219 142.668 225.136C144.215 224.99 145.764 224.795 147.327 224.802C148.578 224.809 149.835 224.934 151.086 224.851C152.011 224.788 152.89 224.628 153.797 224.545L153.931 224.531C154.231 224.51 154.533 224.489 154.843 224.496C156.624 224.496 158.322 224.51 160.048 224.336C160.514 224.288 160.98 224.232 161.452 224.149C162.113 224.038 162.781 223.947 163.453 223.885C165.47 223.676 167.527 223.621 169.53 223.412C170.313 223.336 171.095 223.273 171.86 223.12C172.145 223.058 172.428 222.988 172.708 222.898L172.891 222.828C173.736 222.801 174.484 222.668 175.269 222.432C175.188 222.536 175.102 222.641 175.006 222.731C174.477 223.259 173.706 223.405 173.05 223.704ZM85.6089 180.562C85.2871 180.249 85.4518 180.026 85.4921 179.54C85.5081 179.345 85.449 179.199 85.3545 179.102C85.4219 178.838 85.4873 178.567 85.5067 178.268C85.5915 176.941 85.6019 175.426 85.3782 174.117C84.9577 171.656 83.5546 169.003 81.8895 167.253C80.2154 165.494 78.1882 163.965 76.1527 162.721C75.0339 162.038 73.7864 161.644 72.6384 161.021C71.3444 160.319 70.14 159.448 68.8703 158.7C66.4179 157.256 64.0502 155.814 61.7395 154.115C59.335 152.346 57.3446 150.226 55.3473 147.97C51.5515 143.687 48.5417 139.183 46.2643 133.795C44.1934 128.895 42.3337 123.64 41.0404 118.441C40.2787 115.379 40.4483 112.276 40.6888 109.155C40.9362 105.948 41.5963 102.782 43.0404 99.9265C45.7299 94.6081 51.3618 90.938 56.8776 90.0867C62.6068 89.2014 68.3561 89.7538 73.9449 91.2438C77.282 92.134 79.9749 93.476 82.5198 95.9507C84.727 98.0967 86.8744 100.419 88.6347 103.005C92.2804 108.362 91.8864 117.177 86.4526 121.047L86.4456 121.054C86.3212 121.12 86.1982 121.189 86.0912 121.273C85.6686 121.604 85.2774 121.996 84.7868 122.21C84.3691 122.391 83.5824 122.613 83.1543 122.346C82.5671 121.978 82.7534 120.896 83.3413 120.647C83.4768 120.589 83.5296 120.475 83.524 120.364C84.8855 119.368 85.9661 118.035 86.5742 116.369C87.2886 114.413 87.8028 111.63 87.3004 109.561C86.7576 107.328 85.9932 105.298 84.5533 103.547C82.9278 101.569 81.3544 99.7313 79.5281 97.955C76.1937 94.7102 70.8878 93.6928 66.5311 93.2772C62.0709 92.8512 56.8199 93.0159 52.8351 95.4225C48.9357 97.777 46.1267 101.321 44.9043 105.916C44.2392 108.417 44.0634 111.242 44.0801 113.835C44.0961 116.368 44.7507 118.659 45.4957 121.041C46.9266 125.615 48.4395 130.198 50.6481 134.424C52.874 138.685 56.0151 142.47 59.41 145.729C60.5469 147.086 62.1571 147.928 63.4685 149.066C65.2135 150.582 67.0586 151.957 68.8099 153.461C70.4534 154.871 72.0553 156.256 73.9838 157.231C76.0596 158.281 78.2243 158.971 80.3488 159.874C84.2301 161.524 86.9029 165.052 87.7292 169.387L87.7591 169.563C87.6889 171.491 87.627 173.419 87.5888 175.349C87.5575 176.892 87.4693 178.428 87.3553 179.964C87.0294 180.541 86.2059 181.131 85.6089 180.562ZM91.0337 73.1376C91.0295 72.6602 91.2074 72.1842 91.5632 71.8798C92.0142 71.5406 92.4986 71.4398 93.0136 71.5552C93.0594 71.8478 93.3221 72.084 93.6578 71.9916L93.6203 72.1042L93.7968 72.1306L93.9754 72.1827C94.0393 72.3308 94.1936 72.4392 94.384 72.3752L94.425 72.3614L94.4313 72.3641L94.4813 72.3857L94.4917 72.3711C94.5751 72.4135 94.6571 72.4565 94.7419 72.4962L94.9066 72.5733C95.6905 72.9194 96.5488 73.1216 97.4321 73.2627C98.3161 73.606 99.2959 73.8763 100.165 73.8881C100.346 73.8909 100.477 73.8228 100.57 73.7234C101.774 74.1724 102.953 74.6797 104.234 75.0022C106.106 75.474 107.854 76.1454 109.715 76.5311C110.168 76.6728 110.619 76.8188 111.082 76.9362C112.25 77.2323 113.454 77.3455 114.631 77.5985C116.886 78.0815 119.005 78.4199 121.327 78.3303C123.842 78.2344 126.204 78.4387 128.678 78.939C130.682 79.3435 132.925 79.609 134.97 79.6048C137.317 79.6013 139.569 79.52 141.898 79.1976C142.146 79.1635 142.39 79.119 142.631 79.0655C145.197 79.2823 147.849 78.7813 150.379 78.513C153.856 78.144 157.312 77.6853 160.751 77.0842C162.25 76.8222 163.7 76.4664 165.124 76.0307C165.668 75.9111 166.213 75.7909 166.757 75.6645C168.049 75.3642 169.371 75.2266 170.671 74.966C172.084 74.6825 173.372 74.0661 174.713 73.5539C175.684 73.1828 176.64 72.7741 177.607 72.3912C177.936 72.3593 178.264 72.3155 178.588 72.255C179.101 72.0959 179.62 71.9583 180.139 71.8242C180.248 71.7964 180.355 71.7651 180.463 71.738L180.454 71.7213C180.572 71.6754 180.692 71.6303 180.802 71.5795C181.303 71.3488 181.636 71.0833 181.848 70.7803C182.242 70.7247 182.636 70.69 183.034 70.7011C184.354 70.74 185.35 71.3891 185.022 72.9354C184.782 74.0675 183.859 74.7582 182.938 75.3267C180.274 76.9709 177.152 77.6138 174.209 78.6826C171.081 79.8196 167.679 80.2803 164.401 80.7786C162.924 81.0031 161.477 81.4582 159.997 81.7119C158.04 82.0468 156.005 81.9906 154.022 82.1233C150.405 82.3659 146.824 82.6369 143.193 82.6925C141.348 82.7203 139.508 82.8815 137.672 83.0407C135.563 83.2227 133.544 83.049 131.442 82.8446C129.698 82.6758 127.965 82.6897 126.215 82.6904C124.356 82.6911 122.512 82.5431 120.655 82.532C116.57 82.5055 112.647 81.4242 108.683 80.6368C104.819 79.8689 100.992 79.9933 97.2986 78.3963C95.5112 77.6235 94.0004 76.9105 92.5702 75.5554C91.894 74.9146 91.042 74.155 91.0337 73.1376ZM121.156 51.852C121.224 51.8318 121.292 51.811 121.36 51.7902C121.386 51.9535 121.471 52.107 121.597 52.2064C121.439 52.2877 121.281 52.3684 121.125 52.4524C121.138 52.2523 121.151 52.0528 121.156 51.852ZM146.998 60.951C146.821 61.0559 146.644 61.1629 146.466 61.272L146.413 61.2693C146.216 61.3033 146.022 61.3457 145.828 61.3853C146.099 61.14 146.372 60.8982 146.64 60.6501C146.827 60.6668 147.014 60.6855 147.201 60.7001C147.128 60.7772 147.062 60.8634 146.998 60.951ZM180.735 69.8845L180.679 69.8957C180.681 69.56 180.569 69.1938 180.392 68.8588L180.557 68.7581C180.751 69.1674 180.845 69.5489 180.735 69.8845ZM135.306 78.2031L135.376 78.3747C134.712 78.3435 134.048 78.2955 133.385 78.2344C134.025 78.2233 134.666 78.2184 135.306 78.2031ZM131.469 77.9932L131.489 78.0273C131.314 78.0057 131.14 77.9835 130.965 77.9606C131.133 77.971 131.301 77.9821 131.469 77.9932ZM119.005 59.9371C119.388 59.682 119.767 59.42 120.146 59.1594C119.953 59.3686 119.755 59.5722 119.566 59.7862C119.379 59.8356 119.192 59.887 119.005 59.9371ZM143.375 60.3916C143.137 60.5549 142.899 60.7161 142.662 60.8724L142.648 60.8648C142.846 60.7084 143.035 60.541 143.228 60.3776L143.375 60.3916ZM166.874 55.5359L166.777 55.4421C167.097 55.6033 167.419 55.7625 167.742 55.9223C167.455 55.784 167.167 55.6464 166.874 55.5359ZM169.057 56.6395C168.765 56.4581 168.464 56.2913 168.161 56.1301C168.463 56.2802 168.764 56.4331 169.064 56.5888L169.057 56.6395ZM95.8059 68.7337L95.8108 68.8859L95.8003 68.9304L95.6349 68.986L95.6523 68.9429C95.703 68.8727 95.7531 68.8018 95.8059 68.7337ZM112.818 54.547L112.841 54.5887L112.729 54.6665L112.703 54.6673L112.818 54.547ZM167.43 59.4416L167.388 59.3637L167.442 59.3991L167.464 59.47L167.43 59.4416ZM169.387 61.09L169.279 60.985C169.15 60.6688 169.029 60.3505 168.92 60.0281L169.081 60.0635C169.187 60.1962 169.295 60.338 169.404 60.4867C169.343 60.5826 169.311 60.6959 169.329 60.821C169.342 60.9121 169.368 61.0003 169.387 61.09ZM140.317 76.8632L140.288 76.9786C140.146 76.98 140.003 76.9779 139.861 76.9786C140.013 76.9418 140.166 76.9042 140.317 76.8632ZM133.573 60.8099L133.662 60.723L133.661 60.7348L133.573 60.8099ZM132.806 61.4666L132.764 61.411C132.996 61.2651 133.218 61.1046 133.433 60.9308C133.221 61.106 133.014 61.2866 132.806 61.4666ZM143.51 69.1027C143.41 69.125 143.31 69.1472 143.21 69.1688C143.427 68.9283 143.65 68.6927 143.88 68.4627C144.012 68.4543 144.146 68.4474 144.278 68.4384C144.392 68.4307 144.507 68.4224 144.621 68.4141C144.253 68.6489 143.883 68.8769 143.51 69.1027ZM145.882 71.451L145.7 71.5448C145.647 71.4509 145.562 71.3752 145.445 71.3224C146.01 71.0931 146.573 70.8547 147.133 70.615L147.192 70.756C146.757 70.9916 146.32 71.2237 145.882 71.451ZM151.3 73.417C151.43 73.3892 151.56 73.3621 151.689 73.3329L151.87 73.3572C151.792 73.3864 151.717 73.4184 151.639 73.4476C151.463 73.5143 151.287 73.5803 151.111 73.647L151.139 73.6283C151.214 73.5706 151.262 73.4962 151.3 73.417ZM169.594 65.1478C169.411 64.4966 169.153 63.8816 168.799 63.4035C168.793 63.2999 168.792 63.1998 168.789 63.0977C169.031 63.5883 169.22 64.1046 169.389 64.4862C169.467 64.6655 169.582 64.8976 169.705 65.1526L169.594 65.1478ZM171.957 71.8839L171.974 71.9159L171.815 71.9805L171.957 71.8839ZM153.119 75.2954L153.192 75.3809C153.064 75.4024 152.936 75.4247 152.808 75.4441C152.913 75.3962 153.015 75.3441 153.119 75.2954ZM173.97 65.5404C174.025 65.8406 174.059 66.1367 174.059 66.4209L173.936 66.3431C173.896 66.1339 173.853 65.924 173.804 65.7162C173.871 65.6676 173.927 65.6085 173.97 65.5404ZM171.22 69.3508C171.185 69.4363 171.147 69.5197 171.121 69.6114L171.116 69.6469L170.989 69.6309L171.077 69.4989L171.22 69.3508ZM167.13 69.7699L167.291 69.6608C167.277 69.7476 167.268 69.8345 167.272 69.92L167.121 69.979C167.133 69.9082 167.14 69.838 167.13 69.7699ZM163.504 74.4518C163.204 74.5407 162.904 74.6185 162.603 74.688C162.502 74.5914 162.358 74.5289 162.165 74.5338C162.01 74.5372 161.855 74.5518 161.7 74.565C162.071 74.4587 162.439 74.3413 162.808 74.2259C162.917 74.2113 163.028 74.2002 163.137 74.1842C163.224 74.1717 163.31 74.155 163.397 74.1418C163.409 74.2509 163.44 74.3579 163.504 74.4518ZM166.486 64.9587V64.9525C166.563 64.874 166.623 64.776 166.694 64.6898C166.696 64.801 166.687 64.9122 166.694 65.0234L166.621 65.0248L166.562 65.0359L166.486 64.9587ZM128.972 73.4455C128.663 73.3412 128.352 73.2453 128.038 73.1592L128.08 73.1473C128.393 73.1758 128.704 73.187 129.016 73.2085C128.986 73.2829 128.971 73.3635 128.972 73.4455ZM113.367 75.1015C113.547 75.1544 113.722 75.2134 113.898 75.2718C113.712 75.2287 113.526 75.1856 113.341 75.1432L113.367 75.1015ZM106.755 66.3765L106.767 66.357L106.784 66.3868L106.755 66.3765ZM115.49 58.9648C115.539 58.83 115.599 58.6994 115.636 58.5618C115.743 58.6028 115.865 58.6118 115.993 58.5687C116.073 58.5416 116.156 58.5124 116.239 58.4825L116.28 58.5527C116.009 58.6785 115.747 58.8168 115.49 58.9648ZM114.187 61.3596C114.425 61.1643 114.669 60.9767 114.916 60.7946C114.825 60.9329 114.736 61.0719 114.645 61.2102C114.492 61.2595 114.339 61.3089 114.187 61.3596ZM116.414 65.104C116.285 65.2277 116.156 65.35 116.027 65.4723L115.883 65.5133C116.076 65.3987 116.25 65.2569 116.401 65.0831L116.414 65.104ZM130.084 67.5975C130.624 67.4856 131.162 67.3668 131.701 67.2417C131.575 67.3285 131.448 67.414 131.321 67.5009C130.909 67.5335 130.496 67.5662 130.084 67.5975ZM142.664 71.082C143.251 70.8158 143.832 70.5378 144.402 70.2362C144.339 70.3606 144.286 70.4864 144.24 70.6136C143.847 70.7692 143.449 70.9138 143.053 71.066C142.923 71.0687 142.793 71.0736 142.664 71.082ZM139.94 74.5393L139.924 74.4191C140.288 74.3364 140.652 74.2523 141.018 74.1779L141.042 74.1814C140.675 74.3037 140.307 74.4191 139.94 74.5393ZM97.9032 69.7476L97.9769 69.9102L97.7962 69.8943L97.9032 69.7476ZM110.857 62.5646L110.805 62.6216C110.713 62.6647 110.619 62.705 110.53 62.7516C110.49 62.6001 110.51 62.443 110.556 62.2853C110.619 62.1491 110.678 62.0108 110.743 61.8746L110.75 61.8641C110.756 62.0948 110.784 62.3283 110.857 62.5646ZM122.965 67.4335L123.055 67.4703L123.058 67.4744C122.92 67.4904 122.782 67.5085 122.643 67.5259L122.7 67.4946C122.789 67.4738 122.876 67.4536 122.965 67.4335ZM117.797 68.1687C117.787 68.1055 117.787 68.0492 117.782 67.9887L117.889 67.9748C117.976 67.9554 118.058 67.9262 118.144 67.9032C118.114 67.972 118.098 68.0422 118.103 68.1124C118.001 68.1333 117.899 68.1513 117.797 68.1687ZM121.027 70.5156L120.972 70.5677C120.648 70.6956 120.328 70.829 120.018 70.9715C119.859 70.9263 119.682 70.8999 119.496 70.8839L119.566 70.8234C120.007 70.7171 120.45 70.6129 120.892 70.5107L121.027 70.5156ZM115.718 70.1507C115.649 70.1827 115.579 70.2154 115.509 70.2473L115.428 70.223L115.476 70.1605C115.557 70.157 115.638 70.1535 115.718 70.1507ZM123.233 70.8158C123.126 70.8457 123.022 70.8825 122.917 70.9138C122.696 70.9437 122.475 70.9742 122.255 71.0055C122.445 70.9283 122.635 70.8492 122.822 70.7685C122.959 70.7845 123.096 70.7998 123.233 70.8158ZM99.1757 67.7761C99.0902 67.8817 99.0026 67.9859 98.9172 68.0909L98.9679 67.9165C99.036 67.8671 99.1069 67.8233 99.1757 67.7761ZM127.872 66.7455C127.952 66.7406 128.036 66.7385 128.118 66.735C127.35 66.8726 126.578 66.9943 125.805 67.1082C126.386 67.0082 126.963 66.8907 127.539 66.7726C127.651 66.7642 127.761 66.7538 127.872 66.7455ZM118.026 63.4542C118.145 63.229 118.277 63.0101 118.422 62.7968L118.54 62.9642L118.574 62.9913C118.422 63.1401 118.269 63.2895 118.118 63.4389L118.026 63.4542ZM113.665 62.6842L113.598 62.7884C113.534 62.8051 113.471 62.8266 113.408 62.8433C113.226 62.8906 112.936 62.9844 112.615 63.0754L112.61 63.072C112.957 62.9323 113.309 62.8051 113.663 62.6842H113.665ZM107.407 67.9915C107.26 67.9637 107.115 67.9415 106.967 67.9095C106.767 67.8657 106.576 67.8032 106.381 67.7462C106.252 67.6593 106.131 67.5697 106.016 67.4793L106.056 67.423C106.513 67.5794 106.963 67.7733 107.407 67.9915ZM137.448 66.8893L137.579 66.8205C137.702 66.7726 137.823 66.7204 137.946 66.6725C137.835 66.9949 138.097 67.3876 138.438 67.4501C138.312 67.537 138.183 67.6134 138.06 67.7045C138.044 67.4161 137.842 67.1451 137.45 67.1513C137.285 67.1548 137.119 67.1638 136.952 67.168C137.118 67.0776 137.285 66.9776 137.448 66.8893ZM114.185 59.2511C114.102 59.4013 114.007 59.5472 113.91 59.6903C113.927 59.6055 113.934 59.5208 113.941 59.436C114.023 59.3748 114.104 59.313 114.185 59.2511ZM136.134 61.7064C136.216 61.6529 136.297 61.5994 136.378 61.5465C136.501 61.4923 136.62 61.4326 136.743 61.379L136.895 61.3144L136.887 61.3936C136.877 61.484 136.868 61.5695 136.858 61.655C136.617 61.6716 136.376 61.6897 136.134 61.7064ZM136.872 63.081L136.887 63.1422C136.657 63.2721 136.427 63.4021 136.198 63.5313C135.97 63.5974 135.745 63.6669 135.517 63.7322C135.971 63.5195 136.422 63.3006 136.872 63.081ZM179.367 80.0398C179.324 80.6952 179.303 81.3519 179.228 81.9704C179.027 83.6244 178.961 85.2721 178.932 86.9289C178.923 87.4814 178.916 88.0352 178.911 88.5905C178.884 91.2723 179.027 93.8374 179.281 96.3913C179.408 97.668 179.563 98.9425 179.739 100.227C179.915 101.511 180.112 102.806 180.321 104.125C180.73 106.689 181.079 109.257 181.395 111.828C182.344 119.537 183.008 127.261 184.165 134.928C184.622 137.96 185.284 141.006 185.719 144.064C185.772 144.434 185.814 144.803 185.859 145.173C184.727 145.533 183.718 146.121 182.597 146.532C181.102 147.08 179.501 147.329 177.947 147.645C174.781 148.29 171.594 148.508 168.41 149.007C165.29 149.497 162.167 149.769 159.025 150.085C155.933 150.397 152.833 150.254 149.739 150.503C143.249 151.025 136.786 151.207 130.275 151.173C126.983 151.155 123.702 151.48 120.409 151.487C117.08 151.494 113.754 151.354 110.432 151.155C107.412 150.973 104.368 150.901 101.347 150.662C99.7393 150.285 98.1381 149.893 96.5224 149.538C94.8121 149.163 93.2638 148.214 91.6119 147.745C91.2102 147.39 90.8266 146.995 90.4687 146.54L90.427 146.503C90.4409 145.965 90.4457 145.426 90.4548 144.887C90.5027 144.336 90.55 143.787 90.5993 143.234C90.632 142.865 90.6654 142.495 90.698 142.125C90.7772 141.234 90.8571 140.341 90.9378 139.448C90.976 139.023 91.0142 138.599 91.0524 138.174C91.1303 137.316 91.2081 136.459 91.2866 135.601C91.3276 135.149 91.3686 134.698 91.4096 134.246C91.4736 133.548 91.5375 132.852 91.6014 132.155C91.6431 131.698 91.6848 131.242 91.7265 130.786C92.4194 123.228 93.0956 115.826 93.6647 108.777C93.6731 108.698 93.6849 108.62 93.6926 108.542C94.0748 104.836 94.2958 101.095 94.5112 97.3865C94.5244 97.1572 94.5279 96.9306 94.5404 96.7013C94.6238 95.3565 94.7037 94.025 94.7732 92.722C95.1895 88.2034 95.2889 83.6695 95.2256 79.1294L95.1902 79.0503C95.1902 78.9627 95.1908 78.8723 95.1908 78.7854C95.4744 78.921 95.7475 79.0461 95.9949 79.1524C97.9616 79.9961 99.8901 80.6722 102.011 81.0294C104.22 81.4019 106.515 81.3693 108.691 81.9023C111.089 82.4889 113.469 82.9628 115.918 83.311C118.364 83.6591 120.775 83.6397 123.225 83.8454C125.534 84.0393 127.859 83.8009 130.17 83.9545C132.616 84.1171 134.975 84.491 137.433 84.2881C139.945 84.081 142.434 83.9038 144.955 83.9149C147.302 83.9253 149.581 83.4326 151.911 83.4159C154.213 83.4006 156.569 83.3166 158.858 83.122C161.084 82.9329 163.211 82.1733 165.414 81.8905C169.395 81.3811 173.266 80.3616 177.021 78.9745C177.809 78.6833 178.711 78.4192 179.636 78.128C179.476 78.7396 179.409 79.3887 179.367 80.0398ZM150.231 223.648L150.182 223.641C150.259 223.641 150.336 223.634 150.414 223.634L150.231 223.648ZM106.423 219.882C106.389 219.798 106.34 219.729 106.277 219.666C106.828 219.812 107.39 219.958 107.961 220.097C107.448 220.035 106.935 219.965 106.423 219.882ZM91.762 123.61C91.5486 125.96 91.3318 128.329 91.1136 130.715C90.9794 132.175 90.846 133.637 90.7126 135.099C90.9385 131.225 91.3158 127.351 91.7731 123.485L91.762 123.61ZM186.062 147.231L185.948 147.145C185.886 147.05 185.814 146.968 185.734 146.897C185.831 146.862 185.928 146.825 186.026 146.792C186.038 146.938 186.051 147.084 186.062 147.231ZM92.2158 212.557C92.507 212.891 92.8364 213.217 93.1859 213.537C92.9663 213.356 92.7543 213.176 92.5486 212.988C92.4319 212.849 92.3173 212.703 92.2158 212.557ZM96.2291 163.594C96.2423 163.667 96.2583 163.739 96.2764 163.81L96.0999 163.833C96.1464 163.759 96.186 163.674 96.2291 163.594ZM106.148 218.909C105.709 218.791 105.282 218.666 104.86 218.541C104.256 218.36 103.667 218.172 103.099 217.985C102.456 217.769 101.837 217.547 101.24 217.324C100.645 217.095 100.073 216.866 99.5252 216.622C97.8824 215.914 96.4584 215.142 95.2659 214.336C94.669 213.926 94.1304 213.509 93.6515 213.078C93.4917 212.939 93.3388 212.793 93.1922 212.647C92.7523 212.21 92.3735 211.765 92.0553 211.306C91.8641 211.028 91.6841 210.729 91.509 210.417C91.4569 210.319 91.4069 210.222 91.3561 210.125C91.2297 209.881 91.1073 209.631 90.9885 209.367C90.9419 209.263 90.894 209.159 90.8481 209.047C90.6973 208.693 90.5521 208.318 90.4145 207.929C90.3846 207.838 90.3575 207.748 90.3283 207.658C90.2213 207.338 90.1184 207.011 90.0197 206.664C89.9725 206.504 89.9266 206.33 89.8815 206.164C89.8029 205.872 89.7278 205.573 89.6549 205.26C89.6132 205.086 89.5701 204.913 89.5305 204.732C89.4325 204.287 89.3394 203.835 89.2525 203.363C89.2122 203.14 89.1747 202.911 89.1365 202.682C89.0871 202.39 89.0392 202.098 88.9933 201.799C88.9516 201.521 88.912 201.25 88.8738 200.965C88.8369 200.701 88.8029 200.423 88.7688 200.152C88.6979 199.575 88.6326 198.985 88.5729 198.373C88.5527 198.165 88.5297 197.963 88.511 197.748C88.4769 197.372 88.4471 196.99 88.4179 196.601C88.4005 196.386 88.3838 196.163 88.3686 195.941C88.3449 195.607 88.3234 195.274 88.3032 194.933C88.3415 194.627 88.3915 194.328 88.4721 194.057C88.5319 193.856 88.4283 193.724 88.283 193.668C88.3143 193.349 88.3512 193.029 88.3755 192.709C88.445 191.778 88.4401 190.84 88.3859 189.902L88.3852 189.895L88.3811 189.839C88.5346 188.706 88.6938 187.567 88.8418 186.42C88.9982 185.204 88.9968 183.981 88.9891 182.758C88.9829 181.611 88.9759 180.464 89.085 179.318C89.452 178.261 89.6403 177.115 89.6994 176.315C89.8036 174.905 89.4846 173.474 89.3859 172.071L89.3693 171.891C89.3818 170.428 89.4144 168.966 89.4624 167.504C91.2415 169.182 93.7245 169.836 96.0846 170.306C97.8789 170.665 99.6858 170.857 101.5 170.979C104.752 171.962 108.423 172.289 111.464 172.627C117.294 173.278 123.143 173.393 129.005 173.36C136.993 173.313 144.898 172.508 152.796 171.584C158.675 171.281 164.525 170.664 170.295 169.481C174.028 168.715 177.723 167.804 181.429 166.941C182.695 166.644 185.201 166.146 186.605 165.031L186.607 165.082C186.653 166.175 186.747 167.263 186.86 168.349C186.985 169.555 187.135 170.758 187.281 171.961C187.559 174.251 187.814 176.538 187.819 178.852C187.823 180.2 187.816 181.548 187.814 182.904C187.812 184.252 187.815 185.607 187.84 186.955C187.848 187.414 187.866 187.865 187.883 188.317C187.904 188.88 187.926 189.436 187.937 189.999C187.964 191.34 187.91 192.668 187.598 193.995L187.597 194.002C187.555 194.183 187.518 194.363 187.466 194.544L187.435 194.711L187.428 194.745C187.42 194.85 187.435 194.947 187.461 195.037C187.454 195.649 187.45 196.26 187.442 196.879C187.413 196.948 187.394 197.025 187.394 197.115C187.395 197.47 187.388 197.817 187.384 198.165C187.37 199.798 187.304 201.41 187.148 203.022C187.072 203.815 186.979 204.607 186.856 205.399C186.661 206.65 186.374 207.817 186 208.957C185.626 210.097 185.165 211.216 184.625 212.355C184.539 212.536 184.453 212.71 184.366 212.884C183.539 214.579 182.661 216.053 181.23 217.262C180.982 217.47 180.72 217.672 180.436 217.866C180.351 217.922 180.263 217.978 180.177 218.033C179.848 218.165 179.498 218.304 179.139 218.436C178.411 218.7 177.627 218.964 176.783 219.208C175.523 219.583 174.139 219.937 172.632 220.264C171.8 220.445 170.935 220.618 170.032 220.778C168.156 221.126 166.138 221.432 163.971 221.703C163.864 221.716 163.753 221.73 163.646 221.737C162.482 221.723 161.322 221.73 160.162 221.765C159.657 221.633 159.162 221.543 158.704 221.821C158.325 221.835 157.945 221.855 157.566 221.869C155.218 222.001 152.885 222.384 150.544 222.509C148.998 222.585 147.452 222.794 145.906 222.905C144.881 222.926 143.855 222.933 142.826 222.933H142.809C137.605 222.94 132.374 222.731 127.341 222.328C126.844 222.279 126.347 222.231 125.85 222.196C124.315 222.057 122.796 221.904 121.309 221.73C120.593 221.647 119.891 221.557 119.196 221.459C118.248 221.292 117.297 221.154 116.345 221.049C115.251 220.876 114.185 220.695 113.155 220.5C110.624 220.035 108.284 219.5 106.148 218.909ZM82.6227 123.509C83.4963 123.867 84.5275 123.769 85.367 123.357C85.9258 123.084 86.3469 122.635 86.8563 122.282C87.2379 122.018 87.6152 121.904 87.939 121.547C88.0523 121.422 88.0947 121.288 88.1024 121.157C89.3873 120.074 90.4207 118.715 91.0802 117.086C90.5583 120.946 90.0322 124.812 89.5673 128.668C89.0037 133.347 89.0836 138.165 88.9412 142.874C88.9002 144.228 88.8515 145.581 88.798 146.934C88.7438 148.287 88.6847 149.64 88.6222 150.992C88.4999 153.633 88.3651 156.273 88.233 158.913C88.2268 159.044 88.2198 159.174 88.2136 159.304C88.1086 161.417 88.0078 163.53 87.9154 165.643C87.413 164.506 86.7799 163.417 86.0856 162.532C82.7561 158.289 77.0812 157.858 72.8614 155.06C70.311 153.368 67.8814 151.227 65.5346 149.222C64.1697 148.057 62.7603 147.014 61.3274 145.979C59.861 144.74 58.5524 143.354 57.2522 141.886C54.1499 138.384 51.6891 134.702 49.8273 130.298C48.1337 126.292 46.6139 121.995 45.5562 117.745C44.9335 115.242 45.0725 112.705 45.2692 110.153C45.4714 107.531 46.0107 104.943 47.1914 102.608C49.3902 98.2607 53.995 95.2606 58.5038 94.5643C63.1877 93.8408 67.8877 94.2926 72.457 95.5108C75.1854 96.2377 77.3869 97.3358 79.4669 99.3581C81.2717 101.113 83.0272 103.011 84.4664 105.125C87.4471 109.504 87.1246 116.712 82.6825 119.875C82.5393 119.977 82.492 120.121 82.499 120.261C82.1418 120.502 81.9027 120.938 81.7533 121.402C81.4489 122.348 81.7165 123.137 82.6227 123.509ZM188.252 161.021C188.231 160.685 189.101 171.716 188.713 167.17C188.609 165.944 188.509 164.716 188.418 163.487C188.358 162.665 188.302 161.843 188.252 161.021ZM189.942 186.378C190.038 186.309 188.035 155.66 188.031 154.631C188.03 154.033 188.033 153.434 188.044 152.836C188.08 150.832 187.98 148.914 187.798 147.023C187.555 144.502 187.165 142.028 186.757 139.459C186.655 138.817 186.552 138.168 186.45 137.512C186.062 135.019 185.727 132.525 185.42 130.028C184.962 126.313 184.567 122.594 184.148 118.874C183.871 116.024 183.597 113.252 183.334 110.584C183.248 109.707 183.162 108.841 183.078 107.984C182.985 107.044 182.894 106.12 182.805 105.206C182.317 100.238 181.878 95.6672 181.526 91.6601C181.523 91.5211 181.516 91.3828 181.514 91.2438C181.465 86.956 181.538 82.5653 181.038 78.2941L181.124 78.251C181.291 78.1329 181.36 77.8917 181.173 77.7646L181.115 77.7271L181.08 77.645C183.539 76.7576 185.841 75.4789 186.317 72.7839C186.839 69.8345 184.585 69.3752 182.107 69.6615C182.069 69.2938 181.95 68.8887 181.75 68.4293C180.98 66.6607 179.935 64.8545 178.687 63.3868C178.266 62.892 177.779 62.0865 177.185 61.5375C176.92 61.2213 176.654 60.9072 176.392 60.5924C175.547 59.5771 174.381 58.2782 173.04 57.6319C172.251 56.962 171.365 56.3935 170.354 55.9626C167.08 54.5665 164.153 52.5685 160.764 51.3766C160.45 51.2668 160.133 51.1647 159.817 51.0611C159.315 50.7922 158.67 50.4663 158.04 50.255C157.626 50.5031 157.2 50.7324 156.767 50.9506C156.693 50.9889 156.617 51.025 156.542 51.0625C156.219 51.2203 155.889 51.3669 155.557 51.5101C155.27 51.6338 154.977 51.7499 154.684 51.8638C154.476 51.9437 154.27 52.0244 154.059 52.0994C153.78 52.1995 153.496 52.2919 153.211 52.3829C152.885 52.4872 152.56 52.5956 152.228 52.6894C152.513 52.7679 152.801 52.843 153.089 52.9153C152.983 52.9146 152.878 52.9173 152.772 52.918C152.563 52.8499 152.352 52.786 152.144 52.7137C149.877 53.3454 147.493 53.7339 145.105 53.9723C143.808 54.1926 142.501 54.3524 141.19 54.4761C140.966 54.4998 140.742 54.5227 140.518 54.5422C139.838 54.5985 139.158 54.6408 138.477 54.6735C138.414 54.6763 138.35 54.6811 138.286 54.6839C137.546 54.7166 136.807 54.7374 136.068 54.7451C135.881 54.7472 135.693 54.7527 135.506 54.7534C135.376 54.7534 135.245 54.7597 135.115 54.759H135.105C134.647 54.7569 134.212 54.7472 133.784 54.7333C133.627 54.7284 133.467 54.7249 133.314 54.718H133.313C133.075 54.7069 132.84 54.6943 132.609 54.6776V54.6749C132.196 54.6457 131.791 54.6047 131.394 54.5533C131.326 54.5442 131.258 54.5359 131.191 54.5262C130.745 54.4629 130.308 54.3809 129.874 54.2794L129.814 54.2656C129.374 54.1613 128.937 54.0362 128.499 53.8854C128.351 53.8361 128.203 53.7881 128.054 53.7311C126.554 53.4351 125.059 53.0181 123.67 52.4517C123.518 52.3899 123.372 52.3218 123.225 52.2565L123.058 52.1814C122.866 52.0945 122.672 52.0098 122.485 51.9166C122.321 51.8346 122.165 51.745 122.005 51.6588C121.844 51.5712 121.679 51.4865 121.522 51.3933C121.264 51.2398 121.014 51.0778 120.771 50.9096C120.396 50.6511 120.037 50.3773 119.704 50.0813C119.474 49.8797 119.251 49.6726 119.044 49.4523C118.16 49.7435 117.294 50.0604 116.458 50.4037C113.052 51.8034 110.18 53.6179 107.25 55.8236C105.746 56.955 104.099 57.939 102.669 59.1622C101.345 60.2942 100.196 61.5917 98.8553 62.7141C97.9032 63.5119 97.038 64.4667 96.3299 65.5258C96.0019 65.8497 95.6878 66.1867 95.3994 66.537C94.6794 67.4105 94.0143 68.405 93.623 69.4808C93.5438 69.6594 93.4778 69.8491 93.425 70.0527C93.195 70.1716 92.9719 70.305 92.7578 70.4572C92.6654 70.444 92.5744 70.4315 92.4938 70.4252C91.2512 70.3224 90.1469 71.2084 89.878 72.4385C89.3505 74.8479 91.6466 76.8042 93.8392 78.0731C93.8079 78.1371 93.7885 78.2093 93.7885 78.2948C93.7871 79.0329 93.7933 79.7709 93.7954 80.509L93.8183 80.6118C93.7836 81.7418 93.7495 82.8711 93.712 84.001C93.4403 92.2584 93.0622 100.524 92.1526 108.721C92.1331 108.626 92.1233 108.524 92.1011 108.431C91.4374 105.699 90.5021 103.216 88.7411 101.075C86.7528 98.6554 84.8284 96.4073 82.5949 94.2342C78.5162 90.2653 72.0254 89.0207 66.6965 88.512C61.2405 87.9915 54.8185 88.193 49.9434 91.1368C45.174 94.0167 41.7381 98.3511 40.2426 103.973C39.4295 107.032 39.2141 110.487 39.2349 113.658C39.2544 116.757 40.0549 119.559 40.966 122.473C42.7159 128.068 44.5673 133.673 47.2685 138.843C50.0101 144.088 53.8852 148.749 58.0694 152.754C60.5066 155.086 63.4421 157.112 66.3212 158.762C67.7723 159.595 69.2005 160.434 70.6237 161.322C72.0796 162.229 73.6384 162.806 75.1304 163.618C77.9797 165.169 81.0104 167.578 82.6679 170.524C83.7562 172.46 84.267 174.3 84.2697 176.552C84.2711 177.851 83.8854 179.067 83.9521 180.346C83.9639 180.582 84.0661 180.742 84.2016 180.839C84.2489 181.145 84.3886 181.423 84.7409 181.694C85.2864 182.104 86.3219 182.167 86.9439 181.986C87.0314 181.965 87.1155 181.924 87.1982 181.889C87.1649 182.264 87.1322 182.639 87.0961 183.022C86.8438 185.697 86.5464 188.366 86.3268 191.041C86.1252 193.495 85.9362 195.823 85.9619 198.144V198.158C85.9883 200.479 86.2316 202.786 86.8945 205.184C87.8418 208.603 88.6277 211.292 90.6229 213.579C90.8551 213.85 91.0976 214.107 91.3645 214.364L91.3853 214.385C91.9809 214.955 92.6682 215.497 93.4723 216.025C94.8163 216.9 96.193 217.581 97.6162 218.193C98.0332 218.374 98.4543 218.547 98.8789 218.721C99.1319 219.701 98.8345 220.75 99.2271 221.744C99.5447 222.543 100.097 223.127 100.822 223.579C102.578 224.684 105.136 225.268 107.134 225.664C113.35 226.908 119.516 227.373 125.811 227.978C128.818 228.263 131.845 228.173 134.857 228.45C138.109 228.749 141.118 228.27 144.35 228.11C145.801 228.04 147.181 228.263 148.62 228.374C150.14 228.485 151.662 228.173 153.181 228.103C156.31 227.964 159.433 227.971 162.533 227.471C164.206 227.207 165.889 226.706 167.577 226.644C169.106 226.581 170.636 226.449 172.088 225.907C172.799 225.636 173.409 225.177 174.104 224.878C174.605 224.663 175.121 224.587 175.576 224.26C176.558 223.558 176.831 222.015 177.893 221.459L177.968 221.411C179.172 220.931 180.353 220.438 181.506 219.784C184.009 218.353 186.065 215.789 186.709 212.995C187.074 212.126 187.309 211.237 187.521 210.271C187.852 208.749 188.383 207.296 188.619 205.753C188.878 204.065 189.136 202.383 189.437 200.701C189.94 197.9 190.073 195.1 189.817 192.285C189.881 191.778 189.926 191.264 189.956 190.749C189.993 190.11 190.008 189.464 190.007 188.811C190.005 188.004 189.978 187.191 189.942 186.378Z" fill="#2D635E"/>
<path d="M99.7817 92.7963C99.0624 96.8277 98.4071 100.899 98.0089 104.976C97.6155 109.011 97.5717 113.07 96.6655 117.038C96.4549 117.96 97.89 118.293 98.0964 117.369C98.947 113.556 99.0131 109.673 99.3411 105.797C99.7004 101.546 100.377 97.2996 101.046 93.0882C101.176 92.2709 99.9297 91.9694 99.7817 92.7963Z" fill="#2D635E"/>
<path d="M103.059 121.14C103.179 118.807 103.662 116.491 103.411 114.151C103.347 113.553 102.458 113.578 102.47 114.19C102.518 116.557 102.107 118.842 101.906 121.189C101.816 122.25 101.77 123.327 101.812 124.392C101.859 125.558 102.273 126.694 102.245 127.847C102.224 128.737 103.647 128.69 103.637 127.788C103.624 126.716 103.23 125.758 103.102 124.697C102.962 123.537 102.999 122.306 103.059 121.14Z" fill="#442916"/>
<path d="M175.848 210.556C178.017 210.278 179.302 206.935 179.74 205.121C180.167 203.356 180.362 201.598 180.469 199.791C180.587 197.789 181.052 195.843 181.115 193.835C181.145 192.883 179.656 192.946 179.635 193.898C179.604 195.322 179.332 196.671 179.166 198.081C178.984 199.617 179.072 201.16 178.834 202.696C178.627 204.03 178.424 205.441 177.865 206.678C177.446 207.602 176.742 209.346 175.674 209.548C175.109 209.659 175.272 210.625 175.848 210.556Z" fill="#2D635E"/>
<path d="M171.234 212.55C171.323 210.695 171.965 209.047 172.278 207.248C172.524 205.823 172.496 204.37 172.49 202.932C172.487 202.022 171.064 202.084 171.075 202.994C171.098 204.836 171.13 206.525 170.797 208.346C170.537 209.763 170.292 211.132 170.31 212.585C170.318 213.189 171.205 213.134 171.234 212.55Z" fill="#2D635E"/>
<path d="M183.794 122.328C183.975 122.072 184.156 121.815 184.337 121.558C186.214 117.186 188.306 112.923 190.638 108.818C191.291 107.669 191.968 106.536 192.655 105.41C193.656 103.347 194.708 101.312 195.908 99.3602C197.738 96.383 199.718 93.5136 201.832 90.7671C202.465 89.9436 204.866 87.4119 206.655 84.9504C206.976 84.2589 207.247 83.539 207.346 82.8572C207.423 82.5097 207.5 82.1623 207.576 81.8148C207.543 81.2943 207.413 80.9482 207.198 80.7564C207.019 80.7717 206.873 80.7077 206.764 80.5882C206.525 80.5792 206.238 80.6563 205.893 80.8377C203.722 80.4193 200.541 81.3992 198.325 81.6313C197.191 81.7502 196.059 81.869 194.925 81.9878C192.71 82.4173 190.483 82.7787 188.248 83.0872C186.771 83.803 185.204 84.0539 183.643 84.4007C183.497 97.055 181.256 109.865 183.794 122.328ZM183.95 125.993C182.391 129.965 176.77 69.7935 182.017 77.8293L182.122 77.8904C183.141 78.6333 184.003 79.543 184.732 80.609C186.762 80.1879 188.794 79.7661 190.825 79.3449C190.944 79.3206 191.049 79.3331 191.146 79.3637C193.792 78.7313 196.461 78.2469 199.164 78.0058C201.305 77.8147 204.492 77.1725 206.636 77.832C207.194 77.8049 207.765 77.8077 208.264 78.0211C208.52 78.1309 208.73 78.3025 208.894 78.5061L208.974 78.5562L209.979 79.3415C210.237 79.5437 210.348 79.8182 210.285 80.1594C209.875 82.3902 208.871 84.1526 207.615 85.8295C205.889 89.7511 202.94 93.0514 200.37 96.4581C197.995 99.6069 195.777 102.894 193.709 106.29C191.954 109.755 190.33 113.295 188.627 116.856C187.778 118.63 186.75 120.215 185.695 121.783C185.244 122.827 184.802 123.876 184.377 124.932C184.465 125.414 184.261 125.786 183.95 125.993Z" fill="#2D635E"/>
<path fill-rule="evenodd" clip-rule="evenodd" d="M185.85 145.104C154.599 150.461 125.194 150.896 90.4513 145.104L89.5395 167.573C90.404 167.802 92.0191 169.255 92.8947 169.484C93.9726 169.762 109.738 172.486 117.033 173.091C130.777 174.238 144.725 172.855 158.695 171.166C169.201 169.894 176.004 167.073 186.68 166.336L185.85 145.104Z" fill="#B6C6BE"/>
</svg>
