<svg width="250" height="250" viewBox="0 0 250 250" fill="none" xmlns="http://www.w3.org/2000/svg">
<path fill-rule="evenodd" clip-rule="evenodd" d="M161.062 152C123.518 152 99 116.406 99 79.16C99 45.5432 127.176 19 161.062 19C191.25 19 209 49.2119 209 79.16C209 113.132 195.306 152 161.062 152Z" fill="#FFFDFA"/>
<path fill-rule="evenodd" clip-rule="evenodd" d="M128.958 225.033C113.063 225.828 96.3009 235.743 82.2842 228.16C68.2412 220.563 65.9111 201.695 59.0517 187.214C52.0643 172.464 37.6823 158.308 41.6943 142.474C45.7457 126.486 64.6391 120.025 78.365 110.993C88.7514 104.159 100.714 101.934 111.808 96.3378C126.062 89.1482 137.262 69.7948 152.786 73.4565C168.053 77.0575 170.444 98.4145 178.357 112.035C184.733 123.009 191.406 133.314 194.692 145.589C198.349 159.253 202.255 173.396 198.425 187.012C194.298 201.685 186.055 216.347 172.741 223.634C159.649 230.799 143.843 224.288 128.958 225.033Z" fill="#FBEDD0"/>
<g clip-path="url(#clip0_64_655)">
<path d="M123.471 74.8649C123.236 74.6151 122.995 74.3702 122.755 74.124C123.281 74.046 123.809 73.9752 124.335 73.9051C124.03 74.2099 123.742 74.5304 123.471 74.8649ZM148.182 95.5898C148.36 96.4021 148.526 97.2161 148.681 98.0338C148.514 97.2185 148.348 96.4045 148.182 95.5898ZM175.818 201.812C174.064 198.757 172.177 195.818 170.604 192.654C164.225 179.827 161.61 165.867 161.203 151.634C160.841 138.912 161.758 126.168 161.2 113.455C161.661 110.414 162.04 107.36 162.303 104.289C163.232 93.4483 162.835 81.3059 158.501 71.1593C156.251 65.8898 152.214 62.7534 146.485 62.1504C142.457 61.7264 138.304 61.8159 134.211 62.0784C129.594 61.6611 124.768 62.0838 120.655 62.5913C117.059 63.0346 113.257 63.8734 110.015 65.5686C108.445 65.9388 106.882 66.3385 105.326 66.7655C99.3987 67.585 93.4712 68.4045 87.5436 69.224C84.7053 69.6159 82.9327 73.4031 83.7419 75.9196C85.7825 82.2657 91.8201 83.7692 95.8117 88.411C99.2657 92.428 100.809 97.7816 101.78 102.885C104.454 116.931 103.326 132.073 101.613 146.167C99.7816 161.235 96.4661 176.101 93.1688 190.902C91.7397 197.316 90.12 204.909 95.3472 210.142C100.232 215.032 106.965 214.002 113.217 214.648C119.945 215.344 126.357 217.921 133.019 219.027C140.655 220.293 147.805 219.377 155.336 217.868C158.91 217.152 162.481 216.422 166.051 215.691C169.7 214.943 174.352 214.653 176.517 211.127C178.414 208.04 177.483 204.713 175.818 201.812Z" fill="#B6C6BE"/>
<path d="M154.553 98.7626C152.355 92.22 150.656 85.4735 149.76 78.6231C149.379 75.7086 147.531 73.1799 144.317 73.1799C143.022 73.1799 141.635 73.7666 140.58 74.6998C137.262 70.6005 133.173 67.1278 128.037 65.5511C122.774 63.9357 116.504 64.7824 112.826 69.1653C108.985 73.74 109.676 80.5027 113.726 84.6776C118.614 89.7149 126.307 82.0123 121.424 76.9798C121.18 76.7282 121.194 76.3097 121.194 76.1071C121.288 76.0158 121.401 75.91 121.475 75.884C122.159 75.6372 122.745 75.6027 123.467 75.6638C126.221 75.896 128.626 77.7515 130.496 79.6421C135.535 84.7399 138.337 91.7531 142.737 97.4078C143.15 98.8291 143.582 100.246 144.056 101.656C146.275 108.263 156.793 105.43 154.553 98.7626Z" fill="#B6C6BE"/>
<path d="M184.893 203.915C180.198 191.101 171.034 180.121 167.988 166.696C166.334 159.403 166.452 151.805 166.301 144.369C166.142 136.613 166.029 128.855 166.21 121.099C166.397 113.087 166.85 105.044 167.99 97.106C169.068 89.5982 171.495 81.9325 171 74.2885C170.159 61.2789 161.182 53.0192 150.036 49.5302C147.725 47.9221 144.886 47.1866 142.124 47.8882C140.388 47.6971 138.636 47.6021 136.884 47.6173C134.956 47.6336 133.558 48.4138 132.691 49.5508C126.873 50.366 121.244 52.4193 115.859 54.8415C106.087 57.759 97.0346 62.6269 89.0351 69.3353C84.1998 73.3904 90.3928 80.8614 95.6309 77.8846C98.6058 76.1936 101.583 74.5056 104.576 72.8467C105.816 73.1479 107.137 73.0148 108.313 72.2371C110.007 71.1158 111.736 70.0864 113.498 69.1424C113.723 72.3042 116.276 75.2296 120.099 73.8845C126.64 71.5827 133.182 69.2815 139.723 66.9796C141.374 68.8266 143.695 69.9709 146.143 70.811C148.748 71.7061 150.902 72.1826 152.76 74.3786C154.607 76.5619 155.844 79.3633 156.943 81.9814C157.438 83.1608 158.235 84.1091 159.177 84.7828C158.854 86.4194 158.512 88.0408 158.231 89.629C157.104 96.0065 156.346 102.458 155.884 108.918C154.996 121.295 155.188 133.716 155.451 146.112C155.708 158.246 156.499 169.75 161.461 180.981C163.877 186.449 166.924 191.602 169.732 196.87C171.098 199.433 172.446 202.025 173.573 204.703C174.034 205.797 174.442 206.915 174.823 208.04C173.317 207.731 171.825 207.36 170.354 206.915C167.383 206.016 164.592 204.804 161.862 203.33C155.697 200.001 150.194 209.397 156.368 212.73C162.773 216.189 170.644 219.346 178.048 219.448C181.553 219.497 184.859 217.77 186.061 214.337C187.291 210.827 186.121 207.267 184.893 203.915Z" fill="#B6C6BE"/>
<path d="M163.219 71.5119C163.038 76.626 162.64 81.7141 162.009 86.7853C161.911 87.5788 163.027 87.9217 163.126 87.1209C163.363 85.2171 163.559 83.3114 163.735 81.4033C163.649 81.0101 163.689 80.5856 163.844 80.2161C164.091 77.3221 164.275 74.4222 164.377 71.5119C164.406 70.7003 163.247 70.7021 163.219 71.5119Z" fill="#2D635E"/>
<path d="M159.128 87.2667C159.01 90.102 158.892 92.9366 158.774 95.7719C158.74 96.5829 159.899 96.5811 159.933 95.7719C160.051 92.9366 160.169 90.102 160.287 87.2667C160.321 86.4557 159.162 86.4575 159.128 87.2667Z" fill="#2D635E"/>
<path d="M93.8225 177.579C92.2531 186.166 91.1033 194.82 90.3709 203.537C90.3026 204.345 91.462 204.34 91.5297 203.537C92.2531 194.932 93.3907 186.389 94.9395 177.915C95.0847 177.123 93.9676 176.784 93.8225 177.579Z" fill="#2D635E"/>
<path d="M93.3563 201.024C93.2323 203.227 93.1077 205.431 92.9837 207.635C92.9384 208.446 94.0971 208.443 94.1425 207.635C94.2665 205.431 94.3911 203.227 94.515 201.024C94.5604 200.213 93.4016 200.216 93.3563 201.024Z" fill="#2D635E"/>
<path d="M187.441 91.2868C187.384 90.7449 187.329 90.203 187.269 89.6617C187.128 88.3892 186.969 87.1204 186.806 85.8527C186.687 84.4157 186.568 82.9781 186.452 81.5412L186.483 81.517C186.785 84.6468 187.049 87.782 187.446 90.8955C187.465 91.0327 187.482 91.1725 187.499 91.3103L187.441 91.2868ZM167.276 84.2627C167.225 84.5591 167.087 84.8016 166.905 84.9975C166.761 86.3245 166.625 87.652 166.478 88.9789C166.122 91.311 165.765 93.643 165.435 95.9793C164.814 100.365 164.456 104.792 164.121 109.221C163.343 115.595 162.535 121.965 161.69 128.329C161.577 128.26 161.439 128.228 161.277 128.274C160.637 128.459 159.996 128.634 159.354 128.809C157.833 128.805 156.321 129.08 154.846 129.657C154.66 129.73 154.55 129.871 154.494 130.032C152.108 130.586 149.711 131.073 147.305 131.495C148.848 110.017 151.041 88.6015 153.887 67.2814C157.688 66.4462 161.812 65.7567 165.517 64.2532C166.776 63.9599 168.001 63.5547 169.174 62.9481C169.132 63.3817 169.087 63.8148 169.045 64.2484C168.841 64.4208 168.82 64.7788 168.968 65.0165C168.462 70.1953 167.931 75.3711 167.383 80.5445C167.449 80.6805 167.495 80.8293 167.531 80.9811C167.56 81.1045 167.578 81.2303 167.586 81.3579L167.592 81.4571C167.596 81.6047 167.59 81.7534 167.565 81.8986V81.8998L167.55 81.9966C167.539 82.0607 167.528 82.1254 167.519 82.1901L167.513 82.2518L167.498 82.4042L167.497 82.4078C167.486 82.5379 167.473 82.6679 167.461 82.7973C167.414 83.2878 167.358 83.7783 167.276 84.2627ZM163.638 136.036L164.255 138.824C162.916 138.664 161.241 139.505 160.195 140.011C157.55 141.289 154.93 142.856 152.511 144.581C149.441 146.771 146.208 149.836 144.929 153.694C141.703 148.26 135.739 145.368 129.701 145.928C125.759 146.294 121.998 147.939 118.728 150.324C116.638 151.849 114.487 153.614 113.378 156.009C111.999 152.611 109.882 149.624 106.882 147.679C104.426 146.087 100.684 144.813 97.698 145.704C98.272 143.207 98.8447 140.711 99.4186 138.215C119.72 145.273 143.378 142.897 163.409 136.156C163.496 136.127 163.57 136.084 163.638 136.036ZM172.114 174.353C172.461 175.922 172.814 177.491 173.166 179.061C173.377 180.684 173.599 182.307 173.853 183.925C175.224 192.644 176.941 201.297 178.992 209.857C179.057 210.64 179.106 211.413 179.134 212.164C171.06 213.851 162.96 215.552 154.75 216.228C152.51 216.412 150.269 216.488 148.029 216.503C147.737 196.544 147.265 176.6 146.28 156.665L146.278 156.63C146.262 156.296 146.248 155.963 146.231 155.63C146.935 151.573 150.378 148.361 153.388 146.214C154.761 145.235 156.196 144.365 157.644 143.526C158.523 143.017 162.638 140.236 163.949 140.561C164.114 140.83 164.422 141.011 164.74 141.018L172.114 174.353ZM179.103 215.282C178.923 215.326 178.738 215.409 178.552 215.549C175.723 217.679 172.111 218.448 168.732 219.315C165.601 220.118 162.433 220.783 159.245 221.315C154.557 221.349 149.878 221.559 145.207 221.948C142.59 221.705 139.917 221.419 137.361 221.536C136.978 221.554 136.597 221.596 136.233 221.673C132.885 221.337 129.612 221.689 126.224 221.912C122.037 222.188 117.89 221.938 113.762 221.182C113.312 221.1 112.922 221.195 112.609 221.393C102.988 220.223 93.453 218.488 84.0267 216.187C83.7213 216.112 83.4474 216.13 83.203 216.202C83.2992 214.597 83.5562 212.976 83.777 211.39C90.3075 214.737 97.1803 215.964 104.405 216.405C112.762 216.916 121.13 217.255 129.492 217.674C137.901 218.096 146.338 218.811 154.75 218.119C162.965 217.442 171.075 215.767 179.155 214.079C179.148 214.494 179.128 214.893 179.103 215.282ZM153.067 228.866C146.035 229.598 138.94 229.3 131.892 229.004C124.979 228.713 118.03 228.933 111.129 228.546C105.592 228.235 98.3494 227.224 93.0436 224.338C96.783 225.095 100.567 225.613 104.349 225.976C110.928 226.607 117.538 226.733 124.138 226.736C126.25 226.737 128.366 226.684 130.479 226.722C131.361 226.766 132.244 226.807 133.125 226.84C133.49 226.869 133.851 226.916 134.212 226.961C137.673 226.955 141.136 227.01 144.596 226.973C144.39 226.948 144.183 226.927 143.977 226.9C148.355 226.768 152.72 226.43 157.062 225.794C157.659 225.706 158.269 225.607 158.877 225.509C159.807 225.301 160.744 225.126 161.675 225.022C163.101 224.647 164.532 224.242 166 223.84C167.595 223.403 169.184 223.065 170.762 222.996C171.192 222.814 171.623 222.633 172.055 222.453C167.434 227.091 159.162 228.232 153.067 228.866ZM114.834 157.007C115.992 154.27 119.022 152.233 121.226 150.863C124.098 149.076 127.315 147.89 130.64 147.756C136.32 147.527 142.041 150.749 144.384 156.505C144.375 156.674 144.356 156.842 144.354 157.014C144.35 157.3 144.445 157.518 144.589 157.67C145.541 177.27 146.003 196.879 146.291 216.503C141.063 216.461 135.834 216.102 130.61 215.84C124.779 215.548 118.947 215.255 113.115 214.962C114.967 195.709 115.541 176.35 114.834 157.007ZM84.9097 207.607C86.08 203.256 86.605 198.728 87.3029 194.269C87.9676 190.022 88.7 185.791 89.465 181.566C90.0517 178.989 90.6456 176.415 91.2364 173.841C93.2171 165.217 95.1978 156.593 97.1785 147.968C100.046 146.308 104.348 148.016 106.781 149.855C109.678 152.043 111.516 155.401 112.563 158.998C112.588 159.084 112.622 159.158 112.661 159.225C112.733 159.511 112.936 159.681 113.174 159.757C113.73 178.156 113.142 196.563 111.385 214.875C109.964 214.803 108.543 214.734 107.121 214.662C99.1453 214.253 91.5122 213.338 84.2802 209.554C84.5251 208.868 84.7476 208.209 84.9097 207.607ZM97.5468 118.127C97.0448 115.853 96.4782 113.596 95.8407 111.363C95.4047 108.607 95.2353 105.779 94.2737 103.162C93.8715 102.066 93.3218 101.075 92.7121 100.126C95.4119 88.8997 93.4512 77.3669 93.2425 65.9345C93.4718 66.0694 93.7016 66.2025 93.9374 66.3234L94.0765 66.3869C94.8803 66.9137 95.7784 67.2996 96.7455 67.5995L96.8386 67.6267L96.8489 67.6334C97.0055 67.7731 97.1803 67.8052 97.3412 67.7713C99.3285 68.3477 101.384 68.7486 103.436 69.1133C103.51 69.331 103.584 69.5488 103.658 69.7665C103.736 69.7635 103.815 69.7641 103.898 69.7732C104.026 69.752 104.16 69.7417 104.311 69.7556C104.725 69.7949 105.138 69.85 105.551 69.9056C105.5 69.7562 105.45 69.6062 105.399 69.4568L105.499 69.4744C109.98 90.2459 108.418 111.817 111.452 132.817C107.956 132.467 104.468 131.982 100.994 131.353C101.01 131.284 101.026 131.214 101.042 131.146C101.065 131.044 101.07 130.95 101.066 130.858C100.922 130.759 100.785 130.647 100.662 130.518C100.514 130.363 100.411 130.184 100.336 129.996L100.254 129.977C100.251 129.855 100.236 129.737 100.23 129.616C100.215 129.52 100.211 129.424 100.21 129.326C100.206 129.257 100.201 129.188 100.196 129.119C100.189 129.052 100.182 128.984 100.182 128.916C99.8789 125.177 98.6651 121.676 97.5468 118.127ZM91.3634 98.1596C91.2056 97.9364 91.0478 97.7133 90.8905 97.4889C89.257 93.6841 87.4365 89.9744 85.4069 86.4025C84.839 85.4021 84.2499 84.4157 83.6518 83.436C82.7803 81.641 81.8652 79.8701 80.8208 78.1713C79.2277 75.5804 77.5047 73.0832 75.6655 70.693C75.1139 69.9764 73.0244 67.7731 71.4677 65.6309C71.1888 65.0292 70.9524 64.4026 70.8665 63.8093C70.7994 63.5069 70.7328 63.2045 70.6663 62.9021C70.6947 62.4491 70.8078 62.148 70.9953 61.981C71.1508 61.9943 71.2784 61.9387 71.3727 61.8347C71.5814 61.8268 71.8311 61.8939 72.1311 62.0518C74.0205 61.6877 76.7886 62.5405 78.7173 62.7425C79.7037 62.8459 80.6895 62.9493 81.6759 63.0527C83.604 63.4265 85.5417 63.741 87.4867 64.0095C88.7725 64.6324 90.1363 64.8508 91.4941 65.1526C91.6217 76.1652 93.5721 87.3133 91.3634 98.1596ZM107.356 69.8046L107.387 69.81C114.446 71.1146 121.603 72.0955 128.773 71.8984C130.334 92.3457 130.711 112.87 129.892 133.369C125.091 133.566 120.282 133.504 115.482 133.173L115.464 133.051C115.326 133.098 115.183 133.132 115.029 133.132H114.16C113.957 133.132 113.779 133.087 113.614 133.024C113.484 133.013 113.354 132.998 113.223 132.986C110.098 112.051 111.667 90.5513 107.356 69.8046ZM162.512 131.615C162.611 131.844 162.712 132.072 162.812 132.301L163.252 134.292C163.156 134.287 163.056 134.296 162.946 134.333C143.178 140.986 119.874 143.35 99.8402 136.377C99.9569 135.868 100.074 135.359 100.191 134.85C110.496 137.178 121.02 138.317 131.549 138.012C141.774 137.717 151.948 134.46 161.918 132.188C162.255 132.111 162.443 131.884 162.512 131.615ZM161.456 130.364C151.649 132.6 141.6 135.831 131.549 136.122C121.158 136.422 110.781 135.317 100.612 133.018C100.646 132.87 100.68 132.722 100.714 132.574C104.408 133.244 108.119 133.742 111.837 134.097C112.056 134.273 112.358 134.286 112.629 134.171C113.065 134.209 113.501 134.257 113.936 134.292C114.183 134.832 114.858 134.797 115.251 134.397C120.219 134.747 125.195 134.816 130.162 134.607C130.489 134.881 131.016 134.861 131.338 134.546C133.88 134.417 136.42 134.222 138.953 133.947C139.288 134.136 139.697 134.123 139.934 133.833C146.516 133.071 153.056 131.814 159.511 130.064C160.328 130.077 161.149 130.187 161.973 130.385L161.986 130.414C161.834 130.344 161.656 130.319 161.456 130.364ZM145.556 131.778C143.782 132.065 142.007 132.327 140.226 132.541C140.235 132.476 140.243 132.412 140.252 132.347C140.111 132.389 139.971 132.431 139.83 132.471C139.606 132.556 139.373 132.628 139.127 132.69C139.058 132.712 138.989 132.729 138.921 132.754L138.919 132.741C138.782 132.77 138.641 132.795 138.492 132.817C138.296 132.844 138.121 132.833 137.962 132.795C135.856 133.01 133.745 133.17 131.633 133.284C132.448 112.792 132.069 92.2762 130.507 71.8373C130.584 71.8331 130.66 71.8337 130.736 71.8288C135.571 71.5446 140.323 70.5727 145.045 69.4417C145.036 69.5609 145.026 69.68 145.017 69.7992C145.607 69.648 146.192 69.5324 146.781 69.4605C146.792 69.3105 146.805 69.1611 146.815 69.0117C148.577 68.5775 150.334 68.1299 152.091 67.6969C149.274 88.942 147.087 110.278 145.554 131.679L145.556 131.778ZM93.9858 60.7745C94.0173 60.7073 94.0318 60.6372 94.0312 60.5646C94.0838 60.3342 94.1437 60.1134 94.2023 59.8921C97.2287 55.6846 102.709 52.7628 106.728 50.6739C112.209 47.8259 118.141 46.1373 124.193 46.5861C124.277 46.851 124.36 47.1159 124.444 47.3808C124.498 48.0019 124.605 48.6067 124.811 49.1812C124.667 49.5326 124.811 50.034 125.253 50.0872C125.305 50.1695 125.348 50.2535 125.405 50.3334C126.435 51.7843 128.017 52.0014 129.599 51.8484C129.696 51.8659 129.786 51.8913 129.896 51.8949C130.284 51.9095 130.616 51.8163 130.909 51.6542C131.246 51.5907 131.575 51.5212 131.892 51.4534C134.559 50.8831 134.864 50.0388 135.174 47.5138C141.259 47.6923 147.339 48.4059 153.212 50.2148C157.474 51.5278 163.014 53.5182 166.745 57.0175C167.583 57.8455 168.307 58.7412 168.69 59.6586C168.793 59.9072 168.835 60.1219 168.85 60.3215C168.416 60.7049 167.969 61.0636 167.51 61.3968C151.472 64.8901 135.279 68.26 118.865 68.1747C117.199 68.1662 115.538 68.1299 113.883 68.0531C112.775 67.9304 111.669 67.7967 110.567 67.6394C107.604 67.2185 104.663 66.679 101.756 66.0198C100.388 65.709 99.0274 65.3727 97.6756 65.0104C97.1235 64.8616 96.5701 64.708 96.0197 64.549C95.5933 64.3748 95.1676 64.1958 94.7442 64.0053C94.6299 63.9539 94.5132 63.9091 94.3977 63.8607C93.7124 62.9771 93.7626 61.8522 93.9858 60.7745ZM125.222 31.473C125.31 31.4427 125.412 31.4101 125.509 31.3792C125.454 31.5238 125.403 31.6732 125.359 31.8286C125.253 31.7518 125.135 31.6992 125.007 31.6641C125.077 31.5982 125.149 31.5341 125.222 31.473ZM173.4 65.4132C173.367 65.464 173.338 65.5184 173.316 65.5771H173.124C173.008 65.516 172.885 65.4586 172.762 65.4023C172.973 65.406 173.186 65.4102 173.4 65.4132ZM176.524 76.9393L176.638 76.9339L176.6 76.9913L176.524 76.9393ZM179.483 65.9866C179.31 65.9182 179.134 65.8517 178.956 65.787C179.189 65.8263 179.421 65.8668 179.651 65.9164C179.593 65.9333 179.535 65.9521 179.483 65.9866ZM182.337 66.8121L182.314 66.774L182.369 66.8012L182.337 66.8121ZM184.228 74.2329L184.269 74.2456L184.262 74.3163L184.228 74.2329ZM194.926 131.888C194.505 128.574 193.985 125.231 193.373 121.962C192.748 118.631 192.538 115.303 192.11 111.937C191.657 108.373 191.049 104.882 190.795 101.28C190.591 98.3906 190.454 95.5269 189.996 92.682C189.874 90.2381 189.511 87.8044 189.181 85.387C188.952 83.7136 188.762 81.9966 188.466 80.337C188.29 77.7437 188.117 75.1171 187.744 72.5745C187.406 70.2739 186.74 68.2231 185.162 66.8381C183.293 65.1991 180.788 64.7564 178.574 64.4298C175.871 64.0313 173.09 63.9478 170.359 64.0839C170.374 63.4755 170.397 62.8689 170.4 62.2598L170.404 62.2217C171.474 61.4803 171.572 60.9281 171.1 60.356C171.039 60.229 170.938 60.1249 170.811 60.059C170.697 59.9568 170.565 59.8522 170.422 59.7451C169.136 57.3834 167.15 55.5285 164.887 54.0286C163.972 53.318 163.005 52.6606 161.996 52.0607C156.521 48.8093 150.014 47.3765 143.596 46.4911C140.878 46.1156 138.134 45.7974 135.382 45.5616C135.592 43.5488 135.751 41.5331 135.843 39.5125C136.974 35.6769 137.748 31.2172 134.506 29.733C133.292 29.1778 131.371 28.9583 129.37 29.0949C129.197 29.0085 129.005 29.0308 128.843 29.1361C128.447 29.176 128.049 29.231 127.655 29.3C127.523 29.2195 127.367 29.1766 127.221 29.1996C126.45 29.3187 125.743 29.5885 125.112 29.984C123.689 30.5301 122.505 31.3206 121.879 32.3771C120.792 34.2127 121.481 36.5496 121.943 38.4674C122.49 40.7408 123.113 42.9912 123.781 45.2259C123.489 45.2374 123.197 45.2404 122.906 45.2549C122.81 45.2598 122.713 45.267 122.617 45.2725C119.729 45.2374 116.885 45.6517 114.103 46.4155C105.457 48.3025 97.4755 52.4405 92.9093 59.4337L92.818 59.4869C91.9313 60.1334 91.1808 60.9251 90.547 61.8528C88.7798 61.4863 87.012 61.1192 85.2442 60.7527C85.1408 60.7315 85.0494 60.7424 84.9648 60.769C82.6617 60.2187 80.3393 59.7971 77.9873 59.5873C76.1239 59.421 73.3504 58.8621 71.4846 59.4361C70.9989 59.4125 70.5018 59.4149 70.0676 59.6006C69.845 59.6961 69.6624 59.8455 69.519 60.0227L69.4495 60.0663L68.5749 60.7497C68.3506 60.9257 68.2544 61.1646 68.3088 61.4615C68.6657 63.4029 69.539 64.9366 70.6324 66.396C72.1341 69.8088 74.7009 72.681 76.9374 75.6457C79.0046 78.386 80.9351 81.2466 82.7343 84.2022C84.2614 87.2171 85.6748 90.2985 87.1571 93.3969C87.8962 94.9409 88.7907 96.3204 89.7087 97.6854C90.1012 98.5938 90.4859 99.5065 90.856 100.426C90.7792 100.845 90.9564 101.169 91.2274 101.349C92.5839 104.806 93.7687 108.341 94.7866 111.932C95.1295 113.748 95.6302 115.527 96.174 117.296C96.7564 119.809 97.2559 122.346 97.6678 124.899C97.9907 126.9 97.7198 130.136 98.6469 132.093C98.3349 133.482 98.024 134.873 97.7132 136.263C97.5934 136.46 97.5378 136.71 97.5583 136.953C95.496 146.164 93.4572 155.385 91.5582 164.638C90.983 167.144 90.4073 169.651 89.8315 172.157C87.0186 184.407 84.1011 196.67 82.343 209.163C82.0061 209.48 81.8719 210.046 82.167 210.437C82.0751 211.121 81.9844 211.806 81.8997 212.492C81.8822 212.637 81.8622 212.784 81.841 212.934C81.1147 215.081 80.6623 217.29 81.4842 219.441C82.4083 221.862 84.36 222.445 86.4525 222.725C86.582 222.762 86.7132 222.8 86.8396 222.836C87.7547 223.098 88.6751 223.337 89.5987 223.564C94.6438 227.567 102.036 228.814 108.247 229.561C116.385 230.54 124.848 229.975 133.046 230.312C140.896 230.636 148.809 230.875 156.602 229.676C162.819 228.719 170.245 227.152 174.246 221.84C174.312 221.752 174.348 221.664 174.361 221.579C175.489 221.184 176.623 220.804 177.719 220.335C179.021 219.777 179.982 218.71 181.061 217.8C181.109 217.738 181.164 217.682 181.214 217.62C181.201 217.5 181.185 217.381 181.171 217.26C181.446 216.944 181.573 216.516 181.521 215.624C181.36 212.861 180.836 210.062 180.497 207.316C180.473 207.123 180.386 206.978 180.269 206.879C179.714 202.045 178.849 197.269 177.873 192.517C177.903 192.417 177.918 192.309 177.893 192.183C176.323 184.147 174.944 176.004 173.013 168.041L173.003 167.954L172.953 167.793C172.225 164.807 171.419 161.846 170.492 158.927C170.186 157.965 169.897 156.998 169.616 156.03C168.835 152.631 168.048 149.194 167.569 145.731L166.752 142.035C166.936 142.543 167.115 143.053 167.291 143.564C167.215 142.983 167.124 142.416 167.02 141.858C166.993 141.767 166.968 141.675 166.941 141.584C166.346 139.9 165.771 138.208 165.316 136.466C165.198 136.133 165.084 135.799 164.975 135.465C164.462 132.67 163.97 129.87 163.474 127.072C164.428 121.05 164.859 114.946 165.328 108.846C166.123 102.316 166.885 95.7816 167.609 89.242C167.941 87.0792 168.272 84.9171 168.586 82.752L168.706 82.7368C170.579 83.1336 172.554 83.0126 174.425 83.061C174.678 83.0677 174.929 83.0785 175.18 83.0858C176.292 84.6135 176.861 87.8183 177.22 88.9922C177.898 91.216 178.565 93.444 179.19 95.686C180.494 100.354 181.601 105.073 182.411 109.873C183.791 118.05 184.573 126.334 186.358 134.416C186.44 135.195 186.527 135.973 186.628 136.749C186.826 138.272 186.823 139.972 188.162 140.791C189.615 141.68 192.278 141.405 193.855 141.385C194.102 141.381 194.34 141.253 194.505 141.056L194.616 141.037L194.618 141.048C194.761 141.028 194.9 140.997 195.04 140.968C195.136 140.952 195.233 140.94 195.328 140.922L195.33 140.915L195.332 140.908C195.382 140.665 195.442 140.43 195.505 140.196C195.553 140.018 195.603 139.842 195.657 139.668C195.276 137.097 195.253 134.47 194.926 131.888Z" fill="#2D635E"/>
</g>
<defs>
<clipPath id="clip0_64_655">
<rect width="127.828" height="202" fill="white" transform="translate(68 29)"/>
</clipPath>
</defs>
</svg>
