<svg width="100" height="100" viewBox="0 0 100 100" fill="none" xmlns="http://www.w3.org/2000/svg">
<g clip-path="url(#clip0_64_615)">
<path d="M46.7147 25.4349C46.6101 25.3236 46.5029 25.2145 46.3956 25.1048C46.6303 25.0701 46.8653 25.0385 47.1 25.0073C46.9639 25.1431 46.8354 25.2859 46.7147 25.4349ZM57.7246 34.6688C57.8041 35.0307 57.8782 35.3934 57.9469 35.7577C57.8728 35.3945 57.7987 35.0318 57.7246 34.6688ZM70.0376 81.9953C69.2564 80.6343 68.4157 79.3247 67.7148 77.9154C64.8726 72.2001 63.7074 65.9804 63.5263 59.639C63.3647 53.9708 63.7734 48.2928 63.525 42.6287C63.7303 41.2736 63.899 39.9128 64.0162 38.5447C64.4301 33.7146 64.2531 28.3047 62.3224 23.7839C61.3197 21.4361 59.5213 20.0387 56.9687 19.77C55.1741 19.5811 53.3235 19.621 51.5 19.738C49.4429 19.552 47.2929 19.7404 45.4603 19.9665C43.8581 20.164 42.164 20.5377 40.7194 21.293C40.0199 21.4579 39.3239 21.636 38.6306 21.8263C35.9896 22.1914 33.3486 22.5565 30.7076 22.9216C29.443 23.0963 28.6532 24.7836 29.0138 25.9048C29.9229 28.7323 32.6129 29.4022 34.3914 31.4703C35.9303 33.2601 36.6179 35.6453 37.0507 37.919C38.2417 44.1773 37.7392 50.9238 36.9761 57.203C36.1601 63.9166 34.683 70.54 33.2138 77.1345C32.5771 79.9922 31.8555 83.3752 34.1844 85.7069C36.3606 87.8858 39.3605 87.4269 42.1462 87.7146C45.144 88.0248 48.0008 89.173 50.9689 89.6655C54.3709 90.2298 57.5567 89.8216 60.9123 89.149C62.5043 88.8299 64.0954 88.505 65.6861 88.1792C67.3117 87.8459 69.3844 87.7165 70.3494 86.1458C71.1944 84.7702 70.7794 83.2879 70.0376 81.9953Z" fill="#B6C6BE"/>
<path d="M60.5633 36.0823C59.5841 33.1673 58.8269 30.1615 58.4276 27.1093C58.2578 25.8107 57.4346 24.6841 56.0024 24.6841C55.4258 24.6841 54.8076 24.9455 54.3374 25.3613C52.8592 23.5349 51.0376 21.9876 48.7491 21.2851C46.4042 20.5654 43.6107 20.9427 41.9719 22.8954C40.2608 24.9337 40.5685 27.9468 42.3731 29.8069C44.5506 32.0512 47.9784 28.6193 45.8028 26.3772C45.6942 26.2651 45.7001 26.0786 45.7001 25.9883C45.7422 25.9476 45.7925 25.9005 45.8257 25.8889C46.1304 25.779 46.3913 25.7636 46.713 25.7908C47.9399 25.8943 49.0118 26.721 49.8447 27.5633C52.0899 29.8346 53.3383 32.9593 55.2989 35.4787C55.4826 36.112 55.6753 36.7433 55.8863 37.3717C56.8752 40.3153 61.5614 39.0529 60.5633 36.0823Z" fill="#B6C6BE"/>
<path d="M74.0811 82.9324C71.989 77.2231 67.9064 72.3313 66.5491 66.3495C65.8122 63.1003 65.865 59.7151 65.7973 56.4018C65.7267 52.9465 65.6763 49.4896 65.7569 46.034C65.8402 42.4645 66.0423 38.8809 66.55 35.3442C67.0304 31.9991 68.1115 28.5837 67.8911 25.178C67.5165 19.3816 63.5166 15.7016 58.5507 14.1471C57.5208 13.4306 56.256 13.1029 55.0256 13.4155C54.2523 13.3303 53.4714 13.288 52.691 13.2948C51.8317 13.302 51.2093 13.6496 50.8228 14.1562C48.2304 14.5195 45.7228 15.4343 43.3232 16.5135C38.9693 17.8134 34.9362 19.9822 31.3721 22.9711C29.2177 24.7778 31.977 28.1065 34.3108 26.7802C35.6363 26.0268 36.9629 25.2747 38.2964 24.5356C38.8488 24.6698 39.4373 24.6105 39.9611 24.264C40.7159 23.7644 41.4863 23.3058 42.2715 22.8852C42.3717 24.2939 43.5091 25.5973 45.2124 24.998C48.1269 23.9724 51.0414 22.9471 53.9559 21.9216C54.6915 22.7445 55.7257 23.2543 56.8162 23.6286C57.9768 24.0274 58.9366 24.2397 59.7644 25.2181C60.5873 26.1909 61.1384 27.439 61.6282 28.6055C61.8487 29.131 62.2038 29.5535 62.6236 29.8537C62.4797 30.5828 62.3269 31.3053 62.2019 32.0129C61.6996 34.8543 61.3623 37.729 61.1561 40.6068C60.7606 46.1216 60.846 51.6555 60.9632 57.1787C61.078 62.5846 61.4302 67.7103 63.6411 72.7144C64.7173 75.1506 66.0749 77.4464 67.326 79.7937C67.9347 80.9354 68.5353 82.0903 69.0376 83.2835C69.2427 83.771 69.4246 84.2689 69.5943 84.7701C68.9236 84.6327 68.2586 84.4672 67.6033 84.2689C66.2794 83.8685 65.0361 83.3285 63.8198 82.6718C61.0729 81.1887 58.6211 85.3748 61.3717 86.8601C64.2258 88.4008 67.7323 89.8077 71.0314 89.8532C72.5932 89.8751 74.0658 89.1055 74.6015 87.576C75.1493 86.0118 74.6284 84.4258 74.0811 82.9324Z" fill="#B6C6BE"/>
<path d="M64.4242 23.941C64.3439 26.2195 64.1666 28.4865 63.8853 30.7459C63.8413 31.0995 64.3387 31.2522 64.3829 30.8955C64.4886 30.0472 64.5759 29.1981 64.6543 28.348C64.616 28.1728 64.6338 27.9837 64.7028 27.819C64.813 26.5297 64.8947 25.2376 64.9405 23.941C64.9531 23.5793 64.4368 23.5801 64.4242 23.941Z" fill="#2D635E"/>
<path d="M62.6018 30.9604C62.549 32.2236 62.4964 33.4866 62.4439 34.7498C62.4288 35.1112 62.9451 35.1104 62.9602 34.7498C63.0127 33.4866 63.0652 32.2236 63.1178 30.9604C63.1329 30.5991 62.6166 30.5999 62.6018 30.9604Z" fill="#2D635E"/>
<path d="M33.5051 71.1988C32.8059 75.0244 32.2936 78.8803 31.9673 82.7641C31.9368 83.1241 32.4534 83.1217 32.4836 82.7641C32.8059 78.9302 33.3127 75.1241 34.0028 71.3481C34.0675 70.9954 33.5698 70.8442 33.5051 71.1988Z" fill="#2D635E"/>
<path d="M33.2974 81.6442C33.2421 82.6261 33.1866 83.608 33.1314 84.59C33.1112 84.951 33.6275 84.9497 33.6477 84.59C33.7029 83.608 33.7584 82.6261 33.8136 81.6442C33.8339 81.2831 33.3176 81.2845 33.2974 81.6442Z" fill="#2D635E"/>
<path d="M75.2163 32.7515C75.191 32.5101 75.1662 32.2686 75.1395 32.0275C75.077 31.4605 75.0062 30.8952 74.9334 30.3304C74.8803 29.6902 74.8275 29.0497 74.7758 28.4094L74.7895 28.3986C74.924 29.7931 75.0417 31.19 75.2188 32.5772C75.2268 32.6383 75.2344 32.7006 75.2419 32.762L75.2163 32.7515ZM66.2317 29.622C66.2091 29.754 66.1476 29.8621 66.0668 29.9494C66.0024 30.5406 65.942 31.1321 65.8765 31.7233C65.7176 32.7623 65.5589 33.8013 65.4117 34.8423C65.135 36.7964 64.9755 38.7689 64.8262 40.7421C64.4797 43.582 64.1196 46.4199 63.7429 49.2555C63.6925 49.2248 63.6314 49.2105 63.5592 49.231C63.2741 49.3134 62.9882 49.3913 62.7023 49.4692C62.0246 49.4675 61.3509 49.5901 60.6937 49.8472C60.611 49.8798 60.562 49.9426 60.5372 50.0143C59.4739 50.2611 58.4057 50.4783 57.3341 50.6661C58.0215 41.0965 58.9985 31.5551 60.2666 22.0561C61.9599 21.6839 63.7977 21.3768 65.4484 20.7069C66.0091 20.5762 66.5548 20.3957 67.0775 20.1254C67.0589 20.3186 67.0387 20.5115 67.0201 20.7047C66.9291 20.7815 66.9196 20.941 66.9859 21.0469C66.7604 23.3543 66.5238 25.6604 66.2794 27.9654C66.309 28.026 66.3295 28.0923 66.3454 28.1599C66.3583 28.2149 66.3664 28.2709 66.3702 28.3278L66.3726 28.372C66.3745 28.4377 66.3718 28.504 66.3608 28.5687V28.5692L66.3538 28.6123C66.3492 28.6409 66.3443 28.6697 66.3403 28.6986L66.3373 28.726L66.3308 28.7939L66.3306 28.7956C66.3255 28.8535 66.3198 28.9114 66.3142 28.9691C66.2934 29.1876 66.2683 29.4062 66.2317 29.622ZM64.6109 52.6895L64.8857 53.9314C64.2891 53.86 63.543 54.2351 63.0768 54.4604C61.8988 55.0298 60.7312 55.7279 59.6533 56.4967C58.2858 57.4721 56.8453 58.8378 56.2754 60.5567C54.8381 58.1356 52.1806 56.8473 49.4903 57.0968C47.7343 57.2598 46.0585 57.9925 44.6018 59.0552C43.6703 59.7348 42.7121 60.5211 42.2179 61.5882C41.6035 60.0743 40.6601 58.7435 39.3236 57.8766C38.2296 57.1674 36.5621 56.5996 35.2318 56.9968C35.4875 55.8845 35.7427 54.7721 35.9984 53.6601C45.0434 56.8047 55.5842 55.7463 64.5088 52.7428C64.5478 52.7296 64.5807 52.7108 64.6109 52.6895ZM68.3874 69.7612C68.542 70.4604 68.6991 71.1594 68.8562 71.8587C68.95 72.5819 69.0492 73.3049 69.1623 74.026C69.7732 77.9105 70.5382 81.766 71.4517 85.5799C71.4811 85.9286 71.5026 86.273 71.515 86.6076C67.9177 87.3594 64.3088 88.1172 60.6509 88.4184C59.6531 88.5006 58.6547 88.5343 57.6564 88.541C57.5262 79.6483 57.316 70.7622 56.8771 61.8805L56.8765 61.8646C56.8693 61.7159 56.8628 61.5677 56.8553 61.4192C57.1689 59.6117 58.7029 58.1808 60.044 57.2242C60.656 56.7877 61.2952 56.4002 61.9405 56.0265C62.3321 55.7996 64.1655 54.5606 64.7497 54.7056C64.8229 54.8252 64.9601 54.9061 65.1021 54.909L68.3874 69.7612ZM71.5013 87.997C71.4212 88.0166 71.3388 88.0533 71.2558 88.1158C69.9953 89.0648 68.386 89.4076 66.8806 89.7937C65.4856 90.1516 64.0741 90.4477 62.6535 90.6851C60.5649 90.7002 58.4804 90.7937 56.3991 90.967C55.2331 90.8587 54.0423 90.7312 52.9033 90.7835C52.7328 90.7913 52.563 90.8099 52.4011 90.8444C50.9093 90.6946 49.4507 90.8516 47.9412 90.9511C46.0757 91.0737 44.228 90.9624 42.3892 90.6256C42.1885 90.5889 42.0147 90.6315 41.8751 90.7196C37.5885 90.1982 33.3405 89.4254 29.1406 88.4001C29.0046 88.3669 28.8825 88.3748 28.7736 88.4068C28.8165 87.6917 28.931 86.9695 29.0294 86.263C31.939 87.7542 35.0012 88.3009 38.2199 88.4974C41.9433 88.7251 45.6718 88.876 49.3974 89.0627C53.144 89.2508 56.9029 89.5693 60.6509 89.2607C64.311 88.9595 67.9244 88.2128 71.5244 87.4607C71.5212 87.6459 71.5126 87.8234 71.5013 87.997ZM59.9012 94.0491C56.768 94.3751 53.6072 94.2425 50.4669 94.1105C47.3867 93.9812 44.2905 94.0792 41.216 93.9065C38.7491 93.768 35.522 93.3178 33.158 92.0319C34.8241 92.369 36.5101 92.5999 38.1951 92.7616C41.1263 93.0426 44.0712 93.099 47.0121 93.1003C47.9531 93.1008 48.8956 93.0771 49.8374 93.0938C50.2303 93.1135 50.6234 93.1318 51.0163 93.1466C51.1788 93.1593 51.3394 93.1806 51.5003 93.2005C53.0424 93.1978 54.5853 93.2221 56.1272 93.2057C56.0353 93.1946 55.9429 93.1854 55.8512 93.1731C57.8016 93.1146 59.7466 92.9637 61.681 92.6805C61.9473 92.6414 62.2189 92.5972 62.49 92.5536C62.9041 92.4609 63.3215 92.3827 63.7362 92.3364C64.3719 92.1693 65.0091 91.989 65.6634 91.8099C66.3742 91.615 67.0821 91.4647 67.7849 91.434C67.9764 91.3528 68.1686 91.272 68.361 91.1917C66.3023 93.2582 62.6169 93.7667 59.9012 94.0491ZM42.8667 62.0328C43.3825 60.8132 44.7327 59.9057 45.7144 59.2953C46.9943 58.4991 48.4276 57.9709 49.9088 57.9111C52.4396 57.809 54.9884 59.2444 56.0326 61.8091C56.0283 61.8846 56.0202 61.9592 56.0191 62.0357C56.0175 62.1635 56.0595 62.2605 56.1239 62.3281C56.5481 71.0608 56.7539 79.7975 56.8819 88.5407C54.5527 88.5222 52.2232 88.3621 49.8956 88.2454C47.2977 88.1153 44.6993 87.9851 42.1009 87.8544C42.9257 79.2761 43.1814 70.651 42.8667 62.0328ZM29.5341 84.5775C30.0555 82.6387 30.2894 80.6213 30.6003 78.6345C30.8964 76.7427 31.2228 74.8572 31.5636 72.9748C31.825 71.8266 32.0896 70.6798 32.3529 69.5332C33.2354 65.6907 34.1179 61.8482 35.0003 58.0054C36.2781 57.2657 38.1945 58.027 39.2788 58.8461C40.5693 59.821 41.3885 61.3174 41.8549 62.9201C41.8659 62.9581 41.8813 62.991 41.8983 63.0212C41.9303 63.1483 42.0209 63.2241 42.127 63.258C42.375 71.4556 42.1128 79.6569 41.33 87.8156C40.6967 87.7836 40.0635 87.7528 39.4303 87.7205C35.8766 87.5386 32.4758 87.1309 29.2535 85.4449C29.3627 85.1391 29.4618 84.8456 29.5341 84.5775ZM35.1644 44.7099C34.9408 43.6968 34.6883 42.6914 34.4043 41.6963C34.21 40.4683 34.1346 39.2086 33.7061 38.0424C33.5269 37.5541 33.282 37.1125 33.0104 36.6897C34.2132 31.688 33.3397 26.5496 33.2467 21.456C33.3488 21.5161 33.4512 21.5754 33.5563 21.6292L33.6183 21.6575C33.9764 21.8922 34.3765 22.0642 34.8074 22.1978L34.8489 22.2099L34.8535 22.2129C34.9233 22.2751 35.0011 22.2894 35.0728 22.2743C35.9583 22.5311 36.8739 22.7098 37.7885 22.8723C37.8213 22.9693 37.8542 23.0663 37.8871 23.1633C37.9218 23.1619 37.9574 23.1622 37.9943 23.1663C38.0512 23.1568 38.111 23.1522 38.1781 23.1584C38.3627 23.176 38.5467 23.2005 38.7305 23.2253C38.7079 23.1587 38.6858 23.0919 38.6631 23.0253L38.7076 23.0331C40.7038 32.2878 40.008 41.8986 41.3596 51.2551C39.8021 51.0991 38.2482 50.8833 36.7004 50.6028C36.7074 50.5721 36.7144 50.5411 36.7217 50.5106C36.7319 50.4654 36.7341 50.423 36.7324 50.3824C36.6683 50.3382 36.6071 50.288 36.5522 50.2307C36.4864 50.1619 36.4406 50.0822 36.4072 49.9981L36.3708 49.9898C36.3692 49.9356 36.3627 49.8828 36.36 49.8289C36.3533 49.7863 36.3514 49.7432 36.3512 49.6998C36.3493 49.6691 36.3471 49.6384 36.345 49.6077C36.3414 49.5775 36.3385 49.5473 36.3388 49.5171C36.2035 47.8513 35.6627 46.2911 35.1644 44.7099ZM32.4095 35.8137C32.3391 35.7142 32.2688 35.6148 32.1988 35.5148C31.4709 33.8197 30.6599 32.1668 29.7555 30.5754C29.5025 30.1297 29.2401 29.6902 28.9736 29.2536C28.5853 28.4539 28.1776 27.6649 27.7122 26.908C27.0025 25.7536 26.2348 24.641 25.4153 23.5761C25.1696 23.2568 24.2386 22.2751 23.545 21.3207C23.4208 21.0526 23.3154 20.7734 23.2772 20.5091C23.2473 20.3744 23.2176 20.2396 23.188 20.1049C23.2006 19.9031 23.251 19.7689 23.3346 19.6945C23.4038 19.7004 23.4607 19.6757 23.5027 19.6293C23.5957 19.6258 23.707 19.6557 23.8406 19.726C24.6824 19.5638 25.9157 19.9438 26.775 20.0338C27.2145 20.0798 27.6538 20.1259 28.0932 20.172C28.9523 20.3385 29.8156 20.4786 30.6822 20.5983C31.2551 20.8758 31.8627 20.9731 32.4677 21.1076C32.5245 26.0142 33.3935 30.9812 32.4095 35.8137ZM39.5348 23.1803L39.5486 23.1827C42.6937 23.7639 45.8825 24.201 49.0773 24.1131C49.7727 33.2233 49.9406 42.3678 49.5755 51.5012C47.4368 51.5887 45.294 51.561 43.1553 51.4136L43.1472 51.3594C43.0861 51.3804 43.0222 51.3953 42.9535 51.3953H42.5663C42.4757 51.3953 42.3965 51.3753 42.3229 51.3473C42.265 51.3424 42.2071 51.3357 42.1489 51.3306C40.7566 42.0029 41.4556 32.4239 39.5348 23.1803ZM64.1091 50.7197C64.1536 50.8216 64.1983 50.9232 64.2428 51.025L64.439 51.9124C64.3964 51.9102 64.3517 51.9142 64.3029 51.9307C55.4953 54.8948 45.1124 55.9481 36.1862 52.8412C36.2382 52.6146 36.2905 52.3877 36.3425 52.1611C40.9339 53.1982 45.6228 53.7056 50.3138 53.5698C54.8696 53.438 59.4027 51.9873 63.8445 50.9746C63.9946 50.9404 64.0787 50.8394 64.1091 50.7197ZM63.6389 50.1622C59.2694 51.1584 54.7923 52.5979 50.3138 52.7275C45.6845 52.8614 41.0611 52.3688 36.5301 51.3446C36.5452 51.2789 36.5603 51.2126 36.5753 51.1468C38.2215 51.4454 39.8749 51.6671 41.5315 51.8256C41.6288 51.9037 41.7635 51.9094 41.8843 51.8582C42.0783 51.8754 42.2726 51.8965 42.4666 51.9121C42.5765 52.1527 42.8775 52.1374 43.0524 51.9592C45.2657 52.115 47.4831 52.1457 49.6959 52.0527C49.8415 52.1745 50.0764 52.1657 50.2198 52.0253C51.3526 51.9679 52.484 51.8811 53.6128 51.7588C53.7618 51.8428 53.9443 51.8372 54.0496 51.7078C56.9822 51.368 59.8964 50.8084 62.7723 50.0286C63.1361 50.0342 63.5021 50.0833 63.8693 50.1716L63.875 50.1846C63.8074 50.153 63.7279 50.142 63.6389 50.1622ZM56.5545 50.7922C55.7645 50.9199 54.9733 51.0369 54.18 51.132C54.1841 51.1032 54.1876 51.0746 54.1914 51.0458C54.1288 51.0644 54.0663 51.083 54.0035 51.101C53.9036 51.1387 53.7998 51.1711 53.6902 51.1986C53.6597 51.2085 53.629 51.2161 53.5983 51.2268L53.5977 51.2212C53.5366 51.2341 53.4738 51.2454 53.4075 51.2549C53.3202 51.2673 53.242 51.2624 53.1712 51.2452C52.2329 51.3411 51.2925 51.4122 50.3513 51.4632C50.7145 42.3333 50.5458 33.1924 49.8498 24.0859C49.8838 24.084 49.9177 24.0843 49.9517 24.0822C52.1057 23.9555 54.2232 23.5225 56.3268 23.0186C56.3228 23.0717 56.3185 23.1248 56.3147 23.1778C56.5774 23.1105 56.838 23.059 57.1005 23.0269C57.1053 22.9601 57.111 22.8936 57.1158 22.827C57.9005 22.6335 58.6835 22.4341 59.4663 22.2412C58.2112 31.7068 57.2368 41.2131 56.5537 50.7483L56.5545 50.7922ZM33.5779 19.1569C33.5919 19.127 33.5983 19.0958 33.5981 19.0634C33.6215 18.9608 33.6482 18.8624 33.6743 18.7638C35.0227 16.8892 37.4646 15.5874 39.2551 14.6567C41.697 13.3878 44.3401 12.6354 47.0366 12.8354C47.0738 12.9534 47.111 13.0714 47.1482 13.1895C47.1722 13.4662 47.2199 13.7357 47.3117 13.9916C47.2476 14.1482 47.3117 14.3716 47.509 14.3953C47.5319 14.4319 47.551 14.4694 47.5764 14.505C48.0353 15.1514 48.7402 15.2481 49.4451 15.18C49.4885 15.1878 49.5283 15.1991 49.5776 15.2007C49.7501 15.2072 49.8983 15.1657 50.029 15.0935C50.1788 15.0652 50.3257 15.0342 50.4666 15.004C51.6549 14.7499 51.791 14.3737 51.929 13.2487C54.6403 13.3282 57.3492 13.6462 59.9659 14.4521C61.8648 15.0371 64.3331 15.9239 65.9951 17.483C66.3688 17.8519 66.6914 18.251 66.8617 18.6598C66.9078 18.7705 66.9266 18.8662 66.9331 18.9551C66.7399 19.126 66.5408 19.2857 66.3362 19.4342C59.1907 20.9906 51.9759 22.4921 44.6627 22.4541C43.9206 22.4503 43.1804 22.4341 42.4431 22.3999C41.9495 22.3452 41.4566 22.2857 40.9654 22.2156C39.6456 22.028 38.3352 21.7877 37.0399 21.494C36.4304 21.3555 35.8241 21.2057 35.2218 21.0442C34.9758 20.978 34.7293 20.9095 34.4841 20.8386C34.2941 20.761 34.1044 20.6813 33.9158 20.5964C33.8648 20.5735 33.8128 20.5536 33.7614 20.532C33.4561 20.1383 33.4784 19.6371 33.5779 19.1569ZM47.495 6.10182C47.5341 6.08835 47.5796 6.07379 47.6227 6.06005C47.5982 6.12445 47.5758 6.19101 47.5561 6.26026C47.509 6.22604 47.4562 6.2026 47.3993 6.18697C47.4303 6.1576 47.4624 6.12903 47.495 6.10182ZM68.9602 21.2237C68.9457 21.2463 68.9328 21.2706 68.9228 21.2967H68.8374C68.7856 21.2695 68.7309 21.2439 68.676 21.2189C68.7703 21.2205 68.8651 21.2224 68.9602 21.2237ZM70.3523 26.3591L70.4032 26.3567L70.3862 26.3823L70.3523 26.3591ZM71.6708 21.4792C71.5937 21.4487 71.515 21.4191 71.4358 21.3902C71.5395 21.4077 71.643 21.4258 71.7457 21.4479C71.7195 21.4554 71.6937 21.4638 71.6708 21.4792ZM72.9423 21.847L72.9318 21.83L72.9564 21.8421L72.9423 21.847ZM73.7847 25.1533L73.803 25.1589L73.8001 25.1904L73.7847 25.1533ZM78.5512 50.8412C78.3636 49.3646 78.1322 47.875 77.8592 46.4186C77.5808 44.9347 77.4873 43.4518 77.2966 41.952C77.0947 40.3643 76.8239 38.809 76.7108 37.2038C76.6199 35.9166 76.5588 34.6407 76.3545 33.3732C76.3004 32.2843 76.1387 31.2 75.9916 30.1229C75.8897 29.3773 75.8048 28.6123 75.6731 27.8729C75.5947 26.7175 75.5173 25.5472 75.3513 24.4144C75.2007 23.3894 74.904 22.4756 74.2007 21.8586C73.3681 21.1283 72.252 20.9311 71.2655 20.7856C70.0615 20.608 68.8223 20.5708 67.6057 20.6314C67.6121 20.3604 67.6224 20.0901 67.6237 19.8187L67.6253 19.8018C68.1023 19.4714 68.1459 19.2254 67.9355 18.9705C67.9085 18.9139 67.8633 18.8675 67.807 18.8382C67.7563 18.7926 67.6973 18.746 67.6337 18.6983C67.0608 17.6461 66.1759 16.8196 65.1676 16.1514C64.7599 15.8348 64.329 15.5418 63.8793 15.2745C61.4401 13.8259 58.541 13.1876 55.6815 12.7931C54.4702 12.6257 53.248 12.484 52.0217 12.3789C52.1152 11.4821 52.1863 10.584 52.2273 9.68376C52.7312 7.97484 53.0758 5.98784 51.6312 5.32658C51.0904 5.07921 50.2346 4.9814 49.3432 5.0423C49.2659 5.00376 49.1805 5.01373 49.1082 5.06062C48.9317 5.0784 48.7547 5.10293 48.579 5.13364C48.52 5.09781 48.4508 5.07867 48.3855 5.08891C48.0423 5.142 47.7273 5.26218 47.4459 5.4384C46.8122 5.68173 46.2846 6.03391 46.0057 6.50466C45.5212 7.32248 45.8284 8.36367 46.034 9.21814C46.2776 10.231 46.5554 11.2337 46.8529 12.2294C46.723 12.2345 46.5928 12.2358 46.4629 12.2423C46.4201 12.2445 46.3773 12.2477 46.3344 12.2501C45.0477 12.2345 43.7805 12.4191 42.5409 12.7594C38.6887 13.6001 35.1326 15.4438 33.0982 18.5595L33.0575 18.5833C32.6625 18.8713 32.3281 19.224 32.0457 19.6374C31.2583 19.4741 30.4707 19.3105 29.6831 19.1472C29.637 19.1378 29.5963 19.1427 29.5586 19.1545C28.5325 18.9093 27.4977 18.7215 26.4498 18.628C25.6196 18.5539 24.3838 18.3049 23.5526 18.5606C23.3362 18.5501 23.1147 18.5512 22.9212 18.6339C22.8221 18.6765 22.7407 18.743 22.6768 18.822L22.6458 18.8414L22.2562 19.1459C22.1562 19.2243 22.1134 19.3307 22.1376 19.463C22.2966 20.328 22.6857 21.0114 23.1729 21.6616C23.842 23.1821 24.9855 24.4618 25.982 25.7827C26.903 27.0036 27.7632 28.2782 28.5648 29.5951C29.2452 30.9383 29.8749 32.3112 30.5354 33.6917C30.8647 34.3796 31.2632 34.9942 31.6722 35.6024C31.8471 36.0072 32.0185 36.4138 32.1834 36.8233C32.1492 37.0101 32.2281 37.1545 32.3488 37.2348C32.9532 38.7748 33.4811 40.3498 33.9346 41.9501C34.0874 42.759 34.3105 43.5518 34.5528 44.34C34.8123 45.4596 35.0348 46.5897 35.2183 47.7274C35.3622 48.619 35.2415 50.0606 35.6546 50.9323C35.5155 51.5516 35.3771 52.1713 35.2385 52.7905C35.1852 52.8784 35.1604 52.9894 35.1696 53.098C34.2507 57.2019 33.3424 61.3101 32.4962 65.4326C32.24 66.5495 31.9835 67.6661 31.7269 68.7828C30.4737 74.2407 29.1738 79.7046 28.3905 85.2706C28.2404 85.4118 28.1805 85.6642 28.312 85.8381C28.2711 86.1431 28.2307 86.4484 28.1929 86.754C28.1851 86.8184 28.1762 86.8838 28.1668 86.9507C27.8432 87.9075 27.6416 88.8916 28.0078 89.8501C28.4196 90.9287 29.2891 91.1885 30.2214 91.3132C30.2791 91.3297 30.3376 91.3464 30.3939 91.3625C30.8016 91.4795 31.2117 91.5857 31.6232 91.687C33.871 93.4703 37.1647 94.0262 39.9317 94.359C43.5576 94.7949 47.3284 94.5433 50.9807 94.6936C54.4783 94.8378 58.004 94.9442 61.4762 94.4099C64.246 93.9839 67.5547 93.2857 69.3375 90.9187C69.3669 90.8794 69.3828 90.8403 69.3887 90.8026C69.8912 90.6264 70.3965 90.4574 70.8847 90.2483C71.4649 89.9996 71.8931 89.5243 72.3735 89.1187C72.3951 89.091 72.4196 89.0662 72.4417 89.0387C72.436 88.9854 72.4288 88.932 72.4228 88.8784C72.5454 88.7375 72.6018 88.5467 72.5786 88.1495C72.5069 86.9181 72.2733 85.671 72.1226 84.4476C72.1119 84.3619 72.0728 84.2973 72.0208 84.2528C71.7737 82.0993 71.3884 79.9713 70.9532 77.8542C70.9667 77.8097 70.9734 77.7612 70.9624 77.7054C70.2626 74.1251 69.6485 70.4968 68.7881 66.9488L68.7835 66.9103L68.7614 66.8384C68.4367 65.508 68.0778 64.1887 67.6647 62.8883C67.5286 62.4596 67.3998 62.029 67.2745 61.5973C66.9266 60.0832 66.5761 58.5519 66.3627 57.0087L65.9986 55.3623C66.0805 55.5886 66.16 55.8158 66.2384 56.0432C66.2047 55.7845 66.1641 55.5318 66.1177 55.283C66.1059 55.2426 66.0945 55.2019 66.0827 55.1613C65.8175 54.4111 65.5615 53.6571 65.3586 52.8808C65.3061 52.7326 65.2554 52.5839 65.2067 52.4348C64.9782 51.1897 64.7591 49.9421 64.5381 48.6953C64.9628 46.0125 65.1549 43.2928 65.364 40.5751C65.7181 37.6657 66.0576 34.7542 66.3804 31.8405C66.5281 30.8769 66.6758 29.9136 66.8153 28.9489L66.869 28.9422C67.7038 29.1189 68.5835 29.065 69.4173 29.0866C69.5296 29.0895 69.6414 29.0944 69.7535 29.0976C70.2491 29.7783 70.5024 31.2062 70.6622 31.7292C70.9645 32.72 71.2614 33.7127 71.5403 34.7116C72.1213 36.7916 72.6144 38.8939 72.9752 41.0326C73.5901 44.6757 73.9383 48.3668 74.734 51.9676C74.7701 52.3147 74.8089 52.6612 74.8539 53.0069C74.9423 53.6854 74.9409 54.4429 75.5375 54.8077C76.185 55.2038 77.3712 55.0815 78.074 55.0723C78.1842 55.0707 78.2901 55.0136 78.3636 54.9257L78.4132 54.9177L78.414 54.9222C78.4776 54.9133 78.5396 54.8996 78.6021 54.8869C78.645 54.8797 78.6881 54.8743 78.7304 54.8662L78.7312 54.863L78.732 54.86C78.7544 54.7519 78.7813 54.6471 78.8093 54.5426C78.8306 54.4636 78.8527 54.3852 78.8767 54.3073C78.7069 53.1621 78.697 51.9916 78.5512 50.8412Z" fill="#2D635E"/>
</g>
<defs>
<clipPath id="clip0_64_615">
<rect width="56.9531" height="90" fill="white" transform="translate(22 5)"/>
</clipPath>
</defs>
</svg>
