<svg width="100" height="100" viewBox="0 0 100 100" fill="none" xmlns="http://www.w3.org/2000/svg">
<path d="M61.2649 23.569C60.6596 23.3805 60.0034 23.3293 59.3658 23.4528C58.8572 23.5513 58.3548 23.6389 57.854 23.7214C57.4788 23.6392 57.095 23.5775 56.7137 23.5278C52.495 22.9799 48.2196 23.0634 44.0384 23.7524C40.0195 23.2492 36.0027 22.7328 31.9849 22.2234C29.8506 21.9531 27.9615 24.6313 28.6686 26.539C28.9988 27.4291 29.4221 28.2064 29.9053 28.9243C29.8482 29.148 29.8035 29.3774 29.7746 29.6113C29.4042 32.6205 30.6419 35.2499 31.6623 37.9939C31.6778 38.0358 31.7032 38.1044 31.7345 38.193C30.2004 40.6878 28.6659 43.1825 27.1317 45.6776C25.6897 48.0217 27.5977 50.6256 30.101 50.8073C34.7402 51.1441 39.4277 50.7071 43.9307 49.5606C48.5937 49.4559 53.7379 47.2244 57.4334 44.7009C61.8031 41.7173 65.1623 37.0786 64.8814 31.6151C64.8528 31.0588 64.7153 30.574 64.4993 30.1588C64.7356 29.3502 64.9608 28.5378 65.1637 27.7175C65.8474 24.9531 63.4779 23.2117 61.2649 23.569Z" fill="#B6C6BE"/>
<path d="M71.8757 91.4283C71.2553 91.9656 70.4588 91.9383 69.6953 92.1012C68.2276 92.4149 66.7567 92.6054 65.2813 92.8686C63.7509 93.1417 62.2453 93.2354 60.6988 93.3964C59.1416 93.5586 57.6312 93.7737 56.0606 93.7396C52.865 93.6694 49.6825 93.9142 46.4801 93.8423C44.9366 93.8075 43.3698 93.5835 41.8271 93.4724C40.2602 93.3595 38.6126 93.35 37.0664 93.082C35.4631 92.8039 33.8107 92.602 32.2517 92.1483C31.5361 91.94 30.8641 91.7102 30.1697 91.4389C29.9411 91.3495 29.7062 91.2704 29.4871 91.1579C29.3739 91.1003 28.7016 90.5088 28.7408 90.4962C28.8041 90.4758 28.8481 90.4349 28.8746 90.3851C29.3819 90.4615 29.8891 90.5337 30.3943 90.6125C31.4553 90.7782 32.5324 90.8556 33.5995 91.0032C34.0572 91.0662 34.526 91.1044 34.981 91.1825C35.5298 91.2769 36.0484 91.4627 36.6087 91.5411C37.6153 91.6819 38.6164 91.7654 39.6333 91.7685C40.826 91.7729 42.01 91.6717 43.192 91.8312C44.1384 91.9587 45.0519 92.0143 46.0034 92.0586C47.1173 92.1101 48.1477 92.3296 49.2674 92.3041C51.3618 92.2563 53.5047 92.525 55.5863 92.1411C55.6235 92.1449 55.6596 92.152 55.6971 92.1548C56.7948 92.2301 57.9235 92.1367 59.0243 92.1261C61.2697 92.105 63.5797 92.2352 65.7944 91.8084C66.3739 91.6966 66.951 91.579 67.5277 91.4617C68.1526 91.4699 68.7781 91.4596 69.3772 91.3577C70.4481 91.176 71.4788 90.8382 72.5429 90.6203C72.3517 90.9098 72.1512 91.1903 71.8757 91.4283ZM22.8583 51.5518C23.2387 51.0725 23.4712 50.5338 23.7343 49.9799C24.0682 49.2766 24.4915 48.6104 24.9097 47.9549C25.3317 47.2938 25.6643 46.5861 26.1051 45.9346C26.5677 45.2511 27.1936 44.6709 27.5908 43.9471C27.9622 43.2701 28.1799 42.5082 28.4942 41.8038C28.832 41.0474 29.2667 40.3482 29.6408 39.6108C30.0033 38.8956 30.3503 38.167 30.6839 37.4378C30.8582 37.056 31.1117 36.067 31.5966 35.9866L31.6069 35.9825C31.6083 36.0551 31.6578 36.1294 31.7524 36.1314C32.077 36.1393 32.4013 36.1553 32.725 36.1744C33.204 36.2661 33.6927 36.3329 34.1687 36.3974C35.5979 36.5896 37.0059 37.0253 38.4492 37.0853C39.9645 37.1484 41.4859 37.0393 42.9929 36.9254C44.6261 36.802 46.3205 36.9353 47.9589 36.935C49.4542 36.9346 50.8989 36.5515 52.3743 36.5395C53.8242 36.5276 55.2524 36.351 56.6879 36.1597C59.4896 36.1291 62.2918 36.1022 65.0956 36.1049C65.1427 36.5467 65.4739 36.8545 65.8797 37.0952C66.4874 38.1176 67.0504 39.1686 67.7251 40.1525C68.6361 41.481 69.4859 42.8522 70.4578 44.1384C71.4204 45.412 72.5037 46.6171 73.3682 47.96C74.0237 48.9783 74.6383 50.0542 75.4461 50.9688C75.3285 50.991 75.2109 51.0108 75.0905 51.0183C74.7067 51.0425 74.3116 51.0121 73.9267 51.0084C73.0618 50.9999 72.2337 51.184 71.3664 51.1662C70.5613 51.1495 69.8277 51.2051 69.0395 51.3544C68.1615 51.5204 67.2378 51.5354 66.3454 51.6063C64.5664 51.7478 62.7368 51.6333 60.9529 51.6336C60.1541 51.6336 59.3476 51.6077 58.5542 51.7188C57.6109 51.8508 56.6951 52.0216 55.7411 52.0809C54.0394 52.1869 52.3447 52.3011 50.6365 52.3751C48.8455 52.4525 47.0465 52.4099 45.2541 52.4099C41.5464 52.4105 37.7786 52.6284 34.0954 52.1324C32.185 51.8753 30.2681 52.0107 28.346 51.9813C27.3869 51.9663 26.4284 51.8873 25.4699 51.8811C24.5679 51.8753 23.6792 51.9773 22.8583 51.5518ZM29.9865 32.3365C29.3234 31.0206 28.638 29.7227 28.0647 28.3649C27.5399 27.1216 26.9254 25.9597 26.2128 24.8112C25.4548 23.5887 24.8588 22.3127 24.1586 21.065C24.0613 20.8915 23.8044 20.5512 23.6022 20.2083C25.08 20.2352 26.5598 20.2151 28.0362 20.288C29.6618 20.3678 31.2713 20.616 32.901 20.6348C34.5655 20.6542 36.1894 20.8096 37.8405 21.0104C39.2622 21.1829 40.7231 21.4656 42.16 21.3776C43.7055 21.2828 45.2475 21.2508 46.7954 21.1857C48.3843 21.1185 49.9604 20.9371 51.5461 20.8379C54.6867 20.6412 57.8169 20.2355 60.9612 20.0099C62.7014 19.8851 64.445 19.8452 66.1879 19.9189C67.1033 19.9577 68.0181 20.014 68.9346 20.0283C69.2892 20.0341 69.6541 20.0075 70.0186 19.9904L70.009 20.001C69.8449 20.269 69.7851 20.5495 69.641 20.825C69.5062 21.0827 69.2885 21.2849 69.1613 21.5463C68.8995 22.084 68.9346 22.7327 68.8246 23.3092C68.5618 24.681 68.1227 26.089 67.7038 27.4209C67.287 28.747 66.9496 30.094 66.5153 31.4153C66.0895 32.7125 65.5926 33.9957 65.2139 35.3088C64.7517 35.1912 64.2888 35.0453 63.8411 34.9567C63.1866 34.8271 62.5322 34.805 61.8664 34.8077C60.4116 34.8132 59.0453 35.0072 57.6143 35.2349C56.5396 35.4057 55.4188 35.5877 54.3104 35.6842C52.4197 35.7108 50.5289 35.7353 48.6371 35.7479C45.7655 35.767 42.8983 35.914 40.025 35.9232C38.7993 35.9269 37.5737 35.9385 36.348 35.9511C35.9209 35.8819 35.491 35.8165 35.0497 35.7694C34.3406 35.6941 33.6311 35.629 32.922 35.554C32.6135 35.5212 32.2727 35.5352 31.9704 35.4408C31.7727 35.3794 31.608 35.2819 31.437 35.1939C31.3335 34.8902 31.153 34.612 30.9996 34.3144C30.6602 33.6558 30.3197 32.9978 29.9865 32.3365ZM35.578 19.6117C35.339 19.1992 35.2392 18.6827 35.0102 18.2514C34.6938 17.6538 34.4276 17.0498 34.1642 16.4286C33.7766 15.5157 33.2236 14.7701 32.714 13.9267C32.0513 12.8293 31.5419 11.6525 31.0219 10.4852C30.4683 9.24295 29.8475 8.04736 29.5703 6.7127C29.7185 6.74952 29.9005 6.78702 30.125 6.82452C30.7802 6.99805 31.4539 7.04679 32.131 7.05736C32.7927 7.11429 33.5871 7.17056 34.5501 7.22544C37.0778 7.36896 40.2062 7.46543 43.6119 7.50838C44.1371 7.54077 44.6615 7.5718 45.187 7.6001C45.6877 7.62737 46.0567 7.71635 46.4711 7.53158C46.8735 7.53329 47.2773 7.53431 47.6844 7.53431C52.6449 7.53431 57.3093 7.42453 60.8185 7.22544C62.5132 7.12896 63.6946 7.02771 64.522 6.92646L64.5588 6.9302C64.6031 6.95134 64.6537 6.96464 64.7125 6.96464C64.8642 6.96362 65.0155 6.96464 65.1671 6.96737C65.2156 6.96805 65.2559 6.95749 65.293 6.94385L65.2982 6.94419C65.444 6.94828 65.53 6.86851 65.5664 6.76487C65.6349 6.75089 65.6981 6.73691 65.7566 6.72327C65.0172 8.88123 63.8741 10.9345 62.9858 13.026C62.1085 15.0916 61.4877 17.2188 60.7322 19.3182C60.7181 19.357 60.7119 19.3935 60.7095 19.4286C59.7441 19.5118 58.7809 19.6113 57.8131 19.6826C57.0018 19.7422 56.1878 19.7613 55.3769 19.8329C54.5591 19.9052 53.7571 20.0913 52.94 20.1602C49.796 20.4247 46.6513 20.5079 43.5012 20.6552C42.7683 20.6893 42.0424 20.8056 41.3067 20.7837C40.49 20.7595 39.667 20.6208 38.8561 20.5257C37.7332 20.3937 36.6104 20.2355 35.4827 20.1394C35.6244 20.0187 35.6973 19.8173 35.578 19.6117ZM29.7815 6.19793C29.7388 6.24054 29.7103 6.29169 29.7003 6.3493C29.6044 6.32748 29.5201 6.30498 29.4561 6.28282C29.5376 6.25453 29.648 6.22622 29.7815 6.19793ZM36.0983 5.66033C35.9126 5.68078 35.7269 5.70157 35.5412 5.72202C35.3245 5.72782 35.1103 5.74453 34.8991 5.77419C34.6009 5.77112 34.3031 5.77317 34.0053 5.77113C34.6474 5.73158 35.3462 5.69442 36.0983 5.66033ZM57.6518 6.91691C58.134 6.89611 58.6154 6.87294 59.0976 6.85249C59.3555 6.84124 59.5825 6.84906 59.7974 6.82213C59.9484 6.83815 60.0997 6.84566 60.251 6.85725C59.2441 6.91009 58.1261 6.95713 56.9097 6.99702C57.1576 6.97759 57.4052 6.95236 57.6518 6.91691ZM51.0317 7.06418C52.1944 7.07407 53.363 7.02465 54.5243 7.01749C54.8469 7.03011 55.1695 7.03658 55.4914 7.03897C54.0752 7.07681 52.5479 7.1051 50.9281 7.12147C50.9636 7.10374 50.9986 7.08566 51.0317 7.06418ZM39.6938 5.54441C39.6557 5.53998 39.6175 5.53828 39.5793 5.53453C40.2382 5.51612 40.9205 5.49942 41.6273 5.48544C41.6135 5.52908 41.6053 5.57475 41.6077 5.62179L41.5915 5.64942L41.5736 5.65044C41.5107 5.59181 41.4257 5.55056 41.3136 5.54919C40.8129 5.54204 40.3125 5.55703 39.8125 5.58124C39.7784 5.56317 39.7399 5.54986 39.6938 5.54441ZM68.6034 34.5514L68.3851 35.2018C68.2372 35.2536 68.0848 35.2891 67.928 35.3075C67.7316 35.3375 67.5246 35.3463 67.3262 35.3409C67.0985 35.3341 66.8777 35.2898 66.6563 35.2485C67.3386 34.581 68.276 33.8682 68.6034 34.5514ZM25.2337 53.8785C25.2877 53.6849 25.34 53.4909 25.3898 53.2962C25.481 52.9587 25.5662 52.6461 25.6457 52.3563C25.9635 52.3608 26.2764 52.3659 26.5756 52.3863C28.4348 52.5149 30.2874 52.5009 32.1493 52.5336C33.9255 52.5646 35.6873 52.942 37.4695 53.0034C39.3454 53.0678 41.2235 53.0204 43.1002 53.0208C46.7421 53.0211 50.38 53.0153 54.0168 52.8732C55.7738 52.8046 57.5084 52.3696 59.2565 52.2677C61.0991 52.1603 62.9696 52.2493 64.815 52.2486C65.7996 52.2483 66.7563 52.1375 67.7361 52.0955C68.6867 52.0546 69.6076 51.7908 70.5544 51.771C71.0201 51.7615 71.4854 51.7993 71.951 51.7928C72.4277 51.7863 72.8685 51.6633 73.3407 51.6241C73.5515 51.6063 73.7661 51.607 73.9814 51.6121C73.9934 51.6824 74.0079 51.754 74.0182 51.8238C74.1066 52.4436 74.195 53.0624 74.3023 53.6798C74.5004 54.8201 74.6733 55.9652 74.9079 57.0994C75.3897 59.4302 75.9733 61.7317 76.5325 64.0458C76.8344 65.2952 76.9596 66.577 77.1983 67.8384C77.4397 69.1151 77.7179 70.3898 78.0412 71.6484C78.3885 72.9994 78.7056 74.3163 78.8662 75.7038C78.9914 76.7825 79.1076 77.8673 79.217 78.9445C79.2738 79.5026 79.2985 79.9506 79.4485 80.4981C79.6142 81.1035 79.7098 81.7942 79.7683 82.4204C79.8725 83.5335 79.9887 85.0246 79.4667 86.092C79.2786 86.3351 79.0894 86.5775 78.9102 86.8274C78.6485 87.1932 78.3937 87.5283 78.0505 87.8228C78.002 87.8644 77.9827 87.9152 77.9793 87.9663C77.8242 88.1215 77.6536 88.2691 77.4689 88.4075C77.0301 88.6205 76.5318 88.8193 75.9678 89.0048C75.8378 89.0283 75.7085 89.0498 75.5819 89.0648C75.4877 89.0764 75.4224 89.1234 75.3814 89.1844C74.0959 89.5584 72.5129 89.8754 70.574 90.1468C70.4653 90.1427 70.3522 90.1485 70.2346 90.1655L70.1957 90.1598C69.294 90.1983 68.3648 90.2757 67.4703 90.3994C67.3757 90.4124 67.3141 90.4666 67.277 90.5327C65.7889 90.6793 64.1478 90.8102 62.332 90.9282C61.5262 90.9807 60.7339 91.0263 59.9481 91.069C59.0518 91.0761 58.1553 91.0863 57.2625 91.1504C57.106 91.1617 56.9547 91.1869 56.8041 91.2166C52.1029 91.401 47.8041 91.4068 43.9359 91.2738C43.4551 91.2121 42.975 91.146 42.4863 91.1116C41.8886 91.0696 41.2772 91.0979 40.6684 91.1238C38.9544 91.0236 37.3415 90.8944 35.8321 90.7403C35.1374 90.6217 34.4417 90.4983 33.7336 90.4004C32.1183 90.1775 30.5109 89.9736 28.9035 89.7285C27.0811 89.361 25.5449 88.9478 24.3086 88.505C24.0314 88.3011 23.7659 88.0833 23.4812 87.8804C22.944 87.4979 22.4206 87.2187 21.9989 86.69C21.1749 85.657 21.0346 84.1134 20.8802 82.8459C20.8101 82.2718 20.6567 81.7379 20.6666 81.1526C20.679 80.4217 20.6728 79.6891 20.7007 78.9588C20.7561 77.4963 21.0707 76.0325 21.263 74.5812C21.4274 73.3427 21.4968 72.1229 21.6 70.8793C21.6578 70.1808 21.6571 69.5218 21.828 68.8355C21.9886 68.1916 22.1031 67.5377 22.2655 66.8947C22.6069 65.5413 22.9044 64.1845 23.3261 62.8509C23.7473 61.5183 23.8674 60.1253 24.1177 58.7535C24.2759 57.8886 24.4393 57.0367 24.6298 56.1885C24.8451 55.3478 25.0483 54.5743 25.2337 53.8785ZM80.6628 84.4799C80.6621 84.4352 80.647 84.4025 80.6267 84.3752C80.6487 83.854 80.6236 83.2826 80.541 82.6339C80.4066 81.5801 80.0775 79.6679 79.6373 77.2826C79.5276 76.162 79.4474 75.0343 79.2569 73.9233C79.0478 72.7018 78.6272 71.5018 78.3483 70.2926C78.0178 68.8621 77.7434 67.4249 77.5174 65.9746C77.2808 64.4562 76.9177 62.9617 76.5435 61.4705C75.6714 57.1485 74.902 53.4026 74.5361 51.6285C74.6486 51.6322 74.7607 51.6353 74.8718 51.6357C75.2687 51.6367 75.6146 51.5378 75.996 51.4918C76.1583 51.5412 76.3636 51.4621 76.3949 51.2811C76.4135 51.232 76.4218 51.1809 76.4176 51.1291L76.4242 51.081C76.4579 50.8383 76.2364 50.6917 76.0507 50.7101C75.1283 49.7204 74.4959 48.5112 73.741 47.4012C72.84 46.0768 71.7636 44.872 70.803 43.5905C69.8938 42.3762 69.0945 41.0852 68.2262 39.8419C67.7189 39.1151 67.2846 38.3296 66.8313 37.5592C66.9341 37.6069 67.0304 37.6536 67.1164 37.7007C68.4738 38.4408 69.7015 39.5555 70.8605 40.5701C71.5263 41.1527 72.2041 41.7319 72.5621 42.5573C72.8204 43.1535 72.8737 43.8363 73.1591 44.4166C73.5498 45.2116 74.4113 45.5385 75.2442 45.6779C76.5019 45.8883 77.2619 45.1983 78.4336 44.9491C78.882 44.8536 78.6674 44.1803 78.2211 44.2741C76.8771 44.5557 75.7291 45.546 74.3319 44.6405C73.6337 44.1882 73.6145 43.3192 73.3493 42.6023C73.1629 42.0974 72.9201 41.6344 72.5717 41.2195C71.5596 40.0158 70.1558 39.0517 68.9288 38.0784C68.3651 37.6311 67.7942 37.2623 67.1518 36.9326C66.877 36.7911 66.3804 36.6571 66.1573 36.4376L66.0806 36.3589C66.0544 36.321 66.0273 36.2842 66.0011 36.2463C66.0661 36.2545 66.1308 36.2678 66.1961 36.2729C66.2972 36.2811 66.3705 36.2504 66.4289 36.2058C67.526 36.3745 68.5928 36.7304 69.7063 36.7812C70.9413 36.8375 72.2182 36.439 73.415 36.1853C75.0461 35.8393 76.4458 35.4936 77.905 36.5037C78.4614 36.889 78.99 37.3049 79.4412 37.8094C79.6723 38.0678 79.77 38.2294 80.1187 38.3273C80.5448 38.4473 80.6999 37.7804 80.2735 37.6628C79.911 37.5622 79.367 36.7645 79.0781 36.5348C78.6613 36.2034 78.2173 35.873 77.7547 35.6075C76.7309 35.0201 75.659 35.0753 74.5255 35.2959C73.0608 35.5809 71.527 36.1468 70.031 36.1966C69.1568 36.2256 68.295 36.0282 67.4318 35.8523C68.4449 35.8076 69.6458 35.5055 69.0601 34.3973C68.3655 33.083 66.9248 34.2783 66.0867 35.1817C65.986 35.1803 65.8897 35.1899 65.7965 35.2052C66.6456 32.7503 67.3991 30.2729 68.2045 27.8054C68.6406 26.4708 69.0643 25.0761 69.3697 23.7074C69.5007 23.1186 69.4522 22.3857 69.7057 21.8385C69.8267 21.5763 70.0478 21.3708 70.1868 21.1178C70.2958 20.9194 70.358 20.7057 70.4492 20.5011L70.4574 20.4909C70.4904 20.4254 70.5235 20.3603 70.5565 20.2949C70.6184 20.1725 70.5943 20.0624 70.5324 19.9805C70.5909 19.9809 70.6504 19.9788 70.7085 19.9809C70.7473 19.8738 70.7893 19.7678 70.8385 19.6632C70.8729 19.5899 70.921 19.5275 70.9747 19.4702L70.9936 19.3833C70.5971 19.3529 70.2002 19.3802 69.7961 19.4003C69.0426 19.4382 68.2864 19.4 67.5332 19.3666C65.8697 19.2929 64.2173 19.2353 62.5524 19.3032C62.2357 19.3161 61.9203 19.3373 61.605 19.3591C62.3887 17.1203 63.0466 14.855 63.9532 12.6452C64.794 10.5946 65.8305 8.5577 66.4183 6.4127L66.441 6.33259C66.4592 6.26475 66.4809 6.19827 66.4984 6.13043C66.5713 5.84202 66.1906 5.72406 66.0358 5.92009C65.4674 5.73191 64.1024 5.52634 60.8185 5.3402C57.3096 5.14077 52.6453 5.03101 47.6844 5.03101C42.7233 5.03101 38.0586 5.14077 34.5501 5.3402C28.9258 5.6593 28.9258 6.03464 28.9258 6.28282C28.9258 6.34657 28.9265 6.4185 29.0215 6.49589L29.0204 6.50407C29.0954 7.86498 29.6632 9.06874 30.1842 10.3114C30.666 11.4595 31.1372 12.6053 31.7118 13.7119C32.2965 14.8386 33.0376 15.8116 33.5211 16.9956C33.7126 17.464 33.9076 17.9286 34.1346 18.3814C34.4087 18.9289 34.5635 19.5312 34.863 20.0549L34.896 20.1012C34.6721 20.0873 34.4479 20.0692 34.2233 20.062C32.3986 20.0041 30.5948 19.9161 28.7721 19.8053C26.8972 19.6915 25.0205 19.8087 23.1455 19.8674C23.0128 19.8715 22.968 19.9921 23.0017 20.0869C22.9474 20.09 22.8938 20.0927 22.8398 20.0958C23.0977 20.6811 23.5768 21.2753 23.7632 21.636C24.1542 22.3935 24.4843 23.1629 24.9245 23.8969C25.3737 24.6456 25.8558 25.3744 26.2988 26.1268C27.1671 27.6029 27.7359 29.2206 28.5094 30.7448C28.8973 31.5084 29.301 32.2642 29.6948 33.0248C29.9005 33.4216 30.1085 33.8167 30.3217 34.2098C30.4793 34.4992 30.7461 34.8663 30.9043 35.2246C30.904 35.2625 30.9171 35.299 30.9483 35.3279C30.9951 35.4513 31.0268 35.5727 31.0326 35.6879C31.0364 35.7698 31.0721 35.8277 31.1224 35.8649C30.5463 36.2971 30.188 37.3707 29.9242 37.8749C29.0954 39.4611 28.1613 40.9979 27.4955 42.6612C26.8806 44.197 25.6618 45.3125 24.874 46.7627C24.462 47.5219 23.9857 48.2405 23.5616 48.9936C23.1403 49.7426 22.8762 50.6129 22.3012 51.2648C22.0756 51.5204 22.3741 51.8641 22.6307 51.7713C23.3481 52.2346 24.2271 52.3219 25.103 52.3461C24.9338 52.9795 24.7405 53.6075 24.5424 54.2354C24.1143 55.596 23.8258 56.946 23.5692 58.3461C23.4416 59.044 23.3501 59.7578 23.2366 60.4662C23.0585 61.2193 22.8797 61.9956 22.7022 62.7875C22.2802 64.1399 21.9573 65.5137 21.6258 66.8897C21.47 67.5357 21.3459 68.1871 21.1873 68.8328C21.0181 69.5211 21.0391 70.1712 20.9769 70.8694C20.9232 71.4738 20.8723 72.0745 20.8193 72.6749C20.5855 74.2458 20.395 75.7836 20.2681 77.2437C20.1652 77.9613 20.0806 78.6807 20.0679 79.4146C20.0576 79.9979 20.0676 80.5615 20.092 81.1226C20.1112 84.5112 20.6959 87.0534 22.1905 87.9132C22.2379 87.9612 22.2854 88.0086 22.3294 88.0557C22.9151 88.6826 23.5692 89.0129 24.3729 89.3286C24.42 89.347 24.4682 89.3613 24.5153 89.3794L24.5875 89.4244C24.6418 89.4537 24.6931 89.4616 24.7422 89.4602C25.8888 89.8666 27.0846 90.1038 28.2917 90.2948C28.0898 91.084 28.8034 91.5769 29.45 91.9025C30.6491 92.5059 31.9415 92.9777 33.2621 93.2365C36.6551 93.9006 40.0642 94.0945 43.5077 94.3632C45.3452 94.5064 47.1397 94.6274 48.9847 94.6618C50.8112 94.6959 52.615 94.4842 54.4353 94.49C56.2528 94.4958 57.983 94.507 59.7912 94.2899C61.5513 94.0792 63.3317 94.0713 65.0667 93.7137C66.0355 93.514 67.0273 93.4335 68.0026 93.2671C68.8817 93.1175 69.7404 92.8809 70.6204 92.7439C71.2873 92.6399 71.8172 92.4991 72.3461 92.0603C72.9167 91.5871 73.2032 91.0301 73.6055 90.4536L73.6127 90.4407C74.4268 90.3336 75.2497 90.2423 76.0018 89.9065C76.5091 89.6801 76.9779 89.4588 77.4136 89.1905C79.2741 88.3891 80.6838 86.5417 80.6628 84.4799Z" fill="#653C1C"/>
<path d="M70.9802 65.7591C71.0895 65.8379 71.1961 65.9214 71.3 66.0084L71.3117 66.0182C71.4066 66.0984 71.4984 66.1839 71.5885 66.2719C71.6883 66.3707 71.7846 66.474 71.8778 66.5825L71.8963 66.6032C71.993 66.7164 72.0851 66.8351 72.1728 66.9609C72.3764 67.2534 71.9479 67.5097 71.7127 67.296C71.5934 67.2523 71.4792 67.2015 71.3667 67.148C71.2608 67.0969 71.1573 67.0423 71.0555 66.9851L71.0128 66.9622L70.9403 66.921C70.5816 66.7096 70.2411 66.4689 69.8886 66.2446C69.8002 66.188 69.7105 66.1328 69.6197 66.0796C69.3707 65.933 69.1124 65.8004 68.8325 65.6985C67.5841 65.2447 66.3089 65.0528 64.9973 64.8796C63.5326 64.687 62.0748 64.416 60.5994 64.3178C59.1867 64.2237 57.7753 64.3925 56.3677 64.222L56.3453 64.2152C56.063 64.2574 55.8587 63.8429 56.1531 63.6806C57.0871 63.1662 58.1852 63.3315 59.2035 63.4631C60.6758 63.4935 62.1508 63.681 63.6175 63.8862C63.9831 63.9186 64.3487 63.951 64.7139 63.9891C66.3935 64.164 68.2231 64.3826 69.7758 65.0855C70.2026 65.2676 70.6064 65.4898 70.9802 65.7591ZM27.1596 67.5629C27.2259 67.5718 27.2913 67.5885 27.3573 67.6018C27.4226 67.6151 27.4883 67.626 27.553 67.6434C27.6359 67.6659 27.7177 67.6938 27.7999 67.7221C27.8457 67.7378 27.8917 67.7518 27.9371 67.7691C28.0207 67.8008 28.1036 67.837 28.1865 67.8731C28.2336 67.8943 28.2807 67.914 28.3275 67.9362C28.7952 68.1561 29.2443 68.4305 29.6742 68.6637C30.9391 69.3506 32.314 69.9513 33.7099 70.3761L33.799 70.4037L33.8451 70.4177C34.094 70.491 34.3437 70.5609 34.5941 70.6222C34.8125 70.6757 35.0319 70.7248 35.2523 70.7708C35.3328 70.7879 35.4133 70.8029 35.4941 70.8186C35.5694 70.8336 35.645 70.8472 35.7207 70.8615C35.7534 70.8673 35.7854 70.8738 35.818 70.8796C35.8627 70.8878 35.9071 70.897 35.9522 70.9048C36.1272 70.9355 36.3029 70.9624 36.4787 70.989L36.5148 70.9948L36.6004 71.0085L36.6554 71.0163C36.8246 71.0409 36.9945 71.062 37.1648 71.0828C37.2304 71.091 37.2961 71.0998 37.3622 71.1073C37.5283 71.1261 37.6947 71.1431 37.8615 71.1592C37.9313 71.166 38.0011 71.1731 38.0713 71.1793C38.236 71.1939 38.4011 71.2072 38.5662 71.2191C38.6381 71.2246 38.7103 71.2301 38.7825 71.2352C38.9462 71.2461 39.1102 71.2556 39.2743 71.2645C39.3479 71.2686 39.4215 71.2723 39.4951 71.2761L39.5669 71.2798H39.5693C39.709 71.2863 39.8489 71.2918 39.9893 71.2969C40.0615 71.2996 40.134 71.302 40.2066 71.3044C40.3686 71.3095 40.5302 71.3139 40.6922 71.3177L40.7524 71.3194C40.8074 71.3204 40.8628 71.3211 40.9178 71.3221C41.086 71.3252 41.2545 71.3279 41.423 71.3296C41.4907 71.3303 41.5585 71.3306 41.6262 71.3313C41.7153 71.332 41.804 71.3333 41.8931 71.3337H41.8941C41.9777 71.3344 42.0609 71.334 42.1442 71.3344H42.3226C42.508 71.3344 42.693 71.334 42.878 71.3334L42.9602 71.3327C43.2649 71.331 43.57 71.3289 43.874 71.3265C44.6354 71.3204 45.3944 71.3143 46.1486 71.3173C46.2232 71.3177 46.2982 71.3177 46.3731 71.318C46.6937 71.3204 47.0138 71.3276 47.3344 71.333C47.9513 71.3432 48.5679 71.3565 49.1849 71.3739H49.1856C49.3469 71.3784 49.5085 71.3821 49.6698 71.3865C50.1757 71.4012 50.6816 71.4159 51.1875 71.4298C51.3642 71.4346 51.5413 71.4377 51.7181 71.4421C52.0166 71.4496 52.3148 71.4578 52.6129 71.4632L52.6133 71.4639C52.7416 71.4663 52.8698 71.4684 52.9981 71.4701C53.7014 71.4261 54.4033 71.3729 55.1038 71.3119C55.1878 71.3044 55.2713 71.2965 55.3552 71.289C55.587 71.2682 55.8188 71.2464 56.0506 71.2232C56.2212 71.2062 56.3918 71.1885 56.5627 71.1704C56.6906 71.1568 56.8185 71.1424 56.9465 71.1281C57.1876 71.1012 57.4283 71.0732 57.6687 71.0439L57.7378 71.0351C58.7661 70.9079 59.7902 70.7562 60.8092 70.5745L60.8216 70.5721C61.1191 70.5189 61.4165 70.4647 61.7133 70.4064L61.713 70.403C61.7811 70.3897 61.8495 70.3778 61.9176 70.3641L61.9138 70.3594C62.3021 70.281 62.6897 70.1988 63.0766 70.1112L63.0779 70.1177C63.5924 70.0007 64.1052 69.8729 64.6166 69.7382L64.6152 69.7396C64.965 69.6476 65.3137 69.5507 65.662 69.4498C65.8113 69.4065 65.9599 69.3605 66.1091 69.3155C66.3787 69.2337 66.6484 69.1498 66.9173 69.0629C67.0507 69.0196 67.1845 68.9763 67.3179 68.9313C67.7145 68.7983 68.1103 68.661 68.5044 68.5147C68.5722 68.4891 68.6296 68.4949 68.6805 68.513C68.7537 68.4677 68.8294 68.425 68.9016 68.3783C69.2187 68.1728 69.5121 68.6767 69.1974 68.8802C68.9821 69.02 68.761 69.1533 68.5357 69.2804C68.4456 69.3312 68.3517 69.3772 68.2599 69.426L68.1942 69.4607C67.5563 69.7976 66.885 70.0901 66.1917 70.344C66.1411 70.3625 66.0902 70.3802 66.0393 70.3982C65.7298 70.5087 65.4168 70.6116 65.1004 70.7078C65.0557 70.7211 65.0114 70.7357 64.9663 70.749C64.6379 70.8465 64.3064 70.9355 63.9735 71.019C63.8786 71.0429 63.7833 71.0654 63.688 71.0879C63.0006 71.2519 62.3083 71.391 61.6201 71.5062C61.2587 71.5665 60.8986 71.6201 60.5413 71.6695C60.4756 71.679 60.4099 71.6879 60.3446 71.6968C59.9876 71.7445 59.6327 71.7888 59.2836 71.827C58.7699 71.8839 58.255 71.9279 57.7405 71.962C57.6185 71.9702 57.4964 71.9729 57.374 71.9797C57.3224 71.9824 57.2708 71.9841 57.2195 71.9872C56.8767 72.0053 56.5341 72.0254 56.1913 72.0363C56.0723 72.0397 55.9529 72.0394 55.834 72.0421C55.781 72.0435 55.7284 72.0438 55.6757 72.0448C55.3301 72.052 54.9849 72.0605 54.6392 72.0619C54.5464 72.0622 54.4535 72.0602 54.3607 72.0602C54.2716 72.0602 54.1825 72.0588 54.0938 72.0585C53.753 72.0571 53.4125 72.0571 53.0721 72.0516C52.473 72.0895 51.8729 72.1222 51.2728 72.1505C50.6276 72.1802 49.9817 72.2061 49.3352 72.2262C49.0064 72.2371 48.677 72.2456 48.3478 72.2541C47.5689 72.2736 46.7893 72.2916 46.0096 72.3029C45.4821 72.3104 44.9477 72.3141 44.4101 72.3145C44.287 72.3145 44.1625 72.3135 44.0387 72.3131C43.6209 72.3118 43.201 72.3077 42.7797 72.3002C42.5672 72.2961 42.355 72.2927 42.1418 72.2869C42.009 72.2835 41.8762 72.2797 41.7432 72.2753C41.4144 72.2647 41.0849 72.2504 40.7555 72.234C40.6471 72.2286 40.5391 72.2242 40.4312 72.2184C40.0267 72.1959 39.622 72.1686 39.2175 72.1365C39.1505 72.1311 39.0831 72.1253 39.016 72.1195C38.6081 72.0854 38.2006 72.0459 37.7941 71.9998C37.6902 71.9882 37.5874 71.9733 37.4839 71.9606C37.1637 71.9218 36.8439 71.8798 36.5254 71.8328C36.3631 71.8086 36.2015 71.7817 36.0399 71.7551C35.7847 71.7138 35.5305 71.6692 35.2771 71.6218C35.0401 71.5774 34.8035 71.5325 34.5683 71.4823C34.4421 71.4554 34.3165 71.4261 34.1907 71.3971C33.9458 71.3419 33.7017 71.2843 33.4592 71.2222C33.3113 71.1844 33.1645 71.1428 33.0173 71.1022C31.6413 70.7242 30.3056 70.236 29.039 69.6002L28.9829 69.5722C28.648 69.4028 28.3175 69.2235 27.9928 69.0332L27.9867 69.0353C27.5076 68.7554 27.0395 68.4527 26.5849 68.1234H26.5846L26.5323 68.1257L26.5199 68.1251H26.5209C26.3531 68.139 26.2658 68.0255 26.2568 67.896L26.2572 67.8881L26.2644 67.7981L26.2816 67.7538L26.3012 67.7037L26.3479 67.6468L26.3679 67.6229C26.3947 67.5994 26.4267 67.58 26.4635 67.567C26.5378 67.4964 26.6427 67.4732 26.7527 67.5383C26.8899 67.5353 27.0254 67.5452 27.1596 67.5629ZM31.8673 65.1118C31.9677 64.8234 32.4577 64.8452 32.432 65.1888C32.4216 65.3276 32.4264 65.4564 32.4371 65.5819C32.4399 65.6187 32.4409 65.6572 32.4454 65.6934L32.4464 65.6961L32.4467 65.7009L32.4646 65.7394C32.5066 65.8505 32.5561 65.9558 32.6104 66.0568L32.6582 66.1437C32.7201 66.249 32.7879 66.3489 32.8618 66.4434L32.9231 66.516L32.9485 66.5463L32.9406 66.547L32.996 66.6026C33.042 66.6537 33.0916 66.7021 33.1414 66.7502L33.1892 66.7976C33.2353 66.8402 33.2842 66.8804 33.3333 66.9206C33.3787 66.9585 33.4255 66.9956 33.4733 67.0311L33.4905 67.0447L33.5139 67.0641H33.5149C33.5476 67.088 33.5809 67.1112 33.6146 67.1344C33.6979 67.1913 33.7835 67.2455 33.8712 67.2977C33.92 67.3263 33.9699 67.3536 34.0194 67.3809C34.0837 67.4163 34.1487 67.4504 34.2148 67.4838C34.2581 67.5056 34.3007 67.5285 34.3451 67.5493C34.4479 67.5984 34.5525 67.6447 34.658 67.6894C34.7 67.7071 34.742 67.7245 34.7839 67.7415C34.8823 67.7818 34.9813 67.8206 35.0811 67.8581L35.1337 67.8782C35.2609 67.9256 35.3888 67.9703 35.5168 68.0143L35.5646 68.0306V68.031L35.5866 68.0381C35.6777 68.0691 35.7689 68.0995 35.8593 68.1295L35.859 68.1298L35.9487 68.1592L35.9546 68.1608L35.9549 68.1612L35.9632 68.1629H35.9635C36.0429 68.1806 36.1207 68.1963 36.1994 68.213C36.4257 68.2607 36.6486 68.3064 36.8625 68.3501L36.8618 68.3507C37.1844 68.4162 37.4894 68.4796 37.7566 68.5478C38.1225 68.6408 37.9664 69.2013 37.6008 69.1082C37.3594 69.0465 37.0967 68.9876 36.8222 68.9272C36.7596 68.9838 36.674 69.0128 36.5664 68.9756C36.2651 68.872 35.9487 68.767 35.6299 68.6582L35.6234 68.6565C35.4236 68.6078 35.2231 68.5546 35.0243 68.498C34.8802 68.4574 34.7371 68.4148 34.5958 68.3688L34.5236 68.3443C34.3819 68.2969 34.2426 68.2464 34.1064 68.1929L34.0486 68.1707C33.9049 68.1128 33.766 68.0501 33.6305 67.9836L33.5438 67.9403C33.4093 67.8711 33.2783 67.7985 33.1545 67.7194L33.1146 67.6918C33.0011 67.6174 32.8938 67.5373 32.792 67.4535L32.7301 67.4023C32.6362 67.3209 32.551 67.2322 32.4694 67.1409C32.434 67.101 32.4007 67.0601 32.3676 67.0181C32.3071 66.9414 32.2521 66.8603 32.2012 66.7764C32.172 66.7284 32.141 66.6817 32.1152 66.6315C32.0949 66.5927 32.0767 66.5528 32.0588 66.5126C32.0248 66.4369 31.9955 66.3581 31.9694 66.2773C31.9567 66.2392 31.9422 66.202 31.9316 66.1624C31.8975 66.0366 31.87 65.9061 31.8549 65.767C31.8422 65.7247 31.8291 65.6825 31.8167 65.6398C31.7957 65.5601 31.7713 65.483 31.7562 65.3981V65.3896L31.7558 65.3899C31.7373 65.2689 31.7892 65.1735 31.8673 65.1118ZM23.7831 67.6468C22.2981 69.3063 22.5382 72.6806 22.4512 74.767C22.4412 75.0097 22.4271 75.262 22.4116 75.5204C22.2032 76.2707 22.1485 77.0961 22.2242 77.9218C22.2029 78.2374 22.2039 78.5497 22.2152 78.8603C22.1874 79.7477 22.1664 80.6705 22.2778 81.5634C22.1086 83.2505 23.1551 84.9319 24.5156 86.0242C24.6212 86.1261 24.7337 86.2106 24.8516 86.2774C25.0164 86.3934 25.1831 86.5045 25.353 86.6023C28.0269 88.1412 31.7046 88.3781 34.7072 88.8298C34.7574 88.8377 34.8087 88.8425 34.8589 88.85C36.1833 89.2052 37.541 89.467 38.8833 89.5256C41.3728 89.6347 43.9349 89.439 46.4319 89.4234C47.9689 89.4135 49.5254 89.3596 51.0863 89.2764C53.0758 89.5481 55.1076 89.5955 57.0902 89.6166C58.3561 89.6303 59.5271 89.2812 60.7697 89.2059C61.9444 89.1346 63.1302 89.1711 64.306 89.0685C66.5111 88.8748 68.6915 88.6174 70.832 88.028C72.7375 87.5027 74.7232 87.0759 76.1628 85.6284C77.6523 84.1307 77.8834 82.2701 77.7744 80.2689C77.7499 79.8264 77.6977 79.3921 77.6334 78.9609C77.7805 78.1815 77.8641 77.3944 77.8806 76.6273C77.9356 74.1053 77.2485 70.7688 75.78 68.3006L75.7773 68.2921C75.5452 67.6164 75.1958 67.0198 74.7672 66.4877C74.6314 66.2504 74.4636 66.0462 74.24 65.9068C72.5209 64.2104 69.9075 63.3107 67.6498 62.874C64.0763 62.1827 60.3817 62.2502 56.758 62.0743C52.69 61.8765 48.6171 62.0371 44.5453 62.048C40.2558 62.0596 35.8356 62.7462 31.653 63.6592C29.1112 64.2142 25.071 64.8223 23.8976 67.5356C23.8588 67.5711 23.8199 67.6062 23.7831 67.6468Z" fill="#442916"/>
<path d="M28.9733 25.0515C28.8884 24.6312 28.2501 24.833 28.3323 25.2496C28.4671 25.9345 28.5881 26.6235 28.7563 27.3012C28.9186 27.9551 29.2295 28.5677 29.3654 29.2226C29.4617 29.6872 30.1598 29.4619 30.0721 29.0044C29.9473 28.3516 29.6023 27.741 29.4249 27.0946C29.2398 26.4213 29.1119 25.7354 28.9733 25.0515Z" fill="#653C1C"/>
<path d="M32.4179 29.5877C32.0984 28.9247 31.8043 28.2814 31.6176 27.5678C31.5299 27.2331 30.9539 27.3203 31.0041 27.6735C31.1148 28.4515 31.469 29.164 31.7789 29.8785C31.9794 30.3408 32.6404 30.0497 32.4179 29.5877Z" fill="#653C1C"/>
<path d="M66.5583 48.9138C66.6064 47.1663 66.1504 45.4011 65.8402 43.6908C65.7827 43.3747 65.2308 43.4661 65.2755 43.7879C65.5148 45.518 65.8629 47.1885 65.9028 48.9415C65.9124 49.3628 66.5469 49.3291 66.5583 48.9138Z" fill="#653C1C"/>
<path d="M68.5794 48.8708L68.5948 48.8725C68.5969 48.0912 68.479 47.3143 68.4222 46.5363C68.3923 46.1221 67.755 46.1453 67.7702 46.5632C67.7977 47.3439 67.8589 48.1212 67.8641 48.9029C67.8671 49.374 68.5801 49.3205 68.5794 48.8708Z" fill="#653C1C"/>
</svg>
