<svg width="250" height="250" viewBox="0 0 250 250" fill="none" xmlns="http://www.w3.org/2000/svg">
<path fill-rule="evenodd" clip-rule="evenodd" d="M81.9161 183.071C32.9659 183.071 0.999992 136.486 0.999992 87.7378C0.999992 43.7399 37.7358 9.00001 81.9161 9.00001C121.275 9.00001 144.417 48.5415 144.417 87.7378C144.417 132.2 126.563 183.071 81.9161 183.071Z" fill="#FFFDFA"/>
<path fill-rule="evenodd" clip-rule="evenodd" d="M154.993 232.144C134.089 233.191 112.045 246.245 93.6112 236.262C75.1431 226.26 72.0787 201.419 63.0577 182.355C53.8684 162.936 34.9544 144.3 40.2307 123.455C45.5587 102.405 70.4058 93.9002 88.4571 82.0094C102.116 73.0117 117.848 70.0821 132.439 62.715C151.185 53.2499 165.914 27.7708 186.33 32.5915C206.408 37.3323 209.552 65.4492 219.958 83.3801C228.343 97.8283 237.12 111.395 241.441 127.555C246.251 145.544 251.387 164.163 246.351 182.089C240.923 201.406 230.083 220.709 212.573 230.303C195.356 239.736 174.569 231.163 154.993 232.144Z" fill="#FBEDD0"/>
<path d="M138.537 63.915C137.151 63.4793 135.647 63.3611 134.187 63.6463C133.021 63.874 131.87 64.0765 130.723 64.2672C129.863 64.0773 128.984 63.9347 128.11 63.8197C118.445 62.5536 108.651 62.7466 99.0716 64.3389C89.8644 63.176 80.662 61.9823 71.4572 60.8052C66.5676 60.1804 62.2398 66.37 63.8597 70.779C64.616 72.8362 65.5859 74.6325 66.6929 76.2918C66.5621 76.8086 66.4597 77.3389 66.3935 77.8794C65.5449 84.834 68.3805 90.9109 70.7182 97.2525C70.7536 97.3494 70.8119 97.5078 70.8836 97.7127C67.3689 103.478 63.8534 109.244 60.3386 115.011C57.0351 120.428 61.4062 126.446 67.1412 126.866C77.7697 127.644 88.5085 126.634 98.825 123.984C109.508 123.743 121.293 118.585 129.759 112.753C139.77 105.858 147.466 95.137 146.823 82.5105C146.757 81.2247 146.442 80.1043 145.947 79.1447C146.488 77.2759 147.005 75.3983 147.469 73.5027C149.036 67.1138 143.607 63.0893 138.537 63.915Z" fill="#B6C6BE"/>
<path d="M162.846 220.745C161.425 221.987 159.6 221.924 157.851 222.301C154.489 223.026 151.119 223.466 147.739 224.074C144.233 224.705 140.783 224.922 137.24 225.294C133.673 225.669 130.212 226.166 126.614 226.087C119.293 225.925 112.002 226.491 104.665 226.324C101.129 226.244 97.5399 225.726 94.0055 225.47C90.4159 225.209 86.6411 225.187 83.0988 224.567C79.4257 223.925 75.64 223.458 72.0685 222.409C70.429 221.928 68.8895 221.397 67.2987 220.77C66.7748 220.563 66.2367 220.381 65.7348 220.121C65.4756 219.987 63.9353 218.621 64.0251 218.591C64.1701 218.544 64.2709 218.45 64.3316 218.335C65.4937 218.511 66.6558 218.678 67.8132 218.86C70.2438 219.243 72.7114 219.422 75.1562 219.763C76.2049 219.909 77.2788 219.997 78.3211 220.177C79.5786 220.396 80.7667 220.825 82.0502 221.006C84.3563 221.332 86.6498 221.525 88.9796 221.532C91.7119 221.542 94.4246 221.308 97.1325 221.677C99.3008 221.971 101.393 222.1 103.573 222.202C106.125 222.321 108.486 222.829 111.051 222.769C115.849 222.659 120.759 223.28 125.528 222.393C125.613 222.402 125.696 222.418 125.781 222.424C128.296 222.599 130.882 222.383 133.404 222.358C138.548 222.309 143.84 222.61 148.914 221.624C150.242 221.365 151.564 221.094 152.885 220.823C154.317 220.842 155.75 220.818 157.122 220.582C159.576 220.162 161.937 219.382 164.375 218.878C163.937 219.547 163.477 220.195 162.846 220.745ZM50.5484 128.586C51.4198 127.479 51.9524 126.234 52.5551 124.954C53.3202 123.328 54.2901 121.789 55.2481 120.274C56.2148 118.746 56.9767 117.11 57.9868 115.605C59.0465 114.025 60.4804 112.684 61.3904 111.011C62.2413 109.447 62.7401 107.686 63.4602 106.058C64.2339 104.31 65.2298 102.694 66.087 100.989C66.9174 99.3365 67.7124 97.6527 68.4766 95.9675C68.8761 95.085 69.4567 92.7994 70.5676 92.6135L70.5913 92.604C70.5944 92.7719 70.7079 92.9436 70.9245 92.9483C71.6683 92.9664 72.4113 93.0035 73.1527 93.0476C74.2502 93.2595 75.3698 93.414 76.4602 93.5629C79.7346 94.0072 82.9602 95.0141 86.2669 95.1528C89.7383 95.2986 93.2239 95.0465 96.6764 94.7833C100.418 94.4981 104.3 94.8062 108.053 94.8054C111.479 94.8046 114.789 93.919 118.169 93.8914C121.491 93.8638 124.763 93.4557 128.051 93.0137C134.47 92.9428 140.89 92.8806 147.313 92.8869C147.421 93.908 148.18 94.6194 149.11 95.1757C150.502 97.5385 151.792 99.9675 153.337 102.241C155.425 105.312 157.371 108.481 159.598 111.453C161.803 114.397 164.285 117.182 166.266 120.285C167.767 122.639 169.175 125.125 171.026 127.239C170.757 127.29 170.487 127.336 170.211 127.353C169.332 127.409 168.427 127.339 167.545 127.331C165.564 127.311 163.667 127.736 161.679 127.695C159.835 127.657 158.155 127.785 156.349 128.13C154.337 128.514 152.221 128.549 150.176 128.712C146.101 129.039 141.909 128.775 137.823 128.776C135.992 128.776 134.145 128.716 132.327 128.972C130.166 129.277 128.068 129.672 125.882 129.809C121.984 130.054 118.101 130.318 114.188 130.489C110.084 130.668 105.963 130.57 101.857 130.57C93.3625 130.571 84.7306 131.075 76.2924 129.928C71.9157 129.334 67.5241 129.647 63.1206 129.579C60.9232 129.545 58.7274 129.362 56.5316 129.348C54.465 129.334 52.4291 129.57 50.5484 128.586ZM66.8788 84.1777C65.3598 81.1365 63.7895 78.137 62.4761 74.9989C61.2738 72.1255 59.8659 69.4404 58.2334 66.786C56.4969 63.9607 55.1315 61.0117 53.5274 58.128C53.3044 57.727 52.7159 56.9407 52.2526 56.1481C55.6381 56.2103 59.0284 56.1638 62.4107 56.3324C66.135 56.5168 69.8223 57.0904 73.556 57.1337C77.3694 57.1786 81.0898 57.5379 84.8724 58.0019C88.1294 58.4006 91.4764 59.0538 94.7681 58.8505C98.3088 58.6315 101.842 58.5574 105.388 58.4069C109.028 58.2517 112.639 57.8326 116.272 57.6033C123.467 57.1487 130.638 56.2111 137.841 55.6895C141.828 55.4012 145.823 55.309 149.816 55.4792C151.913 55.569 154.009 55.699 156.108 55.7321C156.921 55.7455 157.757 55.684 158.592 55.6446L158.57 55.669C158.194 56.2883 158.057 56.9367 157.727 57.5733C157.418 58.169 156.919 58.6362 156.628 59.2405C156.028 60.483 156.108 61.9823 155.856 63.3146C155.254 66.485 154.248 69.739 153.289 72.8172C152.334 75.8821 151.561 78.995 150.566 82.0488C149.59 85.0467 148.452 88.0123 147.584 91.0472C146.525 90.7754 145.465 90.4381 144.439 90.2333C142.94 89.9339 141.44 89.8827 139.915 89.889C136.582 89.9016 133.452 90.3499 130.174 90.8762C127.712 91.2709 125.144 91.6917 122.605 91.9146C118.273 91.9761 113.941 92.0328 109.607 92.0619C103.028 92.1061 96.4597 92.4457 89.877 92.4669C87.069 92.4756 84.261 92.5024 81.453 92.5315C80.4744 92.3716 79.4896 92.2203 78.4787 92.1116C76.8541 91.9375 75.2287 91.787 73.6041 91.6137C72.8974 91.538 72.1166 91.5703 71.4241 91.3521C70.971 91.2103 70.5936 90.9849 70.2021 90.7816C69.9649 90.0796 69.5513 89.4368 69.1999 88.7489C68.4222 87.2268 67.6422 85.7061 66.8788 84.1777ZM79.6889 54.7693C79.1413 53.816 78.9129 52.6223 78.3881 51.6256C77.6633 50.2445 77.0534 48.8484 76.4499 47.4129C75.562 45.3029 74.2951 43.5798 73.1275 41.6306C71.6092 39.0944 70.4424 36.3747 69.2511 33.677C67.9826 30.806 66.5605 28.0429 65.9254 24.9583C66.265 25.0434 66.6818 25.1301 67.1963 25.2167C68.6972 25.6178 70.2407 25.7304 71.792 25.7548C73.3079 25.8864 75.1279 26.0165 77.3339 26.1433C83.1248 26.475 90.2922 26.6979 98.0945 26.7972C99.2976 26.8721 100.499 26.9438 101.703 27.0092C102.85 27.0722 103.696 27.2779 104.645 26.8508C105.567 26.8548 106.492 26.8571 107.425 26.8571C118.789 26.8571 129.475 26.6034 137.514 26.1433C141.397 25.9203 144.104 25.6863 145.999 25.4523L146.083 25.461C146.185 25.5098 146.301 25.5406 146.436 25.5406C146.783 25.5382 147.13 25.5406 147.477 25.5469C147.588 25.5484 147.68 25.524 147.766 25.4925L147.777 25.4933C148.111 25.5027 148.308 25.3184 148.392 25.0789C148.549 25.0466 148.694 25.0143 148.828 24.9827C147.134 29.97 144.515 34.7154 142.48 39.5491C140.47 44.3228 139.048 49.2392 137.317 54.0909C137.284 54.1807 137.27 54.265 137.265 54.3462C135.053 54.5384 132.846 54.7685 130.629 54.9331C128.771 55.071 126.906 55.1152 125.048 55.2806C123.174 55.4477 121.337 55.8778 119.465 56.037C112.262 56.6484 105.058 56.8406 97.8408 57.181C96.1619 57.2598 94.4987 57.5285 92.8134 57.478C90.9422 57.4221 89.0568 57.1014 87.199 56.8816C84.6265 56.5767 82.0541 56.2111 79.4707 55.9889C79.7953 55.71 79.9623 55.2444 79.6889 54.7693ZM66.4092 23.7686C66.3115 23.8671 66.2461 23.9853 66.2233 24.1184C66.0035 24.068 65.8104 24.016 65.6639 23.9648C65.8506 23.8994 66.1035 23.834 66.4092 23.7686ZM80.881 22.5261C80.4555 22.5734 80.0301 22.6215 79.6046 22.6687C79.1082 22.6821 78.6174 22.7207 78.1336 22.7893C77.4505 22.7822 76.7682 22.7869 76.0859 22.7822C77.5569 22.6908 79.1579 22.6049 80.881 22.5261ZM130.26 25.4302C131.364 25.3822 132.467 25.3286 133.572 25.2814C134.163 25.2554 134.683 25.2734 135.175 25.2112C135.521 25.2482 135.868 25.2656 136.214 25.2924C133.908 25.4145 131.346 25.5232 128.559 25.6154C129.128 25.5705 129.695 25.5122 130.26 25.4302ZM115.093 25.7706C117.757 25.7935 120.434 25.6793 123.095 25.6627C123.834 25.6919 124.573 25.7068 125.31 25.7123C122.066 25.7998 118.567 25.8652 114.856 25.903C114.937 25.862 115.017 25.8203 115.093 25.7706ZM89.1182 22.2582C89.0308 22.248 88.9433 22.2441 88.8559 22.2354C90.3654 22.1929 91.9286 22.1543 93.5477 22.122C93.5162 22.2228 93.4973 22.3284 93.5028 22.4371L93.4658 22.5009L93.4248 22.5033C93.2806 22.3678 93.086 22.2725 92.8291 22.2693C91.682 22.2528 90.5356 22.2874 89.3901 22.3434C89.3121 22.3016 89.2238 22.2709 89.1182 22.2582ZM155.35 89.2965L154.849 90.7998C154.511 90.9195 154.162 91.0015 153.802 91.044C153.352 91.1133 152.878 91.1338 152.424 91.1212C151.902 91.1055 151.396 91.0031 150.889 90.9077C152.452 89.3651 154.6 87.7176 155.35 89.2965ZM55.9903 133.964C56.114 133.516 56.2337 133.068 56.348 132.618C56.5568 131.838 56.7522 131.116 56.9342 130.446C57.6622 130.456 58.3792 130.468 59.0646 130.515C63.3239 130.812 67.5682 130.78 71.8338 130.856C75.9032 130.927 79.9394 131.799 84.0222 131.941C88.3201 132.09 92.6227 131.981 96.9222 131.981C105.266 131.982 113.6 131.969 121.932 131.64C125.957 131.482 129.931 130.477 133.936 130.241C138.157 129.993 142.443 130.198 146.67 130.197C148.926 130.196 151.118 129.94 153.363 129.843C155.54 129.749 157.65 129.139 159.819 129.093C160.886 129.071 161.952 129.158 163.019 129.143C164.111 129.128 165.121 128.844 166.203 128.753C166.686 128.712 167.177 128.714 167.671 128.726C167.698 128.888 167.731 129.054 167.755 129.215C167.957 130.648 168.16 132.078 168.406 133.504C168.859 136.14 169.256 138.786 169.793 141.408C170.897 146.794 172.234 152.113 173.515 157.461C174.207 160.349 174.494 163.311 175.04 166.227C175.593 169.177 176.231 172.123 176.971 175.032C177.767 178.154 178.494 181.198 178.862 184.405C179.148 186.897 179.415 189.404 179.665 191.894C179.795 193.184 179.852 194.219 180.195 195.484C180.575 196.884 180.794 198.48 180.928 199.927C181.167 202.5 181.433 205.946 180.237 208.413C179.806 208.975 179.373 209.535 178.962 210.112C178.363 210.958 177.779 211.732 176.993 212.413C176.882 212.509 176.837 212.626 176.83 212.744C176.474 213.103 176.084 213.444 175.66 213.764C174.655 214.256 173.513 214.716 172.221 215.144C171.923 215.199 171.627 215.248 171.337 215.283C171.121 215.31 170.972 215.419 170.878 215.56C167.933 216.424 164.306 217.157 159.864 217.784C159.615 217.774 159.356 217.788 159.087 217.827L158.998 217.814C156.932 217.903 154.803 218.082 152.754 218.368C152.537 218.398 152.396 218.523 152.311 218.676C148.902 219.014 145.142 219.317 140.982 219.59C139.136 219.711 137.321 219.817 135.52 219.915C133.467 219.932 131.413 219.955 129.368 220.103C129.009 220.129 128.663 220.188 128.318 220.256C117.547 220.682 107.699 220.696 98.8367 220.389C97.7353 220.246 96.6354 220.093 95.5158 220.013C94.1465 219.917 92.7456 219.982 91.3511 220.042C87.4243 219.81 83.7291 219.512 80.2711 219.155C78.6796 218.881 77.0858 218.596 75.4635 218.37C71.7629 217.855 68.0803 217.384 64.3978 216.817C60.2228 215.968 56.7033 215.013 53.8709 213.989C53.2359 213.518 52.6276 213.015 51.9753 212.546C50.7446 211.662 49.5455 211.017 48.5795 209.795C46.6918 207.407 46.3703 203.84 46.0166 200.911C45.8558 199.584 45.5044 198.35 45.5273 196.997C45.5556 195.308 45.5415 193.615 45.6053 191.927C45.7321 188.547 46.453 185.164 46.8934 181.81C47.27 178.948 47.4292 176.129 47.6656 173.254C47.7979 171.64 47.7964 170.117 48.1879 168.531C48.5559 167.043 48.8182 165.532 49.1901 164.046C49.9725 160.918 50.654 157.782 51.6199 154.7C52.5851 151.62 52.8601 148.401 53.4336 145.23C53.7961 143.232 54.1703 141.263 54.6068 139.302C55.1 137.359 55.5656 135.572 55.9903 133.964ZM182.977 204.687C182.976 204.584 182.941 204.508 182.895 204.445C182.945 203.24 182.888 201.92 182.699 200.421C182.39 197.985 181.636 193.566 180.628 188.053C180.377 185.463 180.193 182.857 179.757 180.289C179.278 177.466 178.314 174.693 177.675 171.899C176.918 168.593 176.289 165.271 175.772 161.919C175.229 158.41 174.397 154.956 173.54 151.51C171.542 141.521 169.78 132.864 168.941 128.764C169.199 128.772 169.456 128.779 169.71 128.78C170.62 128.783 171.412 128.554 172.286 128.448C172.658 128.562 173.128 128.379 173.2 127.961C173.242 127.847 173.261 127.729 173.252 127.609L173.267 127.498C173.344 126.937 172.837 126.599 172.411 126.641C170.298 124.354 168.849 121.559 167.12 118.994C165.056 115.933 162.589 113.149 160.389 110.187C158.306 107.381 156.475 104.397 154.485 101.524C153.323 99.8438 152.328 98.0286 151.29 96.248C151.525 96.3583 151.746 96.4662 151.943 96.5749C155.053 98.2854 157.865 100.862 160.521 103.206C162.046 104.553 163.599 105.892 164.419 107.799C165.011 109.177 165.133 110.755 165.787 112.096C166.682 113.933 168.655 114.689 170.564 115.011C173.445 115.497 175.186 113.903 177.87 113.327C178.898 113.106 178.406 111.55 177.383 111.767C174.304 112.418 171.675 114.706 168.473 112.614C166.874 111.568 166.83 109.56 166.222 107.903C165.795 106.736 165.239 105.666 164.441 104.707C162.122 101.925 158.906 99.6973 156.095 97.4479C154.804 96.4142 153.496 95.5617 152.024 94.7998C151.395 94.4729 150.257 94.1632 149.746 93.6558L149.57 93.4739C149.51 93.3864 149.448 93.3013 149.388 93.2138C149.537 93.2328 149.685 93.2635 149.835 93.2753C150.066 93.2942 150.234 93.2233 150.368 93.1201C152.881 93.5101 155.325 94.3326 157.876 94.45C160.706 94.58 163.631 93.659 166.373 93.0728C170.11 92.2731 173.316 91.4742 176.659 93.8087C177.934 94.699 179.145 95.6602 180.179 96.8263C180.708 97.4235 180.932 97.7969 181.731 98.0231C182.707 98.3004 183.063 96.7593 182.086 96.4875C181.255 96.255 180.009 94.4114 179.347 93.8804C178.392 93.1146 177.375 92.3511 176.315 91.7373C173.97 90.3798 171.514 90.5075 168.917 91.0172C165.561 91.6759 162.047 92.9838 158.62 93.0988C156.617 93.1658 154.643 92.7096 152.665 92.303C154.986 92.1998 157.738 91.5018 156.396 88.9404C154.804 85.9031 151.504 88.6654 149.584 90.7533C149.353 90.7502 149.133 90.7722 148.919 90.8076C150.864 85.1341 152.591 79.4086 154.436 73.706C155.435 70.6214 156.405 67.3982 157.105 64.2349C157.405 62.8742 157.294 61.1803 157.875 59.9157C158.152 59.3098 158.659 58.8347 158.977 58.2501C159.227 57.7916 159.369 57.2976 159.578 56.8248L159.597 56.8012C159.673 56.65 159.748 56.4995 159.824 56.3482C159.966 56.0653 159.911 55.8109 159.769 55.6218C159.903 55.6226 160.039 55.6178 160.172 55.6225C160.261 55.3751 160.357 55.1302 160.47 54.8883C160.549 54.7189 160.659 54.5747 160.782 54.4423L160.825 54.2414C159.917 54.1713 159.008 54.2343 158.082 54.2808C156.356 54.3683 154.623 54.28 152.898 54.2028C149.087 54.0326 145.301 53.8995 141.487 54.0563C140.761 54.0862 140.039 54.135 139.316 54.1855C141.112 49.0115 142.619 43.776 144.696 38.669C146.622 33.9299 148.997 29.2223 150.343 24.265L150.396 24.0798C150.437 23.923 150.487 23.7694 150.527 23.6126C150.694 22.9461 149.822 22.6735 149.467 23.1265C148.165 22.6916 145.038 22.2165 137.514 21.7863C129.476 21.3254 118.79 21.0717 107.425 21.0717C96.0587 21.0717 85.3719 21.3254 77.3339 21.7863C64.449 22.5238 64.449 23.3912 64.449 23.9648C64.449 24.1121 64.4506 24.2784 64.668 24.4572L64.6656 24.4761C64.8374 27.6213 66.1382 30.4034 67.3318 33.2752C68.4356 35.9288 69.515 38.5768 70.8316 41.1343C72.171 43.7382 73.8688 45.9868 74.9766 48.7231C75.4155 49.8057 75.8622 50.8795 76.3822 51.9258C77.0101 53.1912 77.3647 54.5834 78.0509 55.7935L78.1266 55.9007C77.6136 55.8684 77.0999 55.8266 76.5854 55.8101C72.405 55.6761 68.2725 55.4729 64.0968 55.2168C59.8013 54.9537 55.5018 55.2247 51.2063 55.3602C50.9022 55.3697 50.7997 55.6486 50.877 55.8676C50.7525 55.8747 50.6296 55.881 50.5059 55.8881C51.0968 57.2409 52.1943 58.6141 52.6213 59.4477C53.5172 61.1984 54.2735 62.9766 55.282 64.673C56.311 66.4031 57.4156 68.0876 58.4304 69.8264C60.4197 73.2379 61.7229 76.9764 63.4948 80.4991C64.3836 82.2639 65.3085 84.0106 66.2107 85.7684C66.6818 86.6855 67.1585 87.5986 67.647 88.5071C68.0078 89.176 68.6192 90.0245 68.9816 90.8526C68.9808 90.94 69.0108 91.0243 69.0825 91.0913C69.1896 91.3765 69.2621 91.657 69.2755 91.9233C69.2842 92.1124 69.3661 92.2463 69.4811 92.3322C68.1614 93.3312 67.3405 95.8122 66.7362 96.9775C64.8374 100.644 62.6975 104.195 61.1722 108.039C59.7635 111.589 56.9712 114.167 55.1662 117.518C54.2223 119.273 53.1311 120.934 52.1596 122.674C51.1945 124.405 50.5894 126.417 49.2721 127.923C48.7552 128.514 49.4391 129.308 50.0269 129.094C51.6704 130.165 53.6842 130.366 55.6909 130.422C55.3033 131.886 54.8605 133.337 54.4067 134.789C53.4258 137.933 52.7647 141.053 52.177 144.289C51.8847 145.902 51.6751 147.551 51.4151 149.189C51.007 150.929 50.5973 152.723 50.1907 154.553C49.224 157.679 48.4842 160.854 47.7247 164.034C47.3678 165.527 47.0833 167.033 46.7201 168.525C46.3325 170.116 46.3806 171.618 46.2379 173.232C46.115 174.628 45.9984 176.017 45.8771 177.404C45.3413 181.035 44.9049 184.589 44.6141 187.963C44.3786 189.622 44.1847 191.284 44.1556 192.981C44.1319 194.329 44.1548 195.631 44.2107 196.928C44.2548 204.759 45.5942 210.635 49.0184 212.622C49.1271 212.733 49.2358 212.842 49.3367 212.951C50.6784 214.4 52.177 215.163 54.0183 215.893C54.1262 215.935 54.2365 215.969 54.3444 216.01L54.5099 216.114C54.6344 216.182 54.7517 216.2 54.8644 216.197C57.4912 217.136 60.2307 217.685 62.9961 218.126C62.5336 219.95 64.1685 221.089 65.6497 221.841C68.397 223.236 71.3579 224.326 74.3833 224.924C82.1565 226.459 89.9668 226.907 97.8558 227.528C102.065 227.859 106.177 228.139 110.404 228.218C114.588 228.297 118.72 227.808 122.891 227.821C127.055 227.835 131.018 227.861 135.161 227.359C139.193 226.872 143.272 226.854 147.247 226.027C149.467 225.566 151.739 225.38 153.973 224.995C155.987 224.649 157.954 224.103 159.971 223.786C161.498 223.546 162.712 223.22 163.924 222.206C165.231 221.113 165.888 219.825 166.809 218.493L166.826 218.463C168.691 218.216 170.576 218.004 172.299 217.228C173.461 216.705 174.535 216.194 175.534 215.574C179.796 213.721 183.026 209.452 182.977 204.687Z" fill="#653C1C"/>
<path d="M160.795 161.421C161.045 161.603 161.29 161.796 161.527 161.997L161.554 162.02C161.772 162.205 161.982 162.403 162.188 162.606C162.417 162.835 162.638 163.073 162.851 163.324L162.894 163.372C163.115 163.634 163.326 163.908 163.527 164.199C163.993 164.875 163.012 165.467 162.473 164.973C162.2 164.872 161.938 164.755 161.68 164.631C161.438 164.513 161.2 164.387 160.967 164.254L160.87 164.202L160.703 164.106C159.882 163.618 159.102 163.062 158.294 162.543C158.091 162.412 157.886 162.285 157.678 162.162C157.107 161.823 156.516 161.517 155.874 161.281C153.014 160.232 150.093 159.789 147.088 159.389C143.732 158.943 140.393 158.317 137.013 158.09C133.776 157.873 130.543 158.263 127.318 157.869L127.267 157.853C126.62 157.951 126.152 156.993 126.826 156.618C128.966 155.429 131.482 155.811 133.815 156.115C137.188 156.185 140.567 156.618 143.927 157.093C144.765 157.167 145.602 157.242 146.439 157.331C150.287 157.735 154.478 158.24 158.036 159.864C159.013 160.285 159.938 160.799 160.795 161.421ZM60.4024 165.59C60.5545 165.61 60.7042 165.649 60.8554 165.68C61.0051 165.71 61.1556 165.736 61.3037 165.776C61.4936 165.828 61.6811 165.892 61.8695 165.958C61.9742 165.994 62.0798 166.026 62.1838 166.067C62.3753 166.14 62.5651 166.223 62.755 166.307C62.863 166.356 62.9709 166.401 63.0781 166.453C64.1496 166.961 65.1785 167.595 66.1634 168.134C69.0612 169.722 72.2111 171.11 75.4091 172.092L75.6132 172.155L75.7188 172.188C76.2892 172.357 76.8612 172.519 77.4348 172.66C77.9351 172.784 78.4377 172.897 78.9428 173.004C79.1271 173.043 79.3115 173.078 79.4967 173.114C79.6692 173.149 79.8425 173.18 80.0159 173.213C80.0907 173.227 80.164 173.242 80.2388 173.255C80.3413 173.274 80.4429 173.295 80.5461 173.313C80.9471 173.384 81.3497 173.447 81.7524 173.508L81.8351 173.522L82.0313 173.553L82.1573 173.571C82.545 173.628 82.9342 173.677 83.3242 173.725C83.4747 173.744 83.6251 173.764 83.7764 173.781C84.157 173.825 84.5383 173.864 84.9204 173.901C85.0803 173.917 85.2403 173.934 85.401 173.948C85.7784 173.982 86.1566 174.012 86.5348 174.04C86.6994 174.053 86.8649 174.065 87.0304 174.077C87.4054 174.102 87.7812 174.124 88.157 174.145C88.3256 174.154 88.4942 174.163 88.6628 174.171L88.8275 174.18H88.833C89.1529 174.195 89.4736 174.208 89.795 174.22C89.9605 174.226 90.1267 174.231 90.293 174.237C90.664 174.249 91.0343 174.259 91.4054 174.268L91.5433 174.272C91.6694 174.274 91.7962 174.275 91.9223 174.278C92.3076 174.285 92.6936 174.291 93.0797 174.295C93.2349 174.297 93.3901 174.298 93.5453 174.299C93.7494 174.301 93.9526 174.304 94.1567 174.305H94.1591C94.3505 174.306 94.5412 174.305 94.7319 174.306H95.1408C95.5654 174.306 95.9893 174.305 96.4132 174.304L96.6015 174.302C97.2996 174.298 97.9984 174.294 98.6949 174.288C100.439 174.274 102.178 174.26 103.906 174.267C104.077 174.268 104.249 174.268 104.42 174.268C105.155 174.274 105.888 174.29 106.623 174.303C108.036 174.327 109.449 174.357 110.862 174.398H110.864C111.233 174.408 111.604 174.417 111.973 174.427C113.132 174.461 114.291 174.495 115.45 174.527C115.855 174.538 116.261 174.545 116.666 174.555C117.349 174.573 118.033 174.591 118.716 174.604L118.716 174.606C119.01 174.611 119.304 174.616 119.598 174.62C121.209 174.518 122.817 174.395 124.422 174.254C124.615 174.237 124.806 174.219 124.998 174.201C125.529 174.153 126.06 174.103 126.591 174.049C126.982 174.01 127.373 173.969 127.764 173.927C128.058 173.896 128.351 173.863 128.644 173.83C129.196 173.767 129.748 173.703 130.298 173.635L130.457 173.614C132.812 173.321 135.159 172.97 137.493 172.55L137.522 172.545C138.203 172.422 138.885 172.296 139.565 172.162L139.564 172.154C139.72 172.123 139.877 172.095 140.033 172.064L140.024 172.053C140.913 171.872 141.801 171.682 142.688 171.479L142.691 171.494C143.87 171.224 145.044 170.929 146.216 170.617L146.213 170.621C147.014 170.408 147.813 170.184 148.611 169.951C148.953 169.851 149.293 169.744 149.635 169.64C150.253 169.451 150.871 169.258 151.487 169.057C151.792 168.957 152.099 168.856 152.405 168.752C153.313 168.445 154.22 168.128 155.123 167.79C155.278 167.731 155.41 167.744 155.526 167.786C155.694 167.681 155.867 167.582 156.033 167.475C156.759 166.999 157.431 168.164 156.71 168.634C156.217 168.957 155.711 169.265 155.194 169.559C154.988 169.677 154.773 169.783 154.563 169.896L154.412 169.976C152.951 170.754 151.413 171.43 149.824 172.017C149.708 172.06 149.592 172.101 149.475 172.143C148.766 172.398 148.049 172.636 147.324 172.858C147.222 172.889 147.12 172.923 147.017 172.953C146.265 173.179 145.505 173.384 144.742 173.577C144.525 173.633 144.307 173.685 144.089 173.737C142.514 174.116 140.928 174.437 139.351 174.703C138.523 174.843 137.698 174.966 136.879 175.081C136.729 175.103 136.578 175.123 136.429 175.144C135.611 175.254 134.798 175.356 133.998 175.445C132.821 175.576 131.642 175.678 130.463 175.757C130.183 175.776 129.904 175.782 129.623 175.798C129.505 175.804 129.387 175.808 129.269 175.815C128.484 175.857 127.699 175.903 126.914 175.928C126.641 175.936 126.368 175.936 126.095 175.942C125.974 175.945 125.853 175.946 125.733 175.948C124.941 175.965 124.15 175.984 123.358 175.988C123.145 175.988 122.932 175.984 122.72 175.984C122.516 175.984 122.312 175.98 122.108 175.98C121.328 175.977 120.548 175.977 119.768 175.964C118.395 176.051 117.02 176.127 115.645 176.192C114.167 176.261 112.688 176.321 111.206 176.367C110.453 176.393 109.698 176.412 108.944 176.432C107.16 176.477 105.374 176.519 103.588 176.545C102.379 176.562 101.155 176.571 99.9232 176.571C99.6411 176.571 99.3559 176.569 99.0723 176.568C98.115 176.565 97.153 176.556 96.1879 176.538C95.701 176.529 95.2148 176.521 94.7264 176.508C94.4222 176.5 94.1181 176.491 93.8132 176.481C93.06 176.456 92.3052 176.423 91.5504 176.385C91.3022 176.373 91.0548 176.363 90.8074 176.349C89.8809 176.297 88.9536 176.234 88.027 176.16C87.8734 176.148 87.719 176.134 87.5653 176.121C86.6309 176.042 85.6972 175.951 84.766 175.844C84.528 175.817 84.2925 175.783 84.0553 175.754C83.3218 175.664 82.5891 175.567 81.8595 175.458C81.4876 175.402 81.1173 175.34 80.747 175.278C80.1624 175.183 79.5802 175.08 78.9995 174.97C78.4566 174.868 77.9146 174.764 77.3757 174.648C77.0865 174.586 76.7989 174.518 76.5106 174.451C75.9496 174.324 75.3902 174.19 74.8348 174.047C74.496 173.96 74.1596 173.863 73.8224 173.77C70.67 172.896 67.6099 171.768 64.7082 170.298L64.5798 170.234C63.8124 169.842 63.0552 169.428 62.3114 168.988L62.2973 168.993C61.1998 168.346 60.1274 167.646 59.0859 166.885H59.0851L58.9653 166.891L58.937 166.889H58.9393C58.5548 166.921 58.3547 166.659 58.3342 166.36L58.335 166.342L58.3516 166.134L58.391 166.031L58.4359 165.915L58.543 165.784L58.5887 165.729C58.6502 165.674 58.7234 165.629 58.8077 165.599C58.9779 165.436 59.2182 165.383 59.4703 165.533C59.7847 165.526 60.0951 165.549 60.4024 165.59ZM71.1877 159.925C71.4178 159.259 72.5405 159.309 72.4814 160.103C72.4577 160.424 72.4688 160.722 72.4932 161.012C72.4995 161.097 72.5019 161.186 72.5121 161.269L72.5145 161.275L72.5153 161.287L72.5562 161.376C72.6524 161.632 72.7658 161.876 72.8903 162.109L72.9998 162.31C73.1416 162.553 73.2968 162.784 73.4662 163.003L73.6065 163.17L73.6648 163.24L73.6467 163.242L73.7735 163.37C73.8791 163.489 73.9925 163.601 74.1068 163.712L74.2163 163.821C74.3219 163.92 74.4337 164.013 74.5464 164.106C74.6504 164.193 74.7576 164.279 74.8671 164.361L74.9065 164.392L74.96 164.437H74.9624C75.0373 164.492 75.1137 164.546 75.1909 164.6C75.3816 164.731 75.5777 164.856 75.7787 164.977C75.8905 165.043 76.0048 165.106 76.1182 165.169C76.2656 165.251 76.4145 165.33 76.5657 165.407C76.665 165.458 76.7627 165.51 76.8643 165.558C77.0999 165.672 77.3394 165.779 77.5813 165.882C77.6774 165.923 77.7736 165.963 77.8697 166.003C78.095 166.096 78.3219 166.186 78.5504 166.272L78.6709 166.319C78.9625 166.428 79.2556 166.531 79.5487 166.633L79.6582 166.671V166.672L79.7086 166.688C79.9174 166.76 80.1262 166.83 80.3334 166.899L80.3326 166.9L80.5382 166.968L80.5516 166.972L80.5524 166.973L80.5713 166.977H80.5721C80.7541 167.018 80.9322 167.054 81.1126 167.092C81.631 167.203 82.1416 167.308 82.6316 167.409L82.63 167.411C83.3691 167.562 84.0679 167.709 84.6801 167.866C85.5184 168.081 85.1607 169.376 84.3232 169.161C83.7701 169.019 83.1682 168.882 82.5394 168.743C82.396 168.874 82.1999 168.941 81.9533 168.855C81.2631 168.615 80.5382 168.373 79.8079 168.121L79.7929 168.117C79.3351 168.005 78.8758 167.882 78.4204 167.751C78.0903 167.657 77.7625 167.559 77.4387 167.452L77.2733 167.396C76.9487 167.286 76.6296 167.17 76.3176 167.046L76.1852 166.995C75.8559 166.861 75.5376 166.716 75.2271 166.562L75.0286 166.462C74.7205 166.302 74.4203 166.134 74.1367 165.952L74.0453 165.888C73.7853 165.716 73.5395 165.531 73.3063 165.337L73.1645 165.219C72.9494 165.031 72.754 164.826 72.5673 164.615C72.4861 164.522 72.4097 164.428 72.334 164.331C72.1954 164.154 72.0693 163.966 71.9527 163.772C71.8857 163.661 71.8148 163.553 71.7557 163.437C71.7092 163.348 71.6675 163.255 71.6265 163.162C71.5485 162.988 71.4816 162.806 71.4217 162.619C71.3925 162.531 71.3594 162.445 71.335 162.353C71.257 162.063 71.194 161.761 71.1593 161.439C71.1302 161.342 71.1002 161.244 71.0719 161.146C71.0238 160.961 70.9679 160.783 70.9332 160.587V160.567L70.9324 160.568C70.8899 160.288 71.0088 160.068 71.1877 159.925ZM52.667 165.784C49.2649 169.619 49.8149 177.418 49.6156 182.239C49.5927 182.8 49.5604 183.383 49.525 183.981C49.0475 185.715 48.9222 187.622 49.0956 189.53C49.0467 190.26 49.0491 190.982 49.0751 191.699C49.0113 193.75 48.9632 195.883 49.2185 197.947C48.8308 201.846 51.2283 205.732 54.3452 208.256C54.5871 208.492 54.8447 208.687 55.115 208.841C55.4924 209.109 55.8745 209.366 56.2637 209.592C62.3894 213.149 70.815 213.696 77.694 214.74C77.809 214.758 77.9264 214.769 78.0414 214.787C81.0756 215.608 84.1861 216.213 87.2612 216.348C92.9647 216.6 98.8343 216.148 104.555 216.112C108.076 216.089 111.642 215.965 115.218 215.772C119.776 216.4 124.431 216.51 128.973 216.559C131.873 216.59 134.556 215.783 137.403 215.609C140.094 215.445 142.811 215.529 145.504 215.292C150.556 214.844 155.551 214.249 160.455 212.887C164.821 211.673 169.37 210.687 172.668 207.341C176.08 203.88 176.61 199.58 176.36 194.955C176.304 193.932 176.184 192.929 176.037 191.932C176.374 190.131 176.566 188.312 176.604 186.539C176.73 180.71 175.155 172.999 171.791 167.295L171.785 167.275C171.253 165.714 170.453 164.335 169.471 163.105C169.16 162.557 168.775 162.085 168.263 161.762C164.324 157.842 158.337 155.763 153.165 154.753C144.978 153.156 136.514 153.312 128.212 152.905C118.892 152.448 109.561 152.819 100.233 152.844C90.4056 152.871 80.279 154.458 70.6968 156.568C64.8736 157.851 55.6176 159.256 52.9294 165.527C52.8403 165.609 52.7513 165.69 52.667 165.784Z" fill="#442916"/>
<path d="M64.5577 67.3415C64.3631 66.37 62.9008 66.8364 63.0891 67.7992C63.3979 69.3821 63.6753 70.9744 64.0605 72.5407C64.4324 74.0518 65.1447 75.4676 65.4559 76.9812C65.6765 78.055 67.2759 77.5343 67.075 76.4769C66.789 74.9682 65.9987 73.557 65.5922 72.0632C65.1683 70.5071 64.8752 68.922 64.5577 67.3415Z" fill="#653C1C"/>
<path d="M72.4491 77.825C71.7171 76.2926 71.0435 74.8058 70.6157 73.1568C70.4148 72.3831 69.0951 72.5848 69.2101 73.401C69.4638 75.1989 70.2753 76.8456 70.9852 78.497C71.4445 79.5654 72.9588 78.8926 72.4491 77.825Z" fill="#653C1C"/>
<path d="M150.664 122.49C150.775 118.451 149.73 114.372 149.019 110.419C148.888 109.688 147.623 109.9 147.725 110.643C148.274 114.642 149.071 118.502 149.163 122.554C149.185 123.528 150.638 123.45 150.664 122.49Z" fill="#653C1C"/>
<path d="M155.295 122.391L155.33 122.394C155.335 120.589 155.065 118.793 154.935 116.995C154.866 116.038 153.406 116.091 153.441 117.057C153.504 118.862 153.644 120.658 153.656 122.465C153.663 123.553 155.296 123.43 155.295 122.391Z" fill="#653C1C"/>
</svg>
