<svg width="100" height="100" viewBox="0 0 100 100" fill="none" xmlns="http://www.w3.org/2000/svg">
<path fill-rule="evenodd" clip-rule="evenodd" d="M40.679 75.9985C22.1197 75.9985 9.99995 58.3359 9.99995 39.8532C9.99995 23.1715 23.9282 10 40.679 10C55.6018 10 64.3761 24.992 64.3761 39.8532C64.3761 56.7111 57.6068 75.9985 40.679 75.9985Z" fill="#FFFDFA"/>
<path fill-rule="evenodd" clip-rule="evenodd" d="M72.5773 19.8578C91.1366 19.8578 90.1439 25.9564 90.1439 44.4392C90.1439 61.1209 76.2157 74.2924 59.4648 74.2924C44.5421 74.2924 48.8802 70.8643 48.8802 56.0032C48.8802 39.1453 55.6495 19.8578 72.5773 19.8578Z" fill="#AEBEB6"/>
<path fill-rule="evenodd" clip-rule="evenodd" d="M53.7635 87.8807C48.1159 88.1632 42.1603 91.6846 37.1802 88.9915C32.1907 86.2934 31.3628 79.5922 28.9256 74.4495C26.443 69.2108 21.3331 64.1834 22.7586 58.5601C24.198 52.8817 30.9109 50.5873 35.7877 47.3796C39.478 44.9523 43.7282 44.162 47.6701 42.1747C52.7346 39.6213 56.7139 32.7479 62.2297 34.0484C67.6541 35.3273 68.5036 42.9122 71.3149 47.7494C73.5802 51.647 75.9515 55.3069 77.1187 59.6661C78.4182 64.5191 79.8059 69.5418 78.4452 74.3777C76.9789 79.5888 74.0502 84.7959 69.3195 87.384C64.6681 89.9287 59.0522 87.6162 53.7635 87.8807Z" fill="#FBEDD0"/>
<g clip-path="url(#clip0_227_1371)">
<path d="M44.9633 52.0917C45.6728 52.0182 46.3801 51.935 47.0892 51.8868C46.9549 51.8877 46.8232 51.8853 46.6855 51.8902C46.1011 51.9113 45.5263 51.981 44.9633 52.0917Z" fill="#442916"/>
<path d="M66.9771 65.4157C66.958 65.4106 66.9386 65.4072 66.9198 65.4081L66.8872 65.4136L66.9234 65.3842L66.9771 65.4157ZM64.0525 71.8991C63.7859 72.0916 63.5091 72.2257 63.2209 72.3808C62.8698 72.5695 62.585 72.7922 62.207 72.9381C61.5343 73.1975 60.7636 73.3834 60.1373 73.7356C59.7772 73.9384 59.4933 74.0678 59.0784 74.1377C58.7511 74.1926 58.4262 74.2546 58.1029 74.3321C57.2636 74.5336 56.4593 74.8481 55.6117 75.0217C53.9446 75.3626 52.2069 75.4636 50.5132 75.5978C48.7889 75.7345 47.0496 75.6885 45.3304 75.5053C43.5908 75.3203 41.8451 75.1435 40.1221 74.8373C39.3767 74.7048 38.6126 74.6707 37.8843 74.4531C37.0787 74.2124 36.3156 73.8229 35.5266 73.531C34.402 73.1149 33.3399 72.5058 32.332 71.823C32.3199 71.7973 32.3022 71.7732 32.2713 71.7555C32.1478 71.6846 32.0273 71.6086 31.9084 71.5302C31.7293 71.4037 31.5524 71.2755 31.3767 71.1458C31.0775 70.9122 30.791 70.6596 30.5153 70.3943C30.1686 70.0365 29.8282 69.6762 29.4924 69.3129L29.4611 69.2967L29.4507 69.2852L29.4302 69.2709L29.4004 69.2394C29.3708 69.2326 29.3421 69.2207 29.3171 69.1956C29.1747 69.0518 29.0531 68.9057 28.9411 68.7581C28.8991 68.7032 28.8578 68.6482 28.8199 68.5927L28.8035 68.5684C28.7683 68.516 28.737 68.4625 28.7055 68.4091C28.6757 68.3593 28.6474 68.3088 28.6201 68.2583L28.6203 68.2581L28.6199 68.2577C28.6091 68.2377 28.5965 68.2183 28.5861 68.198C28.539 68.1037 28.4945 68.0083 28.4574 67.9101L28.4457 67.8937C28.3414 67.7583 28.279 67.6169 28.2509 67.4719L28.197 67.4619C28.1944 67.1117 28.1816 66.8044 28.408 66.5093C28.556 66.3161 28.7115 66.124 28.8825 65.9498C29.3374 65.4871 29.8915 65.1593 30.4105 64.7871C30.5802 64.6653 30.7348 64.5481 30.8892 64.4395C31.3081 64.2485 31.7453 64.1124 32.1804 63.9678C32.3929 63.8545 32.6059 63.7423 32.821 63.6333C32.8981 63.5943 32.9713 63.613 33.0231 63.6567H33.0241C33.0953 63.6388 33.166 63.6252 33.2364 63.6145C33.2601 63.6533 33.2846 63.6916 33.3097 63.7295C33.272 63.7074 33.2307 63.6959 33.1898 63.6963L33.2209 63.7363C33.246 63.7866 33.2712 63.8369 33.2963 63.8871C33.3348 63.9644 33.3216 64.0671 33.2492 64.1205L33.2309 64.1363C33.0995 64.2044 32.9654 64.2687 32.8306 64.3309C32.8029 64.3435 32.775 64.3554 32.7475 64.368C32.6316 64.4201 32.5152 64.4717 32.3974 64.5215V64.5217C32.3522 64.5409 32.3069 64.5596 32.2613 64.5788V64.578C31.95 64.7076 31.6363 64.8344 31.3264 64.9672L31.3002 64.9785C31.1844 65.0286 31.0689 65.0788 30.9546 65.1314C30.8824 65.1644 30.8115 65.2 30.7399 65.2347L30.7284 65.2349C30.6752 65.2607 30.6239 65.2897 30.5713 65.3165L30.5621 65.3208L30.5619 65.3212C30.5389 65.3329 30.5159 65.3448 30.4931 65.357L30.4933 65.3565L30.4857 65.3608C30.4043 65.4034 30.3234 65.447 30.2439 65.4928C30.1364 65.5535 30.0301 65.6165 29.9271 65.6847C29.8642 65.7262 29.8067 65.7682 29.752 65.8106L29.7007 65.8529C29.6655 65.8817 29.6315 65.9109 29.6 65.94L29.5482 65.9899C29.5205 66.0176 29.4943 66.0452 29.4696 66.0729L29.4251 66.1243C29.4013 66.1534 29.3795 66.1828 29.3587 66.212L29.3254 66.2588C29.299 66.2995 29.2752 66.3404 29.2543 66.3815L29.2462 66.396C29.2241 66.4405 29.2058 66.4854 29.1898 66.5304L29.1762 66.5749C29.1693 66.5972 29.1613 66.6196 29.1557 66.6419L29.1587 66.6396C29.1008 66.8745 29.1197 67.1126 29.196 67.3483C29.0571 67.7242 29.4264 68.0434 29.6958 68.2792C30.195 68.716 30.7744 69.0659 31.2794 69.4922C31.6493 69.8046 32.039 69.9603 32.4487 70.1015C32.667 70.2429 32.8868 70.3822 33.1095 70.5163C33.1381 70.5293 33.1675 70.54 33.1953 70.5536L33.2249 70.5617C33.2603 70.5642 33.2954 70.5657 33.3306 70.5674C33.3983 70.5909 33.4675 70.6107 33.5371 70.6294C33.6296 70.6777 33.7392 70.7061 33.8468 70.7323C33.9032 70.7508 33.9599 70.7693 34.0161 70.7885L34.0655 70.7945L34.0719 70.7966C34.0943 70.8051 34.1151 70.8064 34.1364 70.8087L34.126 70.8513C35.6912 71.2325 37.2889 71.5481 38.9073 71.8003L38.9108 71.8011L38.9159 71.8015C42.0204 72.2847 45.2031 72.5305 48.3898 72.5305C50.4385 72.5305 52.4886 72.4298 54.5205 72.2264C54.9611 72.1714 55.4015 72.1197 55.8417 72.0679C58.2732 71.7824 60.7687 71.4866 63.1698 70.606C63.6434 70.4537 64.1156 70.2944 64.5745 70.1021C64.7936 70.0106 64.9928 69.9026 65.1276 69.7348L65.1851 69.7052L65.1702 69.6773L65.1946 69.636C65.2988 69.6029 65.404 69.5733 65.5073 69.5386C65.7098 69.4292 65.911 69.3174 66.1087 69.1994L66.1366 69.164C66.2724 69.0535 66.4194 68.9451 66.5672 68.8344C66.9726 68.2308 67.386 67.537 67.3021 66.9305C67.1522 66.7135 66.9616 66.4609 66.8721 66.2075C66.8417 66.1826 66.8106 66.1577 66.7763 66.1336C66.6949 66.0763 66.6594 65.9754 66.7109 65.8845C66.8019 65.7239 66.7893 65.7301 66.9279 65.6214L66.9435 65.6131C66.9933 65.5569 67.0695 65.5326 67.1485 65.5931L67.1726 65.6125C67.2144 65.6027 67.2591 65.6057 67.2993 65.6308C67.4303 65.7126 67.5423 65.8242 67.6379 65.9543L67.6341 65.9573C67.6592 65.9873 67.6795 66.0182 67.7022 66.0484C67.7893 66.1864 67.8603 66.3402 67.9133 66.5016C67.9753 66.6449 68.0112 66.7889 68.0272 66.9329L68.0274 66.9435C68.0317 66.9846 68.0347 67.0259 68.0362 67.0668C68.0372 67.113 68.0377 67.1592 68.0345 67.2052C68.037 67.3119 68.0349 67.4165 68.0225 67.5138C68.0087 67.6241 67.9806 67.7278 67.9437 67.8273C67.9263 67.875 67.9067 67.9214 67.885 67.9666L67.8762 67.9857L67.8769 67.9855L67.8739 67.9925L67.8713 67.9981C67.8417 68.0564 67.8079 68.1124 67.7719 68.1674L67.7527 68.1968C67.7176 68.2481 67.6801 68.2981 67.6403 68.3471L67.613 68.3795C67.5708 68.4295 67.5274 68.4785 67.4814 68.5258C67.4013 68.6384 67.3151 68.7503 67.2244 68.8606L67.2684 68.8397C66.3674 69.9861 65.2308 71.0485 64.0525 71.8991ZM64.5577 66.9861L64.5415 66.9925L64.557 66.984L64.5577 66.9861ZM51.1308 72.201L51.1606 72.2494C50.9892 72.2571 50.8182 72.2673 50.6467 72.2735C50.8084 72.2511 50.9698 72.2283 51.1308 72.201ZM45.5476 72.2345C45.5939 72.2413 45.6403 72.2475 45.6867 72.2539C45.635 72.2517 45.5828 72.2507 45.5308 72.2483L45.5476 72.2345ZM37.3998 71.303C37.538 71.3222 37.6703 71.359 37.801 71.3988C37.5802 71.3601 37.3606 71.3175 37.1406 71.2762C37.2269 71.2832 37.3131 71.2909 37.3998 71.303ZM34.3768 70.6858C34.4671 70.7056 34.557 70.7276 34.6465 70.7504C34.5566 70.7293 34.4661 70.7093 34.3762 70.6878L34.3768 70.6858ZM32.3175 64.6808L32.2771 64.6702L32.2724 64.67L32.272 64.6665C32.2947 64.6563 32.3175 64.6457 32.3403 64.6354L32.3175 64.6808ZM41.6526 46.4949C41.4124 46.5058 41.172 46.5075 40.9315 46.5086C41.5255 46.4349 42.136 46.3708 42.7615 46.3175C42.3924 46.3946 42.0221 46.4783 41.6526 46.4949ZM57.8925 47.2222L57.8544 47.212L57.8933 47.2209L57.8925 47.2222ZM60.6152 53.5087L60.6083 53.4906L60.6152 53.5087ZM57.1855 54.2916C57.1846 54.2505 57.1729 54.21 57.1503 54.1751C57.3369 54.1576 57.5226 54.1351 57.7078 54.1078C57.529 54.1629 57.3535 54.2226 57.1855 54.2916ZM41.7753 50.4406C41.3892 50.5211 41.0046 50.6078 40.6249 50.7113C40.5001 50.7326 40.3753 50.7537 40.2505 50.7741C40.7782 50.6391 41.3108 50.5233 41.847 50.4251C41.8232 50.4304 41.7989 50.4357 41.7753 50.4406ZM43.1316 50.2315C43.1056 50.2309 43.0794 50.2324 43.0532 50.2328C43.1357 50.2215 43.2183 50.2106 43.3009 50.2C43.2445 50.2109 43.188 50.2209 43.1316 50.2315ZM48.0618 49.9172C48.0222 49.9123 47.983 49.9065 47.9436 49.9012L47.9002 49.8635C48.052 49.8593 48.2037 49.8546 48.3555 49.8516C48.2573 49.8727 48.1594 49.894 48.0618 49.9172ZM53.7553 53.4506L53.7696 53.4489L53.7253 53.4923C53.7027 53.5166 53.6899 53.5464 53.6816 53.5775C53.5651 53.5907 53.4493 53.6056 53.333 53.6195C53.4853 53.5765 53.6303 53.5241 53.7553 53.4506ZM56.7659 53.9483C56.7453 53.9332 56.7255 53.918 56.7018 53.9036C56.731 53.8927 56.7597 53.8808 56.7891 53.8699C56.7766 53.8944 56.7685 53.9208 56.7659 53.9483ZM48.3615 55.9618L48.4128 55.9612L48.4154 55.9644L48.361 55.9642L48.3615 55.9618ZM55.4811 54.6526L55.4654 54.6826C55.3385 54.7096 55.2166 54.7352 55.1108 54.7618L55.0612 54.7737C55.2375 54.6896 55.4149 54.6078 55.5936 54.5286C55.5559 54.5695 55.5163 54.6085 55.4811 54.6526ZM43.684 54.7154C43.5703 54.709 43.4566 54.7024 43.3435 54.6954C43.457 54.7026 43.5705 54.709 43.684 54.7154ZM49.6629 52.3809L49.6663 52.3818C49.619 52.4099 49.5624 52.4252 49.497 52.4163C48.9899 52.3468 48.4856 52.3266 47.9828 52.3328C47.95 52.333 47.917 52.3324 47.8844 52.333C47.775 52.3351 47.6657 52.3402 47.5565 52.3449C47.4805 52.3479 47.4042 52.35 47.3282 52.3541L47.2909 52.3556L47.2916 52.3566C46.8674 52.3809 46.4438 52.4203 46.0202 52.465V52.4646C45.9957 52.4672 45.9716 52.4697 45.9472 52.4725C45.6616 52.5029 45.3758 52.5344 45.0898 52.566C44.9701 52.579 44.8502 52.5919 44.7301 52.6043C44.5699 52.6209 44.4094 52.6352 44.249 52.6497C44.1479 52.6588 44.0469 52.669 43.9455 52.6769C43.7358 52.6933 43.5256 52.7053 43.3152 52.7148C43.1746 52.7216 43.0343 52.7293 42.8933 52.7317L42.8767 52.7287C42.8171 52.7536 42.7566 52.7766 42.6976 52.8028C42.7536 52.7781 42.8092 52.7519 42.865 52.7265C42.7577 52.7167 42.6908 52.6497 42.6667 52.5649C41.6877 52.9263 40.8438 53.3976 40.1593 53.9704L40.138 53.9762C40.8323 53.3952 41.6809 52.924 42.6657 52.5592C42.6554 52.5202 42.6556 52.4793 42.6627 52.4401L42.6738 52.4039L42.6808 52.3813L42.6884 52.362L42.704 52.3396L42.7325 52.3028L42.7293 52.3038L42.7317 52.3006L42.7728 52.2729L42.8007 52.2546C42.8275 52.2436 42.8584 52.237 42.8933 52.2363C43.0379 52.234 43.1821 52.2293 43.326 52.2229L43.3263 52.2227H43.3292L43.3337 52.2214C43.5049 52.2135 43.6759 52.2039 43.8465 52.1918C44.2249 52.0943 44.6153 52.0065 45.0267 51.9358C45.0838 51.926 45.1413 51.9177 45.1988 51.9096L45.3055 51.8939L45.2908 51.6792C44.3508 51.6639 43.4246 51.7224 42.5204 51.8545C43.7594 51.67 45.0152 51.6198 46.2481 51.7107L46.2821 51.7714L46.3513 51.7655C47.6743 51.6532 48.9041 51.7354 50.0196 52.0072C49.8786 51.9748 49.7278 51.9435 49.5607 51.9122L49.5568 51.9305C49.5809 51.9335 49.6047 51.9354 49.6286 51.9386C49.7246 51.9518 49.7777 52.0048 49.7975 52.0711L49.7938 52.0702L49.7975 52.0832L49.7994 52.0838C49.8234 52.1882 49.7696 52.3191 49.6629 52.3809ZM51.9541 52.8396L51.9494 52.8486C51.5062 52.9071 51.0446 52.698 50.5978 52.497C50.4453 52.4284 50.2896 52.3581 50.1348 52.2989C50.3233 52.3637 50.516 52.4384 50.723 52.5221L50.8691 52.5828C51.2024 52.7223 51.5787 52.8807 51.9541 52.8396ZM44.5397 54.759C44.4038 54.7529 44.2673 54.7467 44.1332 54.7399C44.2688 54.7467 44.4043 54.7531 44.5397 54.759ZM41.7789 53.2619C41.2951 53.5345 40.8302 53.8454 40.3876 54.1947L40.4106 54.2236L40.3802 54.2192L40.3619 54.2043C40.8087 53.8516 41.2842 53.5396 41.7789 53.2619ZM49.6752 52.6394C49.6586 52.6286 49.6401 52.6194 49.6196 52.6118C49.6477 52.6118 49.6759 52.6115 49.704 52.6115L49.6752 52.6394ZM50.5151 52.8087L50.53 52.7977C50.555 52.78 50.5805 52.7636 50.6059 52.7466L50.6169 52.7451L50.6205 52.7438L50.6568 52.76C50.6159 52.7757 50.5752 52.7919 50.5343 52.8077L50.5151 52.8087ZM41.7135 53.7206C41.8059 53.7051 41.8984 53.6904 41.9906 53.6729L42.0261 53.7128C41.9218 53.7164 41.8174 53.7194 41.7135 53.7206ZM52.1102 55.4169C52.0567 55.4139 52.0031 55.4115 51.9494 55.4088C52.0597 55.3915 52.1758 55.3711 52.2946 55.3464C52.2239 55.3753 52.1658 55.3996 52.1209 55.419L52.1102 55.4169ZM37.5005 52.567C36.7565 52.9291 36.066 53.3488 35.4666 53.8188L35.4649 53.7924C36.2181 53.2236 37.0738 52.728 38.0112 52.3185L37.5005 52.567ZM43.3229 55.4844C43.0662 55.4405 42.81 55.3909 42.5543 55.3389C42.4697 55.3219 42.3852 55.3046 42.3009 55.2867L42.2593 55.2778C41.988 55.2197 41.7165 55.1583 41.4458 55.0925C40.6547 54.8996 39.8672 54.6751 39.0835 54.4298C38.7464 54.324 38.4099 54.2153 38.0745 54.1027C37.9686 54.0671 37.9177 53.9847 37.9073 53.8976L37.9056 53.8818C37.9039 53.8544 37.9056 53.8265 37.9116 53.7996C37.9209 53.76 37.9382 53.7228 37.9627 53.6921C37.938 53.6759 37.9118 53.6612 37.8871 53.6448L37.9639 53.6906C38.0008 53.6448 38.0536 53.6144 38.1185 53.6125L38.1151 53.5722L38.2951 53.5501L38.1897 53.4023C38.1565 53.3556 38.1243 53.3077 38.0953 53.2566L38.0449 53.1667L37.9529 53.2127C37.4358 53.4721 37.1583 53.7051 37.1051 53.9249C37.081 54.0235 37.101 54.1208 37.1664 54.1908L37.1423 54.193C37.0985 54.1327 37.0731 54.072 37.0676 54.0128L37.0531 53.9308L36.9792 53.9123L36.9935 53.8565L37.3266 53.5714C37.8208 53.1486 38.8354 52.8096 39.2685 52.6648L39.4003 52.6203C39.7249 52.5076 40.0541 52.4079 40.3855 52.3149C40.1817 52.3734 39.9794 52.4359 39.7786 52.5027L39.7179 52.5227C39.4561 52.6088 38.7613 52.8371 38.1616 53.1126L38.0534 53.1625L38.1134 53.2653C38.2169 53.4423 38.3477 53.5912 38.4963 53.7202C38.6024 53.7551 38.7089 53.7886 38.8149 53.8229L38.8192 53.826C38.8809 53.8459 38.9429 53.8644 39.0047 53.8842C39.1278 53.9234 39.2511 53.9619 39.3746 54C39.4766 54.0318 39.5786 54.0631 39.6806 54.0939C39.763 54.1189 39.8454 54.144 39.9279 54.1683L39.9281 54.1693C40.0533 54.2064 40.1787 54.242 40.3042 54.2775L40.3052 54.2779L40.3039 54.2765C40.334 54.2852 40.3642 54.2939 40.3944 54.3024L40.3921 54.3031C40.4281 54.3131 40.4639 54.3237 40.4999 54.334C40.5197 54.3399 40.5393 54.3457 40.5591 54.351L40.5695 54.3523C40.7861 54.4123 41.0029 54.4705 41.2199 54.526C41.2804 54.5309 41.3404 54.5361 41.3986 54.5407C41.5395 54.552 41.6748 54.5631 41.8023 54.5752C42.2583 54.6189 42.7161 54.6545 43.1744 54.6845C42.573 54.6466 41.9797 54.6019 41.3841 54.5465L41.347 54.5431C41.3161 54.5403 41.281 54.5367 41.2491 54.5337C41.4754 54.5914 41.7024 54.6457 41.9295 54.6979H41.9278L41.9384 54.7003C42.1599 54.7509 42.3818 54.7984 42.6039 54.8438L42.6009 54.8442C42.6201 54.8483 42.6395 54.8517 42.6588 54.8557C42.684 54.8608 42.7091 54.8668 42.7342 54.8717L42.7376 54.8721C42.8086 54.8864 42.8797 54.8994 42.9508 54.9132L42.9306 54.9121C42.9832 54.9224 43.0362 54.9302 43.089 54.94C43.2886 54.9775 43.4883 55.0131 43.6883 55.0448H43.6887L43.7107 55.0487L43.7207 55.0506H43.7241C43.98 55.0908 44.2362 55.127 44.4926 55.1581C45.1965 55.1519 45.9012 55.1264 46.5952 55.0979L47.2428 55.0721L47.2424 54.9639L47.2671 54.9628L47.2424 54.9622L47.2417 54.8559C46.3528 54.831 45.5231 54.8031 44.7239 54.7675C45.6799 54.808 46.632 54.8323 47.5682 54.8559L48.2309 54.8866L48.1581 55.0431L48.3308 55.0399C48.7569 55.0325 49.1307 55.0335 49.4789 55.0525C48.5289 55.0284 47.5273 55.0678 46.5586 55.1064C46.043 55.127 45.5246 55.1477 45.0065 55.1594L45.0061 55.212C45.1703 55.228 45.3347 55.2405 45.4991 55.2522L45.4608 55.2535C45.4967 55.2563 45.5329 55.2571 45.5689 55.2595C45.6601 55.2657 45.7514 55.2697 45.8428 55.2744C45.9254 55.2789 46.0081 55.2848 46.0909 55.288H46.0911L46.1424 55.2908C46.188 55.2912 46.2338 55.2923 46.2792 55.2923L46.2747 55.291C46.6601 55.3021 47.0458 55.3006 47.4321 55.2857L47.4523 55.2855L47.4856 55.2833H47.5081C47.5473 55.2816 47.5865 55.2776 47.6255 55.2755C47.7893 55.2672 47.9528 55.2565 48.1168 55.2431L48.1204 55.2429C48.1494 55.2405 48.1779 55.2397 48.2069 55.2371C48.2446 55.2337 48.2825 55.2286 48.3202 55.225C48.482 55.2097 48.6441 55.1911 48.8061 55.1705C48.8479 55.1651 48.8896 55.1622 48.9316 55.1564L48.9245 55.1566L48.9546 55.1532L48.9412 55.1534C49.1554 55.124 49.3696 55.0906 49.5839 55.0519L49.5843 55.0555C49.9644 54.9867 50.345 54.9041 50.7258 54.8042C50.8529 54.771 50.9798 54.7356 51.1067 54.6983C51.138 54.6892 51.1672 54.6873 51.1947 54.6888L51.2055 54.689C51.2309 54.6919 51.2541 54.6992 51.2754 54.7098L51.2869 54.7156C51.3071 54.7273 51.3254 54.7416 51.3412 54.7588L51.348 54.7669C51.3636 54.7856 51.3774 54.8065 51.3876 54.8293L51.3878 54.8302C51.3987 54.8544 51.4057 54.8806 51.4094 54.907L51.4096 54.9087C51.413 54.9347 51.4123 54.9613 51.4081 54.9869L51.4074 54.9918C51.4027 55.0171 51.3942 55.0418 51.3817 55.0646L51.3795 55.0685C51.3661 55.0915 51.3487 55.113 51.3263 55.1309C51.3022 55.1498 51.2737 55.1658 51.2386 55.176C50.9206 55.2693 50.6029 55.3474 50.2854 55.4186C50.1503 55.4488 50.0149 55.479 49.8799 55.5054C49.7985 55.5214 49.7174 55.5344 49.636 55.5489C49.5076 55.5717 49.3792 55.5951 49.2508 55.6147C49.1571 55.629 49.0636 55.6403 48.9701 55.6526C48.8917 55.663 48.8136 55.6735 48.7354 55.6828C48.5295 55.7071 48.3238 55.7274 48.1181 55.7437C48.0802 55.7467 48.042 55.7512 48.0039 55.7538C47.7677 55.7708 47.5318 55.7817 47.2958 55.7885C47.2183 55.7908 47.1406 55.7912 47.0628 55.7925C46.8955 55.7951 46.7279 55.7957 46.5607 55.7936C46.4717 55.7925 46.3827 55.7908 46.2934 55.7883C46.1101 55.7831 45.9267 55.7757 45.7434 55.7653C45.685 55.7619 45.6266 55.7593 45.5685 55.7555C44.8178 55.7058 44.0691 55.6126 43.3229 55.4844ZM55.6905 53.3484L55.7201 53.395C55.6928 53.3967 55.6656 53.3974 55.6381 53.3993L55.6905 53.3484ZM42.237 50.6802C42.4344 50.6302 42.6335 50.585 42.8333 50.5426C42.9789 50.512 43.1252 50.4828 43.2722 50.4562C43.3241 50.4468 43.3763 50.4383 43.4283 50.4293C43.5599 50.4072 43.6919 50.3865 43.8242 50.3678C43.8819 50.3597 43.9396 50.3516 43.9975 50.3442C44.1304 50.3269 44.2639 50.3122 44.3977 50.2988C44.4513 50.2933 44.5048 50.2871 44.5584 50.2822C44.7437 50.2658 44.9294 50.2522 45.1164 50.2432C45.3008 50.2343 45.3747 50.3942 45.3453 50.535L45.3434 50.5448L45.3277 50.5893C45.3004 50.6498 45.2521 50.7007 45.179 50.7226L45.2418 50.7162C46.1337 50.6336 47.1747 50.6076 48.1274 51.0188L48.1063 51.0327C47.2113 50.6334 46.2387 50.6476 45.4912 50.7045L45.4388 50.7043L45.4109 50.7567C45.3223 50.7524 45.2335 50.7503 45.1445 50.7481L45.0372 50.7464L44.7735 50.7752C44.2139 50.8412 43.6615 50.9089 43.1146 50.9862C42.6725 51.0736 42.2368 51.1834 41.8055 51.3097L41.7834 51.3136C41.7429 51.3255 41.7033 51.3397 41.6628 51.3519C41.5172 51.3962 41.3719 51.4426 41.2271 51.491C41.1779 51.5074 41.1279 51.5216 41.0789 51.5384C41.058 51.5459 41.0376 51.5542 41.0167 51.5614C40.8172 51.6311 40.6185 51.7037 40.4211 51.781L40.393 51.7912L40.3998 51.7891L40.381 51.7961L40.3925 51.7925C39.8797 51.994 39.3737 52.2195 38.8741 52.4665C41.5225 51.3613 44.4741 50.8427 47.1659 51.0391C44.3974 50.845 41.3762 51.3987 38.6693 52.57C38.5856 52.6122 38.5019 52.6543 38.4186 52.698C38.3824 52.717 38.3468 52.7261 38.3128 52.728C37.9665 52.8863 37.6251 53.0532 37.2914 53.2319L37.2635 53.2468L37.2363 53.2958C37.209 53.3443 37.182 53.3929 37.1583 53.444L37.052 53.674C37.0661 53.6352 37.0816 53.5948 37.0991 53.5524L37.2167 53.2647L36.946 53.4174C36.5069 53.6653 36.0805 53.9315 35.6757 54.2096L35.6872 54.1908C36.1506 53.8716 36.6681 53.5569 37.2245 53.2553L37.2507 53.2413L37.2593 53.2272L37.6677 53.0204C37.8694 52.9186 38.0738 52.8211 38.2798 52.7265C38.0936 52.7095 37.9701 52.4682 38.0983 52.3251C37.8807 52.491 37.6907 52.6682 37.5359 52.8552L37.3653 53.0611C37.4411 52.9521 37.5276 52.8452 37.627 52.7376L38.0165 52.3164C38.0749 52.2908 38.1335 52.2657 38.1924 52.241L38.2127 52.2299C38.7366 51.8626 39.4044 51.5644 40.2464 51.3195C40.5825 51.1883 40.9217 51.0684 41.2642 50.959L41.2663 50.9586L41.281 50.9539C41.4345 50.9049 41.5887 50.858 41.7438 50.8133C41.9073 50.7665 42.0717 50.722 42.237 50.6802ZM33.9827 53.9374C34.1215 53.9119 34.2599 53.8784 34.3975 53.839L34.3558 53.8812L34.3502 53.8842C34.3042 53.9157 34.2829 53.9611 34.2753 54.0081C34.2423 54.0071 34.2088 54.0071 34.1756 54.0071C34.1124 53.9815 34.048 53.9583 33.9827 53.9374ZM55.1772 50.3557L55.176 50.358C55.0799 50.3431 54.992 50.329 54.9225 50.312C54.8112 50.2845 54.7002 50.2577 54.5893 50.2311C54.7871 50.2681 54.9832 50.3088 55.1772 50.3557ZM60.599 53.0728L60.6256 53.0734L60.6233 53.1056L60.599 53.0728ZM61.5641 53.7023L61.5605 53.6489L61.5618 53.6469C61.5984 53.6384 61.6333 53.6301 61.6655 53.6229L61.6927 53.6431C61.6504 53.6636 61.6076 53.6838 61.5641 53.7023ZM34.7231 48.1511C35.3462 47.9707 35.8944 47.5929 36.5107 47.4053C37.1044 47.2245 37.7252 47.0556 38.3321 46.9262C38.4252 46.9061 38.5166 46.8842 38.6075 46.8614L38.6403 46.8555C38.8873 46.825 39.1344 46.8003 39.3799 46.7803C40.4464 46.6932 41.517 46.7907 42.5675 46.5859C43.1208 46.4779 43.6913 46.411 44.2492 46.329C44.7646 46.2532 45.2981 46.3064 45.8172 46.3082C46.9342 46.3118 48.0512 46.3156 49.168 46.319C50.2751 46.3224 51.404 46.2737 52.4812 46.5575C52.9233 46.6738 53.342 46.674 53.7862 46.7364C54.2926 46.8076 54.7992 46.8699 55.3082 46.9228C55.8413 46.9777 56.3404 47.1632 56.8592 47.2807C57.4135 47.4062 57.9297 47.6174 58.4911 47.7199C59.0597 47.8236 59.607 47.903 60.1479 48.1136C60.6403 48.3055 61.1467 48.416 61.6333 48.609C61.8346 48.7272 62.0271 48.8601 62.2345 48.9704C62.5522 49.139 62.8453 49.3011 63.1311 49.5008C63.176 49.5509 63.2194 49.6026 63.2684 49.6525C63.5163 49.9055 63.7638 50.1014 63.9501 50.411C64.1171 50.6883 64.1799 50.983 64.2329 51.2978C64.235 51.396 64.2346 51.4931 64.234 51.5853C64.2336 51.6473 64.2336 51.7129 64.231 51.7795C64.1803 52.0461 64.0468 52.2804 63.8668 52.4844C63.7653 52.5596 63.6562 52.632 63.5717 52.6948C63.331 52.8735 63.0789 53 62.8131 53.1143C62.5414 52.9216 62.3061 52.659 62.0124 52.4831C61.6033 52.238 61.1774 52.0142 60.7638 51.7748C60.3741 51.5493 59.9735 51.3711 59.5536 51.2133C58.9166 50.9021 58.3359 50.7298 57.6248 50.5682C57.5238 50.5454 57.4246 50.5184 57.3243 50.4932C56.9627 50.3382 56.4912 50.1661 56.0653 50.1178C55.6472 49.9847 55.2241 49.8695 54.7888 49.7964C53.7312 49.6184 52.6424 49.5134 51.5723 49.441C49.369 49.2921 47.1297 49.3956 44.9318 49.5784C42.7804 49.757 40.6751 50.1259 38.6224 50.7997C38.3941 50.8746 38.1645 50.9556 37.9354 51.038C37.6837 51.0359 37.43 51.0646 37.2075 51.1398C37.1306 51.1658 37.1087 51.2778 37.1615 51.3291C36.5514 51.5687 35.9472 51.827 35.3656 52.1007C34.8198 52.3575 34.2874 52.655 33.8019 53.0138C33.6338 53.138 33.4675 53.2679 33.3106 53.4057C33.2126 53.4915 33.1408 53.5863 33.0718 53.6817C32.6448 53.5362 32.2189 53.3026 31.8501 53.0581C31.3671 52.7383 31.0061 52.1986 30.7895 51.672C30.6865 51.4213 30.6132 51.2218 30.632 50.9967C30.6518 50.9015 30.6763 50.8073 30.702 50.7153C30.7101 50.6955 30.7156 50.6768 30.725 50.6564C30.8553 50.3712 31.0434 50.098 31.2538 49.868C31.4103 49.6968 31.5858 49.5405 31.7685 49.3929C32.3375 48.9978 32.9643 48.6829 33.6151 48.4597C33.6728 48.4399 33.7314 48.4201 33.7893 48.4003C34.0992 48.3157 34.4122 48.2412 34.7231 48.1511ZM59.0687 68.6037L59.0192 68.595L58.97 68.5822C59.0222 68.5763 59.0742 68.5688 59.1264 68.5622C59.1061 68.575 59.0868 68.5886 59.0687 68.6037ZM60.3901 68.3893L60.3598 68.3752C60.4052 68.3669 60.4508 68.3608 60.4963 68.352C60.4612 68.3646 60.4254 68.3765 60.3901 68.3893ZM63.6388 67.4308L63.6386 67.4301L63.6345 67.4316L63.6081 67.4367C63.6366 67.4244 63.6656 67.4122 63.6941 67.3999L63.6405 67.4305L63.6388 67.4308ZM66.0595 66.7508L66.0207 66.7542L66.078 66.729L66.0595 66.7508ZM62.4911 69.8144C62.5369 69.7987 62.5725 69.7669 62.5982 69.7284L62.6451 69.7584C62.5752 69.7867 62.5062 69.8168 62.4364 69.8449C62.3704 69.8713 62.3039 69.8975 62.2377 69.9237L62.2292 69.9028C62.3163 69.8732 62.4045 69.8444 62.4911 69.8144ZM59.4775 70.7459C59.7056 70.6863 59.9335 70.6241 60.1611 70.5591L60.1705 70.5564C60.1679 70.5794 60.1699 70.6024 60.1746 70.6256C59.9437 70.6707 59.7112 70.7101 59.4775 70.7459ZM57.3064 70.0082C57.3839 69.9454 57.458 69.8783 57.5302 69.8099C57.5547 69.8412 57.5871 69.8651 57.6269 69.8768C57.5202 69.9207 57.4133 69.9643 57.3064 70.0082ZM59.8964 69.4575L59.8704 69.427C59.8521 69.3866 59.8217 69.351 59.7795 69.3259L59.7825 69.3252L59.7889 69.3265C59.8841 69.3255 59.9795 69.321 60.0749 69.3167C60.0146 69.3604 59.955 69.4064 59.8964 69.4575ZM58.7856 70.8345L58.8003 70.8434C58.7686 70.8477 58.7371 70.8522 58.7056 70.8564C58.7322 70.8492 58.759 70.8417 58.7856 70.8345ZM56.5432 70.7695L56.5363 70.8264C56.4799 70.8428 56.4237 70.8594 56.3675 70.8762C56.2823 70.8945 56.1967 70.9135 56.1106 70.9335L56.1102 70.932C56.255 70.879 56.3992 70.8245 56.5432 70.7695ZM30.9623 66.7161L30.9369 66.7578L30.9324 66.7599L30.9288 66.7406L30.9623 66.7161ZM30.5395 66.5634L30.4929 66.5932L30.5057 66.5772L30.5361 66.5468L30.5395 66.5634ZM39.2351 71.1822L39.2325 71.1773L39.2487 71.182L39.2351 71.1822ZM38.6233 69.6247L38.583 69.6513C38.55 69.6191 38.5168 69.5874 38.4842 69.5548C38.5078 69.5627 38.5313 69.5708 38.5551 69.5784C38.5781 69.5938 38.6 69.6095 38.6233 69.6247ZM41.1249 71.0336C41.1021 71.0345 41.0793 71.0355 41.0559 71.0359L41.0395 71.0389L41.0418 70.9914C41.0693 71.0059 41.0972 71.0193 41.1249 71.0336ZM30.8558 66.2735C30.8594 66.2953 30.8677 66.3153 30.8777 66.3344L30.8651 66.3438C30.8622 66.3204 30.8583 66.297 30.8558 66.2735ZM30.6177 66.9582L30.6009 66.9454L30.6136 66.9386L30.6177 66.9582ZM59.9854 53.1505L59.9411 53.1024L59.9854 53.1505ZM59.9052 53.0643C59.8707 53.0279 59.8338 52.9932 59.7968 52.9591C59.8355 52.9936 59.8713 53.0289 59.9052 53.0643ZM70.6979 59.3457C70.4884 60.2987 70.087 61.216 69.5624 62.0367C69.2328 62.5527 68.8326 63.0127 68.4108 63.4537C68.2278 63.5964 68.0447 63.7365 67.8679 63.8782C67.2084 64.4069 66.6632 65.0788 65.9713 65.5674C65.9076 65.6123 65.8817 65.6741 65.8812 65.7356C64.7856 66.5246 63.5738 67.1499 62.2831 67.5428C61.3703 67.8207 60.4393 68.0204 59.4967 68.1544C59.4073 68.204 59.2991 68.2338 59.1709 68.2338H58.8712C58.8397 68.2374 58.808 68.2417 58.7765 68.2451C58.706 68.2526 58.6355 68.2592 58.565 68.266L58.5499 68.2506L58.5299 68.2692L58.4771 68.2745C58.4008 68.3224 58.3231 68.368 58.2468 68.4161C58.2138 68.437 58.1819 68.4593 58.1495 68.4809L58.1436 68.486C58.2221 68.4376 58.1306 68.4951 58.1022 68.5222L58.0941 68.5286C58.0714 68.5601 58.045 68.588 58.0166 68.6131C58.0032 68.6385 57.9894 68.6632 57.9745 68.6853L58.0017 68.6825L57.9872 68.7026C57.9662 68.7183 57.9455 68.7345 57.9242 68.7503C57.8665 68.8156 57.8005 68.8625 57.73 68.8925C57.6116 68.9779 57.4934 69.0631 57.3788 69.1517C57.0783 69.384 56.8407 69.6768 56.5266 69.8915C56.4752 69.9252 56.4233 69.9575 56.3717 69.9903C55.6766 70.4096 54.9159 70.6488 54.1495 70.9048C53.76 71.0349 53.3658 71.1714 52.9674 71.2921C52.4616 71.3909 51.963 71.5307 51.4554 71.6224C51.0469 71.6659 50.6391 71.671 50.231 71.7057C49.8292 71.6934 49.4261 71.6623 49.0246 71.6793C48.3261 71.7085 47.6308 71.6665 46.931 71.711C46.8079 71.7189 46.684 71.7247 46.5603 71.731C46.3458 71.6987 46.1316 71.6629 45.9133 71.6463C45.1692 71.5899 44.4388 71.4227 43.7036 71.2943C43.569 71.2436 43.4344 71.194 43.2984 71.1533C43.1723 71.116 43.0469 71.0819 42.9214 71.0491C42.8937 71.017 42.855 70.9961 42.806 71.0027L42.7849 71.0055L42.7694 71.0102C42.5379 70.952 42.306 70.8975 42.0707 70.8396C41.6901 70.7463 41.3453 70.5972 40.9901 70.4518C40.8487 70.3726 40.7077 70.2923 40.571 70.2056C39.9513 69.8131 39.3492 69.3932 38.7302 68.9994C38.0725 68.5814 37.3549 68.1812 36.8255 67.5992C36.2837 67.0033 35.8405 66.2827 35.3822 65.6214C35.1073 65.2249 34.8153 64.8405 34.528 64.4529C34.0774 63.5351 33.6894 62.581 33.1779 61.6953C32.7575 60.9676 32.4689 60.178 32.1525 59.4026C31.8595 58.6845 31.5426 57.98 31.3373 57.2291C31.2591 56.9436 31.1935 56.6569 31.1324 56.3694C30.9454 55.3447 30.7768 54.3197 30.646 53.2877L30.6562 53.2447C30.6667 53.01 30.6562 52.7679 30.6703 52.5315C30.7746 52.6614 30.8943 52.7894 31.0289 52.9154C31.2072 53.1761 31.4176 53.4042 31.6774 53.5965C31.9713 53.8141 32.2933 53.9515 32.6291 54.0908C32.6955 54.1182 32.762 54.1468 32.8286 54.1753C32.8521 54.1981 32.8823 54.2119 32.9153 54.2121C33.2535 54.3567 33.5919 54.5028 33.9439 54.6093C34.0299 54.6351 34.1172 54.6553 34.2048 54.6734C34.9861 54.9609 35.8631 55.2226 36.821 55.4539C37.0227 55.527 37.2233 55.5992 37.4379 55.6371C37.6149 55.6684 37.7919 55.6899 37.9688 55.708C40.2141 56.1639 42.8215 56.4621 45.6264 56.5507C46.1918 56.5952 46.7536 56.6222 47.3263 56.6271C47.5395 56.629 47.7481 56.5979 47.9581 56.5732C48.4239 56.5688 48.8873 56.5602 49.3451 56.5445L49.3683 56.5451C49.728 56.5604 50.0911 56.593 50.4515 56.5709C50.6367 56.5594 50.8182 56.5183 51.0003 56.4791C51.3708 56.471 51.7403 56.4465 52.1157 56.3886C52.1451 56.3839 52.1749 56.3822 52.2045 56.3782C52.3374 56.3754 52.4701 56.3722 52.6026 56.3647C52.7665 56.3556 52.929 56.3588 53.0892 56.3187C53.1222 56.3106 53.1552 56.2996 53.1882 56.2887C53.4734 56.27 53.7587 56.25 54.043 56.2089C54.3009 56.1716 54.5541 56.1203 54.8061 56.0649C56.435 55.8262 57.9366 55.5072 59.2616 55.1174C59.6307 55.0312 59.9967 54.9264 60.3568 54.781C60.4248 54.7537 60.4899 54.723 60.5557 54.693C60.692 54.6432 60.8303 54.5938 60.9612 54.542L61.0649 54.5013L61.0209 54.3989C60.9529 54.2422 60.8607 54.0965 60.7378 53.954L60.7014 53.9146L60.6684 53.9063L60.6637 53.8703L60.638 53.8448C60.5783 53.7845 60.5157 53.7277 60.4493 53.674L60.3 53.575L60.2704 53.7581C60.2565 53.6812 60.2335 53.6042 60.1984 53.5162L60.1854 53.4834L60.1556 53.4649C59.8996 53.3037 59.6268 53.1708 59.3627 53.0419L59.2367 52.9806C59.1072 52.9176 58.9764 52.8539 58.8455 52.7904C58.9456 52.9082 59.0397 53.0343 59.1287 53.1682L59.1338 53.1708C59.1543 53.2004 59.1745 53.23 59.1939 53.2609H59.1932L59.206 53.279C59.2184 53.2992 59.2267 53.3192 59.2328 53.3388L59.2369 53.3554L59.2426 53.3991L59.2429 53.4133C59.2411 53.4517 59.2294 53.4877 59.2098 53.5192C59.1227 53.6578 58.8908 53.7121 58.7782 53.529C58.7286 53.4485 58.6725 53.3765 58.6182 53.3022L58.6153 53.3024L58.6108 53.2964L58.614 53.296L58.5791 53.2534C58.5382 53.1989 58.496 53.1463 58.4526 53.0954L58.4564 53.0941C58.4379 53.0726 58.4176 53.0532 58.3987 53.0321L58.388 53.0191L58.3868 53.0194L58.3689 53L58.3203 52.9448L58.3178 52.945C58.2609 52.8858 58.2023 52.8288 58.1423 52.774L58.1459 52.7745L58.1129 52.7472C58.0548 52.6955 57.9953 52.6454 57.9344 52.5975L57.9489 52.6041C57.921 52.5822 57.891 52.5634 57.8627 52.5423L57.8588 52.5396L57.8267 52.5149C57.7894 52.4876 57.7515 52.4616 57.7132 52.4359C57.6744 52.4097 57.6352 52.3839 57.5954 52.359C57.5728 52.3451 57.5515 52.3294 57.5287 52.3157L57.5251 52.316L57.504 52.3021L57.4979 52.3017C57.1058 52.0711 56.675 51.8983 56.2218 51.7663L56.2201 51.7657L56.2167 51.7648C56.192 51.7576 56.1673 51.7503 56.1422 51.7433L56.1443 51.7448C56.0312 51.7133 55.9175 51.6837 55.8023 51.6566L55.7765 51.6505L55.7559 51.6458C55.6374 51.6183 55.5184 51.593 55.3983 51.5697L55.3668 51.5636C55.3157 51.5536 55.265 51.5427 55.2137 51.5335L55.2294 51.5389L55.1945 51.5329C55.0897 51.5142 54.9849 51.4958 54.8795 51.4795C54.8344 51.4724 54.7892 51.4658 54.7439 51.459C54.7141 51.4547 54.6845 51.4499 54.6546 51.4456L54.6915 51.4486C54.5839 51.433 54.4768 51.42 54.3695 51.4062H54.3691C54.1797 51.3817 53.9915 51.3585 53.8047 51.3372C53.7594 51.3319 53.7142 51.3265 53.6691 51.3214C53.5336 51.3061 53.4005 51.2908 53.2681 51.2756C53.1805 51.2658 53.0941 51.2556 53.0083 51.2454C52.8575 51.2275 52.7082 51.2094 52.5634 51.1896C52.5308 51.1853 52.5055 51.1743 52.4822 51.1615L52.4618 51.1491L52.4211 51.1068L52.4037 51.0718L52.3877 51.0203L52.3873 51.0173C52.3851 50.998 52.3883 50.9779 52.3911 50.9579L52.3962 50.9298L52.4077 50.89L52.412 50.8804C52.4373 50.8231 52.481 50.7724 52.5404 50.742C52.3668 50.7237 52.1939 50.707 52.0225 50.6966L51.9935 50.6355L51.9258 50.6351C51.5359 50.6278 51.2004 50.6713 50.8878 50.7464C51.6843 50.5282 52.57 50.641 53.4267 50.8039C53.7951 50.848 54.1721 50.8923 54.5499 50.9449C54.6331 50.9564 54.7158 50.9707 54.799 50.9833C54.9176 51.0011 55.0365 51.018 55.1547 51.0382L55.1743 51.0414C55.3646 51.0744 55.554 51.1112 55.7416 51.1519C56.3234 51.2788 56.8865 51.4505 57.4031 51.6999C57.4489 51.7214 57.4942 51.7442 57.5394 51.7669C57.7002 51.8502 57.8567 51.9412 58.0066 52.0417C58.0339 52.051 58.0618 52.0593 58.0888 52.0689L58.1649 51.8666C57.7481 51.6986 57.3017 51.538 56.7597 51.3617L56.6249 51.318C56.3988 51.2443 56.1671 51.1687 55.9318 51.094C56.4116 51.2348 56.8733 51.3836 57.323 51.5421C58.1951 51.8494 59.111 52.1946 59.8834 52.7336L59.9009 52.7461C59.8685 52.7244 59.8372 52.7029 59.8027 52.681L59.6786 52.8577L59.6979 52.8743C59.3261 52.5717 58.845 52.3675 58.4085 52.1982C58.2841 52.1498 58.1608 52.1064 58.0388 52.0649C58.3186 52.2563 58.5756 52.4825 58.8067 52.7468C59.1617 52.9165 59.4809 53.0784 59.784 53.2419L60.1822 53.4566L60.1929 53.4794L60.2182 53.4962C60.3049 53.5535 60.3875 53.6144 60.4644 53.6772L60.6784 53.8523L60.6782 53.8752L60.707 53.9072C60.8488 54.0624 60.9553 54.2245 61.0332 54.4021L61.0754 54.4988L61.1729 54.4588C61.829 54.1896 62.3919 53.9038 62.8644 53.6054C62.9128 53.5926 62.9573 53.5656 62.9884 53.5271C63.0154 53.5094 63.0399 53.4913 63.0661 53.4734C63.2539 53.3854 63.4367 53.2879 63.6062 53.1663C63.7648 53.0522 63.9175 52.9214 64.0538 52.7755C64.0734 52.7581 64.0922 52.7402 64.1109 52.7221C64.3002 52.8624 64.0758 53.5505 64.1328 53.9956L64.1209 54.0299L64.1079 54.0761L64.1103 54.1061V54.1498L64.1145 54.1585L64.1103 54.1604V54.2581C64.1663 54.2911 64.2161 54.3333 64.2595 54.3829C64.2879 54.3706 64.3168 54.3589 64.3454 54.3465C64.5709 54.447 64.8765 54.3463 65.1016 54.2912C65.5445 54.1825 65.9834 54.0822 66.4326 53.9981C67.3705 53.8224 68.3396 53.8399 69.1659 54.3872C69.5748 54.6579 69.7298 55.1281 69.9513 55.5436C70.1564 55.9282 70.3457 56.3273 70.4914 56.7393C70.6341 57.1423 70.6526 57.5684 70.6786 57.9915C70.6977 58.3059 70.7571 58.6089 70.7735 58.9213C70.7537 59.0632 70.729 59.2048 70.6979 59.3457ZM70.8129 55.985C70.4765 55.0114 70.0388 54.2624 69.0809 53.8131C68.9645 53.7583 68.8467 53.7115 68.7283 53.6683C68.5524 53.6003 68.3692 53.5464 68.1806 53.5079C66.988 53.2453 65.7351 53.4902 64.5724 53.9611C64.546 53.9515 64.5236 53.9385 64.5102 53.9187L64.4955 53.8804C64.5098 53.7869 64.5181 53.6919 64.5302 53.6063C64.5711 53.3145 64.6165 53.0266 64.6456 52.7334C64.695 52.2359 64.6659 51.7554 64.6116 51.2656L64.6128 51.2437C64.6128 51.0286 64.5705 50.8165 64.4902 50.6078L64.4925 50.5518L64.4676 50.5503C64.4082 50.4091 64.3302 50.2696 64.2357 50.1321C64.1835 50.0435 64.1264 49.9561 64.0598 49.8708C63.8813 49.6427 63.6615 49.4587 63.4237 49.2956C63.3834 49.264 63.3415 49.2325 63.2993 49.201C63.1345 49.0443 62.9407 48.9261 62.736 48.8236C62.5527 48.7127 62.3572 48.6041 62.15 48.4976C62.1365 48.4814 62.1189 48.4671 62.0959 48.4559C62.0054 48.4113 61.9144 48.3743 61.8237 48.3368C61.0268 47.9586 60.08 47.6134 59.0086 47.3097C58.993 47.2954 58.9741 47.2839 58.9475 47.2812C58.9243 47.2786 58.9013 47.2758 58.8783 47.2733C55.8274 46.4257 51.7986 45.9091 47.3872 45.9091C44.8809 45.9091 42.4981 46.076 40.3476 46.3752L40.3133 46.3654C40.0501 46.3503 39.7764 46.293 39.5173 46.3388C39.1974 46.3957 38.8901 46.5183 38.5773 46.602C38.5074 46.6208 38.4367 46.6376 38.3662 46.6553C38.2885 46.6663 38.2099 46.6755 38.133 46.6889C37.7753 46.752 37.4228 46.8561 37.0733 46.9624C36.9896 46.9826 36.9057 47.0022 36.8225 47.0233C36.7345 47.0456 36.6485 47.0705 36.5635 47.0972C35.1842 47.443 33.9803 47.8536 33.0003 48.3136C32.4902 48.5123 32 48.7857 31.5698 49.1322C30.6656 49.7794 30.1626 50.4926 30.1617 51.2414H30.1615C30.1068 53.7526 30.495 56.3181 31.2949 58.8604C31.3537 59.15 31.4538 59.4175 31.5492 59.7052C31.6761 60.0875 31.7811 60.4902 31.9506 60.8548C32.0313 61.0286 32.1242 61.1962 32.2189 61.3625C32.3403 61.6481 32.4668 61.933 32.5986 62.2171C32.6323 62.3008 32.6655 62.3851 32.6998 62.4675C32.785 62.6722 32.868 62.8773 32.9585 63.0781C32.9208 63.0819 32.8836 63.0941 32.8506 63.1111C32.339 63.3737 31.7221 63.472 31.1854 63.6893C30.7421 63.8686 30.3272 64.2287 29.9315 64.5324C29.4317 64.7636 28.9491 65.0154 28.5062 65.3789C27.9044 65.8727 27.4657 66.6875 27.592 67.4848C27.6537 67.8724 27.8861 68.2773 28.21 68.5377C28.3339 68.7202 28.4676 68.8946 28.6105 69.0616C28.8252 69.3761 29.092 69.8065 29.3989 70.0108C29.6557 70.2857 29.936 70.5391 30.2256 70.7776C30.8515 71.2932 31.5166 71.77 32.1908 72.2185C32.9208 72.7043 33.6615 73.2273 34.4627 73.587C35.2611 73.9458 36.0961 74.2323 36.9045 74.5685C37.6818 74.8922 38.4561 75.0553 39.2883 75.1623C40.2628 75.2875 41.2246 75.4881 42.202 75.6016C43.1421 75.7102 44.0831 75.8137 45.0233 75.9204C46.8158 76.1233 48.6279 76.1889 50.428 76.0548C52.1941 75.9227 54.0072 75.8092 55.7446 75.451C56.6224 75.2698 57.4563 74.9427 58.3282 74.7402C58.6987 74.6539 59.0746 74.6034 59.4473 74.5285C59.8577 74.4459 60.1305 74.2286 60.5012 74.0568C61.2157 73.7254 62.0186 73.5631 62.7305 73.2186C63.0397 73.0689 63.3076 72.8482 63.6158 72.6911C63.9855 72.5026 64.3207 72.2696 64.6427 72.0079C65.9332 70.9595 67.4737 69.7467 68.2125 68.2102L68.2276 68.1757C68.4634 67.8946 68.5824 67.5411 68.4759 67.0783L68.4736 67.0713C68.4876 66.7861 68.5053 66.4643 68.4582 66.2118C68.3467 65.6119 67.7559 65.3708 67.2714 65.0814C67.4673 64.9055 67.6586 64.7247 67.8445 64.5383C68.1352 64.2468 68.4269 63.9565 68.7085 63.6577C68.953 63.458 69.1927 63.2538 69.4108 63.0259C70.245 62.1553 70.8302 60.862 70.9989 59.6207C71.0342 59.4752 71.0664 59.3294 71.0923 59.1826C71.2821 58.1112 71.1671 57.0106 70.8129 55.985Z" fill="#442916"/>
<path d="M64.4069 63.6639L64.3903 63.6729C64.0238 63.5885 63.6886 63.4148 63.3229 63.3302C63.0297 63.2621 62.7252 63.1824 62.4251 63.1279C62.5793 62.741 62.7124 62.3427 62.8574 61.963C63.1771 61.1252 63.5732 60.3236 63.8879 59.485C64.0568 59.0352 64.1939 58.5691 64.2721 58.0944C64.29 57.9858 64.2998 57.8776 64.3053 57.7692C64.3345 57.6859 64.3641 57.6029 64.3918 57.5192C64.4442 57.3603 64.4944 57.2004 64.5438 57.0402C64.57 56.9555 64.5864 56.8452 64.613 56.7464C64.6784 56.7263 64.7432 56.7067 64.8026 56.6837C65.1612 56.5451 65.5673 56.4269 65.9532 56.3916C66.562 56.3358 67.4071 56.3839 67.8568 56.8507C68.3577 57.3708 68.3424 58.2922 68.3213 58.9641C68.2943 59.8268 67.8845 60.4061 67.3555 61.0369C66.9814 61.4836 66.6027 61.9313 66.2064 62.3587C65.6751 62.932 65.0962 63.3079 64.4069 63.6639ZM62.1793 63.9195C62.145 63.8803 62.1295 63.8292 62.1306 63.7798C62.1519 63.7391 62.1715 63.6974 62.1917 63.6563L62.2162 63.6332C62.2628 63.6079 62.3097 63.5902 62.3565 63.5764C62.3953 63.5451 62.446 63.5276 62.5073 63.5395L62.5384 63.5466C62.6368 63.543 62.7356 63.56 62.8344 63.5847C62.972 63.619 63.11 63.6709 63.2471 63.7242C63.4275 63.7755 63.6077 63.8285 63.7887 63.8788C63.8159 63.8862 63.8374 63.9005 63.8558 63.9173L63.899 63.941C63.6815 64.0645 63.4692 64.1925 63.2582 64.3249C62.8499 64.3151 62.4283 64.2027 62.1793 63.9195ZM67.1351 55.9731L67.0959 55.9693C66.7552 55.906 66.3906 55.9073 66.0375 55.9465C65.644 55.9733 65.2517 56.0344 64.8816 56.12C64.5783 56.1903 64.2798 56.2783 63.9812 56.366C63.955 56.4346 63.9299 56.5036 63.9058 56.5732L63.902 56.5837L63.893 56.609C63.8847 56.6328 63.876 56.6569 63.8677 56.6808C63.8487 56.7342 63.83 56.7875 63.811 56.8409C63.8006 57.0296 63.7829 57.2183 63.7591 57.4065C63.7167 57.6389 63.6747 57.8714 63.6368 58.1052C63.5227 58.4377 63.3968 58.765 63.2876 59.1C63.2744 59.1407 63.2808 59.1773 63.2974 59.2082C63.0704 59.7723 62.9315 60.3714 62.7477 60.95C62.7179 61.0435 62.6855 61.1363 62.6544 61.2296C62.6021 61.3563 62.5495 61.4828 62.4998 61.6114C62.3439 62.0156 62.2083 62.4562 62.0454 62.8775C62.0347 62.9039 62.0243 62.9303 62.0139 62.9567C61.9185 63.1958 61.8137 63.428 61.6893 63.6418C61.5732 63.8411 61.4482 64.0291 61.3337 64.2293C61.1874 64.4847 61.0051 64.9372 60.7512 65.1016C60.6579 65.1619 60.6341 65.2609 60.6537 65.3635C60.7553 65.8855 61.6474 65.6562 61.9711 65.5527C62.3978 65.4159 62.7682 65.2008 63.1368 64.9476C63.4092 64.7604 63.6752 64.5928 63.9529 64.4314C64.3884 64.2085 64.8151 63.9667 65.2285 63.7044C65.3612 63.6217 65.4906 63.5361 65.6178 63.4471C66.012 63.1805 66.3942 62.8985 66.7582 62.5993C67.9488 61.6201 68.8113 60.2702 68.9917 58.7147C69.1452 57.3912 68.546 56.1577 67.1351 55.9731Z" fill="#442916"/>
<path d="M33.8421 59.5219C33.4087 58.5446 33.1108 57.5096 32.8914 56.465C32.8446 56.2427 32.5185 56.352 32.5573 56.5692C32.7468 57.6244 33.0277 58.6572 33.4511 59.6437C33.6404 60.0851 33.8536 60.5143 34.1019 60.9255C34.3685 61.3663 34.7024 61.8131 34.8602 62.308C34.9448 62.5732 35.3083 62.442 35.2619 62.1828C35.188 61.7731 34.8911 61.3785 34.6732 61.0303C34.3661 60.5394 34.0774 60.053 33.8421 59.5219Z" fill="#442916"/>
<path d="M35.1071 59.6824C35.0204 59.5174 34.7851 59.6709 34.8643 59.834C35.335 60.8015 35.6851 61.7407 36.4272 62.5459C36.6059 62.7397 36.9028 62.4307 36.7096 62.2465C35.9455 61.5175 35.5873 60.596 35.1071 59.6824Z" fill="#442916"/>
<path d="M61.5575 60.7792C61.5933 60.6737 61.4146 60.605 61.3724 60.7093C61.0728 61.45 61.0253 62.2678 60.7763 63.0278C60.6296 63.4765 60.4471 63.9041 60.2046 64.3096C60.0991 64.4853 59.9814 64.6533 59.8749 64.8284C59.8219 64.9155 59.6579 65.3516 59.5391 65.3829C59.3052 65.4447 59.4243 65.8254 59.6504 65.7405C59.9092 65.6434 59.9545 65.3991 60.0721 65.1674C60.3213 64.6763 60.6288 64.2304 60.827 63.712C61.1918 62.7582 61.2325 61.7377 61.5575 60.7792Z" fill="#442916"/>
</g>
<g clip-path="url(#clip1_227_1371)">
<path d="M58.773 27.4667C58.3749 27.9887 57.8049 28.4891 57.2548 28.8443C56.6773 29.2173 55.9835 29.4502 55.3521 29.7176C54.015 30.2835 52.4265 30.267 51.0238 29.9622C50.3314 29.8118 49.6423 29.4064 49.1698 28.8772C49.0225 28.7121 48.9099 28.5361 48.8206 28.3466C49.2114 28.7164 49.7123 28.9834 50.2177 29.1379C50.8628 29.3351 51.5316 29.3806 52.205 29.4173C52.8791 29.4542 53.494 29.2725 54.138 29.1051L54.1704 29.0967C54.4604 29.0525 54.7484 28.998 55.0269 28.9192C55.5806 28.7623 56.0961 28.5288 56.6148 28.2831C57.5729 27.829 58.4867 27.3326 59.1187 26.4544L59.1312 26.4372L59.176 26.3986C59.3447 26.2443 59.4923 26.0821 59.6241 25.9114C59.5172 26.1484 59.3917 26.381 59.2747 26.6068C59.1254 26.8944 58.9696 27.2088 58.773 27.4667ZM51.106 28.8883C50.4965 28.8426 49.9595 28.5949 49.4301 28.3001C49.121 28.1282 48.7781 27.8084 48.633 27.4448C48.6214 27.3438 48.6227 27.241 48.6349 27.1377C48.7032 27.1261 48.7605 27.0734 48.7639 27.0083C49.0725 27.0197 49.5912 27.2607 49.7548 27.3122C50.1484 27.4363 50.5952 27.5185 51.0081 27.4635C51.8827 27.347 52.4228 26.6971 53.0476 26.157C53.351 25.8945 53.4905 25.5485 53.6968 25.2084C53.9627 24.7693 54.3344 24.3883 54.705 24.037C55.0484 23.7117 55.4617 23.482 55.8487 23.2159C56.2423 22.9455 56.6704 22.7075 57.1082 22.5212C57.5394 22.3379 57.8841 22.1238 58.3772 22.1474C58.6069 22.1585 58.8157 22.1899 59.0037 22.2564C59.1367 22.4189 59.2634 22.5822 59.4069 22.7363C59.5969 22.9404 59.7741 23.1002 59.8874 23.3621C59.9031 23.3977 59.9177 23.4331 59.9319 23.4681C59.98 23.6578 60.0046 23.8518 59.9945 24.039C59.9651 24.5766 59.6962 25.0684 59.411 25.5114C59.2589 25.7477 59.1028 25.9717 58.9387 26.1849C58.6047 26.5053 58.2268 26.795 57.8371 27.0882C56.9788 27.7335 56.0034 28.1505 55.0076 28.5391C54.7675 28.6327 54.5234 28.7147 54.2773 28.7879C53.2313 28.9797 52.1649 28.9673 51.106 28.8883ZM57.1018 22.1759C57.0168 22.2191 56.9325 22.2628 56.8453 22.3012C56.5831 22.4174 56.327 22.5742 56.0796 22.7189C55.1825 23.2438 54.317 23.8668 53.6873 24.7058C53.5045 24.9496 53.365 25.2097 53.2092 25.4702C53.0379 25.7561 52.8355 25.9488 52.5977 26.1791C52.1696 26.5933 51.6625 27.0491 51.0547 27.1605C50.7901 27.2092 50.5173 27.1916 50.2452 27.1418C50.3076 27.1313 50.3664 27.1191 50.4199 27.1049C51.2641 26.8845 52.085 26.4615 52.5778 25.7097C52.8748 25.2571 53.0175 24.7652 53.3909 24.3523C53.7925 23.9087 54.2378 23.5232 54.7355 23.1917C55.1299 22.9288 55.5538 22.7571 55.9813 22.5581C56.3567 22.3834 56.7179 22.2467 57.1018 22.1759ZM52.3887 20.8807C53.1143 20.4545 54.0275 20.3285 54.8454 20.1972C55.5836 20.0785 56.3406 20.0665 57.0473 20.3466L57.0544 20.35L57.0767 20.3577C57.1027 20.3685 57.1293 20.3764 57.1548 20.388C57.7913 20.6698 58.2296 21.2316 58.582 21.8066L58.5822 21.8083C58.5674 21.813 58.5453 21.8222 58.5066 21.8433L58.4659 21.8564C58.3358 21.8521 58.2081 21.857 58.0809 21.8712C57.8886 21.8551 57.69 21.824 57.5937 21.8235C56.7597 21.8197 56.0212 22.2107 55.2802 22.5457C54.5468 22.8773 53.9079 23.3945 53.3491 23.9671C53.0171 24.3074 52.7576 24.6654 52.5522 25.0957C52.3344 25.5522 52.0994 25.9232 51.6719 26.2095C51.2729 26.4765 50.916 26.6701 50.4508 26.7879C50.146 26.865 49.8672 26.9388 49.55 26.877C49.2951 26.8274 48.9352 26.687 48.9257 26.3881C48.9232 26.3065 48.8669 26.264 48.8043 26.255C48.7953 25.969 48.8053 25.6835 48.8725 25.4026C48.9854 24.9287 49.188 24.4639 49.4277 24.0409C49.8666 23.2666 50.4598 22.4811 51.1128 21.8737C51.3933 21.6128 51.7125 21.3986 51.9902 21.1387L52.0069 21.1237C52.1331 21.0389 52.2606 20.9563 52.3887 20.8807ZM60.3613 23.8233C60.3626 23.7649 60.3641 23.7067 60.3637 23.6475C60.363 23.5857 60.3298 23.5473 60.2873 23.5278C60.2592 23.4423 60.2259 23.3552 60.1879 23.2704C60.0278 22.7234 59.6872 22.1935 59.1689 21.9806C59.1183 21.9195 59.0687 21.8579 59.0254 21.7943C58.9425 21.6733 58.9062 21.5501 58.8058 21.4383L58.7751 21.4155C58.6457 21.0904 58.456 20.8475 58.2118 20.5728C57.9426 20.2702 57.584 20.2257 57.2387 20.0983C57.1979 20.0789 57.1546 20.0635 57.1123 20.0463C57.0722 20.0285 57.0329 20.0094 56.9938 19.9875C56.1901 19.536 55.2192 19.6654 54.3432 19.8476C53.8648 19.9467 53.3068 20.0143 52.8585 20.2124C52.6681 20.2966 52.4739 20.4064 52.2923 20.5088C52.1374 20.5959 52.0161 20.712 51.8932 20.8292C50.8324 21.4679 49.9934 22.4015 49.3288 23.4413C48.9747 23.9952 48.7083 24.6384 48.4793 25.2543C48.3141 25.6992 48.1752 26.4256 48.3881 26.9077L48.3828 26.9167C48.3233 26.93 48.2703 26.9729 48.266 27.051C48.2594 27.1766 48.272 27.2944 48.2993 27.406C48.3173 27.6187 48.3765 27.8363 48.4154 27.9865C48.5532 28.52 48.8148 28.9546 49.2223 29.3274C50.1671 30.1914 51.4296 30.4324 52.6729 30.4451C52.9986 30.4485 53.3278 30.4616 53.653 30.4402C54.0062 30.417 54.3247 30.3011 54.6687 30.2333C55.2742 30.1142 55.8208 29.8367 56.3824 29.5901C57.4589 29.118 58.6017 28.4084 59.2016 27.3489C59.7183 26.4359 60.1411 25.5327 60.2978 24.5332C60.3643 24.3001 60.4017 24.0714 60.3613 23.8233Z" fill="#442916"/>
<path d="M51.1083 22.9189C50.7795 23.1236 50.5265 23.6308 50.3409 23.954C50.049 24.462 49.9475 25.0176 49.7305 25.5545C49.6852 25.6668 49.8479 25.7597 49.8992 25.6458C50.1005 25.1985 50.2128 24.7201 50.4424 24.2836C50.6188 23.9484 50.8727 23.4473 51.1922 23.205C51.2686 23.1977 51.3435 23.1297 51.3232 23.0299L51.3163 22.996C51.2978 22.9058 51.1785 22.8751 51.1083 22.9189Z" fill="#442916"/>
<path d="M50.9332 22.6081C50.9042 22.6854 51.0368 22.7358 51.0701 22.6599C51.1467 22.4839 51.3751 22.3568 51.5365 22.2667C51.7251 22.1611 51.9155 22.0967 52.1187 22.03C52.2771 21.978 52.1745 21.7364 52.0215 21.8186C51.6588 22.013 51.0937 22.1804 50.9332 22.6081Z" fill="#442916"/>
<path d="M56.7947 26.9952C57.0554 26.7448 57.4357 26.5707 57.7231 26.3417C58.0343 26.0939 58.3208 25.8297 58.5596 25.5101C59.0163 24.8991 59.1569 24.149 59.1329 23.4018C59.129 23.2803 58.9451 23.2889 58.9449 23.4097C58.9427 24.225 58.7088 24.9933 58.15 25.6037C57.8961 25.881 57.5937 26.1134 57.2915 26.3347C57.0705 26.4965 56.7848 26.613 56.5968 26.8087C56.4745 26.9356 56.6691 27.1158 56.7947 26.9952Z" fill="#442916"/>
<path d="M55.5913 26.9053C55.7199 26.8004 55.8774 26.7521 56.0218 26.6731C56.1862 26.5827 56.3405 26.4705 56.4886 26.3559C56.7277 26.1711 56.923 25.9572 57.0968 25.7106C57.1457 25.641 57.0279 25.5552 56.9753 25.6228C56.7614 25.8975 56.5148 26.1224 56.2276 26.3198C55.9924 26.4815 55.6731 26.5591 55.4758 26.7647C55.4059 26.8375 55.5087 26.9729 55.5913 26.9053Z" fill="#442916"/>
<path d="M48.1342 37.3908C47.9108 37.8651 47.5202 38.26 47.1414 38.6139C46.7083 39.0184 45.9864 39.409 45.3925 39.4358C44.7779 39.4635 44.1235 39.4597 43.5158 39.3614C42.8352 39.2517 42.274 38.9506 41.6886 38.6044C41.116 38.2662 40.5951 37.9164 40.1088 37.4582C39.656 37.0313 39.2845 36.5654 38.9825 36.0207C38.6653 35.4483 38.5093 34.7977 38.329 34.171C38.1593 33.5812 38.1033 33.0011 38.1779 32.4118C38.223 32.8668 38.3496 33.3252 38.4881 33.7536C38.6301 34.1931 38.7806 34.6788 39.069 35.0457C39.751 35.9134 40.5168 36.6397 41.4752 37.1899C41.947 37.4608 42.4217 37.7471 42.9106 37.984C43.36 38.2018 43.9156 38.1977 44.4036 38.1964C44.9142 38.1949 45.5035 38.2812 45.9847 38.073C46.0488 38.0454 46.1119 38.0127 46.1746 37.9778C46.3611 37.9499 46.5302 37.829 46.6961 37.7415C46.942 37.6116 47.1918 37.4927 47.4298 37.3485C47.829 37.1071 48.1333 36.8111 48.3894 36.4287C48.3417 36.7564 48.2803 37.08 48.1342 37.3908ZM40.3198 29.3137C40.491 29.2555 40.6853 29.2364 40.8842 29.236C41.1808 29.3356 41.5302 29.3025 41.8169 29.4525C42.1764 29.6407 42.476 30.1155 42.6614 30.4644C43.0848 31.2611 43.0073 32.2105 43.2389 33.0666C43.4578 33.8753 43.8048 34.6386 44.4877 35.1573C44.827 35.4149 45.1775 35.5754 45.5509 35.7694C45.9763 35.9902 46.4128 36.0302 46.8734 36.1381C46.9474 36.1555 47.0186 36.1765 47.0817 36.2049C47.112 36.1898 47.1461 36.1827 47.18 36.1937C47.2687 36.2216 47.3373 36.2538 47.3904 36.289C47.4221 36.301 47.4528 36.3139 47.4822 36.3283L47.4837 36.3291C47.5127 36.3431 47.5404 36.3585 47.5663 36.3748C47.7011 36.4594 47.7915 36.5778 47.7771 36.7467L47.7747 36.7603L47.7745 36.7605C47.7721 36.7798 47.7679 36.7987 47.7627 36.8171L47.7537 36.8455C47.6595 37.1178 47.2884 37.3009 46.9345 37.4155C46.8819 37.4326 46.83 37.4479 46.7791 37.462L46.7695 37.4646L46.7515 37.4736C46.7272 37.4861 46.703 37.4983 46.6781 37.509C46.6474 37.5224 46.6158 37.5346 46.5838 37.5455L46.5437 37.5655L46.51 37.5934C46.4716 37.6249 46.4328 37.6524 46.3939 37.6777L46.3617 37.6973C46.3315 37.7157 46.3012 37.7325 46.2707 37.7475L46.2415 37.7616C46.1593 37.7994 46.0754 37.8269 45.99 37.8456C45.8928 37.867 45.7936 37.8786 45.6915 37.8838C45.6258 37.9014 45.5582 37.9136 45.488 37.9194C45.0213 37.9567 44.5264 37.9372 44.0583 37.9217C43.4902 37.9031 43.0269 37.7666 42.538 37.4854C41.7135 37.0109 40.8778 36.5678 40.1839 35.9031C39.8313 35.5653 39.4538 35.1599 39.189 34.7498C38.9203 34.3341 38.778 33.7851 38.6531 33.3106C38.5046 32.7457 38.3795 32.224 38.4722 31.6353C38.5209 31.3252 38.6233 31.0102 38.7737 30.7233C38.8349 30.6275 38.8958 30.532 38.9512 30.4337C39.0076 30.353 39.0673 30.2751 39.1327 30.2032C39.4463 29.8594 39.8993 29.5502 40.3198 29.3137ZM41.4317 28.8093L41.4422 28.8066L41.4428 28.8115L41.4317 28.8093ZM46.0911 35.6761C45.1949 35.4024 44.3279 34.8854 43.8877 34.0424C43.6014 33.4941 43.4276 32.8432 43.3479 32.2328C43.2754 31.6744 43.2355 31.1218 43.0157 30.5988C42.8442 30.1899 42.5811 29.7603 42.2579 29.4491C42.5487 29.6444 42.7951 29.8375 43.0056 30.1635C43.4904 30.9143 43.9233 31.6946 44.1527 32.5623C44.2693 33.0037 44.4066 33.4473 44.5897 33.8667C44.7397 34.2111 44.9801 34.4813 45.2318 34.7545C45.405 34.9423 45.596 35.1095 45.7585 35.3076C45.8587 35.4297 45.9482 35.558 46.0703 35.6602L46.0911 35.6761ZM43.4711 28.8482C44.0291 28.9561 44.6184 29.1555 45.0904 29.4605C45.311 29.6032 45.528 29.7324 45.7278 29.9075C45.9389 30.0923 46.1126 30.2073 46.3583 30.3457C46.8856 30.6436 47.3262 31.1499 47.6449 31.6594C47.9915 32.2133 48.3327 32.8247 48.4853 33.463C48.6254 34.0491 48.7287 34.7697 48.5819 35.3649C48.5244 35.5984 48.4248 35.8336 48.299 36.057C48.296 36.0791 48.2937 36.1008 48.2904 36.1229C48.2838 36.1688 48.2452 36.2003 48.2029 36.2171L48.1649 36.2737C48.1415 36.254 48.1132 36.2411 48.0797 36.2461C47.9423 36.2658 47.876 36.2862 47.7342 36.187C47.6378 36.1639 47.5406 36.1325 47.4442 36.0971C47.3934 36.078 47.3427 36.0583 47.2927 36.0372L47.2502 36.0192C47.1339 35.969 47.021 35.9149 46.9156 35.8623L46.8824 35.8456C46.8326 35.8205 46.7839 35.7958 46.7384 35.7722C46.7098 35.7576 46.6774 35.7409 46.6442 35.7233L46.624 35.7121L46.5918 35.6943C46.572 35.6836 46.5525 35.6726 46.5321 35.661L46.4976 35.6406C46.4671 35.6224 46.4362 35.6029 46.4057 35.5825L46.3815 35.5668C46.345 35.5415 46.3094 35.5147 46.2757 35.487C46.1902 35.4159 46.1171 35.3363 46.0756 35.2483C46.0239 35.1945 45.9722 35.138 45.9198 35.0751C45.6258 34.7227 45.2515 34.4382 44.9977 34.051C44.4721 33.2486 44.424 32.2066 44.0074 31.3497C43.8102 30.9434 43.5615 30.549 43.3271 30.1627C43.1207 29.8223 42.8925 29.5098 42.5515 29.2948C42.2938 29.1323 41.9809 28.9523 41.657 28.8596C41.6622 28.822 41.6658 28.7812 41.6772 28.7469C41.8278 28.7147 41.9804 28.6943 42.1347 28.6939C42.1736 28.6937 42.201 28.678 42.2184 28.6553C42.3169 28.6686 42.4135 28.6851 42.4998 28.6924C42.8281 28.7199 43.1486 28.7857 43.4711 28.8482ZM48.7467 33.3816C48.6098 32.8065 48.3173 32.2964 48.029 31.786C47.7769 31.3396 47.4528 30.8376 47.0534 30.5097C46.8646 30.3548 46.6562 30.1938 46.4394 30.0807C46.1679 29.9386 45.9692 29.7526 45.731 29.5626C45.3679 29.2731 44.9822 29.0235 44.5401 28.8724C43.9922 28.6853 43.4097 28.5224 42.8346 28.4518C42.7562 28.4421 42.6736 28.4288 42.5891 28.4151C42.5695 28.3984 42.5449 28.3851 42.5103 28.3821C42.4178 28.3739 42.3257 28.3681 42.2347 28.366C42.1371 28.3567 42.0401 28.3531 41.9461 28.3595L41.9165 28.3535C41.6403 28.3434 41.4111 28.4458 41.2126 28.6027C40.5164 28.8248 39.8667 29.2753 39.307 29.6918C38.8194 30.0547 38.4758 30.5846 38.2986 31.1656C38.2058 31.3622 38.1299 31.5671 38.0674 31.7744C37.8738 32.4185 37.82 33.1042 37.9532 33.7647C38.2262 35.1187 38.7055 36.4409 39.6948 37.4354C40.1833 37.9263 40.7074 38.351 41.3065 38.698C41.9244 39.0558 42.5137 39.4326 43.2217 39.5837C43.9079 39.7303 44.6075 39.7009 45.3041 39.706C45.9188 39.7105 46.4497 39.4051 46.9607 39.0895C47.476 38.771 47.9634 38.2351 48.2724 37.7155C48.6102 37.1474 48.7501 36.3802 48.7437 35.7203C48.7579 35.6994 48.7639 35.6748 48.7637 35.6501C48.9879 34.923 48.927 34.1381 48.7467 33.3816Z" fill="#442916"/>
<path d="M39.6703 34.3165C39.7225 34.4339 39.9152 34.3792 39.865 34.256C39.4617 33.2655 39.1555 32.2266 39.3609 31.1538C39.4006 31.1252 39.4096 31.055 39.3564 31.0267L39.3319 31.0138C39.2875 30.9902 39.2319 31.0153 39.2201 31.0645C38.9602 32.1521 39.2235 33.313 39.6703 34.3165Z" fill="#442916"/>
<path d="M40.7893 34.8457C40.4884 34.4279 40.2395 34.0201 40.1914 33.4928C40.1822 33.39 40.0294 33.3954 40.0306 33.4995C40.0375 34.0564 40.3105 34.5118 40.6009 34.9633C40.6786 35.0844 40.8724 34.961 40.7893 34.8457Z" fill="#442916"/>
<path d="M46.9313 32.03C47.2358 32.341 47.3957 32.8792 47.4811 33.287C47.5893 33.8042 47.6365 34.3487 47.6747 34.8756C47.6867 35.0425 47.9474 35.0327 47.9352 34.8646C47.8927 34.2774 47.8359 33.6583 47.6813 33.0883C47.5719 32.6839 47.3605 32.1298 47.0171 31.8697C46.9785 31.8405 46.9044 31.8343 46.8823 31.8914L46.8746 31.9118C46.854 31.9652 46.8866 32.0187 46.9313 32.03Z" fill="#442916"/>
<path d="M47.1294 33.8076C47.1508 34.1338 47.1991 34.4184 47.1206 34.7438C47.0892 34.8745 47.3034 34.9202 47.3214 34.7903C47.3702 34.4407 47.2895 34.1454 47.2442 33.8029C47.2345 33.731 47.1244 33.7327 47.1294 33.8076Z" fill="#442916"/>
<path d="M41.8611 24.8804C41.9056 25.1024 41.9268 25.3826 42.0704 25.5655C42.1835 25.7095 42.4211 25.5726 42.3174 25.411C42.1964 25.2223 42.1706 24.9332 42.1279 24.7184C42.0678 24.4145 42.0328 24.1055 42.0006 23.7975C41.9485 23.2992 41.9227 22.8004 41.9397 22.3C42.0292 22.2562 42.0251 22.0838 41.9077 22.0598C41.8856 22.0551 41.8637 22.0506 41.8416 22.0461C41.7513 22.0274 41.6864 22.0939 41.6811 22.1793C41.6397 22.8227 41.6759 23.4638 41.7463 24.1038C41.7749 24.3641 41.8094 24.6233 41.8611 24.8804Z" fill="#442916"/>
<path d="M43.4907 25.9563C43.6019 26.0966 43.8409 25.9509 43.7296 25.8071C43.5392 25.5616 43.4828 25.2633 43.4197 24.9659C43.3604 24.6866 43.0973 23.7915 43.2999 23.5211C43.3868 23.405 43.225 23.2475 43.1336 23.364C43.0239 23.5041 42.9806 23.6114 42.9831 23.7885C42.9874 24.0836 43.0621 24.4197 43.1095 24.7139C43.1759 25.1283 43.2226 25.617 43.4907 25.9563Z" fill="#442916"/>
<path d="M54.3547 33.9598C54.2433 34.5182 54.1345 35.0807 53.948 35.6202C53.7418 36.2171 53.4149 36.6306 53.0258 37.1131C52.9091 37.2582 53.1252 37.4567 53.2353 37.3103C53.5759 36.8568 53.8978 36.486 54.1012 35.946C54.3367 35.3219 54.4592 34.6654 54.5813 34.0119C54.6086 33.8656 54.3843 33.8124 54.3547 33.9598Z" fill="#442916"/>
<path d="M55.6079 35.7218C55.6433 36.1808 55.5182 36.6045 55.3776 37.035C55.2984 37.2775 55.2673 37.6226 55.1454 37.8608C55.0688 37.879 55.0033 37.9473 55.0353 38.0424L55.0544 38.099C55.0973 38.2258 55.254 38.2271 55.3226 38.125C55.5066 37.8514 55.5218 37.4702 55.6167 37.1599C55.7628 36.6834 55.8952 36.2143 55.8463 35.7117C55.8313 35.5602 55.5958 35.5677 55.6079 35.7218Z" fill="#442916"/>
</g>
<defs>
<clipPath id="clip0_227_1371">
<rect width="43.8697" height="30.3318" fill="white" transform="translate(27.4408 45.8294)"/>
</clipPath>
<clipPath id="clip1_227_1371">
<rect width="22.7488" height="22.7488" fill="white" transform="translate(37.6777 18.3412)"/>
</clipPath>
</defs>
</svg>
